<?xml version="1.0" encoding="iso-8859-1"?>
<!-- Generator: Adobe Illustrator 19.1.0, SVG Export Plug-In . SVG Version: 6.00 Build 0)  -->
<svg xmlns="http://www.w3.org/2000/svg" xmlns:xlink="http://www.w3.org/1999/xlink" version="1.1" id="Capa_1" x="0px" y="0px" viewBox="0 0 64 64" style="enable-background:new 0 0 64 64;" xml:space="preserve" width="512px" height="512px">
<g>
	<g>
		<path d="M18.802,49.042l-10-3l-1.245,0.671l-3,10l1.916,0.574l2.293-7.646C12.788,58.318,21.628,64,31.515,64    c9.987,0,18.912-5.794,22.875-14.619l3.196,7.99l1.857-0.742l-4-10l-1.216-0.587l-10,3l0.574,1.916l7.727-2.318    c-3.526,7.772-11.257,12.951-20.013,13.321V18h8v-2h-8v-2.08c3.387-0.487,6-3.4,6-6.92c0-3.859-3.14-7-7-7s-7,3.141-7,7    c0,3.52,2.613,6.433,6,6.92V16h-8v2h8v43.961c-8.755-0.37-16.486-5.549-20.013-13.321l7.726,2.318L18.802,49.042z M26.515,7    c0-2.757,2.243-5,5-5s5,2.243,5,5s-2.243,5-5,5S26.515,9.757,26.515,7z" fill="#006df0"/>
	</g>
</g>
<g>
</g>
<g>
</g>
<g>
</g>
<g>
</g>
<g>
</g>
<g>
</g>
<g>
</g>
<g>
</g>
<g>
</g>
<g>
</g>
<g>
</g>
<g>
</g>
<g>
</g>
<g>
</g>
<g>
</g>
</svg>
