<svg xmlns="http://www.w3.org/2000/svg" viewBox="0 0 64 64" width="512" height="512"><path d="M18.802 49.042l-10-3-1.245.67-3 10 1.916.575 2.293-7.646C12.788 58.32 21.628 64 31.516 64c9.986 0 18.91-5.794 22.874-14.62l3.196 7.99 1.857-.74-4-10-1.216-.588-10 3 .574 1.916 7.728-2.318c-3.526 7.772-11.257 12.95-20.013 13.32V18h8v-2h-8v-2.08c3.387-.487 6-3.4 6-6.92 0-3.86-3.14-7-7-7s-7 3.14-7 7c0 3.52 2.613 6.433 6 6.92V16h-8v2h8v43.96c-8.755-.37-16.486-5.548-20.013-13.32l7.726 2.318.574-1.916zM26.515 7c0-2.757 2.243-5 5-5s5 2.243 5 5-2.243 5-5 5-5-2.243-5-5z" fill="#006df0"/></svg>