<?xml version="1.0" encoding="iso-8859-1"?>
<!-- Generator: Adobe Illustrator 16.0.0, SVG Export Plug-In . SVG Version: 6.00 Build 0)  -->
<!DOCTYPE svg PUBLIC "-//W3C//DTD SVG 1.1//EN" "http://www.w3.org/Graphics/SVG/1.1/DTD/svg11.dtd">
<svg xmlns="http://www.w3.org/2000/svg" xmlns:xlink="http://www.w3.org/1999/xlink" version="1.1" id="Capa_1" x="0px" y="0px" width="512px" height="512px" viewBox="0 0 43.626 43.627" style="enable-background:new 0 0 43.626 43.627;" xml:space="preserve">
<g>
	<g>
		<path d="M43.407,35.374l-2.12-6.438c-0.333-1.013-1.646-1.271-2.34-0.463l-4.413,5.145c-0.312,0.365,0.033,0.916,0.497,0.791    l1.66-0.443c-0.438,1.917-1.74,5.209-5.546,5.209c-7.071,0-7.258-7.211-7.258-7.284V19.628h5.381c1.022,0,1.854-0.83,1.854-1.854    v-0.717c0-1.023-0.83-1.853-1.854-1.853h-5.381v-2.876c2.419-0.951,4.122-3.337,4.055-6.104C27.859,2.845,25.093,0,21.52,0    c-3.393,0-6.346,2.8-6.346,6.383c0,2.767,1.77,5.128,4.237,6.013v2.809H14.03c-1.024,0-1.854,0.83-1.854,1.853v0.717    c0,1.024,0.83,1.854,1.854,1.854h5.381V31.89c0,0.073-0.079,7.284-7.092,7.284c-3.858,0-5.191-3.366-5.637-5.277l1.913,0.513    c0.464,0.125,0.81-0.426,0.498-0.791L4.68,28.473c-0.694-0.811-2.007-0.55-2.34,0.463l-2.12,6.438    c-0.15,0.457,0.379,0.832,0.761,0.542l1.36-1.039c0.889,3.747,3.684,8.75,9.989,8.75c4.571,0,7.573-2.043,9.369-4.666    c1.836,2.608,4.87,4.666,9.437,4.666c6.396,0,9.134-5.138,9.948-8.905l1.564,1.195C43.028,36.207,43.557,35.83,43.407,35.374z     M21.558,4.45c1.065,0,1.933,0.867,1.933,1.933c0,1.065-0.867,1.932-1.933,1.932c-1.066,0-1.933-0.867-1.933-1.932    C19.625,5.317,20.493,4.45,21.558,4.45z" fill="#006DF0"/>
	</g>
</g>
<g>
</g>
<g>
</g>
<g>
</g>
<g>
</g>
<g>
</g>
<g>
</g>
<g>
</g>
<g>
</g>
<g>
</g>
<g>
</g>
<g>
</g>
<g>
</g>
<g>
</g>
<g>
</g>
<g>
</g>
</svg>
