<svg xmlns="http://www.w3.org/2000/svg" viewBox="0 0 60 60" width="512" height="512"><g fill="#FD581F"><path d="M58 58h-1v-2.36c0-3.534-1.845-6.748-4.827-8.64C55.155 45.108 57 41.895 57 38.36V36h1a1 1 0 0 0 0-2H40a1 1 0 0 0 0 2h1v2.36c0 3.534 1.845 6.748 4.827 8.64C42.845 48.892 41 52.105 41 55.64V58h-1a1 1 0 0 0 0 2h18a1 1 0 0 0 0-2zM43 38.36V36h12v2.36c0 3.32-2.033 6.298-5.197 7.64h-1.605C45.033 44.658 43 41.68 43 38.36zm0 17.28c0-3.32 2.033-6.298 5.197-7.64h1.605C52.967 49.342 55 52.32 55 55.64V58H43v-2.36zM19.058 40.078V17h-2L12 20v2l5.058-3v21.078zM29.744 17.01c-2.03 0-3.757.71-5.18 2.133-1.422 1.423-2.133 3.148-2.133 5.18s.712 3.756 2.135 5.18c1.422 1.422 3.183 2.133 5.282 2.133s3.87-.78 5.316-2.34v2.147c0 2.157-.63 3.79-1.893 4.904-1.262 1.112-2.753 1.67-4.474 1.67h-.74v1.892h.603c1.536 0 2.878-.27 4.025-.81s2.02-1.233 2.615-2.082c1.17-1.652 1.756-3.43 1.756-5.334V24.34c0-2.043-.712-3.774-2.134-5.197-1.42-1.423-3.148-2.134-5.178-2.134zM33.6 28.175c-1.045 1.044-2.324 1.565-3.838 1.565-1.515 0-2.8-.52-3.854-1.564-1.056-1.044-1.583-2.323-1.583-3.837 0-1.516.527-2.8 1.583-3.855 1.055-1.055 2.334-1.583 3.837-1.583s2.782.51 3.837 1.53c1.056 1.022 1.583 2.307 1.583 3.855s-.522 2.845-1.566 3.89z"/><path d="M29 45H3V12h47v18a1 1 0 0 0 2 0V0H1v46a1 1 0 0 0 1 1h27a1 1 0 0 0 0-2zm7-43h14v8H36V2zM20 2h14v8H20V2zM3 2h15v8H3V2z"/></g></svg>