<svg xmlns="http://www.w3.org/2000/svg" width="512" height="512" viewBox="0 0 60.855 60.855"><g fill="#006DF0"><path d="M60.855.132h-3.77l-1.49 1.49-1.49-1.49H50.53l-1.492 1.49-1.488-1.49H43.98l-1.492 1.49-1.49-1.49h-3.573l-1.49 1.49-1.492-1.49H30.87l-1.49 1.49-1.492-1.49h-4.154v26.253l-6.002 5.927 6.002 4.2v24.21h4.002l1.643-1.642 1.642 1.643h3.268l1.644-1.643 1.643 1.643h3.27l1.642-1.643 1.64 1.643h3.27l1.644-1.643 1.643 1.643h3.27l1.642-1.643 1.642 1.643h3.618V.133h-.005zM59.293 59.16h-1.408l-2.29-2.29-2.29 2.29H51.33l-2.29-2.29-2.287 2.29h-1.976l-2.29-2.29-2.287 2.29h-1.976l-2.29-2.29-2.29 2.29H31.67l-2.29-2.29-2.29 2.29H25.3V37.605l.814.57 3.83-3.78-4.644-6.817V1.694h1.945l2.137 2.14 2.138-2.14h2.278l2.14 2.137 2.138-2.137h2.278l2.138 2.137 2.14-2.137h2.277l2.138 2.137 2.14-2.137h2.278L55.6 3.832l2.14-2.137h1.56V59.16h-.007z"/><path d="M39.462 28.935c-.25-.43-.446-1.277-.586-2.54H34.82c-.03 2.775.81 4.738 2.524 5.89.97.64 2.443 1.07 4.415 1.29v2.99h1.457v-3.02c1.553-.12 2.896-.53 4.026-1.23 1.854-1.144 2.78-2.976 2.78-5.5 0-1.912-.676-3.395-2.02-4.447-.817-.63-2.413-1.357-4.787-2.18v-5.723c.99.07 1.674.46 2.048 1.172.218.41.366 1.062.446 1.953h3.95c-.06-2.403-.93-4.142-2.616-5.212-.926-.67-2.202-1.072-3.828-1.202V9.15h-1.46v1.997c-1.02.08-1.796.205-2.326.376-.87.27-1.662.76-2.374 1.472a5.788 5.788 0 0 0-1.284 1.967c-.305.762-.46 1.608-.46 2.54 0 1.412.395 2.618 1.18 3.62.787 1 2.136 1.782 4.05 2.344l1.216.36v6.415c-1.14-.2-1.905-.635-2.296-1.305zm3.755-4.613c.83.31 1.422.61 1.77.9.58.502.874 1.184.874 2.043 0 1.13-.31 1.928-.936 2.39-.354.26-.926.44-1.707.54v-5.873zm-3.08-5.302c-.63-.49-.946-1.156-.946-1.998 0-.77.212-1.38.633-1.825.42-.445 1.066-.678 1.937-.7v5.274c-.73-.23-1.273-.48-1.622-.75zM31.312 46.86h22.05v2.082H31.31zM.723 12.46l16.134 19.06 6.546-6.464L4.553 8.68zM36.212 44.927s-2.198-2.905-1.847-5.908l-4.55-3.552-2.627 2.642 3.088 4.15s3.84.2 5.936 2.667zm-3.24-4.445c-.004.017-.005.033-.01.05a.833.833 0 0 1-.096.184c-.022.034-.042.07-.07.1-.03.034-.066.062-.103.09-.05.04-.098.076-.155.104-.03.014-.06.02-.09.03-.053.017-.1.044-.158.05-.024.002-.047-.006-.07-.006-.01 0-.017.004-.023.004-.018 0-.034-.01-.05-.01a.884.884 0 0 1-.243-.05l-.07-.038a.788.788 0 0 1-.18-.122c-.03-.028-.053-.06-.078-.092-.034-.044-.068-.087-.092-.14a.828.828 0 0 1-.06-.186c-.006-.024-.02-.044-.022-.07l.003-.03c-.003-.027-.017-.052-.015-.08 0-.07.023-.13.038-.19.002-.007.002-.015.005-.02a.8.8 0 0 1 .774-.6c.45.003.812.37.81.818-.002.073-.027.137-.044.204zM0 11.802l3.53-3.486C-.106 8.283 0 11.802 0 11.802zM53.914 41.565c-1.478.864-2.944 1.71-4.598 2.14-.087-.543-.173-1.085-.283-1.625-.03-.32-.31-.612-.66-.502-1.944.614-3.56 1.874-5.467 2.557-.155-.71-.31-1.42-.467-2.128-.078-.348-.48-.454-.765-.312a147.53 147.53 0 0 1-5.145 2.408c-.612.273-.082 1.172.526.9 1.516-.68 3.02-1.382 4.513-2.108.15.686.298 1.37.45 2.055.06.276.378.44.64.364 1.954-.564 3.562-1.81 5.44-2.532.094.57.21 1.13.3 1.713.046.296.388.413.64.364 1.983-.386 3.674-1.39 5.4-2.398.58-.335.055-1.235-.526-.897z"/></g></svg>