<svg xmlns="http://www.w3.org/2000/svg" viewBox="0 0 64 64" width="512" height="512"><g fill="#FD581F"><path d="M54.836 41.196a3.272 3.272 0 0 0-2.664-.72l-19.832 3.45-5.633-5.633A.996.996 0 0 0 26 38H16a1 1 0 0 0-1-1H4v2h6v14H4v2h11a1 1 0 0 0 1-1h2.764l10.69 5.346a3.26 3.26 0 0 0 3.11-.1L54.38 46.52c1-.584 1.62-1.666 1.62-2.823 0-.967-.425-1.88-1.164-2.5zM14 53h-2V39h2v14zm39.37-8.207L31.557 57.518c-.37.216-.82.23-1.206.04l-10.902-5.452A.997.997 0 0 0 19 52h-3V40h9.586l7.88 7.878a1.83 1.83 0 0 1-2.586 2.586l-5.173-5.17-1.414 1.414 5.172 5.17A3.797 3.797 0 0 0 32.172 53 3.833 3.833 0 0 0 36 49.17a3.806 3.806 0 0 0-1.12-2.706l-.81-.81 18.444-3.207a1.268 1.268 0 0 1 .857 2.346zM28.26 25.33l10-11 1.48 1.346-10 11zM30 20.5c1.654 0 3-1.346 3-3s-1.346-3-3-3-3 1.346-3 3 1.346 3 3 3zm0-4a1 1 0 0 1 0 2 1 1 0 0 1 0-2zM35 23.5c0 1.654 1.346 3 3 3s3-1.346 3-3-1.346-3-3-3-3 1.346-3 3zm4 0a1 1 0 0 1-2 0 1 1 0 0 1 2 0z"/><path d="M33.274 41.688a1.004 1.004 0 0 0 1.452 0L50.584 24.98c4.542-4.786 4.542-12.573 0-17.358C48.367 5.286 45.416 4 42.274 4 39.148 4 36.212 5.272 34 7.584 31.788 5.272 28.852 4 25.726 4c-3.142 0-6.093 1.286-8.31 3.622-4.542 4.786-4.542 12.573 0 17.358l15.858 16.708zM18.867 8.998C20.702 7.066 23.137 6 25.727 6c2.588 0 5.023 1.065 6.858 3l.69.726c.378.397 1.07.397 1.45 0l.69-.727c1.835-1.935 4.27-3 6.86-3 2.587 0 5.022 1.065 6.857 3 3.822 4.025 3.822 10.577 0 14.603L34 39.547 18.867 23.603c-3.822-4.026-3.822-10.578 0-14.604z"/><path d="M29 28h2v2h-2zM33 28h2v2h-2zM37 28h2v2h-2z"/></g></svg>