<svg xmlns="http://www.w3.org/2000/svg" viewBox="0 0 510.327 510.327" width="512" height="512"><g fill="#006DF0"><path d="M418.85 249.36c-20.443-30.312-46.58-53.595-67.578-72.303-18.822-16.768-35.416-31.56-39.59-44.336 8.758-3.42 14.982-11.94 14.982-21.894 0-9.704-5.912-18.052-14.324-21.633l17.366-68.112c1.858-6.574.67-12.647-3.265-16.68C322.48.346 316.388-.977 309.726.773c-.127.033-.252.07-.377.11-.326.103-32.697 10.437-43.453 13.526-6.99 2.005-19.26 2.016-26.258.023C228.767 11.335 196.054.96 195.725.854a8.034 8.034 0 0 0-.375-.108c-6.665-1.74-12.757-.41-16.716 3.65-3.96 4.06-5.135 10.187-3.228 16.807.022.08.047.16.072.237l22.042 67.964c-8.16 3.688-13.857 11.9-13.857 21.422 0 9.954 6.224 18.476 14.98 21.895-4.173 12.777-20.767 27.568-39.588 44.336-21 18.708-47.135 41.99-67.578 72.302-24.1 35.73-35.814 74.155-35.814 117.468 0 39.06 15.695 74.9 44.193 100.914 30.52 27.86 73.16 42.586 123.307 42.586h64c50.148 0 92.787-14.726 123.307-42.586 28.5-26.015 44.194-61.854 44.194-100.914 0-43.31-11.715-81.736-35.814-117.467zM271.026 119.326H207.164c-4.687 0-8.5-3.813-8.5-8.5 0-4.682 3.804-8.49 8.484-8.5l.014.002.025-.003h39.948l.023.002c.01 0 .02-.003.032-.003h15.948l.032.002c.008 0 .015-.003.023-.003h39.97c4.688 0 8.5 3.813 8.5 8.5s-3.812 8.5-8.5 8.5h-32.137zM189.508 15c.357-.025.972-.005 1.89.22 3.085.978 33.386 10.578 44.13 13.64 9.678 2.754 24.833 2.742 34.504-.032 10.627-3.052 40.59-12.607 43.666-13.588.903-.222 1.512-.244 1.87-.22.017.38-.025 1.04-.31 2.03-.022.075-.043.15-.062.225l-17.86 70.053h-24.568l5.67-22.68a7.5 7.5 0 0 0-14.552-3.64l-6.58 26.32h-4.29l-6.58-26.32a7.5 7.5 0 1 0-14.55 3.64l5.67 22.68h-24.943L189.79 16.946c-.263-.945-.3-1.577-.282-1.945zm210.85 441.663c-27.71 25.294-66.852 38.664-113.195 38.664h-64c-46.342 0-85.484-13.37-113.193-38.664-25.347-23.138-39.307-55.042-39.307-89.836 0-90.935 56.855-141.586 98.37-178.57 22.38-19.938 40.627-36.198 44.75-53.93h14.974l-4.71 14.128a7.5 7.5 0 0 0 7.118 9.874 7.504 7.504 0 0 0 7.114-5.13l6.29-18.873h21.188l6.29 18.872a7.503 7.503 0 0 0 7.115 5.13c.786 0 1.586-.126 2.373-.388a7.5 7.5 0 0 0 4.744-9.487l-4.71-14.128h14.975c4.124 17.732 22.37 33.993 44.75 53.93 41.516 36.984 98.37 87.635 98.37 178.57 0 34.794-13.96 66.698-39.308 89.836z"/><path d="M255.163 286.327c17.617 0 32.5 9.388 32.5 20.5a7.5 7.5 0 0 0 15 0c0-17.995-17.05-32.462-40-35.076v-8.923a7.5 7.5 0 0 0-15 0v8.924c-22.95 2.615-40 17.082-40 35.077 0 19.907 20.864 35.5 47.5 35.5 17.617 0 32.5 9.388 32.5 20.5s-14.883 20.5-32.5 20.5-32.5-9.388-32.5-20.5a7.5 7.5 0 0 0-15 0c0 17.995 17.05 32.462 40 35.076v8.924a7.5 7.5 0 0 0 15 0v-8.924c22.95-2.614 40-17.08 40-35.076 0-19.907-20.864-35.5-47.5-35.5-17.617 0-32.5-9.388-32.5-20.5s14.883-20.5 32.5-20.5z"/><path d="M255.163 215.327c-65.893 0-119.5 53.607-119.5 119.5s53.607 119.5 119.5 119.5 119.5-53.607 119.5-119.5-53.607-119.5-119.5-119.5zm0 224c-57.622 0-104.5-46.878-104.5-104.5s46.878-104.5 104.5-104.5 104.5 46.878 104.5 104.5-46.878 104.5-104.5 104.5z"/></g></svg>