<svg xmlns="http://www.w3.org/2000/svg" viewBox="0 0 512 512" width="512" height="512"><path d="M47.177 451.432a7.605 7.605 0 0 0-10.646 1.525l-35.01 46.72a7.604 7.604 0 0 0 12.17 9.12l35.01-46.723a7.6 7.6 0 0 0-1.523-10.642zM510.48 499.677l-170.568-227.61a7.605 7.605 0 0 0-6.085-3.045h-11.024V140.015a7.59 7.59 0 0 0 6.94-2.416 7.604 7.604 0 0 0-.592-10.74c-2.225-1.993-4.365-3.245-6.347-4V93.34c14.653-4.52 29.792-1.278 45.73 2.14 10.902 2.336 22.015 4.718 33.35 4.718 8.595 0 17.316-1.37 26.17-5.165a7.605 7.605 0 0 0 2.414-12.333c-6.382-6.46-13.25-14.936-20.914-25.817a389.975 389.975 0 0 0 22.21-36.607 7.602 7.602 0 0 0-1.102-8.726 7.6 7.6 0 0 0-8.598-1.848c-16.086 6.895-32.725 3.33-50.34-.446-15.893-3.407-32.237-6.9-49.065-2.978a7.604 7.604 0 0 0-15.06 1.483v118.413c-2.206 2.12-4.16 5.014-5.85 8.67-5.907 12.784-11.452 17.086-14.38 16.885-3.176-.217-8.08-5.494-11.335-14.912-3.088-12.624-11.27-23.262-22.24-29.614 6.582-6.07 10.737-14.733 10.81-24.354h5.365a7.607 7.607 0 0 0 7.238-9.937L266.96 41.135C281.25 36.82 291.69 23.537 291.69 7.86c0-4.2-3.404-7.605-7.604-7.605h-55.68c-19.164 0-34.755 15.59-34.755 34.756v46.72c0 10.408 4.687 19.743 12.068 26.048a48.028 48.028 0 0 0-2.338 1.537c-3.84.886-14.253 3.45-24.808 7.455-20.277 7.69-30.134 16.58-30.134 27.17 0 11.706 10.632 18.237 19.175 23.485 12.374 7.6 12.802 9.432 10.91 13.12a7.605 7.605 0 0 0 6.757 11.078 7.63 7.63 0 0 0 3.102-.668c1.822 10.28 4.035 21.13 6.52 31.35 5.157 21.207 10.433 36.586 16.15 46.72H178.17a7.604 7.604 0 0 0-6.085 3.043L52.463 431.7a7.605 7.605 0 0 0 12.17 9.12L80.6 419.514l113.23-57.835 56.895 113.788a7.605 7.605 0 0 0 13.602 0l27.88-55.762a7.602 7.602 0 0 0-3.4-10.2 7.602 7.602 0 0 0-10.2 3.4l-21.08 42.16L204 348.017a7.6 7.6 0 0 0-10.26-3.37l-92.41 47.2 80.645-107.618H330.02l80.41 107.3-89.044-46.84a7.6 7.6 0 0 0-10.34 3.33l-20.074 40.147a7.6 7.6 0 0 0 3.4 10.2 7.603 7.603 0 0 0 10.203-3.4l16.603-33.206 110.51 58.135 66.623 88.903a7.596 7.596 0 0 0 6.092 3.045 7.605 7.605 0 0 0 6.08-12.166zM322.805 21.984c14.65-4.522 29.792-1.276 45.73 2.14 13.395 2.87 27.108 5.81 41.16 4.316a374.3 374.3 0 0 1-15.614 24.065 7.607 7.607 0 0 0-.058 8.672c6.152 8.99 11.87 16.61 17.285 23.03-12.736 2.157-25.867-.657-39.585-3.598-10.902-2.338-22.015-4.72-33.35-4.72-5.143 0-10.332.49-15.57 1.698V21.984zM183.108 148.012c0 2.905.278 7.03.79 11.998-2.836-2.17-5.804-3.997-8.325-5.545-5.314-3.265-11.928-7.327-11.928-10.526 0-1.355 3.707-6.63 20.178-12.9.96-.364 1.92-.714 2.875-1.054a46.884 46.884 0 0 0-3.59 18.026zm73.89-80.373a7.604 7.604 0 0 0-7.603 7.603v7.346c0 10.08-8.202 18.283-18.284 18.283h-2.89c-10.677 0-19.364-8.588-19.364-19.146V62.833c9.807-2.684 17.55-10.41 20.233-20.218h22.37l8.067 25.025H257zm-48.143-32.63c0-10.778 8.77-19.548 19.548-19.548h46.536c-2.974 7.013-9.926 11.944-18.01 11.944H222.5a7.604 7.604 0 0 0-7.604 7.604c0 4.71-2.4 8.872-6.042 11.326V35.01zm-10.538 113.002c0-17.607 14.324-31.932 31.93-31.932 17.608 0 31.932 14.324 31.932 31.932 0 4.145-.766 12.347-2.228 22.755h-59.407c-1.462-10.41-2.228-18.61-2.228-22.755zm31.93 52.144a7.604 7.604 0 0 0-7.603 7.604v50.513c-3.822-7.916-8.584-21.03-13.557-42.042-2.45-10.346-4.51-20.732-6.154-30.255h54.63c-1.642 9.52-3.704 19.908-6.152 30.256-4.973 21.012-9.735 34.128-13.557 42.043V207.76c0-4.2-3.405-7.604-7.605-7.604zm77.35 68.866H249.443c5.716-10.134 10.992-25.514 16.15-46.72 4.945-20.34 8.822-43.163 10.648-59.036 3.145 2.142 6.544 3.392 10.092 3.634.452.03.902.047 1.35.047 7.24 0 13.902-4.035 19.912-12.022v114.097z" fill="#006DF0"/></svg>