<?xml version="1.0" encoding="iso-8859-1"?>
<!-- Generator: Adobe Illustrator 19.0.0, SVG Export Plug-In . SVG Version: 6.00 Build 0)  -->
<svg xmlns="http://www.w3.org/2000/svg" xmlns:xlink="http://www.w3.org/1999/xlink" version="1.1" id="Capa_1" x="0px" y="0px" viewBox="0 0 512 512" style="enable-background:new 0 0 512 512;" xml:space="preserve" width="512px" height="512px">
<g>
	<g>
		<path d="M47.177,451.432c-3.362-2.518-8.126-1.836-10.646,1.525L1.519,499.677c-2.517,3.361-1.836,8.126,1.525,10.644    c1.369,1.025,2.968,1.52,4.554,1.52c2.313,0,4.597-1.051,6.091-3.045l35.012-46.722C51.22,458.715,50.537,453.949,47.177,451.432z    " fill="#006DF0"/>
	</g>
</g>
<g>
	<g>
		<path d="M510.481,499.677L339.912,272.066c-1.436-1.916-3.691-3.044-6.085-3.044h-11.024V140.015    c2.489,0.421,5.131-0.397,6.939-2.416c2.802-3.128,2.538-7.935-0.591-10.738c-2.226-1.994-4.366-3.246-6.348-4V93.341    c14.653-4.522,29.792-1.279,45.73,2.138c10.902,2.337,22.015,4.719,33.351,4.719c8.594,0,17.315-1.369,26.17-5.165    c2.311-0.991,3.983-3.061,4.466-5.529c0.483-2.468-0.285-5.016-2.053-6.804c-6.382-6.461-13.249-14.936-20.914-25.817    c8.091-11.822,15.383-23.845,22.21-36.607c1.524-2.848,1.081-6.347-1.102-8.726c-2.183-2.381-5.632-3.121-8.599-1.848    c-16.086,6.895-32.725,3.33-50.339-0.446c-15.894-3.407-32.238-6.901-49.066-2.978c-0.69-3.489-3.764-6.121-7.457-6.121    c-4.2,0-7.604,3.405-7.604,7.604v8.93v71.354v38.128c-2.205,2.119-4.16,5.014-5.85,8.669    c-5.906,12.785-11.451,17.087-14.378,16.886c-3.177-0.217-8.082-5.494-11.336-14.912c-3.088-12.624-11.271-23.262-22.239-29.614    c6.581-6.07,10.736-14.733,10.808-24.354h5.366c2.43,0,4.715-1.162,6.147-3.127c1.431-1.965,1.837-4.496,1.091-6.81    l-10.244-31.777c14.289-4.315,24.727-17.597,24.727-33.275c0-4.199-3.404-7.604-7.604-7.604h-55.68    c-19.164,0-34.755,15.591-34.755,34.756v21.151v0.098V81.73c0,10.408,4.688,19.743,12.069,26.048    c-0.797,0.488-1.573,1.005-2.338,1.537c-3.839,0.886-14.253,3.451-24.808,7.455c-20.277,7.691-30.134,16.58-30.134,27.171    c0,11.705,10.632,18.236,19.175,23.484c12.374,7.601,12.802,9.432,10.909,13.119c-1.918,3.736-0.444,8.32,3.291,10.238    c1.112,0.571,2.298,0.841,3.467,0.841c1.074,0,2.13-0.235,3.102-0.668c1.822,10.281,4.035,21.129,6.521,31.351    c5.156,21.206,10.432,36.585,16.148,46.718h-0.841h-32.038c-2.394,0-4.65,1.128-6.085,3.044L52.463,431.7    c-2.517,3.361-1.836,8.126,1.525,10.645s8.126,1.836,10.646-1.525l15.966-21.306l113.23-57.835l56.895,113.789    c1.289,2.576,3.921,4.203,6.801,4.203s5.513-1.627,6.801-4.203l27.881-55.762c1.879-3.756,0.356-8.324-3.4-10.201    c-3.757-1.879-8.325-0.356-10.202,3.401l-21.08,42.159L204,348.018c-0.907-1.814-2.501-3.191-4.428-3.823    c-1.925-0.634-4.027-0.47-5.832,0.452l-92.41,47.2l80.645-107.617h148.046l80.408,107.299l-89.043-46.84    c-1.81-0.952-3.926-1.135-5.869-0.508c-1.946,0.627-3.558,2.009-4.471,3.837l-20.074,40.149    c-1.879,3.756-0.356,8.324,3.401,10.201c3.758,1.878,8.325,0.356,10.202-3.401l16.603-33.206l110.51,58.134l66.623,88.903    c1.494,1.993,3.779,3.045,6.091,3.045c1.586,0,3.188-0.495,4.554-1.52C512.317,507.804,512.999,503.038,510.481,499.677z     M322.804,21.984c14.651-4.522,29.792-1.276,45.73,2.14c13.395,2.87,27.108,5.81,41.161,4.316    c-4.884,8.202-10.053,16.165-15.615,24.065c-1.827,2.595-1.849,6.053-0.058,8.672c6.152,8.99,11.869,16.61,17.285,23.029    c-12.736,2.158-25.867-0.656-39.585-3.597c-10.902-2.337-22.015-4.719-33.35-4.719c-5.143,0-10.332,0.491-15.569,1.698V21.984z     M183.108,148.012c0,2.905,0.278,7.029,0.791,11.998c-2.837-2.169-5.805-3.997-8.326-5.545    c-5.314-3.265-11.928-7.327-11.928-10.526c0-1.354,3.707-6.63,20.178-12.898c0.959-0.365,1.919-0.715,2.875-1.055    C184.39,135.542,183.108,141.63,183.108,148.012z M256.999,67.639c-4.2,0-7.604,3.405-7.604,7.604v7.346    c0,10.082-8.202,18.284-18.284,18.284h-2.891c-10.677,0-19.364-8.588-19.364-19.146V62.833    c9.807-2.684,17.551-10.41,20.233-20.218h22.371l8.067,25.025H256.999z M208.855,35.01h0.001c0-10.778,8.769-19.548,19.547-19.548    h46.536c-2.973,7.013-9.925,11.944-18.008,11.944h-34.431c-4.2,0-7.604,3.405-7.604,7.604c0,4.711-2.4,8.872-6.042,11.326V35.01z     M198.317,148.012c0-17.607,14.324-31.932,31.931-31.932c17.607,0,31.931,14.324,31.931,31.932c0,4.145-0.765,12.347-2.227,22.755    h-59.407C199.083,160.358,198.317,152.156,198.317,148.012z M230.248,200.156c-4.2,0-7.604,3.405-7.604,7.604v50.513    c-3.822-7.916-8.584-21.03-13.557-42.042c-2.449-10.347-4.511-20.733-6.154-30.256h54.631c-1.643,9.521-3.705,19.908-6.153,30.256    c-4.974,21.011-9.736,34.127-13.558,42.042V207.76C237.852,203.56,234.448,200.156,230.248,200.156z M307.596,269.022h-57.308    h-0.844v-0.001c5.716-10.133,10.992-25.513,16.149-46.718c4.946-20.34,8.823-43.164,10.649-59.037    c3.145,2.142,6.544,3.392,10.092,3.634c0.452,0.031,0.902,0.047,1.35,0.047c7.24,0,13.902-4.035,19.912-12.022V269.022z" fill="#006DF0"/>
	</g>
</g>
<g>
</g>
<g>
</g>
<g>
</g>
<g>
</g>
<g>
</g>
<g>
</g>
<g>
</g>
<g>
</g>
<g>
</g>
<g>
</g>
<g>
</g>
<g>
</g>
<g>
</g>
<g>
</g>
<g>
</g>
</svg>
