<?xml version="1.0" encoding="iso-8859-1"?>
<!-- Generator: Adobe Illustrator 19.0.0, SVG Export Plug-In . SVG Version: 6.00 Build 0)  -->
<svg xmlns="http://www.w3.org/2000/svg" xmlns:xlink="http://www.w3.org/1999/xlink" version="1.1" id="Layer_1" x="0px" y="0px" viewBox="0 0 352.285 352.285" style="enable-background:new 0 0 352.285 352.285;" xml:space="preserve" width="512px" height="512px">
<g>
	<g>
		<path d="M240.863,132.021c12.987-9.547,23.394-30.447,23.394-46.272V30.533h2.838c7.569,0,13.847-6.193,13.847-13.847v-2.838    C280.942,6.278,274.749,0,267.095,0H85.534c-7.569,0-13.847,6.193-13.847,13.847v2.838c0,7.569,6.192,13.847,13.847,13.847h2.494    v55.56c0,15.825,10.407,36.381,23.394,45.927l53.84,39.477v9.289l-53.84,39.477c-12.987,9.29-23.394,29.845-23.394,45.929v55.56    H85.19c-7.569,0-13.847,6.193-13.847,13.847v2.838c0,7.569,6.193,13.847,13.847,13.847h181.561    c7.569,0,13.847-6.193,13.847-13.847V335.6c0-7.569-6.193-13.847-13.847-13.847h-2.494v-55.216    c0-16.083-10.407-36.639-23.394-46.272l-53.582-39.477v-9.289L240.863,132.021z M266.752,327.343c4.558,0,8.17,3.698,8.17,8.171    v2.839c0,4.472-3.698,8.171-8.171,8.171H85.19c-4.472,0-8.171-3.698-8.171-8.171v-2.839c0-4.472,3.698-8.171,8.171-8.171h5.677    h170.552H266.752z M233.638,321.753H118.475v-48.508c0-9.891,6.794-23.136,14.621-29.07l43.089-31.823l42.832,31.823    c7.913,5.935,14.621,19.179,14.621,29.07V321.753z M182.464,184.4l54.701,40.337c11.525,8.429,21.157,27.35,21.157,41.455v55.56    h-18.921v-48.508c0-11.525-7.569-26.748-16.943-33.542l-44.552-32.941c-1.118-0.86-2.236-0.86-3.354,0l-44.81,32.941    c-9.289,7.052-16.943,22.018-16.943,33.542v48.508H93.361v-55.818c0-14.105,9.891-32.941,21.157-41.455l54.959-40.337    c0.602-0.602,1.118-1.376,1.118-2.236v-12.127c0-0.86-0.258-1.72-1.118-2.236l-54.959-40.337    c-11.525-8.171-21.157-27.35-21.157-41.455V30.533h140.364c1.72,0,2.838-1.118,2.838-2.838s-1.118-2.838-2.838-2.838H85.19    c-4.472,0-8.171-3.698-8.171-8.171v-2.838c0-4.472,3.698-8.171,8.171-8.171h181.561c4.472,0,8.171,3.698,8.171,8.171v2.838    c0,4.472-3.698,8.171-8.171,8.171h-5.677c-1.72,0-2.838,1.118-2.838,2.838v58.313c0,13.847-9.547,32.941-21.157,41.455    l-54.701,40.337c-0.602,0.602-1.118,1.376-1.118,2.236v12.127C181.346,183.023,181.604,183.884,182.464,184.4z" fill="#006df0"/>
	</g>
</g>
<g>
	<g>
		<path d="M221.081,107.166h-89.619c-1.376,0-2.494,0.86-2.838,1.978c-0.258,1.118,0.258,2.236,1.118,3.097l44.81,32.941    c0.602,0.258,1.118,0.602,1.72,0.602s1.118-0.258,1.978-0.602l17.718-12.987c1.203-0.775,1.461-2.753,0.601-3.872    c-0.86-1.118-2.838-1.376-3.956-0.602l-16.083,11.869l-36.381-26.748h80.933c1.72,0,2.838-1.118,2.838-2.838    S222.801,107.166,221.081,107.166z" fill="#006df0"/>
	</g>
</g>
<g>
</g>
<g>
</g>
<g>
</g>
<g>
</g>
<g>
</g>
<g>
</g>
<g>
</g>
<g>
</g>
<g>
</g>
<g>
</g>
<g>
</g>
<g>
</g>
<g>
</g>
<g>
</g>
<g>
</g>
</svg>
