<svg xmlns="http://www.w3.org/2000/svg" viewBox="0 0 352.285 352.285" width="512" height="512"><path d="M240.863 132.02c12.987-9.546 23.394-30.446 23.394-46.27V30.532h2.838c7.57 0 13.847-6.193 13.847-13.847v-2.838C280.942 6.278 274.75 0 267.095 0H85.535c-7.57 0-13.848 6.193-13.848 13.847v2.838c0 7.57 6.192 13.847 13.847 13.847h2.494v55.56c0 15.825 10.407 36.38 23.394 45.927l53.84 39.476v9.29l-53.84 39.476c-12.987 9.29-23.394 29.845-23.394 45.93v55.56H85.19c-7.57 0-13.847 6.192-13.847 13.846v2.838c0 7.57 6.193 13.847 13.847 13.847h181.56c7.57 0 13.848-6.193 13.848-13.847V335.6c0-7.57-6.193-13.847-13.847-13.847h-2.493v-55.216c0-16.083-10.407-36.64-23.394-46.272l-53.582-39.477v-9.29l53.583-39.477zm25.89 195.323c4.557 0 8.17 3.698 8.17 8.17v2.84c0 4.472-3.7 8.17-8.172 8.17H85.19c-4.472 0-8.17-3.697-8.17-8.17v-2.84c0-4.47 3.697-8.17 8.17-8.17H266.75zm-33.115-5.59H118.475v-48.508c0-9.89 6.794-23.136 14.62-29.07l43.09-31.823 42.832 31.823c7.913 5.935 14.62 19.18 14.62 29.07v48.508zM182.464 184.4l54.7 40.337c11.526 8.43 21.158 27.35 21.158 41.455v55.56h-18.92v-48.508c0-11.525-7.57-26.748-16.944-33.542l-44.552-32.94c-1.118-.86-2.236-.86-3.354 0l-44.81 32.94c-9.29 7.052-16.943 22.018-16.943 33.542v48.508H93.36v-55.818c0-14.105 9.892-32.94 21.158-41.455l54.96-40.338c.6-.602 1.117-1.376 1.117-2.236V169.78c0-.86-.258-1.72-1.118-2.237l-54.96-40.337c-11.524-8.17-21.156-27.35-21.156-41.455V30.534h140.365c1.72 0 2.838-1.118 2.838-2.838s-1.118-2.838-2.838-2.838H85.19c-4.472 0-8.17-3.698-8.17-8.17v-2.84c0-4.47 3.697-8.17 8.17-8.17h181.56c4.473 0 8.172 3.698 8.172 8.17v2.84c0 4.47-3.698 8.17-8.17 8.17h-5.678c-1.72 0-2.838 1.118-2.838 2.838v58.313c0 13.847-9.547 32.94-21.157 41.455L182.377 167.8c-.602.602-1.118 1.376-1.118 2.236v12.127c.086.86.344 1.72 1.204 2.237z" fill="#006df0"/><path d="M221.08 107.166h-89.618c-1.376 0-2.494.86-2.838 1.978-.258 1.118.258 2.236 1.118 3.097l44.81 32.942c.602.258 1.118.602 1.72.602s1.118-.258 1.978-.602l17.718-12.987c1.203-.775 1.46-2.753.6-3.872-.86-1.118-2.837-1.376-3.955-.602l-16.083 11.87-36.38-26.748h80.932c1.72 0 2.838-1.118 2.838-2.838s-1.12-2.838-2.84-2.838z" fill="#006df0"/></svg>