<svg xmlns="http://www.w3.org/2000/svg" viewBox="0 0 211.686 211.686" width="512" height="512"><path d="M113.133 39.223H9.866C4.426 39.223 0 43.65 0 49.09v62.307c0 5.44 4.425 9.866 9.866 9.866h49.72a3.473 3.473 0 0 0 .002-6.946H9.868c-1.61 0-2.92-1.31-2.92-2.92V49.09c0-1.61 1.31-2.92 2.92-2.92h103.266c1.61 0 2.92 1.31 2.92 2.92v47.693a3.473 3.473 0 0 0 6.946 0V49.09c0-5.44-4.426-9.867-9.867-9.867z" fill="#006DF0"/><path d="M119.526 56.29H3.473A3.473 3.473 0 0 0 0 59.763v20.48a3.473 3.473 0 0 0 3.473 3.473h116.053A3.473 3.473 0 0 0 123 80.243v-20.48a3.472 3.472 0 0 0-3.474-3.473zm-3.473 20.48H6.946V63.236h109.107V76.77zM174.14 15.39c-20.704 0-37.547 16.843-37.547 37.547 0 20.704 16.843 37.547 37.547 37.547 20.702 0 37.547-16.843 37.547-37.547 0-20.704-16.844-37.547-37.547-37.547zm0 68.267c-16.94 0-30.72-13.78-30.72-30.72s13.78-30.72 30.72-30.72c16.937 0 30.72 13.78 30.72 30.72s-13.782 30.72-30.72 30.72z" fill="#006DF0"/><path d="M199.74 83.657h-51.2c-6.586 0-11.947 5.36-11.947 11.947h6.827a5.126 5.126 0 0 1 5.12-5.12h51.2c2.823 0 5.12 2.297 5.12 5.12s-2.297 5.12-5.12 5.12h-29.003v6.827h29.003c6.586 0 11.947-5.36 11.947-11.946s-5.36-11.947-11.947-11.947zM199.74 117.79h-27.45v6.827h27.45a5.126 5.126 0 0 1 5.12 5.12 5.126 5.126 0 0 1-5.12 5.12h-28.614v6.827h28.614c6.586 0 11.947-5.36 11.947-11.947 0-6.586-5.36-11.947-11.947-11.947z" fill="#006DF0"/><path d="M199.74 100.723h-28.225v6.827h28.225a5.126 5.126 0 0 1 5.12 5.12 5.126 5.126 0 0 1-5.12 5.12h-28.225v6.827h28.225c6.586 0 11.947-5.36 11.947-11.947s-5.36-11.947-11.947-11.947zM175.706 51.01c-4.454-1.842-6.35-3.175-6.35-5.836 0-2.05 1.486-4.403 5.428-4.403 3.277 0 5.376 1.13 6.45 1.742l1.28-3.38c-1.484-.87-3.583-1.69-6.655-1.79v-4.965h-3.174v5.17c-4.71.77-7.73 3.993-7.73 8.242 0 4.452 3.223 6.81 8.447 8.855 3.79 1.536 5.786 3.277 5.786 6.093 0 2.917-2.46 5.016-6.094 5.016-2.866 0-5.528-.973-7.37-2.2l-1.23 3.43c1.792 1.28 4.864 2.2 7.834 2.253v5.172h3.222v-5.324c5.274-.874 8.09-4.66 8.09-8.707 0-4.56-2.662-7.218-7.936-9.37z" fill="#006DF0"/><path d="M170.726 93.897H61.5a3.414 3.414 0 0 0-3.413 3.413v81.92a3.414 3.414 0 0 0 3.413 3.413h109.227a3.414 3.414 0 0 0 3.413-3.413V97.31a3.414 3.414 0 0 0-3.414-3.413zm-3.413 81.92h-102.4v-75.093h102.4v75.093z" fill="#006DF0"/><path d="M61.5 107.55h-3.413v61.44H61.5c16.937 0 30.72-13.78 30.72-30.72 0-16.94-13.782-30.72-30.72-30.72zm3.413 54.37v-47.3c11.563 1.662 20.48 11.635 20.48 23.652 0 12.016-8.917 21.987-20.48 23.65zM170.726 114.377c-9.41 0-17.067-7.656-17.067-17.067a3.414 3.414 0 0 0-6.827 0c0 13.175 10.718 23.893 23.893 23.893a3.414 3.414 0 0 0 0-6.826zM170.726 155.337c-13.175 0-23.893 10.718-23.893 23.893a3.414 3.414 0 0 0 6.826 0c0-9.41 7.655-17.067 17.066-17.067a3.414 3.414 0 0 0 0-6.826z" fill="#006DF0"/><path d="M163.9 175.817H61.5a3.413 3.413 0 0 0-.452 6.796l102.4 13.653a3.417 3.417 0 0 0 3.866-3.383V179.23a3.416 3.416 0 0 0-3.414-3.413zm-3.415 13.168l-47.56-6.342h47.56v6.342z" fill="#006DF0"/></svg>