<svg xmlns="http://www.w3.org/2000/svg" viewBox="0 0 482.496 482.496" width="512" height="512"><path d="M392.503 231.424c-43.183 0-78.308 47.865-78.308 106.692 0 58.827 35.125 106.692 78.308 106.692s78.308-47.865 78.308-106.692c0-58.827-35.125-106.692-78.307-106.692zm0 193.692c-32.317 0-58.615-39.03-58.615-87s26.298-87 58.615-87 58.615 39.03 58.615 87-26.298 87-58.615 87zM89.993 37.74c-43.183 0-78.308 47.857-78.308 106.684S46.81 251.116 89.993 251.116c43.173 0 78.298-47.865 78.298-106.692 0-58.827-35.124-106.683-78.297-106.683zm0 193.684c-32.317 0-58.615-39.03-58.615-87s26.298-86.99 58.615-86.99c32.317 0 58.606 39.02 58.606 86.99 0 47.97-26.29 87-58.607 87zM96.278 472.65L369.163.01l17.053 9.846L113.33 482.495z" fill="#fd581f"/></svg>