<?xml version="1.0" encoding="UTF-8"?>
<svg width="32px" height="32px" viewBox="0 0 32 32" version="1.1" xmlns="http://www.w3.org/2000/svg" xmlns:xlink="http://www.w3.org/1999/xlink">
    <!-- Generator: Sketch 49.1 (51147) - http://www.bohemiancoding.com/sketch -->
    <title>icons/general/32px/account-takeover&amp;abuse</title>
    <desc>Created with Sketch.</desc>
    <defs></defs>
    <g id="icons/general/32px/account-takeover&amp;abuse" stroke="none" stroke-width="1" fill="none" fill-rule="evenodd">
        <g id="icons/general/32/account-takeover&amp;abuse">
            <g transform="translate(3.000000, 3.000000)">
                <path d="M18.6875,17.1339187 C18.6875,18.1609187 18.291,21.6059187 13.8555625,21.6059187 C11.1759375,21.6059187 9.7435,20.5488563 8.8595,19.1968562 C7.9755,17.8448562 5.900375,14.6866687 5.900375,14.6866687 C5.5241875,14.0976063 5.6590625,13.3419813 6.202625,12.9958563 C6.7478125,12.6578563 7.49125,12.8552938 7.8723125,13.4467938 L9.1585,15.2172313 L9.1585,7.23116875 C9.1585,6.70141875 9.5850625,6.27241875 10.1115625,6.27241875 C10.6380625,6.27241875 11.064625,6.70141875 11.064625,7.23116875 L11.064625,12.0224813 C11.064625,12.1987938 11.2068125,12.3426063 11.3823125,12.3426063 C11.5578125,12.3426063 11.7,12.1987938 11.7,12.0224813 L11.7,5.95310625 C11.7,5.42335625 12.1265625,4.99516875 12.65225,4.99516875 C13.17875,4.99516875 13.6053125,5.42335625 13.6053125,5.95310625 L13.6053125,12.0224813 C13.6053125,12.1987938 13.7475,12.3426063 13.923,12.3426063 C14.0985,12.3426063 14.2406875,12.1987938 14.2406875,12.0224813 L14.2406875,6.59173125 C14.2406875,6.06279375 14.66725,5.63379375 15.19375,5.63379375 C15.72025,5.63379375 16.1468125,6.06279375 16.1468125,6.59173125 L16.1468125,12.6619188 C16.1468125,12.8374188 16.289,12.9812313 16.4645,12.9812313 C16.6391875,12.9812313 16.781375,12.8374188 16.781375,12.6619188 L16.781375,8.50841875 C16.781375,7.97948125 17.20875,7.55048125 17.7344375,7.55048125 C18.2609375,7.55048125 18.6875,7.97948125 18.6875,8.50841875 L18.6875,17.1339187 Z M25.2858125,6.59823125 L19.4016875,0.71410625 C18.94425,0.25666875 18.3243125,-8.125e-05 17.678375,-8.125e-05 L8.3224375,-8.125e-05 C7.6756875,-8.125e-05 7.05575,0.25666875 6.5983125,0.71410625 L0.7141875,6.59823125 C0.25675,7.05566875 0,7.67560625 0,8.32235625 L0,17.6782937 C0,18.3242313 0.25675,18.9449812 0.7141875,19.4016063 L6.5983125,25.2857312 C7.05575,25.7431687 7.6756875,25.9999187 8.3224375,25.9999187 L17.678375,25.9999187 C18.3243125,25.9999187 18.94425,25.7431687 19.4016875,25.2857312 L25.2858125,19.4016063 C25.74325,18.9449812 26,18.3242313 26,17.6782937 L26,8.32235625 C26,7.67560625 25.74325,7.05566875 25.2858125,6.59823125 Z" id="Fill-1" fill="#6743DF"></path>
                <path d="M23.7501875,7.39854375 L18.601375,2.24973125 C18.2008125,1.84916875 17.658875,1.62491875 17.093375,1.62491875 L8.906625,1.62491875 C8.341125,1.62491875 7.7991875,1.84916875 7.398625,2.24973125 L2.2498125,7.39854375 C1.84925,7.79910625 1.625,8.34104375 1.625,8.90735625 L1.625,17.0932937 C1.625,17.6587937 1.84925,18.2007313 2.2498125,18.6012937 L7.398625,23.7509187 C7.7991875,24.1506687 8.341125,24.3749187 8.906625,24.3749187 L17.093375,24.3749187 C17.658875,24.3749187 18.2008125,24.1506687 18.601375,23.7509187 L23.7501875,18.6012937 C24.15075,18.2007313 24.375,17.6587937 24.375,17.0932937 L24.375,8.90735625 C24.375,8.34104375 24.15075,7.79910625 23.7501875,7.39854375 Z" id="Fill-4" fill="#BFB1EC"></path>
                <path d="M18.6875,17.1339187 C18.6875,18.1609187 18.291,21.6059187 13.8555625,21.6059187 C11.1759375,21.6059187 9.7435,20.5488562 8.8595,19.1968562 C7.9755,17.8448562 5.900375,14.6866687 5.900375,14.6866687 C5.5241875,14.0976062 5.6590625,13.3419812 6.202625,12.9958562 C6.7478125,12.6578562 7.49125,12.8552937 7.8723125,13.4467937 L9.1585,15.2172312 L9.1585,7.23116875 C9.1585,6.70141875 9.5850625,6.27241875 10.1115625,6.27241875 C10.6380625,6.27241875 11.064625,6.70141875 11.064625,7.23116875 L11.064625,12.0224812 C11.064625,12.1987937 11.2068125,12.3426062 11.3823125,12.3426062 C11.5578125,12.3426062 11.7,12.1987937 11.7,12.0224812 L11.7,5.95310625 C11.7,5.42335625 12.1265625,4.99516875 12.65225,4.99516875 C13.17875,4.99516875 13.6053125,5.42335625 13.6053125,5.95310625 L13.6053125,12.0224812 C13.6053125,12.1987937 13.7475,12.3426062 13.923,12.3426062 C14.0985,12.3426062 14.2406875,12.1987937 14.2406875,12.0224812 L14.2406875,6.59173125 C14.2406875,6.06279375 14.66725,5.63379375 15.19375,5.63379375 C15.72025,5.63379375 16.1468125,6.06279375 16.1468125,6.59173125 L16.1468125,12.6619187 C16.1468125,12.8374187 16.289,12.9812312 16.4645,12.9812312 C16.6391875,12.9812312 16.781375,12.8374187 16.781375,12.6619187 L16.781375,8.50841875 C16.781375,7.97948125 17.20875,7.55048125 17.7344375,7.55048125 C18.2609375,7.55048125 18.6875,7.97948125 18.6875,8.50841875 L18.6875,17.1339187 Z" id="Path" fill="#6743DF"></path>
            </g>
        </g>
    </g>
</svg>