<?xml version="1.0" encoding="UTF-8"?>
<svg width="32px" height="32px" viewBox="0 0 32 32" version="1.1" xmlns="http://www.w3.org/2000/svg" xmlns:xlink="http://www.w3.org/1999/xlink">
    <!-- Generator: Sketch 49.1 (51147) - http://www.bohemiancoding.com/sketch -->
    <title>icons/general/32px/all-in-one-place</title>
    <desc>Created with Sketch.</desc>
    <defs></defs>
    <g id="icons/general/32px/all-in-one-place" stroke="none" stroke-width="1" fill="none" fill-rule="evenodd">
        <g id="icons/general/32/all-in-one-place">
            <path d="M11.7420426,29.0666667 L9.40374623,29.0666667 L6.21445461,29.0666667 C5.96891781,28.8284725 5.98107295,28.0701392 6.21445461,27.8222222 L9.40374623,27.8222222 L11.6978227,27.8222222 L10.126633,26.2510325 C9.8836401,26.0080397 9.8836401,25.6140703 10.126633,25.3710774 C10.3696259,25.1280845 10.7635952,25.1280845 11.0065881,25.3710774 L13.4577329,27.8222222 L16.6191293,27.8222222 C20.440754,27.8222222 22.7381045,26.5024304 24.1262393,25.0611111 C24.819091,24.3392363 25.278561,23.5809029 25.5654263,22.9416667 C25.8522909,22.3024304 25.9543957,21.1211807 25.9543957,20.9777778 C24.1481187,20.710417 22.6360004,19.4975696 21.967459,17.8666667 C20.6449629,17.8885415 19.8329889,18.0635415 19.3030184,18.2944444 C18.7390127,18.5399304 18.430268,18.8510415 18.0194192,19.2472222 C17.6085704,19.6434029 17.0907544,20.1222222 16.2496083,20.4527778 C15.5773075,20.7169799 14.7233029,20.8942305 13.5249857,20.9547449 L11.0065881,23.4731425 C10.7635952,23.7161354 10.3696259,23.7161354 10.126633,23.4731425 C9.8836401,23.2301496 9.8836401,22.8361803 10.126633,22.5931874 L11.7420426,20.9777778 L9.40374623,20.9777778 L6.23390308,20.9388889 C6.00052142,20.6909725 5.98836628,19.9715281 6.23390308,19.7333333 L9.40374623,19.7333333 L11.6978227,19.7333333 L10.126633,18.1621437 C9.8836401,17.9191508 9.8836401,17.5251814 10.126633,17.2821886 C10.3696259,17.0391957 10.7635952,17.0391957 11.0065881,17.2821886 L13.436554,19.7121544 C14.5539909,19.6552684 15.2876225,19.489589 15.8022934,19.2861111 C16.4416621,19.0333333 16.7674237,18.7343748 17.1636865,18.3527778 C17.5599492,17.9711807 18.0412986,17.504514 18.8168066,17.1666667 C19.4877788,16.875 20.3824085,16.6878474 21.636835,16.6416667 C21.6100932,16.4302082 21.597938,16.2187503 21.597938,16 C20.365391,15.9319444 19.4804855,15.7447918 18.8168066,15.4555556 C18.0412986,15.1177082 17.5599492,14.6510415 17.1636865,14.2694444 C16.7674237,13.8878474 16.4416621,13.5888889 15.8022934,13.3361111 C15.2941017,13.1351948 14.5724276,12.9711313 13.4785739,12.9122678 L11.0065881,15.3842536 C10.7635952,15.6272465 10.3696259,15.6272465 10.126633,15.3842536 C9.8836401,15.1412608 9.8836401,14.7472914 10.126633,14.5042985 L11.7420426,12.8888889 L9.40374623,12.8888889 L6.21445461,12.8888889 C5.98107295,12.6409725 5.98836628,11.8826392 6.23390308,11.6444444 L9.40374623,11.6444444 L11.6978227,11.6444444 L10.126633,10.0732548 C9.8836401,9.83026188 9.8836401,9.43629256 10.126633,9.19329966 C10.3696259,8.95030677 10.7635952,8.95030677 11.0065881,9.19329966 L13.4784844,11.6651959 C14.701261,11.7234376 15.5686433,11.9018374 16.2496083,12.1694444 C17.0907544,12.5 17.6085704,12.9788193 18.0194192,13.375 C18.430268,13.7711807 18.7390127,14.0822918 19.3030184,14.3277778 C19.8062477,14.5465281 20.5695999,14.7020836 21.7729743,14.7361111 C22.2859279,12.8038193 23.9317546,11.3163193 25.9543957,11.0611111 C25.9543957,10.8788193 25.8522909,10.3197918 25.5654263,9.68055556 C25.278561,9.04131929 24.819091,8.28298596 24.1262393,7.56111111 C22.7381045,6.11979182 20.440754,4.8 16.6191293,4.8 L13.5019529,4.8 L11.0065881,7.29536475 C10.7635952,7.53835765 10.3696259,7.53835765 10.126633,7.29536475 C9.8836401,7.05237186 9.8836401,6.65840254 10.126633,6.41540965 L11.7420426,4.8 L9.40374623,4.8 L6.21445461,4.8 C5.98107295,4.55208364 5.98836628,3.79375031 6.23390308,3.55555556 L9.40374623,3.55555556 L11.6978227,3.55555556 L10.126633,1.98436588 C9.8836401,1.74137299 9.8836401,1.34740367 10.126633,1.10441077 C10.3696259,0.861417881 10.7635952,0.861417881 11.0065881,1.10441077 L13.4577329,3.55555556 L16.6191293,3.55555556 C20.732481,3.55555556 23.4139392,5.03576373 25.020869,6.70555556 C25.8255497,7.53923627 26.3725378,8.41423627 26.7128861,9.175 C27.0532343,9.93576373 27.1990979,10.5434029 27.1990979,11.0222222 C29.6471744,11.3722222 31.5555556,13.4697918 31.5555556,16 C31.5555556,18.5302082 29.6471744,20.6277778 27.1990979,20.9388889 C27.1990979,21.4565971 27.0532343,22.6864585 26.7128861,23.4472222 C26.3725378,24.207986 25.8255497,25.082986 25.020869,25.9166667 C23.4139392,27.5864585 20.732481,29.0666667 16.6191293,29.0666667 L13.5019529,29.0666667 L11.0065881,31.5620314 C10.7635952,31.8050243 10.3696259,31.8050243 10.126633,31.5620314 C9.8836401,31.3190385 9.8836401,30.9250692 10.126633,30.6820763 L11.7420426,29.0666667 Z" id="Combined-Shape" fill="#6743DF"></path>
            <path d="M3.86666667,8.53333333 C5.75034738,8.53333333 7.28888889,10.0718748 7.28888889,11.9555556 C7.28888889,13.8392363 5.75034738,15.3777778 3.86666667,15.3777778 C1.98298596,15.3777778 0.444444444,13.8392363 0.444444444,11.9555556 C0.444444444,10.0718748 1.98298596,8.53333333 3.86666667,8.53333333 Z M3.86666667,0.444444444 C5.75034738,0.444444444 7.28888889,1.98298596 7.28888889,3.86666667 C7.28888889,5.75034738 5.75034738,7.28888889 3.86666667,7.28888889 C1.98298596,7.28888889 0.444444444,5.75034738 0.444444444,3.86666667 C0.444444444,1.98298596 1.98298596,0.444444444 3.86666667,0.444444444 Z M3.86666667,16.6222222 C5.75034738,16.6222222 7.28888889,18.1607637 7.28888889,20.0444444 C7.28888889,21.9281252 5.75034738,23.4666667 3.86666667,23.4666667 C1.98298596,23.4666667 0.444444444,21.9281252 0.444444444,20.0444444 C0.444444444,18.1607637 1.98298596,16.6222222 3.86666667,16.6222222 Z M3.86666667,24.7111111 C5.75034738,24.7111111 7.28888889,26.2496526 7.28888889,28.1333333 C7.28888889,30.017014 5.75034738,31.5555556 3.86666667,31.5555556 C1.98298596,31.5555556 0.444444444,30.017014 0.444444444,28.1333333 C0.444444444,26.2496526 1.98298596,24.7111111 3.86666667,24.7111111 Z" id="Combined-Shape" fill="#BFB1EC"></path>
        </g>
    </g>
</svg>