<?xml version="1.0" encoding="UTF-8"?>
<svg width="24px" height="24px" viewBox="0 0 24 24" version="1.1" xmlns="http://www.w3.org/2000/svg" xmlns:xlink="http://www.w3.org/1999/xlink">
    <!-- Generator: Sketch 49.1 (51147) - http://www.bohemiancoding.com/sketch -->
    <title>icons/general/24px/social/angel.co</title>
    <desc>Created with Sketch.</desc>
    <defs></defs>
    <g id="icons/general/24px/social/angel.co" stroke="none" stroke-width="1" fill="none" fill-rule="evenodd">
        <g fill="#FEFEFE" id="Fill-1">
            <path d="M16.2487164,10.1255007 C16.9516816,8.29232014 17.5003781,6.77897986 17.89401,5.58540347 C18.2875622,4.39182708 18.4843383,3.65910486 18.4843383,3.38716042 C18.4843383,3.09504931 18.4187463,2.86847986 18.2875622,2.70729931 C18.1561393,2.54627153 17.9750448,2.46552847 17.7444378,2.46552847 C17.4505473,2.46552847 17.151403,2.69973681 16.8470846,3.16807708 C16.5423682,3.63641736 16.2067662,4.38953542 15.839403,5.42682014 L14.2649552,9.79305625 L16.2487164,10.1255007 Z M14.1547861,14.1896951 C13.7034428,14.1694521 13.2755025,14.1242299 12.8716816,14.0536465 C12.4676219,13.9833687 12.081791,13.882459 11.7145075,13.7515285 C11.8822289,14.0740424 12.0317214,14.3961743 12.1632239,14.718459 C12.2943284,15.0409729 12.401791,15.358216 12.4859303,15.6702646 C12.7378706,15.3680701 13.0029453,15.0939104 13.2810746,14.8468687 C13.5589652,14.6001326 13.8502289,14.3809729 14.1547861,14.1896951 Z M12.3757612,9.61178542 L10.6753831,4.89797986 C10.2345473,3.69936181 9.89345274,2.91645208 9.6520199,2.54863958 C9.41042786,2.18097986 9.14821891,1.99718819 8.86483582,1.99718819 C8.64449751,1.99718819 8.46579104,2.07793125 8.32959204,2.23888264 C8.19307463,2.40006319 8.12485572,2.61662569 8.12485572,2.88857014 C8.12485572,3.35194514 8.30841791,4.15769514 8.6759403,5.30589653 C9.04330348,6.45409792 9.59430846,7.95995208 10.3290348,9.82330625 C10.392,9.71254236 10.480995,9.63447292 10.5966567,9.58917431 C10.7120796,9.54387569 10.8695323,9.52111181 11.0690149,9.52111181 C11.1319801,9.52111181 11.2579104,9.52638264 11.4468856,9.53631319 C11.6357811,9.54632014 11.945194,9.57168125 12.3757612,9.61178542 Z M10.8328358,16.9091396 C11.0113035,16.9091396 11.1737711,16.8313757 11.3208756,16.6750076 C11.4678209,16.5188688 11.5412935,16.3501257 11.5412935,16.1688549 C11.5412935,15.9776535 11.3969751,15.5320007 11.1083383,14.8317438 C10.8194627,14.131716 10.4602189,13.4442924 10.0298905,12.7694729 C9.71498507,12.265841 9.40541294,11.8856535 9.10101493,11.6287576 C8.79637811,11.3719382 8.5079801,11.2435285 8.23510448,11.2435285 C8.01468657,11.2435285 7.77062687,11.377209 7.50300498,11.6438826 C7.23538308,11.9108618 7.10149254,12.1600424 7.10149254,12.3917299 C7.10149254,12.6335007 7.23275622,12.9961188 7.49512438,13.479584 C7.75733333,13.9630493 8.10917413,14.4766882 8.55000995,15.0206535 C9.01178109,15.6151118 9.44736318,16.0781813 9.85675622,16.4106257 C10.2660697,16.7429174 10.5911642,16.9091396 10.8328358,16.9091396 Z M6.10965174,16.5465979 C6.25659701,16.7180146 6.46125373,16.9696396 6.72370149,17.3020076 C7.41639801,18.2185979 8.05647761,18.6768549 8.64449751,18.6768549 C8.84366169,18.6768549 9.02228856,18.6164312 9.17974129,18.495584 C9.33711443,18.3747368 9.4159204,18.2487715 9.4159204,18.1177646 C9.4159204,17.9667437 9.31092537,17.7151188 9.10101493,17.3624313 C8.89086567,17.0098965 8.60246766,16.612216 8.23510448,16.1688549 C7.81528358,15.6551396 7.46599005,15.2799937 7.1880995,15.0432646 C6.90997015,14.8067646 6.68668657,14.6882854 6.51904478,14.6882854 C6.15144279,14.6882854 5.81289552,14.8771187 5.50356219,15.2547854 C5.19391045,15.6324521 5.03908458,16.0781812 5.03908458,16.5918965 C5.03908458,17.005084 5.14662687,17.4658618 5.36187065,17.9743062 C5.57679602,18.4829799 5.88923383,18.9940979 6.29862687,19.5078132 C6.91785075,20.3035562 7.68648756,20.9152021 8.60509453,21.3432854 C9.52346269,21.7717507 10.5389453,21.985334 11.6515423,21.985334 C13.6981891,21.985334 15.4117015,21.2526882 16.7918408,19.7873201 C18.1719005,18.3217229 18.862209,16.4861743 18.862209,14.2802924 C18.862209,13.6057021 18.8095124,13.0693757 18.7047562,12.6712368 C18.5998408,12.2734035 18.4266269,11.9838132 18.185194,11.8025424 C17.7547065,11.4602437 16.9178507,11.1528549 15.6740697,10.8809104 C14.4302886,10.608966 13.1315025,10.4729937 11.7774726,10.4729937 C11.399602,10.4729937 11.1319801,10.5334174 10.9745274,10.6542646 C10.8170746,10.7751118 10.7383483,10.9816674 10.7383483,11.2737021 C10.7383483,11.958834 11.1372338,12.4546743 11.9349254,12.7619104 C12.7323781,13.0693757 14.0233632,13.2226882 15.8078806,13.2226882 L16.4533731,13.2226882 C16.600398,13.2226882 16.7184478,13.2756257 16.807602,13.3813479 C16.8966766,13.4870701 16.9571741,13.6457299 16.9886965,13.8573271 C16.8100697,14.0184312 16.4428657,14.2024521 15.886607,14.4087021 C15.3301095,14.6151812 14.9050348,14.8191396 14.6113831,15.0206535 C13.9816517,15.4639382 13.4752239,15.9901049 13.0920995,16.599459 C12.7087363,17.2090424 12.5174527,17.7854729 12.5174527,18.3293618 C12.5174527,18.6618062 12.5985672,19.0621604 12.7614328,19.5305007 C12.9241393,19.998841 13.0054925,20.2884312 13.0054925,20.3991951 L13.0054925,20.5049174 L12.9739701,20.640966 C12.5120398,20.610716 12.1474627,20.3516049 11.8798408,19.8628687 C11.6121393,19.3743618 11.4783284,18.7222299 11.4783284,17.9063201 L11.4783284,17.7703479 C11.3941891,17.8407785 11.312995,17.8912715 11.2343483,17.9214451 C11.1556219,17.9516951 11.0690149,17.9667437 10.9745274,17.9667437 C10.8800398,17.9667437 10.7908856,17.9591813 10.7069055,17.9440562 C10.6226866,17.9290076 10.5282786,17.9063201 10.4235224,17.8760701 C10.4549652,17.9871396 10.478607,18.0952299 10.4942886,18.2008757 C10.5101294,18.3066743 10.5179303,18.3897854 10.5179303,18.450209 C10.5179303,18.8229104 10.3657313,19.1429035 10.0613333,19.4096535 C9.75677612,19.6765562 9.39466667,19.8100076 8.97508458,19.8100076 C8.31383085,19.8100076 7.64206965,19.5002507 6.959801,18.8808132 C6.27737313,18.2612993 5.93651741,17.6546951 5.93651741,17.0602368 C5.93651741,16.9494729 5.94965174,16.8512368 5.9758408,16.7656049 C6.00187065,16.6802021 6.04668657,16.6070215 6.10965174,16.5465979 Z M17.3823284,10.3823201 C18.3268856,10.5538132 18.993393,10.9362924 19.3817711,11.5305979 C19.7698308,12.1250562 19.9642985,13.0617368 19.9642985,14.3407924 C19.9642985,16.878966 19.1691542,18.9563618 17.5791045,20.5729035 C15.9888955,22.1893687 13.9553035,22.9976396 11.4783284,22.9976396 C10.5022488,22.9976396 9.55498507,22.8288965 8.63661692,22.4914868 C7.71793035,22.1540771 6.92835821,21.683216 6.26710448,21.0789035 C5.51144279,20.4143201 4.94459701,19.7117715 4.56680597,18.9714868 C4.18893532,18.2311257 3.9999602,17.4734243 3.9999602,16.6976187 C3.9999602,15.8314451 4.19418905,15.1618201 4.58248756,14.6882854 C4.97062687,14.2148271 5.58467662,13.8926951 6.42447761,13.7212785 C6.26710448,13.3687437 6.15144279,13.071591 6.07820896,12.8298965 C6.00473632,12.5881257 5.9679602,12.4018132 5.9679602,12.2708826 C5.9679602,11.8176674 6.21719403,11.3545215 6.7158209,10.8809104 C7.21412935,10.4075285 7.6840199,10.1707993 8.12485572,10.1707993 C8.31383085,10.1707993 8.51299502,10.2034937 8.72314428,10.2690354 C8.93305473,10.3347299 9.17424876,10.4428201 9.44736318,10.593841 C8.63892537,8.39811875 8.05138308,6.70343125 7.6840199,5.50985486 C7.31649751,4.31635486 7.13301493,3.49288264 7.13301493,3.03966736 C7.13301493,2.41518819 7.30073632,1.91934792 7.63681592,1.55145903 C7.97273632,1.18379931 8.42925373,1.00000764 9.00652736,1.00000764 C9.99295522,1.00000764 11.2421493,3.11521597 12.7536318,7.34555625 C13.0157612,8.07079236 13.2154826,8.62972986 13.3518408,9.02259792 C13.4673433,8.71054931 13.6298109,8.26718819 13.8398806,7.69304931 C15.3513632,3.50296597 16.6526169,1.40792431 17.7444378,1.40792431 C18.2797612,1.40792431 18.7072239,1.58170903 19.0275423,1.92920208 C19.3477015,2.27669514 19.5077015,2.74274375 19.5077015,3.32673681 C19.5077015,3.77009792 19.3318607,4.58073681 18.9802587,5.75918819 C18.6284975,6.93763958 18.0960398,8.47863264 17.3823284,10.3823201 Z"></path>
        </g>
    </g>
</svg>