<?xml version="1.0" encoding="UTF-8"?>
<svg width="328px" height="10px" viewBox="0 0 328 10" version="1.1" xmlns="http://www.w3.org/2000/svg" xmlns:xlink="http://www.w3.org/1999/xlink">
    <!-- Generator: Sketch 49.1 (51147) - http://www.bohemiancoding.com/sketch -->
    <title>icons/general/big-arrow</title>
    <desc>Created with Sketch.</desc>
    <defs></defs>
    <g id="icons/general/big-arrow" stroke="none" stroke-width="1" fill="none" fill-rule="evenodd">
        <g fill="#6743DF" fill-rule="nonzero" id="Combined-Shape">
            <path d="M315.5,3.35234547 L315.5,1.5 C315.5,0.671572875 316.171573,5.55111512e-16 317,3.33066907e-16 C317.176176,3.33066907e-16 317.350975,0.0310361308 317.516382,0.0916855262 L326.659142,3.444031 C327.436933,3.72922088 327.836265,4.59093684 327.551075,5.36872744 C327.399295,5.78267249 327.073087,6.10888009 326.659142,6.26065994 L317.516382,9.61300541 C316.738591,9.8981953 315.876875,9.49886352 315.591686,8.72107291 C315.531036,8.55566547 315.5,8.3808669 315.5,8.20469094 L315.5,6.35234547 L1.5,6.35234547 C0.671572875,6.35234547 0,5.68077259 0,4.85234547 C0,4.02391834 0.671572875,3.35234547 1.5,3.35234547 L315.5,3.35234547 Z"></path>
        </g>
    </g>
</svg>