<?xml version="1.0" encoding="UTF-8"?>
<svg width="10px" height="120px" viewBox="0 0 10 120" version="1.1" xmlns="http://www.w3.org/2000/svg" xmlns:xlink="http://www.w3.org/1999/xlink">
    <!-- Generator: Sketch 49.1 (51147) - http://www.bohemiancoding.com/sketch -->
    <title>icons/general/big-arrow-down</title>
    <desc>Created with Sketch.</desc>
    <defs></defs>
    <g id="icons/general/big-arrow-down" stroke="none" stroke-width="1" fill="none" fill-rule="evenodd">
        <g fill="#6743DF" fill-rule="nonzero" id="Combined-Shape">
            <path d="M52.8258664,58.3213802 L52.8258664,56.4690347 C52.8258664,55.6406076 53.4974393,54.9690347 54.3258664,54.9690347 C54.5020424,54.9690347 54.676841,55.0000708 54.8422484,55.0607202 L63.9850088,58.4130657 C64.7627994,58.6982556 65.1621312,59.5599716 64.8769413,60.3377622 C64.7251614,60.7517072 64.3989538,61.0779148 63.9850088,61.2296947 L54.8422484,64.5820401 C54.0644578,64.86723 53.2027418,64.4678982 52.917552,63.6901076 C52.8569026,63.5247002 52.8258664,63.3499016 52.8258664,63.1737257 L52.8258664,61.3213802 L-53.1741336,61.3213802 C-54.0025607,61.3213802 -54.6741336,60.6498073 -54.6741336,59.8213802 C-54.6741336,58.9929531 -54.0025607,58.3213802 -53.1741336,58.3213802 L52.8258664,58.3213802 Z" transform="translate(5.147451, 59.821584) rotate(90.000000) translate(-5.147451, -59.821584) "></path>
        </g>
    </g>
</svg>