
<svg width="269px" height="268px" viewBox="0 0 269 268" version="1.1" xmlns="http://www.w3.org/2000/svg" xmlns:xlink="http://www.w3.org/1999/xlink">
    <!-- Generator: Sketch 49.1 (51147) - http://www.bohemiancoding.com/sketch -->
    <desc>Created with Sketch.</desc>
    <defs></defs>
    <g id="Page-1" stroke="none" stroke-width="1" fill="none" fill-rule="evenodd" stroke-linecap="round" stroke-linejoin="round">
        <g id="landing" transform="translate(-425.000000, -11194.000000)" stroke-width="24">
            <g id="token-generation-event" transform="translate(0.000000, 10479.000000)">
                <g id="illustration" transform="translate(412.000000, 727.000000)">
                    <g id="Group-16">
                        <path d="M159.148429,237.973932 C158.310544,241.400628 157.616701,244.883971 157.073694,248.417151" id="88-copy-6" stroke="#FF8A02" transform="translate(158.431194, 243.195541) rotate(254.000000) translate(-158.431194, -243.195541) "></path>
                        <path d="M45.4258211,182.50097 C46.2149467,187.878502 47.3531861,193.142299 48.8167369,198.268516 C48.9989848,198.906856 49.186277,199.543062 49.3785677,200.177088" id="88-copy-5" stroke="#E9E9E9" transform="translate(47.402194, 191.339029) rotate(-22.000000) translate(-47.402194, -191.339029) "></path>
                        <path d="M51.786074,46.7289172 C48.2944268,51.1704443 45.103212,55.8600852 42.243123,60.7670924" id="88-copy" stroke="#C135CC"></path>
                        <path d="M77.4813792,231.595669 C84.9656168,233.031225 92.6924036,233.78273 100.594405,233.78273 C106.457075,233.78273 112.223297,233.369066 117.865575,232.569284" id="88-copy-4" stroke="#35CC65" transform="translate(97.673477, 232.955559) rotate(23.000000) translate(-97.673477, -232.955559) "></path>
                        <path d="M112.067048,5.32539028 C99.4953404,9.17423696 87.7850103,14.9995887 77.2969985,22.4398688" id="88-copy-3" stroke="#E5DB0C"></path>
                        <path d="M7.78797921,103.463742 C18.6363639,119.726969 33.270436,133.240783 50.4279632,142.740731" id="88-copy-2" stroke="#5200FF" transform="translate(29.107971, 123.102236) rotate(47.000000) translate(-29.107971, -123.102236) "></path>
                        <path d="M199.648878,233.256115 C241.214851,213.724084 270,171.424581 270,122.39011 C270,54.7959187 215.300389,0 147.825,0" id="Oval-12-Copy-3" stroke="#2DC1D4"></path>
                    </g>
                </g>
            </g>
        </g>
    </g>
</svg>