<svg width="14px" height="14px" viewBox="0 0 14 14" version="1.1" xmlns="http://www.w3.org/2000/svg">
    <!-- Generator: Sketch 49.1 (51147) - http://www.bohemiancoding.com/sketch -->
    <desc>Created with Sketch.</desc>
    <defs></defs>
    <g id="Page-1" stroke="none" stroke-width="1" fill="none" fill-rule="evenodd">
        <g id="landing" transform="translate(-1054.000000, -14593.000000)" fill="#6743DF" fill-rule="nonzero">
            <g id="leadership" transform="translate(-234.000000, 13107.000000)">
                <g id="bio" transform="translate(580.000000, 1460.000000)">
                    <g id="icons/general/16px/close" transform="translate(708.000000, 26.000000)">
                        <path d="M6.99470541,6.28759863 L12.4158574,0.866446638 C12.6111195,0.671184492 12.927702,0.671184492 13.1229642,0.866446638 C13.3182263,1.06170878 13.3182263,1.37829127 13.1229642,1.57355342 L7.70181219,6.99470541 L13.1229642,12.4158574 C13.3182263,12.6111195 13.3182263,12.927702 13.1229642,13.1229642 C12.927702,13.3182263 12.6111195,13.3182263 12.4158574,13.1229642 L6.99470541,7.70181219 L1.57355342,13.1229642 C1.37829127,13.3182263 1.06170878,13.3182263 0.866446638,13.1229642 C0.671184492,12.927702 0.671184492,12.6111195 0.866446638,12.4158574 L6.28759863,6.99470541 L0.866446638,1.57355342 C0.671184492,1.37829127 0.671184492,1.06170878 0.866446638,0.866446638 C1.06170878,0.671184492 1.37829127,0.671184492 1.57355342,0.866446638 L6.99470541,6.28759863 Z" id="Combined-Shape"></path>
                    </g>
                </g>
            </g>
        </g>
    </g>
</svg>