<?xml version="1.0" encoding="UTF-8"?>
<svg width="24px" height="24px" viewBox="0 0 24 24" version="1.1" xmlns="http://www.w3.org/2000/svg" xmlns:xlink="http://www.w3.org/1999/xlink">
    <!-- Generator: Sketch 49.1 (51147) - http://www.bohemiancoding.com/sketch -->
    <title>icons/general/24px/social/crunchbase</title>
    <desc>Created with Sketch.</desc>
    <defs></defs>
    <g id="icons/general/24px/social/crunchbase" stroke="none" stroke-width="1" fill="none" fill-rule="evenodd">
        <g fill="#FFFFFF" fill-rule="nonzero" id="Combined-Shape">
            <path d="M9.47908071,8.18054545 C9.23409029,7.79448485 8.93532148,7.47078788 8.58277428,7.20945455 C8.23022709,6.94812121 7.84182763,6.74915152 7.41757592,6.61254545 C6.99332421,6.47636364 6.54815869,6.40763636 6.08207934,6.40763636 C5.23357592,6.40763636 4.50458003,6.568 3.89509166,6.88872727 C3.28560328,7.20945455 2.78623256,7.63412121 2.39825992,8.16272727 C2.00986047,8.69133333 1.72304241,9.28824242 1.53737893,9.95345455 C1.35214227,10.6190909 1.25995075,11.301697 1.25995075,12.0025455 C1.25995075,12.6919394 1.35256908,13.372 1.53737893,14.0427273 C1.72304241,14.714303 2.00943365,15.3141818 2.39825992,15.8423636 C2.78623256,16.3709697 3.28560328,16.7956364 3.89509166,17.1163636 C4.50458003,17.4370909 5.23357592,17.5974545 6.08207934,17.5974545 C6.67919015,17.5974545 7.21740082,17.4905455 7.69543092,17.2767273 C8.1730342,17.0629091 8.58533516,16.7718788 8.93190698,16.4036364 C9.2784788,16.0353939 9.55974829,15.6047879 9.77486183,15.1118182 C9.98997538,14.6188485 10.1269822,14.0872727 10.1871628,13.5170909 L11.4057127,13.5170909 C11.3220575,14.3010909 11.1368208,15.0078788 10.8500027,15.6374545 C10.5631847,16.2670303 10.1927114,16.8015758 9.73858276,17.2410909 C9.28445417,17.6806061 8.749658,18.0191515 8.13376744,18.2567273 C7.51830369,18.494303 6.83412312,18.6130909 6.08122572,18.6130909 C5.07736252,18.6130909 4.19599453,18.4319394 3.43712175,18.0696364 C2.67824897,17.7073333 2.04784679,17.2232727 1.54591518,16.6174545 C1.04398358,16.0116364 0.667534884,15.3107879 0.416569083,14.5149091 C0.165603283,13.7190303 0.040120383,12.8815758 0.040120383,12.0025455 C0.040120383,11.1235152 0.165603283,10.2864848 0.416569083,9.49018182 C0.667961696,8.69472727 1.0444104,7.99048485 1.54591518,7.37872727 C2.04784679,6.7669697 2.67782216,6.28036364 3.43712175,5.91763636 C4.19599453,5.55533333 5.07778933,5.37418182 6.08122572,5.37418182 C6.69071409,5.37418182 7.28483721,5.46327273 7.86487551,5.64145455 C8.444487,5.81963636 8.97032011,6.08393939 9.44237483,6.43436364 C9.91400274,6.78478788 10.3083776,7.21581818 10.6254993,7.72618182 C10.9417674,8.23739394 11.1419425,8.8249697 11.2255978,9.49018182 L10.0070479,9.49018182 C9.90034473,9.00315152 9.72364432,8.56660606 9.47908071,8.18054545 Z M12.9289083,5.64145455 L19.1488482,5.64145455 C20.2961204,5.64145455 21.2163283,5.90278788 21.9098988,6.42545455 C22.6026156,6.94812121 22.9496142,7.73806061 22.9496142,8.79527273 C22.9496142,9.43672727 22.7912668,9.98654545 22.4745718,10.4434545 C22.1578769,10.9007879 21.706736,11.2541818 21.1211491,11.5036364 L21.1211491,11.5392727 C21.9103256,11.706 22.5074364,12.0767879 22.913762,12.6529091 C23.3196607,13.2290303 23.5232503,13.9510909 23.5232503,14.8178182 C23.5232503,15.3167273 23.4336197,15.7829697 23.2543584,16.2165455 C23.0750971,16.6501212 22.7942544,17.024303 22.4118304,17.3390909 C22.0294063,17.6538788 21.5394254,17.9033333 20.9418878,18.0874545 C20.3443502,18.2715758 19.6337073,18.3636364 18.8086785,18.3636364 L12.9293352,18.3636364 L12.9293352,5.64145455 L12.9289083,5.64145455 Z M15.1696744,10.9690909 L18.8261778,10.9690909 C19.3639617,10.9690909 19.8125417,10.8176364 20.1706375,10.5147273 C20.5287332,10.2118182 20.7084213,9.77527273 20.7084213,9.20509091 C20.7084213,8.56363636 20.5470862,8.11224242 20.2244159,7.85090909 C19.9017456,7.58957576 19.4356662,7.45890909 18.8261778,7.45890909 L15.1696744,7.45890909 L15.1696744,10.9690909 Z M15.1696744,16.5461818 L19.130922,16.5461818 C19.8125417,16.5461818 20.3409357,16.3709697 20.7178112,16.0205455 C21.0942599,15.6701212 21.2820575,15.1741818 21.2820575,14.5327273 C21.2820575,13.9031515 21.0942599,13.4190909 20.7178112,13.0805455 C20.3409357,12.742 19.8125417,12.5727273 19.130922,12.5727273 L15.1696744,12.5727273 L15.1696744,16.5461818 Z"></path>
        </g>
    </g>
</svg>