<?xml version="1.0" encoding="UTF-8"?>
<svg width="32px" height="32px" viewBox="0 0 32 32" version="1.1" xmlns="http://www.w3.org/2000/svg" xmlns:xlink="http://www.w3.org/1999/xlink">
    <!-- Generator: Sketch 49.1 (51147) - http://www.bohemiancoding.com/sketch -->
    <title>icons/general/32px/data-ownership</title>
    <desc>Created with Sketch.</desc>
    <defs></defs>
    <g id="icons/general/32px/data-ownership" stroke="none" stroke-width="1" fill="none" fill-rule="evenodd">
        <g id="icons/general/32/data-ownership">
            <path d="M10.1715465,12.1278065 C11.2519573,10.5072362 12.9895794,9.36025061 15,9.07126263 L15,1 L17,1 L17,9.07126263 C18.9677658,9.35411919 20.6741861,10.4589515 21.7588008,12.0252994 L27.4503209,8.99906439 L28.3892641,10.7649596 L22.6510223,13.8160368 C22.8774491,14.5035704 23,15.2377832 23,16 C23,16.85785 22.8447676,17.680228 22.5609262,18.4405107 L28.4825786,21.4577433 L27.5745976,23.2397564 L21.5996159,20.1953511 C20.5110283,21.6444371 18.8740346,22.6593542 17,22.9287374 L17,28 L15,28 L15,22.9287374 C13.1674526,22.6653178 11.5615672,21.689008 10.4734842,20.2909487 L4.54967906,23.4406918 L3.61073593,21.6747966 L9.48214973,18.5529105 C9.17097464,17.7615257 9,16.9002975 9,16 C9,15.2812524 9.10897139,14.5874057 9.31125539,13.9341187 L3.51742142,10.9820129 L4.42540242,9.19999981 L10.1715465,12.1278065 Z" id="Combined-Shape" fill="#BFB1EC"></path>
            <path d="M28,6.80000019 C29.6534091,6.80000019 31,8.1465911 31,9.80000019 C31,11.4534093 29.6534091,12.8000002 28,12.8000002 C26.3465909,12.8000002 25,11.4534093 25,9.80000019 C25,8.1465911 26.3465909,6.80000019 28,6.80000019 Z M16,0 C17.6534091,0 19,1.34659091 19,3 C19,4.65340909 17.6534091,6 16,6 C14.3465909,6 13,4.65340909 13,3 C13,1.34659091 14.3465909,0 16,0 Z M4,19.2999992 C5.65340909,19.2999992 7,20.6465901 7,22.2999992 C7,23.9534083 5.65340909,25.2999992 4,25.2999992 C2.34659091,25.2999992 1,23.9534083 1,22.2999992 C1,20.6465901 2.34659091,19.2999992 4,19.2999992 Z M4,7 C5.65340909,7 7,8.34659091 7,10 C7,11.6534091 5.65340909,13 4,13 C2.34659091,13 1,11.6534091 1,10 C1,8.34659091 2.34659091,7 4,7 Z M28,19 C29.6534091,19 31,20.3465909 31,22 C31,23.6534091 29.6534091,25 28,25 C26.3465909,25 25,23.6534091 25,22 C25,20.3465909 26.3465909,19 28,19 Z M16,26 C17.6534091,26 19,27.3465909 19,29 C19,30.6534091 17.6534091,32 16,32 C14.3465909,32 13,30.6534091 13,29 C13,27.3465909 14.3465909,26 16,26 Z M16,13 C17.6538085,13 19,14.3461915 19,16 C19,17.6538085 17.6538085,19 16,19 C14.3461915,19 13,17.6538085 13,16 C13,14.3461915 14.3461915,13 16,13 Z" id="Combined-Shape" fill="#6743DF"></path>
        </g>
    </g>
</svg>