<svg width="23px" height="17px" viewBox="0 0 23 17" version="1.1" xmlns="http://www.w3.org/2000/svg" xmlns:xlink="http://www.w3.org/1999/xlink">
    <!-- Generator: Sketch 49.1 (51147) - http://www.bohemiancoding.com/sketch -->
    <desc>Created with Sketch.</desc>
    <defs></defs>
    <g id="Page-1" stroke="none" stroke-width="1" fill="none" fill-rule="evenodd">
        <g id="Splashscreen-Copy-26" transform="translate(-292.000000, -609.000000)" fill="#504A8E">
            <g id="Keyboards/Light/Numeric-" transform="translate(0.000000, 395.000000)">
                <g id="Delete" transform="translate(241.000000, 197.000000)">
                    <path d="M51.436149,26.5593445 C50.8510892,25.9742847 50.8581556,25.0186489 51.436149,24.4406555 L58.1667192,17.7100853 C58.5588885,17.317916 59.3257247,17 59.8842885,17 L70.3789021,17 C72.3107404,17 73.8768049,18.5688477 73.8768049,20.5017983 L73.8768049,30.4982017 C73.8768049,32.4321915 72.2998928,34 70.378902,34 L59.8842884,34 C59.3278704,34 58.5539737,33.6771693 58.1667192,33.2899147 L51.436149,26.5593445 Z M66.0194674,25.4776902 L68.8435992,22.6535585 C69.1369101,22.3602476 69.1407878,21.8814962 68.8478946,21.588603 C68.5529594,21.2936677 68.0782045,21.2976328 67.782939,21.5928983 L64.9588073,24.4170301 L62.1346755,21.5928983 C61.8413646,21.2995874 61.3626132,21.2957097 61.06972,21.588603 C60.7747848,21.8835382 60.7787499,22.358293 61.0740153,22.6535585 L63.8981471,25.4776902 L61.0740153,28.301822 C60.7807045,28.5951329 60.7768268,29.0738843 61.06972,29.3667775 C61.3646552,29.6617128 61.83941,29.6577477 62.1346755,29.3624822 L64.9588073,26.5383504 L67.782939,29.3624822 C68.0762499,29.6557931 68.5550014,29.6596708 68.8478946,29.3667775 C69.1428298,29.0718423 69.1388647,28.5970875 68.8435992,28.301822 L66.0194674,25.4776902 Z M53.086524,26.2097195 C52.6945567,25.8177522 52.6957696,25.1810349 53.086524,24.7902805 L59.0200498,18.8567547 C59.21708,18.6597245 59.6024438,18.5 59.8705455,18.5 L70.3740439,18.5 C71.4801377,18.5 72.3768039,19.3970601 72.3768039,20.5058586 L72.3768039,30.4941412 C72.3768039,31.6019464 71.4832613,32.4999999 70.3740439,32.4999999 L59.8705457,32.5 C59.5978601,32.5 59.2174478,32.340643 59.02005,32.1432453 L53.086524,26.2097195 Z" id="Back"></path>
                </g>
            </g>
        </g>
    </g>
</svg>