<?xml version="1.0" encoding="UTF-8"?>
<svg width="16px" height="16px" viewBox="0 0 16 16" version="1.1" xmlns="http://www.w3.org/2000/svg" xmlns:xlink="http://www.w3.org/1999/xlink">
    <!-- Generator: Sketch 49.1 (51147) - http://www.bohemiancoding.com/sketch -->
    <title>icons/general/16px/dowload</title>
    <desc>Created with Sketch.</desc>
    <defs></defs>
    <g id="icons/general/16px/dowload" stroke="none" stroke-width="1" fill="none" fill-rule="evenodd">
        <g fill="#6743DF" fill-rule="nonzero" id="Combined-Shape">
            <path d="M9.46984286,9.25306939 C9.76283156,8.96027168 10.2377053,8.96042652 10.530503,9.25341522 C10.8233007,9.54640392 10.8231458,10.0212776 10.5301571,10.3140753 L8.53015714,12.3127716 C8.39058919,12.4522491 8.20131402,12.5322686 8,12.5322686 C7.79868598,12.5322686 7.60941081,12.4522491 7.46984286,12.3127716 L5.46984286,10.3140753 C5.17685416,10.0212776 5.17669932,9.54640392 5.46949703,9.25341522 C5.76229473,8.96042652 6.23716844,8.96027168 6.53015714,9.25306939 L7.25,9.97244299 L7.25,1.78878748 C7.25,1.37457392 7.58578644,1.03878748 8,1.03878748 C8.41421356,1.03878748 8.75,1.37457392 8.75,1.78878748 L8.75,9.97244299 L9.46984286,9.25306939 Z M14.25,9 C14.25,8.58578644 14.5857864,8.25 15,8.25 C15.4142136,8.25 15.75,8.58578644 15.75,9 L15.75,13.9973924 C15.75,14.9638804 14.9665795,15.7467405 14,15.7467405 L2,15.7467405 C1.03342048,15.7467405 0.25,14.9638804 0.25,13.9973924 L0.25,9 C0.25,8.58578644 0.585786438,8.25 1,8.25 C1.41421356,8.25 1.75,8.58578644 1.75,9 L1.75,13.9973924 C1.75,14.1352462 1.86164123,14.2467405 2,14.2467405 L14,14.2467405 C14.1383588,14.2467405 14.25,14.1352462 14.25,13.9973924 L14.25,9 Z"></path>
        </g>
    </g>
</svg>