<?xml version="1.0" encoding="UTF-8"?>
<svg width="136px" height="56px" viewBox="0 0 136 56" version="1.1" xmlns="http://www.w3.org/2000/svg" xmlns:xlink="http://www.w3.org/1999/xlink">
    <!-- Generator: Sketch 49.1 (51147) - http://www.bohemiancoding.com/sketch -->
    <title>icons/general/logotypes/enecuum</title>
    <desc>Created with Sketch.</desc>
    <defs>
        <polygon id="path-1" points="0.015750877 0.0651156321 42.9217575 0.0651156321 42.9217575 42.353691 0.015750877 42.353691"></polygon>
        <polygon id="path-3" points="0 0.0573837911 42.9055572 0.0573837911 42.9055572 42.3467051 0 42.3467051"></polygon>
    </defs>
    <g id="icons/general/logotypes/enecuum" stroke="none" stroke-width="1" fill="none" fill-rule="evenodd">
        <g id="logo-(1)">
            <path d="M37.1245548,29.6929697 L18.6530154,29.6929697 C17.4617151,29.6929697 16.4963088,28.7404703 16.4963088,27.5656291 C16.4963088,26.3908741 17.4617151,25.4388059 18.6530154,25.4388059 L37.1245548,25.4388059 C38.3157676,25.4388059 39.2816112,26.3908741 39.2816112,27.5656291 C39.2816112,28.7404703 38.3155927,29.6929697 37.1245548,29.6929697" id="Fill-4" fill="#00A7D2" fill-rule="nonzero"></path>
            <path d="M40.7484008,22.5025566 L23.6795385,22.5025566 C22.488588,22.5025566 21.5229193,21.5502297 21.5229193,20.375906 C21.5229193,19.201151 22.488588,18.2490828 23.6795385,18.2490828 L40.7484008,18.2489103 C41.9394388,18.2489103 42.9055447,19.201151 42.9055447,20.375906 C42.9055447,21.5502297 41.9394388,22.5025566 40.7484008,22.5025566" id="Fill-6" fill="#00A7D2" fill-rule="nonzero"></path>
            <path d="M23.6815587,22.503445 C22.9364494,22.503445 22.2116295,22.1220657 21.8120515,21.4397746 L13.158464,6.65956112 C12.5630762,5.64211859 12.9167408,4.34144462 13.9478251,3.75359277 C14.9791718,3.16841454 16.298505,3.51572666 16.8944176,4.53230673 L25.5479175,19.3125203 C26.1433054,20.3297903 25.7896408,21.630723 24.7583815,22.2183161 C24.4187971,22.4114206 24.0477292,22.503445 23.6815587,22.503445" id="Fill-8" fill="#00A7D2" fill-rule="nonzero"></path>
            <path d="M32.0979967,36.8828826 L15.028872,36.8828826 C13.8376591,36.8828826 12.8720779,35.9302107 12.8720779,34.7556282 C12.8720779,33.5810457 13.8376591,32.6283738 15.028872,32.6283738 L32.0979967,32.6283738 C33.2892096,32.6283738 34.2550532,33.5810457 34.2550532,34.7556282 C34.2550532,35.9302107 33.2892096,36.8828826 32.0979967,36.8828826" id="Fill-10" fill="#101425" fill-rule="nonzero"></path>
            <path d="M40.7527123,51.6625959 C40.0069034,51.6625959 39.2824333,51.2817341 38.8827678,50.5987531 L30.2300549,35.8187983 C29.6349295,34.8017007 29.9878944,33.501113 31.0198533,32.9131749 C32.0534738,32.325668 33.3707956,32.6744463 33.965921,33.6924926 L42.6186339,48.4721886 C43.2138468,49.4892862 42.8607944,50.7901326 41.8287481,51.3777258 C41.4892511,51.5712615 41.1183581,51.6625959 40.7527123,51.6625959" id="Fill-12" fill="#101425" fill-rule="nonzero"></path>
            <g id="Group-3" transform="translate(12.855759, 0.021130)">
                <g id="Fill-1-Clipped">
                    <mask id="mask-2" fill="white">
                        <use xlink:href="#path-1"></use>
                    </mask>
                    <g id="path-1"></g>
                    <path d="M37.3047628,42.353691 C36.9390296,42.353691 36.5683989,42.2620979 36.2286395,42.0685621 C35.1966807,41.480969 34.8438906,40.180295 35.4388412,39.1632837 C38.5865781,33.7875786 39.4222899,27.526301 37.7928443,21.5302293 C36.1640984,15.5349339 32.2646056,10.5237038 26.8145509,7.42057743 C19.5462371,3.28275931 10.5177337,3.28344928 3.25143134,7.42057743 C2.21990973,8.00748058 0.90127616,7.65913351 0.305188722,6.64203596 C-0.290636353,5.62450718 0.0630282008,4.32366072 1.09437491,3.7362401 C5.39309585,1.28892728 10.2130435,0.0650983829 15.0329037,0.0650983829 C19.8527638,0.0650983829 24.6723617,1.28892728 28.9709951,3.7362401 C35.4196013,7.40807178 40.0322826,13.3363542 41.9597719,20.429387 C43.8870863,27.5227649 42.8982423,34.9310264 39.1747073,41.2898482 C38.7751293,41.972743 38.0498721,42.353691 37.3047628,42.353691" id="Fill-1" fill="#00A7D2" fill-rule="nonzero" mask="url(#mask-2)"></path>
                </g>
            </g>
            <g id="Group-16" transform="translate(0.000000, 12.699273)">
                <g id="Fill-14-Clipped">
                    <mask id="mask-4" fill="white">
                        <use xlink:href="#path-3"></use>
                    </mask>
                    <g id="path-3"></g>
                    <path d="M27.8890912,42.3467051 C23.0687937,42.3467051 18.2493708,41.1229624 13.9501252,38.6748734 C7.5019563,35.0028692 2.88918754,29.0745006 0.962048044,21.9814677 C-0.965528719,14.8884348 0.0238399994,7.48000083 3.74676286,1.12092033 C4.34337503,0.104081516 5.66244586,-0.244783029 6.6933553,0.342810085 C7.72470201,0.92997197 8.07836656,2.23064594 7.48297876,3.24791598 C4.33567906,8.62336234 3.49944255,14.8855887 5.12845087,20.8808842 C6.75745919,26.8764383 10.6565147,31.8872371 16.1071816,34.9903636 C23.3746209,39.1290441 32.4020748,39.1290441 39.6703011,34.9910535 C40.703222,34.4033742 42.021156,34.7522387 42.6163689,35.7700262 C43.2115818,36.7870375 42.8587043,38.0877115 41.8267454,38.6753909 C37.5281119,41.1220999 32.7080768,42.3467051 27.8890912,42.3467051" id="Fill-14" fill="#101425" fill-rule="nonzero" mask="url(#mask-4)"></path>
                </g>
            </g>
            <path d="M74.0825619,19.2879229 L88.8274178,19.2879229 C89.4045277,19.2879229 89.6931264,19.6242818 89.6931264,20.2969996 C89.6931264,20.952727 89.4045277,21.2802025 88.8274178,21.2802025 L74.0825619,21.2802025 L74.0825619,24.4004056 C74.0825619,25.8218238 75.4378387,26.532576 78.1491795,26.532576 L88.8274178,26.532576 C89.4394219,26.532576 89.7456863,26.8474597 89.7456863,27.4773995 C89.7456863,28.1411478 89.4394219,28.4731081 88.8274178,28.4731081 L78.0705582,28.4731081 C73.7324829,28.4731081 71.5638826,27.1450942 71.5638826,24.4885489 L71.5638826,16.027829 C71.5638826,13.3199674 73.8111917,11.9656485 78.306597,11.9656485 L81.2189074,11.9656485 C81.7960173,11.9656485 82.0846159,12.2934691 82.0846159,12.9488515 C82.0846159,13.5871572 81.7960173,13.9061806 81.2189074,13.9061806 L79.2511892,13.9061806 C75.8051461,13.9061806 74.0825619,14.6136555 74.0825619,16.027829 L74.0825619,19.2879229 Z" id="Fill-17" fill="#00A7D2" fill-rule="nonzero"></path>
            <path d="M112.676058,26.946539 C112.676058,27.4987713 112.522663,27.9127515 112.216923,28.1884795 C111.910659,28.4645525 111.55647,28.6024597 111.154356,28.6024597 C110.979272,28.6024597 110.791071,28.5676163 110.590189,28.4989646 C110.388957,28.4302267 110.192185,28.3008579 109.999873,28.1108582 L95.2026324,15.0704826 L95.2026324,27.5416355 C95.2026324,28.2491103 94.7915105,28.6024597 93.9696165,28.6024597 C93.1648635,28.6024597 92.7627493,28.2491103 92.7627493,27.5416355 L92.7627493,13.3886882 C92.7627493,12.8712129 92.9201668,12.4960434 93.2349142,12.2631796 C93.5498366,12.0303157 93.8994783,11.9138838 94.2843639,11.9138838 C94.5291481,11.9138838 94.7567038,11.9442423 94.9665937,12.0044419 C95.1763962,12.0650728 95.3772784,12.1900431 95.5699398,12.3796115 L110.236087,25.1612495 L110.236087,12.8453392 C110.236087,12.1726214 110.655779,11.8362625 111.495427,11.8362625 C112.282514,11.8362625 112.676058,12.1726214 112.676058,12.8453392 L112.676058,26.946539 Z" id="Fill-19" fill="#00A7D2" fill-rule="nonzero"></path>
            <path d="M133.244861,16.0840268 C133.244861,14.6322501 131.670686,13.9062324 128.522337,13.9062324 L122.960166,13.9062324 C119.881518,13.9062324 118.342675,14.6322501 118.342675,16.0840268 L118.342675,24.2508208 C118.342675,25.7721117 119.881518,26.5325415 122.960166,26.5325415 L129.624259,26.5325415 C132.037994,26.5325415 133.244861,25.7810813 133.244861,24.2771258 L133.244861,16.0840268 Z M135.76354,24.1821691 C135.76354,26.0458561 134.756244,27.3225537 132.742262,28.0126069 L134.005712,28.7095598 C134.145464,28.7957194 134.263527,28.9291418 134.359901,29.1102581 C134.455839,29.290512 134.504113,29.4498081 134.504113,29.5877152 C134.504113,29.8803475 134.390248,30.1213184 134.16313,30.3109731 C133.935574,30.4997653 133.673211,30.5948083 133.376042,30.5948083 C133.200959,30.5948083 132.99964,30.5340912 132.772609,30.4136057 L129.283188,28.3955386 L122.251875,28.3955386 C117.96636,28.3955386 115.823996,26.9898171 115.823996,24.1781155 L115.823996,16.1312896 C115.823996,13.3543451 117.960588,11.9657003 122.234297,11.9657003 L129.222058,11.9657003 C133.583046,11.9657003 135.76354,13.3462379 135.76354,16.1067095 L135.76354,24.1821691 Z" id="Fill-21" fill="#00A7D2" fill-rule="nonzero"></path>
            <path d="M72.5994271,39.8613923 L78.5464837,39.8613923 C78.7792866,39.8613923 78.8956006,39.9970571 78.8956006,40.2684728 C78.8956006,40.5329027 78.7792866,40.6649451 78.5464837,40.6649451 L72.5994271,40.6649451 L72.5994271,41.9234448 C72.5994271,42.4968074 73.1460155,42.7834024 74.239717,42.7834024 L78.5464837,42.7834024 C78.7932793,42.7834024 78.9167645,42.9105288 78.9167645,43.1645229 C78.9167645,43.4322301 78.7932793,43.5660837 78.5464837,43.5660837 L74.2079711,43.5660837 C72.4581886,43.5660837 71.5836472,43.0304106 71.5836472,41.9589781 L71.5836472,38.5464878 C71.5836472,37.4543563 72.4899345,36.908075 74.3030338,36.908075 L75.4777178,36.908075 C75.7105207,36.908075 75.8268347,37.0403761 75.8268347,37.3046335 C75.8268347,37.5621637 75.7105207,37.6907563 75.4777178,37.6907563 L74.6841589,37.6907563 C73.2942502,37.6907563 72.5994271,37.9761438 72.5994271,38.5464878 L72.5994271,39.8613923 Z" id="Fill-23" fill="#101425" fill-rule="nonzero"></path>
            <path d="M88.1654162,42.9504175 C88.1654162,43.1731044 88.1035861,43.3401626 87.9802758,43.4513335 C87.8567905,43.5627632 87.7139779,43.6183055 87.551663,43.6183055 C87.481175,43.6183055 87.4051773,43.6042475 87.3241948,43.5765625 C87.2430373,43.5487914 87.163629,43.4966989 87.0860572,43.4200263 L81.1178366,38.1604081 L81.1178366,43.1904398 C81.1178366,43.4758274 80.9520236,43.6183055 80.6204849,43.6183055 C80.2959426,43.6183055 80.1338026,43.4758274 80.1338026,43.1904398 L80.1338026,37.4820844 C80.1338026,37.2733694 80.1972069,37.1220941 80.3242777,37.0280861 C80.4511737,36.9341644 80.5922372,36.8872466 80.7475558,36.8872466 C80.8462915,36.8872466 80.9379435,36.8994935 81.0226865,36.9237286 C81.1072547,36.9482224 81.1884121,36.99859 81.2660714,37.0750901 L87.1813822,42.2303508 L87.1813822,37.2629336 C87.1813822,36.9916041 87.3506934,36.8559393 87.6892284,36.8559393 C88.0067744,36.8559393 88.1654162,36.9916041 88.1654162,37.2629336 L88.1654162,42.9504175 Z" id="Fill-25" fill="#101425" fill-rule="nonzero"></path>
            <path d="M90.451004,39.8613923 L96.3980606,39.8613923 C96.6308635,39.8613923 96.7471775,39.9970571 96.7471775,40.2684728 C96.7471775,40.5329027 96.6308635,40.6649451 96.3980606,40.6649451 L90.451004,40.6649451 L90.451004,41.9234448 C90.451004,42.4968074 90.9975924,42.7834024 92.0912939,42.7834024 L96.3980606,42.7834024 C96.6448562,42.7834024 96.7683414,42.9105288 96.7683414,43.1645229 C96.7683414,43.4322301 96.6448562,43.5660837 96.3980606,43.5660837 L92.059548,43.5660837 C90.3097655,43.5660837 89.4352241,43.0304106 89.4352241,41.9589781 L89.4352241,38.5464878 C89.4352241,37.4543563 90.3415114,36.908075 92.1546107,36.908075 L93.3292947,36.908075 C93.5620977,36.908075 93.6784117,37.0403761 93.6784117,37.3046335 C93.6784117,37.5621637 93.5620977,37.6907563 93.3292947,37.6907563 L92.5357358,37.6907563 C91.1458271,37.6907563 90.451004,37.9761438 90.451004,38.5464878 L90.451004,39.8613923 Z" id="Fill-27" fill="#101425" fill-rule="nonzero"></path>
            <path d="M100.577923,37.6907649 C99.4490645,37.6907649 98.8848979,37.9523486 98.8848979,38.4750848 L98.8848979,41.8737758 C98.8848979,42.4802568 99.505385,42.783411 100.747234,42.783411 L104.450829,42.783411 C104.6978,42.783411 104.821285,42.9104512 104.821285,43.1645315 C104.821285,43.4322387 104.6978,43.5660923 104.450829,43.5660923 L100.609668,43.5660923 C98.7965692,43.5660923 97.890107,43.0096339 97.890107,41.8964585 L97.890107,38.4734461 C97.890107,37.4299574 98.7754053,36.9080836 100.546177,36.9080836 L104.450829,36.9080836 C104.6978,36.9080836 104.821285,37.0369349 104.821285,37.2942064 C104.821285,37.5587224 104.6978,37.6907649 104.450829,37.6907649 L100.577923,37.6907649 Z" id="Fill-29" fill="#101425" fill-rule="nonzero"></path>
            <path d="M113.964047,41.7294089 C113.964047,42.954014 112.852942,43.5661009 110.630733,43.5661009 L109.117514,43.5661009 C107.0222,43.5661009 105.974674,42.954014 105.974674,41.7294089 L105.974674,37.2629077 C105.974674,36.9915782 106.138476,36.8559135 106.466604,36.8559135 C106.815721,36.8559135 106.990454,36.9919232 106.990454,37.2635977 L106.990454,41.6648107 C106.990454,42.410665 107.652307,42.7834196 108.97645,42.7834196 L110.803717,42.7834196 C112.24741,42.7834196 112.969256,42.410665 112.969256,41.6648107 L112.969256,37.2635977 C112.969256,36.9919232 113.134982,36.8559135 113.466696,36.8559135 C113.798234,36.8559135 113.964047,36.9915782 113.964047,37.2629077 L113.964047,41.7294089 Z" id="Fill-31" fill="#101425" fill-rule="nonzero"></path>
            <path d="M123.223255,41.7294089 C123.223255,42.954014 122.11215,43.5661009 119.88994,43.5661009 L118.376721,43.5661009 C116.281407,43.5661009 115.233881,42.954014 115.233881,41.7294089 L115.233881,37.2629077 C115.233881,36.9915782 115.397683,36.8559135 115.725811,36.8559135 C116.074928,36.8559135 116.249661,36.9919232 116.249661,37.2635977 L116.249661,41.6648107 C116.249661,42.410665 116.911514,42.7834196 118.235657,42.7834196 L120.062924,42.7834196 C121.506617,42.7834196 122.228464,42.410665 122.228464,41.6648107 L122.228464,37.2635977 C122.228464,36.9919232 122.394189,36.8559135 122.725903,36.8559135 C123.057442,36.8559135 123.223255,36.9915782 123.223255,37.2629077 L123.223255,41.7294089 Z" id="Fill-33" fill="#101425" fill-rule="nonzero"></path>
            <path d="M135.519438,43.190457 C135.519438,43.4758446 135.346367,43.6183228 135.000835,43.6183228 C134.683464,43.6183228 134.524647,43.4758446 134.524647,43.190457 L134.524647,38.3377469 L130.747066,43.2635073 C130.570583,43.5000797 130.344777,43.6183228 130.069821,43.6183228 C129.773439,43.6183228 129.53705,43.5000797 129.360743,43.2635073 L125.519407,38.3481826 L125.519407,43.190457 C125.519407,43.4758446 125.357179,43.6183228 125.032637,43.6183228 C124.701098,43.6183228 124.535373,43.4758446 124.535373,43.190457 L124.535373,37.4194871 C124.535373,37.0437139 124.722262,36.8559566 125.096129,36.8559566 C125.357179,36.8559566 125.5794,36.9707499 125.762792,37.2003364 L130.080403,42.6373623 L134.313008,37.1480714 C134.468152,36.9535007 134.672882,36.8559566 134.926937,36.8559566 C135.321792,36.8559566 135.519438,37.050786 135.519438,37.4403586 L135.519438,43.190457 Z" id="Fill-35" fill="#101425" fill-rule="nonzero"></path>
        </g>
    </g>
</svg>