<?xml version="1.0" encoding="UTF-8"?>
<svg width="24px" height="24px" viewBox="0 0 24 24" version="1.1" xmlns="http://www.w3.org/2000/svg" xmlns:xlink="http://www.w3.org/1999/xlink">
    <!-- Generator: Sketch 49.1 (51147) - http://www.bohemiancoding.com/sketch -->
    <title>icons/general/24px/social/facebook</title>
    <desc>Created with Sketch.</desc>
    <defs></defs>
    <g id="icons/general/24px/social/facebook" stroke="none" stroke-width="1" fill="none" fill-rule="evenodd">
        <g fill="#FFFFFF" fill-rule="nonzero" id="Shape">
            <path d="M17.2063581,2.00416133 L14.5079947,2 C11.4764759,2 9.51737528,3.93189975 9.51737528,6.92202699 L9.51737528,9.191411 L6.80429152,9.191411 C6.56984887,9.191411 6.38000011,9.37409361 6.38000011,9.5994299 L6.38000011,12.8875087 C6.38000011,13.112845 6.57006535,13.2953195 6.80429152,13.2953195 L9.51737528,13.2953195 L9.51737528,21.5921892 C9.51737528,21.8175255 9.70722404,22 9.94166668,22 L13.4814693,22 C13.7159119,22 13.9057607,21.8173174 13.9057607,21.5921892 L13.9057607,13.2953195 L17.0779883,13.2953195 C17.312431,13.2953195 17.5022797,13.112845 17.5022797,12.8875087 L17.5035786,9.5994299 C17.5035786,9.49123519 17.4587682,9.38761795 17.3793218,9.31104938 C17.2998754,9.23448082 17.1916378,9.191411 17.0790707,9.191411 L13.9057607,9.191411 L13.9057607,7.26762585 C13.9057607,6.34297723 14.1350079,5.87357864 15.3881829,5.87357864 L17.2059252,5.87295444 C17.4401514,5.87295444 17.6300001,5.69027184 17.6300001,5.46514362 L17.6300001,2.41197216 C17.6300001,2.18705201 17.4403678,2.00457747 17.2063581,2.00416133 Z"></path>
        </g>
    </g>
</svg>