<?xml version="1.0" encoding="UTF-8"?>
<svg width="32px" height="32px" viewBox="0 0 32 32" version="1.1" xmlns="http://www.w3.org/2000/svg" xmlns:xlink="http://www.w3.org/1999/xlink">
    <!-- Generator: Sketch 49.1 (51147) - http://www.bohemiancoding.com/sketch -->
    <title>icons/general/32px/face-recognition</title>
    <desc>Created with Sketch.</desc>
    <defs></defs>
    <g id="icons/general/32px/face-recognition" stroke="none" stroke-width="1" fill="none" fill-rule="evenodd">
        <g id="icons/general/32/face-recognition" fill-rule="nonzero">
            <path d="M24.4575523,19.4375 C24.2538719,20.4634227 23.8484006,21.2009488 23.4336927,21.2009488 C23.3545648,21.2009488 23.2804809,21.1740983 23.2121612,21.1235172 C23.0505195,22.827977 22.329241,24.4337651 21.1349538,25.7171205 L20.0286858,26.8933581 C19.0229875,27.982467 17.7155798,28.7811469 16.2501338,29.202269 L15.6323477,29.3765264 L15.0145616,29.202269 C13.5634827,28.7811469 12.256075,27.982467 11.2360096,26.8933581 L10.1297416,25.7171205 C8.91229871,24.4088825 8.18638442,22.7540339 8.04376391,21.0205218 C7.94831314,21.1369826 7.83819765,21.2009488 7.71606575,21.2009488 C7.30135786,21.2009488 6.89588651,20.4634227 6.69220613,19.4375 L1.33333333,19.4375 C0.917939675,19.4375 0.581196581,19.0954953 0.581196581,18.6736111 C0.581196581,18.2517269 0.917939675,17.9097222 1.33333333,17.9097222 L6.55799674,17.9097222 C6.57899003,16.8393107 6.85885557,16.0603548 7.28505222,16.0603548 C7.59833101,16.0603548 7.90633886,16.4812314 8.12606788,17.1293702 C8.28072167,14.7551061 8.63473287,12.2294441 9.39701854,10.542203 C9.87113343,9.49665842 10.9343002,8.82867162 12.1124038,8.82867162 L15.6323477,8.82867162 L19.1522916,8.82867162 C20.3303952,8.82867162 21.393562,9.49665842 21.8676769,10.542203 C22.6023526,12.1683324 22.9577936,14.5732474 23.1210283,16.8708344 C23.3298402,16.3715471 23.5953246,16.0603548 23.8647062,16.0603548 C24.2909029,16.0603548 24.5707684,16.8393107 24.5917617,17.9097222 L30.6666667,17.9097222 C31.0820603,17.9097222 31.4188034,18.2517269 31.4188034,18.6736111 C31.4188034,19.0954953 31.0820603,19.4375 30.6666667,19.4375 L24.4575523,19.4375 Z" id="Combined-Shape" fill="#BFB1EC"></path>
            <path d="M24.1376815,8.07355611 C24.4681252,9.23527228 24.4250238,10.4841172 24.3819225,11.7184406 C24.3388211,12.6332921 24.2957198,13.5481436 24.1376815,14.4484736 C23.9365418,15.5666254 23.5629968,16.6412129 23.0314134,17.6286716 C23.0026792,17.4834571 22.9739449,17.352764 22.9452107,17.2075495 C22.8877422,16.902599 22.7871724,16.5976485 22.7297039,16.292698 C22.6578683,15.9006188 22.7009697,15.4940182 22.6722355,15.0874175 C22.6722355,15.0438531 22.6866026,15.0148102 22.6866026,14.9712459 C22.7297039,14.462995 22.6291341,13.9692657 22.5285643,13.4755363 C22.3417917,12.6478135 22.1550192,11.8200908 21.7527399,11.0794967 C21.3504606,10.3389026 20.7183074,9.69995875 19.9281159,9.46761551 C19.20976,9.26431518 18.4339357,9.42405116 17.7155798,9.62735149 C17.3851361,9.7144802 17.0690595,9.81613036 16.7529829,9.93230198 C16.4656405,10.0194307 16.1926653,10.1356023 15.9053229,10.1791667 C14.3680413,10.4260314 12.8594939,9.06101485 11.3653137,9.45309406 C10.5751222,9.65639439 9.97170326,10.3389026 9.64125955,11.0940182 C9.39701854,11.6313119 8.79359959,14.4339521 8.64992841,14.9567244 C8.50625723,15.4940182 8.44878876,16.0603548 8.3194847,16.61217 C8.23328199,16.9752063 8.24764911,17.3818069 8.13271217,17.7448432 C7.68733152,17.222071 7.2706851,16.6702558 7.05517833,16.0167904 C6.89714003,15.5230611 6.85403868,14.9857673 6.82530444,14.4484736 C6.73910174,12.4590347 6.25061973,4.95144389 12.500316,3.49929868 C13.103735,3.36860561 13.6496854,3.02009076 14.2531044,2.96200495 C14.9858274,2.88939769 15.7185504,3.07817657 16.4512734,3.15078383 C17.1121608,3.20886964 17.7874154,3.16530528 18.4483028,3.29599835 C19.1091902,3.41216997 19.7700776,3.74616337 20.1005214,4.3415429 C20.3878637,4.86431518 20.3734966,5.50325908 20.2729268,6.09863861 C20.6895732,5.6484736 21.2498908,5.28543729 21.8676769,5.22735149 C22.4854629,5.16926568 23.1463503,5.45969472 23.4480598,6.0115099 C23.591731,6.25837459 23.6491995,6.56332508 23.7210351,6.83923267 C23.835972,7.24583333 24.0083774,7.65243399 24.1376815,8.07355611 Z M1.33333333,18.2916667 L30.6666667,18.2916667 C30.8743635,18.2916667 31.042735,18.4600382 31.042735,18.667735 L31.042735,18.6794872 C31.042735,18.887184 30.8743635,19.0555556 30.6666667,19.0555556 L1.33333333,19.0555556 C1.1256365,19.0555556 0.957264957,18.887184 0.957264957,18.6794872 L0.957264957,18.667735 C0.957264957,18.4600382 1.1256365,18.2916667 1.33333333,18.2916667 Z M2.32478632,1.48611111 L6.01709402,1.48611111 C6.23902381,1.48295716 6.44545178,1.60012626 6.55733261,1.79275206 C6.66921345,1.98537786 6.66921345,2.22361685 6.55733261,2.41624265 C6.44545178,2.60886845 6.23902381,2.72603755 6.01709402,2.7228836 L3.55555556,2.7228836 L3.55555556,5.19642857 C3.5586942,5.41944086 3.44209383,5.62687571 3.25040303,5.73930226 C3.05871223,5.85172881 2.82162965,5.85172881 2.62993885,5.73930226 C2.43824805,5.62687571 2.32164769,5.41944086 2.32478632,5.19642857 L2.32478632,1.48611111 Z M25.982906,1.48611111 L29.6752137,1.48611111 L29.6752137,5.19642857 C29.6783523,5.41944086 29.561752,5.62687571 29.3700612,5.73930226 C29.1783704,5.85172881 28.9412878,5.85172881 28.749597,5.73930226 C28.5579062,5.62687571 28.4413058,5.41944086 28.4444444,5.19642857 L28.4444444,2.7228836 L25.982906,2.7228836 C25.7609762,2.72603755 25.5545482,2.60886845 25.4426674,2.41624265 C25.3307866,2.22361685 25.3307866,1.98537786 25.4426674,1.79275206 C25.5545482,1.60012626 25.7609762,1.48295716 25.982906,1.48611111 Z M2.93055556,26.1767306 C3.09688953,26.1741199 3.25719084,26.2392836 3.37493422,26.3573738 C3.4926776,26.4754639 3.55783338,26.6364214 3.55555556,26.8035714 L3.55555556,29.2771164 L6.01709402,29.2771164 C6.23902381,29.2739625 6.44545178,29.3911315 6.55733261,29.5837574 C6.66921345,29.7763832 6.66921345,30.0146221 6.55733261,30.2072479 C6.44545178,30.3998737 6.23902381,30.5170428 6.01709402,30.5138889 L2.32478632,30.5138889 L2.32478632,26.8035714 C2.3201385,26.4625117 2.59116097,26.1820618 2.93055556,26.1767306 Z M29.0502137,26.1767306 C29.2165476,26.1741199 29.376849,26.2392836 29.4945923,26.3573738 C29.6123357,26.4754639 29.6774915,26.6364214 29.6752137,26.8035714 L29.6752137,30.5138889 L25.982906,30.5138889 C25.7609762,30.5170428 25.5545482,30.3998737 25.4426674,30.2072479 C25.3307866,30.0146221 25.3307866,29.7763832 25.4426674,29.5837574 C25.5545482,29.3911315 25.7609762,29.2739625 25.982906,29.2771164 L28.4444444,29.2771164 L28.4444444,26.8035714 C28.4397966,26.4625117 28.7108191,26.1820618 29.0502137,26.1767306 Z" id="Combined-Shape" fill="#6743DF"></path>
        </g>
    </g>
</svg>