<?xml version="1.0" encoding="UTF-8"?>
<svg width="32px" height="32px" viewBox="0 0 32 32" version="1.1" xmlns="http://www.w3.org/2000/svg" xmlns:xlink="http://www.w3.org/1999/xlink">
    <!-- Generator: Sketch 49.1 (51147) - http://www.bohemiancoding.com/sketch -->
    <title>icons/general/32px/fraud-prevention</title>
    <desc>Created with Sketch.</desc>
    <defs></defs>
    <g id="icons/general/32px/fraud-prevention" stroke="none" stroke-width="1" fill="none" fill-rule="evenodd">
        <g id="icons/general/32/fraud-prevention">
            <g transform="translate(1.000000, 5.000000)">
                <path d="M14.6563354,1.44620011 C10.9556503,1.44620011 6.37895293,1.01400158 0.926243208,0.149604531 L0.926240165,0.149623731 C0.489398899,0.0803729693 0.079130249,0.37836395 0.00987948719,0.815205216 C0.00330493968,0.85667817 2.39166085e-06,0.898603973 2.39166085e-06,0.940594812 L-4.19728171e-07,0.924657986 C-4.19728171e-07,1.56535574 0.164154052,2.19536896 0.476804974,2.75460327 C3.22325226,7.66713493 5.75131246,10.1234008 8.06098556,10.1234008 L8.79380221,10.1234008 C10.5514175,10.1234008 12.0170508,9.25342173 13.0418495,7.9541006 C13.7746661,6.94289001 15.3891521,6.94289001 16.2708228,7.9541006 C17.29562,9.25342173 18.9043827,10.1234008 20.5188686,10.1234008 L21.2516853,10.1234008 C23.5186455,10.1234008 25.9959901,7.75714265 28.6837193,3.02462644 L28.6916658,3.0291395 C29.0550269,2.38933841 29.2674307,1.67498587 29.3126685,0.940594812 L29.3126685,0.940594812 C29.3126685,0.498298577 28.9541165,0.139746636 28.5118203,0.139746636 C28.4698294,0.139746636 28.4279036,0.143049184 28.3864307,0.149623731 C22.9337179,1.01400158 18.3570205,1.44620011 14.6563354,1.44620011 Z M11.2842327,4.33860033 C11.2842327,6.50790049 10.551416,7.23100055 8.64494788,7.23100055 L8.20983795,7.23100055 C6.74420453,7.23100055 5.42169901,6.21978995 4.83773496,4.91482141 C4.5457544,3.90361081 5.27857111,2.89240022 6.30336838,2.89240022 L11.2842327,4.33860033 Z M24.1829515,4.91482141 C23.7421168,6.36102152 22.425336,7.23100055 20.8108499,7.23100055 L20.5188679,7.23100055 C18.6123998,7.23100055 17.8795831,6.50790049 17.8795831,4.33860033 L22.7173181,2.89240022 C23.8909695,2.89240022 24.6237862,3.90361081 24.1829515,4.91482141 Z" id="Shape" fill="#6743DF" fill-rule="nonzero"></path>
                <path d="M29.4997577,11.2112578 L25.3774745,7.02923137 C25.056773,6.70388199 24.6228827,6.52173913 24.1701276,6.52173913 L17.6155867,6.52173913 C17.1628316,6.52173913 16.7289413,6.70388199 16.4082398,7.02923137 L12.2859566,11.2112578 C11.9652551,11.5366071 11.7857143,11.9767857 11.7857143,12.4367624 L11.7857143,19.0856366 C11.7857143,19.5449534 11.9652551,19.985132 12.2859566,20.3104814 L16.4082398,24.4931677 C16.7289413,24.8178571 17.1628316,25 17.6155867,25 L24.1701276,25 C24.6228827,25 25.056773,24.8178571 25.3774745,24.4931677 L29.4997577,20.3104814 C29.8204592,19.985132 30,19.5449534 30,19.0856366 L30,12.4367624 C30,11.9767857 29.8204592,11.5366071 29.4997577,11.2112578 Z" id="Fill-4" fill="#BFB1EC"></path>
                <path d="M27.9808929,12.0141304 L24.5860714,8.5701087 C24.3219643,8.30217391 23.9646429,8.15217391 23.5917857,8.15217391 L18.1939286,8.15217391 C17.8210714,8.15217391 17.46375,8.30217391 17.1996429,8.5701087 L13.8048214,12.0141304 C13.5407143,12.2820652 13.3928571,12.6445652 13.3928571,13.0233696 L13.3928571,18.498913 C13.3928571,18.8771739 13.5407143,19.2396739 13.8048214,19.5076087 L17.1996429,22.9521739 C17.46375,23.2195652 17.8210714,23.3695652 18.1939286,23.3695652 L23.5917857,23.3695652 C23.9646429,23.3695652 24.3219643,23.2195652 24.5860714,22.9521739 L27.9808929,19.5076087 C28.245,19.2396739 28.3928571,18.8771739 28.3928571,18.498913 L28.3928571,13.0233696 C28.3928571,12.6445652 28.245,12.2820652 27.9808929,12.0141304 Z" id="Fill-4-Copy" fill="#6743DF"></path>
                <path d="M19.5535714,19.8369565 C19.5535714,19.6593343 19.6058871,19.4840187 19.6602954,19.3063959 C19.7126116,19.1287737 19.8214286,19.0111275 19.9281525,18.893482 C20.034877,18.7735292 20.1960096,18.6558831 20.3571429,18.5982136 C20.516183,18.538237 20.6773157,18.4782609 20.8928571,18.4782609 C21.1063055,18.4782609 21.2674382,18.538237 21.4285714,18.5982136 C21.5876116,18.6558831 21.7487443,18.7735292 21.8554688,18.893482 C21.9642857,19.0111275 22.0710096,19.1287737 22.1233259,19.3063959 C22.1777341,19.4840187 22.2321429,19.6593343 22.2321429,19.8369565 C22.2321429,20.0145787 22.1777341,20.192201 22.1233259,20.3698238 C22.0710096,20.5451394 21.9642857,20.6650921 21.8554688,20.7827377 C21.7487443,20.9003838 21.5876116,21.01803 21.4285714,21.078006 C21.2674382,21.1356761 21.1063055,21.1956522 20.8928571,21.1956522 C20.6773157,21.1956522 20.516183,21.1356761 20.3571429,21.078006 C20.1960096,21.01803 20.0892857,20.9003838 19.9281525,20.7827377 C19.8214286,20.6650921 19.7126116,20.5451394 19.6602954,20.3698238 C19.6058871,20.192201 19.5535714,20.0745554 19.5535714,19.8369565 Z M20.9581131,17.3913043 L20.8276207,17.3913043 C20.2551664,17.3913043 19.7838327,16.9413013 19.7573401,16.3694603 L19.5544728,11.9905784 C19.527088,11.3994787 19.9840692,10.898098 20.5751688,10.8707132 C20.5916859,10.869948 20.6082186,10.8695652 20.6247534,10.8695652 L21.1609804,10.8695652 C21.7527141,10.8695652 22.232409,11.3492601 22.232409,11.9409938 C22.232409,11.9575286 22.2320262,11.9740612 22.231261,11.9905784 L22.0283937,16.3694603 C22.0019011,16.9413013 21.5305674,17.3913043 20.9581131,17.3913043 Z" id="Combined-Shape" fill="#BFB1EC"></path>
            </g>
        </g>
    </g>
</svg>