<?xml version="1.0" encoding="UTF-8"?>
<svg width="208px" height="40px" viewBox="0 0 208 40" version="1.1" xmlns="http://www.w3.org/2000/svg" xmlns:xlink="http://www.w3.org/1999/xlink">
    <!-- Generator: Sketch 49.1 (51147) - http://www.bohemiancoding.com/sketch -->
    <title>icons/general/logotypes/goodhire</title>
    <desc>Created with Sketch.</desc>
    <defs></defs>
    <g id="icons/general/logotypes/goodhire" stroke="none" stroke-width="1" fill="none" fill-rule="evenodd">
        <g id="GH-Logo-Blue-Green-1" fill-rule="nonzero">
            <path d="M188.121033,0.000392156863 C177.354763,0.0669034306 168.678886,9.0378583 168.740959,20.0396078 C168.748806,21.6930978 168.955019,23.3393671 169.354982,24.9415686 L165.478967,31.9219608 L172.578598,31.8827451 C176.147601,36.4709804 181.904059,39.9219608 188.312915,39.8827451 C199.06055,39.7859854 207.708373,30.8268921 207.655532,19.8439104 C207.602691,8.86092866 198.869079,-0.0108412789 188.121033,0.000392156863 Z" id="Shape" fill="#82C146"></path>
            <path d="M17.6147601,22.6278431 C16.1988303,21.3133966 14.3467035,20.5984018 12.4339483,20.6278431 C8.7498155,20.6278431 6.33210332,22.8631373 6.33210332,27.4121569 C6.33210332,30.392549 7.86715867,34.0396078 12.4339483,34.0396078 C13.6236162,34.0396078 15.504059,33.8043137 16.8088561,32.8631373 L16.8088561,29.8827451 L11.0523985,29.8827451 L11.0523985,24.7454902 L22.104797,24.7454902 L22.104797,35.02 C20.6848708,37.9611765 16.7321033,39.5690196 12.3571956,39.5690196 C3.37712177,39.5690196 -1.42108547e-14,33.4513725 -1.42108547e-14,27.4121569 C-1.42108547e-14,21.3729412 3.87601476,15.1376471 12.395572,15.1376471 C15.5424354,15.1376471 18.3055351,15.8043137 21.298893,18.8631373 L17.6147601,22.6278431 Z" id="Shape" fill="#3E4456"></path>
            <path d="M42.597786,30.7847059 C42.597786,36.7454902 37.9542435,39.3337255 33.4642066,39.3337255 C28.8590406,39.3337255 24.3306273,36.7454902 24.3306273,30.7847059 C24.3306273,24.7454902 28.8206642,22.2356863 33.4642066,22.2356863 C38.1845018,22.2356863 42.597786,24.8631373 42.597786,30.7847059 Z M36.7645756,30.7847059 C36.7645756,28.9023529 35.5749077,27.2160784 33.4642066,27.2160784 C31.3535055,27.2160784 30.1638376,28.9023529 30.1638376,30.7847059 C30.1638376,32.6670588 31.3535055,34.3141176 33.4642066,34.3141176 C35.4597786,34.3533333 36.7645756,32.7847059 36.7645756,30.7847059 Z" id="Shape" fill="#3E4456"></path>
            <path d="M62.5918819,30.7847059 C62.5918819,36.7454902 57.9483395,39.3337255 53.4583026,39.3337255 C48.8531365,39.3337255 44.3247232,36.7454902 44.3247232,30.7847059 C44.3247232,24.7454902 48.8147601,22.2356863 53.4583026,22.2356863 C58.1785978,22.2356863 62.5918819,24.8631373 62.5918819,30.7847059 Z M56.7586716,30.7847059 C56.7586716,28.9023529 55.5690037,27.2160784 53.4583026,27.2160784 C51.3476015,27.2160784 50.1579336,28.9023529 50.1579336,30.7847059 C50.1579336,32.6670588 51.3476015,34.3141176 53.4583026,34.3141176 C55.4538745,34.3533333 56.7586716,32.7847059 56.7586716,30.7847059 Z" id="Shape" fill="#3E4456"></path>
            <path d="M76.5608856,15.8043137 L82.5092251,15.8043137 L82.5092251,38.9415686 L77.2132841,38.9415686 L76.9446494,37.1768627 C75.601476,38.7454902 73.4523985,39.3337255 71.6870849,39.2160784 C67.0051661,38.9023529 64.3571956,35.9219608 64.3571956,30.7454902 C64.3571956,25.765098 67.4656827,22.1964706 72.1092251,22.1964706 C74.1431734,22.1964706 75.6782288,22.8631373 76.5608856,23.9611765 L76.5608856,15.8043137 Z M70.3055351,30.7847059 C70.3055351,33.0592157 71.7254613,34.3533333 73.4907749,34.3533333 C75.4863469,34.3533333 76.6760148,32.6670588 76.6760148,30.9415686 C76.6760148,28.9415686 75.5630996,27.1768627 73.4907749,27.1768627 C71.7254613,27.1768627 70.3055351,28.4709804 70.3055351,30.7847059 Z" id="Shape" fill="#3E4456"></path>
            <polygon id="Shape" fill="#3E4456" points="100.968266 38.9807843 100.968266 30.2356863 92.8324723 30.2356863 92.8324723 38.9807843 86.4236162 38.9807843 86.4236162 15.8435294 92.8324723 15.8435294 92.8324723 24.6278431 100.968266 24.6278431 100.968266 15.8435294 107.300369 15.8435294 107.300369 38.9807843"></polygon>
            <path d="M114.361624,15.3337255 C116.011808,15.3337255 117.700369,16.3533333 117.700369,18.392549 C117.700369,20.392549 116.011808,21.4513725 114.361624,21.4513725 C112.673063,21.4513725 110.984502,20.4317647 110.984502,18.392549 C110.984502,16.3533333 112.673063,15.3337255 114.361624,15.3337255 Z M117.354982,38.9415686 L117.354982,22.8631373 L111.368266,22.8631373 L111.368266,38.9415686 L117.354982,38.9415686 Z" id="Shape" fill="#3E4456"></path>
            <path d="M126.18155,22.5886275 L126.526937,24.392549 C127.320167,22.9823794 128.812294,22.1369676 130.402952,22.1964706 C131.987134,22.1695285 133.512877,22.8073466 134.624354,23.9611765 L132.245018,28.3533333 C131.50742,27.6836895 130.544522,27.3322766 129.558672,27.3729412 C128.061993,27.3729412 126.795572,28.3141176 126.795572,30.4317647 L126.795572,38.9415686 L120.847232,38.9415686 L120.847232,22.5886275 L126.18155,22.5886275 Z" id="Shape" fill="#3E4456"></path>
            <path d="M152.008856,32.4709804 L140.841328,32.4709804 C141.263469,33.9219608 143.105535,34.5494118 144.410332,34.5494118 C145.88868,34.6027316 147.339534,34.1316299 148.516605,33.2160784 L151.43321,36.5494118 C149.514391,38.3533333 146.904797,39.2552941 144.141697,39.2552941 C139.076015,39.2552941 134.816236,36.7062745 134.816236,30.7454902 C134.816236,24.7847059 139.383026,22.1572549 143.719557,22.1572549 C149.399262,22.1964706 153.35203,26.0396078 152.008856,32.4709804 Z M146.674539,28.5886275 C146.521033,26.0003922 141.263469,25.9219608 140.879705,28.5886275 L146.674539,28.5886275 Z" id="Shape" fill="#3E4456"></path>
            <path d="M157.611808,33.2160784 C161.948339,33.2160784 161.909963,39.2160784 157.611808,39.2160784 C153.35203,39.2160784 153.313653,33.2160784 157.611808,33.2160784 Z" id="Shape" fill="#3E4456"></path>
        </g>
    </g>
</svg>