<?xml version="1.0" encoding="UTF-8"?>
<svg width="226px" height="48px" viewBox="0 0 226 48" version="1.1" xmlns="http://www.w3.org/2000/svg" xmlns:xlink="http://www.w3.org/1999/xlink">
    <!-- Generator: Sketch 49.1 (51147) - http://www.bohemiancoding.com/sketch -->
    <title>icons/general/google</title>
    <desc>Created with Sketch.</desc>
    <defs></defs>
    <g id="icons/general/google" stroke="none" stroke-width="1" fill="none" fill-rule="evenodd">
        <g id="google-2015">
            <g transform="translate(40.000000, 0.000000)">
                <path d="M18.319598,0 L19.6246231,0 C24.1552764,0.0984615385 28.6120603,1.92 31.8130653,5.14461538 C30.6311558,6.35076923 29.4246231,7.50769231 28.2673367,8.71384615 C26.4698492,7.08923077 24.3030151,5.83384615 21.939196,5.39076923 C18.4427136,4.65230769 14.6753769,5.31692308 11.7452261,7.31076923 C8.54422111,9.40307692 6.37738693,12.9476923 5.90954774,16.7384615 C5.39246231,20.48 6.45125628,24.4184615 8.88894472,27.3230769 C11.2281407,30.1538462 14.7984925,31.9261538 18.4919598,32.0492308 C21.939196,32.2461538 25.5341709,31.1876923 28.0457286,28.7753846 C30.0155779,27.0769231 30.9266332,24.4923077 31.2221106,21.9815385 C27.1346734,21.9815385 23.0472362,22.0061538 18.959799,21.9815385 L18.959799,16.9107692 L36.1713568,16.9107692 C37.0577889,22.3507692 35.7773869,28.48 31.6407035,32.3692308 C28.8829146,35.1261538 25.0663317,36.7507692 21.1758794,37.0707692 C17.4085427,37.44 13.5180905,36.7261538 10.1693467,34.9046154 C6.15577889,32.7630769 2.95477387,29.1446154 1.37889447,24.8861538 C-0.0984924623,20.9723077 -0.123115578,16.5415385 1.25577889,12.6030769 C2.51155779,9.00923077 4.92462312,5.83384615 8.02713568,3.61846154 C11.0065327,1.42769231 14.6261307,0.221538462 18.319598,0 Z" id="Shape" fill="#3780FF" fill-rule="nonzero"></path>
                <path d="M117.058291,1.28 L122.327638,1.28 L122.327638,36.4307692 C120.579397,36.4307692 118.806533,36.4553846 117.058291,36.4061538 C117.082915,24.7138462 117.058291,12.9969231 117.058291,1.28 Z" id="Shape" fill="#38B137" fill-rule="nonzero"></path>
                <path d="M47.8919598,13.4646154 C51.1422111,12.8492308 54.6633166,13.5384615 57.3472362,15.4830769 C59.7849246,17.2061538 61.4839196,19.9138462 62.001005,22.8676923 C62.6658291,26.2892308 61.8286432,30.0307692 59.6125628,32.7384615 C57.2241206,35.7661538 53.3090452,37.3907692 49.4924623,37.1446154 C45.9959799,36.9476923 42.5979899,35.2 40.5296482,32.3446154 C38.1904523,29.1938462 37.6241206,24.8615385 38.9045226,21.1692308 C40.1849246,17.2061538 43.8045226,14.1784615 47.8919598,13.4646154 Z M48.6306533,18.1415385 C47.301005,18.4861538 46.0698492,19.2492308 45.1834171,20.3323077 C42.7949749,23.1876923 42.9427136,27.84 45.5773869,30.4984615 C47.079397,32.0246154 49.3447236,32.7384615 51.4376884,32.32 C53.3829146,31.9753846 55.0819095,30.6707692 56.0175879,28.9476923 C57.6427136,26.0184615 57.1748744,21.9815385 54.6879397,19.6923077 C53.0874372,18.2153846 50.7482412,17.6 48.6306533,18.1415385 Z" id="Shape" fill="#FA3913" fill-rule="nonzero"></path>
                <path d="M73.9924623,13.4646154 C77.7105528,12.7507692 81.7733668,13.7846154 84.5557789,16.3938462 C89.0864322,20.4553846 89.5788945,28.0615385 85.7130653,32.7384615 C83.3738693,35.6923077 79.5819095,37.3169231 75.839196,37.1446154 C72.2688442,37.0461538 68.7477387,35.2738462 66.6301508,32.3446154 C64.2417085,29.12 63.7246231,24.6892308 65.0788945,20.9230769 C66.4331658,17.0830769 69.9788945,14.1538462 73.9924623,13.4646154 Z M74.7311558,18.1415385 C73.4015075,18.4861538 72.1703518,19.2492308 71.2839196,20.3076923 C68.9201005,23.1138462 69.018593,27.6923077 71.5547739,30.3753846 C73.0567839,31.9753846 75.3959799,32.7630769 77.5628141,32.32 C79.4834171,31.9507692 81.2070352,30.6707692 82.1427136,28.9476923 C83.7432161,25.9938462 83.2753769,21.9569231 80.7638191,19.6676923 C79.1633166,18.1907692 76.8241206,17.6 74.7311558,18.1415385 Z" id="Shape" fill="#FCBD06" fill-rule="nonzero"></path>
                <path d="M96.1286432,14.8923077 C98.9603015,13.12 102.727638,12.6276923 105.780905,14.1538462 C106.741206,14.5723077 107.529146,15.2861538 108.292462,16 C108.317085,15.3353846 108.292462,14.6461538 108.317085,13.9569231 C109.966834,13.9815385 111.616583,13.9569231 113.290955,13.9815385 L113.290955,35.6923077 C113.266332,38.9661538 112.429146,42.4369231 110.065327,44.8246154 C107.479899,47.4584615 103.515578,48.2707692 99.9452261,47.7292308 C96.1286432,47.1630769 92.8045226,44.3815385 91.3271357,40.8615385 C92.8045226,40.1476923 94.3557789,39.5815385 95.8824121,38.9169231 C96.7442211,40.9353846 98.4924623,42.6584615 100.68392,43.0523077 C102.875377,43.4461538 105.411558,42.9046154 106.839698,41.0830769 C108.366332,39.2123077 108.366332,36.6523077 108.292462,34.3630769 C107.159799,35.4707692 105.854774,36.4553846 104.278894,36.8246154 C100.856281,37.7846154 97.0889447,36.6030769 94.4542714,34.2892308 C91.7949749,31.9753846 90.2190955,28.4061538 90.3668342,24.8615385 C90.4407035,20.8492308 92.7060302,16.9846154 96.1286432,14.8923077 Z M101.225628,18.0430769 C99.7236181,18.2892308 98.3201005,19.1261538 97.359799,20.2830769 C95.0452261,23.04 95.0452261,27.4461538 97.3844221,30.1538462 C98.7140704,31.7538462 100.856281,32.64 102.924623,32.4184615 C104.869849,32.2215385 106.667337,30.9907692 107.627638,29.2923077 C109.252764,26.4123077 108.98191,22.4984615 106.790452,19.9876923 C105.436181,18.4369231 103.269347,17.6738462 101.225628,18.0430769 Z" id="Shape" fill="#3780FF" fill-rule="nonzero"></path>
                <path d="M128.655779,16.1476923 C131.610553,13.3907692 136.165829,12.4553846 139.957789,13.9076923 C143.552764,15.2615385 145.842714,18.6830769 147,22.2030769 C141.656784,24.4184615 136.338191,26.6092308 130.994975,28.8246154 C131.733668,30.2276923 132.866332,31.5076923 134.392965,32.0246154 C136.535176,32.7876923 139.09598,32.5169231 140.893467,31.0892308 C141.607538,30.5476923 142.173869,29.8338462 142.715578,29.1446154 C144.069849,30.0553846 145.424121,30.9415385 146.778392,31.8523077 C144.857789,34.7323077 141.632161,36.7507692 138.160302,37.0707692 C134.319095,37.5384615 130.231658,36.0615385 127.744724,33.0584615 C123.657286,28.3323077 124.051256,20.4061538 128.655779,16.1476923 Z M131.290452,20.7015385 C130.453266,21.9076923 130.108543,23.3846154 130.133166,24.8369231 C133.703518,23.36 137.273869,21.8830769 140.844221,20.3815385 C140.253266,19.0030769 138.825126,18.1661538 137.372362,17.9446154 C135.033166,17.5261538 132.595477,18.7815385 131.290452,20.7015385 Z" id="Shape" fill="#FA3913" fill-rule="nonzero"></path>
            </g>
        </g>
    </g>
</svg>