<?xml version="1.0" encoding="UTF-8"?>
<svg width="52px" height="44px" viewBox="0 0 52 44" version="1.1" xmlns="http://www.w3.org/2000/svg" xmlns:xlink="http://www.w3.org/1999/xlink">
    <!-- Generator: Sketch 49.1 (51147) - http://www.bohemiancoding.com/sketch -->
    <title>icons/general/heading</title>
    <desc>Created with Sketch.</desc>
    <defs></defs>
    <g id="icons/general/heading" stroke="none" stroke-width="1" fill="none" fill-rule="evenodd">
        <g id="Group">
            <g>
                <polygon id="Fill-13" fill="#E1D9F9" points="9.06457975 24.4054054 4.48837209 32.4885982 9.06457975 40.5723324 18.2172605 40.5723324 22.7937336 32.4885982 18.2172605 24.4054054"></polygon>
                <polygon id="Fill-13" fill="#E1D9F9" points="23.0180681 0 18.4418605 8.08319281 23.0180681 16.166927 32.1707489 16.166927 36.7472219 8.08319281 32.1707489 0"></polygon>
                <g id="Group-10-Copy-12" transform="translate(13.953488, 16.270270)">
                    <polygon id="Fill-13" fill="#E1D9F9" points="9.06457975 0 4.48837209 8.08319281 9.06457975 16.166927 18.2172605 16.166927 22.7937336 8.08319281 18.2172605 0"></polygon>
                    <path d="M1.33404973,10.4075195 L5.74568636,18.200283 L14.5594145,18.200283 L18.971307,10.4075195 L14.5594173,2.615022 L5.74568356,2.615022 L1.33404973,10.4075195 Z M5.40673175,2.03362665 L14.8983595,2.03362665 L19.6394159,10.4075147 L14.8983623,18.7816783 L5.40672896,18.7816783 L0.665950271,10.4075147 L5.40673175,2.03362665 Z" id="Stroke-14" fill="#6743DF" fill-rule="nonzero"></path>
                </g>
                <path d="M28.4505066,34.954433 C28.3600936,34.8217638 28.3943491,34.6409199 28.5270184,34.550507 C28.6596876,34.460094 28.8405314,34.4943495 28.9309444,34.6270187 L33.1721409,40.8504219 C33.2625539,40.9830911 33.2282984,41.1639349 33.0956292,41.2543479 C32.9629599,41.3447608 32.7821161,41.3105054 32.6917031,41.1778361 L28.4505066,34.954433 Z" id="Path-10" fill="#6743DF" fill-rule="nonzero"></path>
                <g id="Group-10-Copy-12" transform="translate(27.906977, 8.135135)">
                    <polygon id="Fill-13" fill="#E1D9F9" points="9.06457975 0 4.48837209 8.08319281 9.06457975 16.166927 18.2172605 16.166927 22.7937336 8.08319281 18.2172605 0"></polygon>
                    <path d="M1.33404973,10.4075195 L5.74568636,18.200283 L14.5594145,18.200283 L18.971307,10.4075195 L14.5594173,2.615022 L5.74568356,2.615022 L1.33404973,10.4075195 Z M5.40673175,2.03362665 L14.8983595,2.03362665 L19.6394159,10.4075147 L14.8983623,18.7816783 L5.40672896,18.7816783 L0.665950271,10.4075147 L5.40673175,2.03362665 Z" id="Stroke-14" fill="#6743DF" fill-rule="nonzero"></path>
                </g>
                <g id="Group-10-Copy-12" transform="translate(0.000000, 26.405405)" fill="#6743DF" fill-rule="nonzero">
                    <path d="M1.33404973,8.40751953 L5.74568636,16.200283 L14.5594145,16.200283 L18.971307,8.40751953 L14.5594173,0.615021999 L5.74568356,0.615021999 L1.33404973,8.40751953 Z M5.40673175,0.0336266499 L14.8983595,0.0336266499 L19.6394159,8.40751473 L14.8983623,16.7816783 L5.40672896,16.7816783 L0.665950271,8.40751473 L5.40673175,0.0336266499 Z" id="Stroke-14"></path>
                </g>
                <g id="Group-10-Copy-12" transform="translate(13.953488, 2.000000)" fill="#6743DF" fill-rule="nonzero">
                    <path d="M1.33404973,8.40751953 L5.74568636,16.200283 L14.5594145,16.200283 L18.971307,8.40751953 L14.5594173,0.615021999 L5.74568356,0.615021999 L1.33404973,8.40751953 Z M5.40673175,0.0336266499 L14.8983595,0.0336266499 L19.6394159,8.40751473 L14.8983623,16.7816783 L5.40672896,16.7816783 L0.665950271,8.40751473 L5.40673175,0.0336266499 Z" id="Stroke-14"></path>
                </g>
            </g>
        </g>
    </g>
</svg>