
<svg width="32px" height="32px" viewBox="0 0 32 32" version="1.1" xmlns="http://www.w3.org/2000/svg" xmlns:xlink="http://www.w3.org/1999/xlink">
    <!-- Generator: Sketch 49.1 (51147) - http://www.bohemiancoding.com/sketch -->
    <desc>Created with Sketch.</desc>
    <defs></defs>
    <g id="Page-1" stroke="none" stroke-width="1" fill="none" fill-rule="evenodd">
        <g id="landing-copy-2" transform="translate(-160.000000, -6164.000000)">
            <g id="unique-features-for-businesses" transform="translate(-64.000000, 5212.000000)">
                <g id="Group-3-Copy-2" transform="translate(208.000000, 930.000000)">
                    <g id="Group-76" transform="translate(16.000000, 22.000000)">
                        <path d="M16,24 C12.7146667,24 9.796,21.3466667 8.58533333,17.3306667 C7.48666667,17.264 6.66666667,15.8546667 6.66666667,14 C6.66666667,12.1 7.52666667,10.6666667 8.66666667,10.6666667 C8.72933333,10.6666667 8.82266667,10.6813333 8.88266667,10.6986667 C9.24933333,10.7346667 9.47066667,11.0533333 9.43466667,11.42 C9.39733333,11.7866667 9.028,12.0373333 8.65866667,12.008 C8.652,12.008 8.64533333,12.0066667 8.63733333,12.0053333 C8.44933333,12.0773333 8,12.7773333 8,14 C8,15.2906667 8.50133333,16 8.66666667,16 C8.848,15.888 9.09466667,15.8546667 9.28933333,15.9346667 C9.48666667,16.0146667 9.65466667,16.1693333 9.70533333,16.376 C10.6386667,20.1386667 13.168,22.6666667 16,22.6666667 C18.832,22.6666667 21.3613333,20.1386667 22.296,16.376 C22.3466667,16.1693333 22.4946667,16 22.6906667,15.9186667 C22.888,15.8386667 23.112,15.8586667 23.2933333,15.9693333 C23.5106667,15.9786667 24,15.2906667 24,14 C24,12.7773333 23.552,12.0773333 23.3626667,12.0053333 C23.356,12.0066667 23.3493333,12.008 23.3426667,12.008 C22.98,12.044 22.6506667,11.7773333 22.6133333,11.412 C22.5773333,11.0453333 22.844,10.7186667 23.2106667,10.6813333 C24.5333333,10.6826667 25.3333333,12.1 25.3333333,14 C25.3333333,15.8546667 24.5146667,17.264 23.416,17.3306667 C22.2053333,21.3466667 19.2866667,24 16,24" id="Fill-3069" fill="#BFB1EC"></path>
                        <path d="M16,13.3333333 C16,14.4373333 14.14,15.3333333 12.6666667,15.3333333 C11.1946667,15.3333333 10.6666667,14.4373333 10.6666667,13.3333333 C10.6666667,12.2293333 10.14,11.3333333 13.3333333,11.3333333 C16.4173333,11.3333333 16,12.2293333 16,13.3333333" id="Fill-3070" fill="#BFB1EC"></path>
                        <path d="M13.3333333,12 C11.756,12 11.4146667,12.2333333 11.3466667,12.3053333 C11.284,12.3733333 11.3,12.6293333 11.316,12.8773333 C11.3253333,13.024 11.3333333,13.1773333 11.3333333,13.3333333 C11.3333333,14.2546667 11.7453333,14.6666667 12.6666667,14.6666667 C13.9546667,14.6666667 15.3333333,13.884 15.3333333,13.3333333 C15.3333333,13.2026667 15.3386667,13.0746667 15.344,12.9506667 C15.356,12.668 15.368,12.4 15.2853333,12.3146667 C15.1946667,12.2213333 14.8226667,12 13.3333333,12 L13.3333333,12 Z M12.6666667,16 C10.9973333,16 10,15.0026667 10,13.3333333 C10,13.2053333 9.992,13.0813333 9.98533333,12.9613333 C9.95466667,12.48 9.916,11.8813333 10.3746667,11.392 C10.86,10.8773333 11.7173333,10.6666667 13.3333333,10.6666667 C14.8893333,10.6666667 15.76,10.884 16.2493333,11.392 C16.724,11.888 16.6973333,12.508 16.676,13.0066667 C16.672,13.1133333 16.6666667,13.2226667 16.6666667,13.3333333 C16.6666667,14.9853333 14.3373333,16 12.6666667,16 L12.6666667,16 Z" id="Fill-3071" fill="#6743DF"></path>
                        <path d="M16.02,13.3333333 C16.02,14.4373333 17.8613333,15.3333333 19.3333333,15.3333333 C20.8066667,15.3333333 21.3533333,14.4373333 21.3533333,13.3333333 C21.3533333,12.2293333 21.88,11.3333333 18.6866667,11.3333333 C15.6026667,11.3333333 16.02,12.2293333 16.02,13.3333333" id="Fill-3072" fill="#BFB1EC"></path>
                        <path d="M18.6866667,12 C17.1973333,12 16.8253333,12.2213333 16.7346667,12.3146667 C16.652,12.4 16.664,12.668 16.676,12.9506667 C16.6813333,13.0746667 16.6866667,13.2026667 16.6866667,13.3333333 C16.6866667,13.884 18.0546667,14.6666667 19.3333333,14.6666667 C20.2693333,14.6666667 20.6866667,14.2546667 20.6866667,13.3333333 C20.6866667,13.1773333 20.6946667,13.024 20.704,12.8773333 C20.72,12.6293333 20.736,12.3733333 20.6733333,12.3053333 C20.6066667,12.2333333 20.264,12 18.6866667,12 L18.6866667,12 Z M19.3333333,16 C17.672,16 15.3533333,14.9853333 15.3533333,13.3333333 C15.3533333,13.2226667 15.348,13.1133333 15.344,13.0066667 C15.3226667,12.508 15.296,11.888 15.772,11.392 C16.26,10.884 17.1306667,10.6666667 18.6866667,10.6666667 C20.304,10.6666667 21.1613333,10.8773333 21.6453333,11.392 C22.104,11.8813333 22.0653333,12.48 22.0346667,12.9613333 C22.028,13.0813333 22.02,13.2053333 22.02,13.3333333 C22.02,14.9773333 20.9906667,16 19.3333333,16 L19.3333333,16 Z" id="Fill-3073" fill="#6743DF"></path>
                        <path d="M22.5133333,6.42666667 C22.3786667,6.588 21.0546667,8 16,8 C10.9453333,8 9.62266667,6.588 9.488,6.42666667 C9.252,6.144 9.29066667,5.72266667 9.57333333,5.488 C9.852,5.25733333 10.26,5.28933333 10.4986667,5.556 C10.5506667,5.60666667 11.712,6.66666667 16,6.66666667 C20.3733333,6.66666667 21.4946667,5.56533333 21.5053333,5.55466667 C21.756,5.29733333 22.172,5.276 22.4386667,5.51333333 C22.704,5.75333333 22.7426667,6.152 22.5133333,6.42666667 L22.5133333,6.42666667 Z M23.4813333,6.016 C22.444,2.864 20.5533333,0 18.6666667,0 C17.4466667,0 16.5333333,0.584 16,1.04666667 C15.468,0.584 14.5546667,0 13.3333333,0 C11.448,0 9.55733333,2.864 8.51866667,6.016 C3.37866667,6.90266667 2.66666667,7.81333333 2.66666667,8.66666667 C2.66666667,11.2986667 11.048,12 16,12 C20.9533333,12 29.3333333,11.2986667 29.3333333,8.66666667 C29.3333333,7.81333333 28.6226667,6.90266667 23.4813333,6.016 L23.4813333,6.016 Z" id="Fill-3074" fill="#6743DF"></path>
                        <path d="M8.89066667,28.9973333 C8.468,28.716 8.17066667,28.288 8.05466667,27.792 C8,27.568 7.83466667,27.3866667 7.616,27.3133333 L7.368,27.2306667 C7.07466667,27.1333333 6.80533333,26.9666667 6.58666667,26.748 L4.504,24.6653333 C4.27733333,24.44 3.92533333,24.404 3.66266667,24.5813333 C1.33466667,26.132 0,28.5933333 0,31.3333333 C0,31.7013333 0.298666667,32 0.666666667,32 L11.1933333,32 C11.4866667,32 11.7466667,31.808 11.832,31.5266667 C11.916,31.2453333 11.8066667,30.9413333 11.5626667,30.7786667 L8.89066667,28.9973333" id="Fill-3075" fill="#BFB1EC"></path>
                        <path d="M22.6666667,27.3333333 L22.6666667,26.48 L24.212,25.9653333 C24.3093333,25.9333333 24.3986667,25.8773333 24.472,25.8053333 L27.8053333,22.472 C27.9693333,22.308 28.036,22.072 27.9826667,21.8466667 C27.9293333,21.6213333 27.764,21.4413333 27.5453333,21.368 L23.5453333,20.0346667 C23.264,19.9413333 22.952,20.044 22.784,20.2893333 L16,30.1573333 L9.21733333,20.2893333 C9.048,20.044 8.74,19.9413333 8.456,20.0346667 L4.456,21.368 C4.23733333,21.4413333 4.072,21.6213333 4.01866667,21.8466667 C3.96533333,22.072 4.032,22.308 4.196,22.472 L7.52933333,25.8053333 C7.60266667,25.8773333 7.692,25.9333333 7.78933333,25.9653333 L9.33333333,26.48 L9.33333333,27.3333333 C9.33333333,27.556 9.44533333,27.764 9.63066667,27.888 L15.6226667,31.8826667 C15.6613333,31.9093333 15.7026667,31.932 15.7453333,31.9493333 C15.8266667,31.9826667 15.9146667,32 16,32 C16.088,32 16.176,31.9826667 16.26,31.948 C16.3013333,31.9306667 16.34,31.9093333 16.3773333,31.8826667 L22.3706667,27.888 C22.556,27.764 22.6666667,27.556 22.6666667,27.3333333" id="Fill-3076" fill="#BFB1EC"></path>
                        <path d="M28.3386667,24.5813333 C28.076,24.404 27.7213333,24.44 27.4973333,24.6653333 L25.4146667,26.748 C25.196,26.9666667 24.9266667,27.1333333 24.632,27.2306667 L24.3853333,27.3133333 C24.1653333,27.3866667 24,27.568 23.9466667,27.792 C23.8306667,28.288 23.5333333,28.716 23.1106667,28.9973333 L20.4386667,30.7786667 C20.1933333,30.9413333 20.084,31.2453333 20.1693333,31.5266667 C20.2546667,31.808 20.5146667,32 20.808,32 L31.3333333,32 C31.7026667,32 32,31.7013333 32,31.3333333 C32,28.5933333 30.6653333,26.132 28.3386667,24.5813333" id="Fill-3077" fill="#BFB1EC"></path>
                    </g>
                </g>
            </g>
        </g>
    </g>
</svg>