<?xml version="1.0" encoding="UTF-8"?>
<svg width="204px" height="56px" viewBox="0 0 204 56" version="1.1" xmlns="http://www.w3.org/2000/svg" xmlns:xlink="http://www.w3.org/1999/xlink">
    <!-- Generator: Sketch 51.1 (57501) - http://www.bohemiancoding.com/sketch -->
    <title>icons/general/logotypes/ico-bazaar</title>
    <desc>Created with Sketch.</desc>
    <defs>
        <polygon id="path-1" points="0.753726316 0.855076923 24.2674105 0.855076923 24.2674105 23.8258462 0.753726316 23.8258462"></polygon>
        <polygon id="path-3" points="4.46652632 9.45969231 4.46652632 0.56 0.383305263 0.56 0.383305263 9.46076923 4.46652632 9.46076923"></polygon>
    </defs>
    <g id="icons/general/logotypes/ico-bazaar" stroke="none" stroke-width="1" fill="none" fill-rule="evenodd">
        <g id="logo-(1)">
            <g>
                <path d="M25.1027368,8.43446154 C24.9738947,8.44307692 24.8343158,8.45169231 24.6968842,8.45169231 C24.5583789,8.45169231 24.4198737,8.44307692 24.2899579,8.43446154 L24.2899579,14.3004615 L16.0344,19.082 C16.2061895,19.2941538 16.3522105,19.53 16.4574316,19.7744615 L24.2899579,15.2470769 L24.2899579,24.3104615 C24.4198737,24.2932308 24.5583789,24.2867692 24.6968842,24.2867692 C24.8353895,24.2867692 24.9728211,24.2932308 25.1038105,24.3104615 L25.1038105,15.2470769 L32.9363368,19.7744615 C33.0456874,19.5256249 33.187979,19.2927075 33.3593684,19.082 L25.1027368,14.3004615 L25.1027368,8.43446154 Z M25.1027368,37.5673846 L25.1027368,31.6690769 C24.8327412,31.7009313 24.5599535,31.7009313 24.2899579,31.6690769 L24.2899579,37.5673846 C24.4249262,37.5503422 24.5608517,37.5420686 24.6968842,37.5426154 C24.8353895,37.5426154 24.9728211,37.5501538 25.1038105,37.5673846 L25.1027368,37.5673846 Z M23.0777684,39.9495385 C22.9070526,40.1616923 22.7857263,40.4136923 22.7041263,40.6829231 C22.6548135,40.8669192 22.630259,41.0567045 22.6311158,41.2472308 C22.6297008,41.8685734 22.9069373,42.4576154 23.3861251,42.8513923 C23.8653129,43.2451692 24.4956463,43.4019309 25.1027368,43.2783077 C26.0687068,43.0858924 26.7640775,42.2350352 26.7626526,41.2472308 C26.7626526,41.0512308 26.7379579,40.8627692 26.6896421,40.6829231 C26.6127841,40.4169485 26.4855606,40.1683155 26.3149263,39.9506154 C25.9175639,39.4634298 25.3244235,39.17919 24.6968842,39.1752308 C24.5573053,39.1752308 24.4198737,39.1903077 24.2888842,39.2150769 C23.8025053,39.3130769 23.3794737,39.5823077 23.0777684,39.9495385 Z M26.6574316,27.3290769 C26.3763467,26.4834173 25.5856129,25.9144216 24.6968842,25.9183077 C24.1480442,25.9151331 23.6207669,26.1324128 23.232672,26.5216785 C22.844577,26.9109442 22.6279507,27.439812 22.6311158,27.9903077 C22.6311158,28.2175385 22.6719158,28.4458462 22.7363368,28.6504615 C22.8265263,28.9110769 22.9639579,29.148 23.1507789,29.3515385 C23.4363789,29.694 23.8336421,29.9309231 24.2899579,30.0213846 C24.4198737,30.0450769 24.5583789,30.0623077 24.6968842,30.0623077 C24.8353895,30.0623077 24.9738947,30.0450769 25.1038105,30.0213846 C25.5486028,29.9357886 25.9504751,29.6992616 26.2419158,29.3515385 C26.5819437,28.980838 26.7681829,28.4939997 26.7626526,27.9903077 C26.7626526,27.7533846 26.7218526,27.5326154 26.6574316,27.3290769 Z M27.6656211,30.1753846 L35.4337263,34.6715385 L27.7214526,39.1332308 C27.8771368,39.354 28.0156421,39.5984615 28.1133474,39.8515385 L36.2550947,35.1443077 L41.4034105,38.122 C41.5099452,37.8712133 41.6435191,37.6328718 41.8017474,37.4112308 L36.6856421,34.4593846 L36.6856421,25.0276923 C36.5557263,25.0438462 36.4172211,25.0513846 36.2787158,25.0513846 C36.1412842,25.0513846 36.0102947,25.0438462 35.8728632,25.0352308 L35.8728632,33.9844615 L28.0800632,29.4732308 C27.9734607,29.7246247 27.8340991,29.9607331 27.6656211,30.1753846 Z M32.8708421,22.7930769 L27.6656211,25.7955385 C27.8277474,26.0152308 27.9662526,26.2521538 28.0736211,26.5052308 L33.2702526,23.4941538 C33.1106917,23.2770219 32.9766669,23.0421323 32.8708421,22.7941538 L32.8708421,22.7930769 Z M35.8717895,23.38 C36.0027789,23.4047692 36.1402105,23.4209231 36.2797895,23.4209231 C36.828015,23.4220699 37.3541159,23.2041388 37.7417707,22.8153145 C38.1294256,22.4264903 38.3467012,21.8988024 38.3455579,21.3489231 C38.3455579,21.0958462 38.3036842,20.86 38.2145684,20.6392308 C38.1232832,20.378529 37.9788457,20.1397633 37.7904632,19.9381538 C37.3997708,19.517008 36.8522476,19.2775241 36.2787158,19.2769231 C35.6924842,19.2769231 35.1642316,19.5224615 34.7991789,19.9123077 C34.6039852,20.1072457 34.4514933,20.3408917 34.3514526,20.5983077 C34.1725311,21.0317513 34.1550011,21.5152821 34.3020632,21.9606154 C34.3761474,22.2298462 34.5135789,22.4667692 34.6928842,22.6789231 C34.986,23.03 35.3929263,23.2906154 35.8717895,23.38 Z M16.5229263,22.7930769 C16.4166316,23.0375385 16.2867158,23.2744615 16.1245895,23.4930769 L21.3212211,26.5052308 C21.4275158,26.2521538 21.5660211,26.0152308 21.7270737,25.7944615 L16.5229263,22.7930769 Z M21.3126316,29.4743077 L13.5209053,33.9855385 L13.5209053,25.0363077 C13.3824,25.0438462 13.2524842,25.0524615 13.1139789,25.0524615 C12.9765474,25.0524615 12.8380421,25.0438462 12.7081263,25.0287692 L12.7081263,34.4583077 L7.59094737,37.4123077 C7.74555789,37.632 7.88406316,37.8689231 7.98928421,38.1230769 L13.1376,35.1443077 L21.2793474,39.8515385 C21.3770526,39.5984615 21.5155579,39.354 21.6701684,39.1343077 L13.9589684,34.6704615 L21.7270737,30.1753846 C21.5579526,29.9613688 21.4182024,29.725576 21.3115579,29.4743077 L21.3126316,29.4743077 Z" id="Shape" fill="#253B6E" fill-rule="nonzero"></path>
                <path d="M46.2006316,12.6366154 C45.4447579,12.6366154 44.7457895,12.9295385 44.2325684,13.4195385 L29.682,4.984 C29.4967069,5.49792233 29.2278729,5.97753385 28.8864,6.40338462 L43.4036842,14.8141538 C43.2409557,15.4139678 43.2809784,16.0509609 43.5174947,16.6255385 L39.2141684,19.1132308 C39.3859579,19.3253846 39.5244632,19.5623077 39.6382737,19.8153846 L43.9244211,17.3352308 C44.2894737,17.8090769 44.8026947,18.1590769 45.3878526,18.3303077 L45.3878526,35.1443077 C45.6476842,35.1033846 45.9246947,35.0796923 46.2017053,35.0796923 C46.4787158,35.0796923 46.7546526,35.1033846 47.0144842,35.1443077 L47.0144842,18.3303077 C48.3966686,17.9238099 49.2711264,16.5604693 49.0669735,15.1303338 C48.8628206,13.7001984 47.6420804,12.6377561 46.2017053,12.6366154 L46.2006316,12.6366154 Z M42.0293684,43.7596923 C41.6867733,43.332955 41.4148764,42.8537001 41.2241053,42.3403077 L26.6810526,50.7661538 L26.6778316,50.7672308 C26.2436713,50.3578627 25.6931199,50.0943668 25.1027368,50.0133846 L25.1027368,44.9249231 C24.8327412,44.9567775 24.5599535,44.9567775 24.2899579,44.9249231 L24.2899579,50.0133846 C23.6999754,50.0946507 23.149849,50.3581228 22.7159368,50.7672308 L22.7127158,50.7661538 L8.16858947,42.3392308 C7.97781837,42.8526232 7.70592143,43.3318781 7.36332632,43.7586154 L21.8902737,52.1769231 L21.8945684,52.1790769 C21.8398105,52.4052308 21.8011579,52.6346154 21.8011579,52.8758462 C21.8011579,54.4796386 23.0973784,55.7797692 24.6963474,55.7797692 C26.2953164,55.7797692 27.5915368,54.4796386 27.5915368,52.8758462 C27.5915368,52.6346154 27.5539579,52.4041538 27.4992,52.1790769 L27.5034947,52.1769231 L42.0304421,43.7586154 L42.0293684,43.7596923 Z M13.1139789,23.4209231 C13.2535579,23.4209231 13.3909895,23.4047692 13.5219789,23.38 C13.9844392,23.2913659 14.4014604,23.0433698 14.7008842,22.6789231 C14.8819416,22.471189 15.0150264,22.2259126 15.0906316,21.9606154 C15.2378424,21.5153829 15.2206959,21.031923 15.0423158,20.5983077 C14.9421434,20.3412762 14.7896588,20.1080082 14.5945895,19.9133846 C14.2099632,19.5050997 13.6740039,19.2747099 13.1139789,19.2769231 C12.5213053,19.2769231 11.9833895,19.53 11.6022316,19.9370769 C11.4143368,20.1416923 11.2683158,20.3786154 11.1792,20.6392308 C11.0897797,20.8649538 11.0452798,21.1060517 11.0482105,21.3489231 C11.0470672,21.8988024 11.2643429,22.4264903 11.6519977,22.8153145 C12.0396526,23.2041388 12.5657534,23.4220699 13.1139789,23.4209231 Z" id="Shape" fill="#253B6E" fill-rule="nonzero"></path>
                <path d="M2.37928421,18.3163077 L2.37928421,35.1443077 C2.63804211,35.1033846 2.91505263,35.0796923 3.19206316,35.0796923 C3.46907368,35.0796923 3.74501053,35.1033846 4.00591579,35.1443077 L4.00591579,18.3163077 C4.58076101,18.146681 5.08856277,17.8014786 5.45861053,17.3287692 L5.46934737,17.3352308 L9.75442105,19.8153846 C9.86823158,19.5623077 10.0056632,19.3253846 10.1774526,19.1153846 L5.87412632,16.6255385 L5.87305263,16.6255385 C6.00726316,16.2906154 6.08564211,15.9255385 6.08564211,15.5432308 C6.08564211,15.2912308 6.04269474,15.0510769 5.98364211,14.8173846 L5.98793684,14.8141538 L20.5073684,6.40338462 C20.1658956,5.97753385 19.8970615,5.49792233 19.7117684,4.984 L5.16012632,13.4195385 L5.15583158,13.4216923 C4.6236143,12.9203006 3.92115255,12.6407784 3.19098947,12.6398462 C1.59256248,12.6404405 0.296929401,13.939982 0.296336842,15.5432308 C0.296336842,16.8624615 1.17675789,17.9630769 2.37928421,18.3163077" id="Shape" fill="#253B6E" fill-rule="nonzero"></path>
                <path d="M22.6547368,5.16384615 C23.0852842,5.58815385 23.6554105,5.88107692 24.2899579,5.97153846 C24.4198737,5.99630769 24.5583789,6.00384615 24.6968842,6.00384615 C24.8353895,6.00384615 24.9738947,5.99630769 25.1038105,5.97153846 C25.7206125,5.88447793 26.2933489,5.60139771 26.7379579,5.16384615 C27.1201895,4.78046154 27.3972,4.29046154 27.5185263,3.73584615 C27.5679158,3.53123077 27.5926105,3.32015385 27.5926105,3.09938462 C27.5934665,2.32881063 27.2886568,1.58955052 26.7454171,1.04467209 C26.2021775,0.499793669 25.4651407,0.194064498 24.6968842,0.194923077 C23.9284418,0.193778186 23.1911289,0.499380953 22.6476567,1.04429047 C22.1041846,1.5892 21.7992276,2.32862378 21.8000842,3.09938462 C21.8000842,3.32015385 21.8247789,3.53123077 21.8752421,3.73476923 C21.9954947,4.29046154 22.2725053,4.77938462 22.6558105,5.16384615 M47.0144842,37.6406154 C46.4828482,37.4887174 45.9194887,37.4887174 45.3878526,37.6406154 C44.8071436,37.8173181 44.2937512,38.1669973 43.9158316,38.6432308 C43.7526316,38.8553846 43.6152,39.0923077 43.5185684,39.3464615 C43.3789895,39.6803077 43.3059789,40.0464615 43.3059789,40.4309231 C43.3037079,41.2157693 43.6213918,41.9674382 44.1853263,42.5115385 C45.0182538,43.3278046 46.2580916,43.5632398 47.3308574,43.1088495 C48.4036232,42.6544592 49.0999334,41.5989317 49.0974316,40.4309231 C49.0974316,39.1170769 48.2180842,37.9992308 47.0144842,37.6416923 M5.47686316,38.6443077 C5.09950876,38.1679504 4.5864119,37.8182175 4.00591579,37.6416923 C3.74124743,37.5657278 3.46735401,37.5269481 3.19206316,37.5264615 C2.90753684,37.5264615 2.63911579,37.5684615 2.37821053,37.6416923 C1.14635001,38.0083627 0.300136766,39.1420934 0.296336842,40.4309231 C0.294268613,41.5987358 0.99073824,42.6538656 2.06340728,43.1079798 C3.13607633,43.5620939 4.37565409,43.3265893 5.20844211,42.5104615 C6.05649874,41.6922134 6.3203918,40.4375016 5.87412632,39.3453846 C5.7759757,39.0937616 5.64217907,38.8576417 5.47686316,38.6443077" id="Shape" fill="#828BFF" fill-rule="nonzero"></path>
                <g id="Group" transform="translate(61.200000, 8.615385)">
                    <path d="M0.139578947,1.49369231 L0.255536842,24.0767692 L2.47698947,24.066 L2.36210526,1.48292308 L0.139578947,1.49369231 Z M23.9861053,3.892 C22.8216538,3.40641355 21.5719444,3.15996555 20.3108842,3.16723077 C18.5715158,3.17584615 16.9803158,3.60446154 15.5329895,4.452 C14.1063841,5.28150307 12.9236915,6.47445076 12.1047158,7.91 C11.2629474,9.36815385 10.8485053,10.9598462 10.8570947,12.6818462 C10.8656842,14.406 11.2973053,15.9858462 12.1530316,17.4246154 C12.9925142,18.8476935 14.1860293,20.0277391 15.6167368,20.8492308 C17.0715789,21.6913846 18.6681474,22.1092308 20.4075158,22.0995385 C21.6563465,22.0926706 22.8916317,21.8394526 24.0430105,21.3543077 C25.2060686,20.8728941 26.2720681,20.1831956 27.1889053,19.3189231 L28.5492632,20.7652308 C27.4308342,21.8095586 26.1376688,22.6480219 24.7290947,23.2421538 C23.3364249,23.8432592 21.8377295,24.1581839 20.3216211,24.1683077 C18.1946526,24.1790769 16.2384,23.6729231 14.4507158,22.6476923 C12.6921436,21.6517546 11.2243707,20.2111144 10.1935579,18.4692308 C9.14349474,16.7084615 8.61309474,14.7829231 8.60235789,12.6936923 C8.59054737,10.6044615 9.10698947,8.68430769 10.1516842,6.93430769 C11.1812584,5.19720434 12.6444726,3.75927029 14.3970316,2.76230769 C16.1847158,1.72953846 18.1431158,1.20723077 20.2679368,1.19646154 C21.7925684,1.18784615 23.2635158,1.46676923 24.6850737,2.03 C26.0712628,2.57184997 27.3432278,3.37087032 28.4343789,4.38523077 L27.1212632,5.94461538 C26.2162133,5.06648481 25.1520345,4.37012318 23.9861053,3.89307692 L23.9861053,3.892 Z" id="Shape" fill="#253B6E" fill-rule="nonzero"></path>
                    <g transform="translate(31.136842, 0.221846)" id="Clipped">
                        <g>
                            <mask id="mask-2" fill="white">
                                <use xlink:href="#path-1"></use>
                            </mask>
                            <g id="a"></g>
                            <path d="M7.73374737,4.14292308 C6.30046598,4.96826234 5.10688563,6.15467789 4.27111579,7.58476923 C3.41968421,9.03323077 2.99987368,10.6184615 3.00953684,12.3415385 C3.00618452,14.0230941 3.45938397,15.6738297 4.32050526,17.1166154 C5.16479387,18.5552072 6.37059685,19.7464521 7.81749474,20.5713846 C9.26756784,21.4115602 10.9165934,21.8442192 12.5910947,21.8238462 C14.2506768,21.8260382 15.8797378,21.3764159 17.3045684,20.5229231 C18.735052,19.6787908 19.9220373,18.4759778 20.7489474,17.0326154 C21.5957305,15.5808848 22.0325872,13.925352 22.0126737,12.2435385 C22.0030105,10.5204615 21.5660211,8.94061538 20.6995579,7.50076923 C19.8532295,6.08265416 18.6546145,4.90899499 17.2208211,4.09446154 C15.7843879,3.2667784 14.1530908,2.84024608 12.4966105,2.85923077 C10.8234127,2.85458376 9.17926721,3.29771571 7.73374737,4.14292308 M18.3696632,2.36061538 C20.1329111,3.34049437 21.6115271,4.76381712 22.6601053,6.49061538 C23.7209053,8.22984615 24.2566737,10.1435385 24.2674105,12.2327692 C24.2781474,14.322 23.7627789,16.2529231 22.7191579,18.0244615 C21.6931624,19.7779765 20.2292104,21.2329823 18.4716632,22.246 C16.6839789,23.2884615 14.7169895,23.8161538 12.5696211,23.8258462 C10.4222526,23.8366154 8.44882105,23.3304615 6.6504,22.3063077 C4.88230999,21.3121794 3.40401443,19.8717465 2.36210526,18.1278462 C1.30023158,16.3681538 0.764463158,14.4415385 0.753726316,12.3523077 C0.742989474,10.2630769 1.25943158,8.34292308 2.30305263,6.59292308 C3.33335532,4.85602309 4.7968511,3.41817595 6.54947368,2.42092308 C8.33715789,1.38707692 10.3073684,0.866923077 12.4547368,0.855076923 C14.6021053,0.844307692 16.5723158,1.34615385 18.3707368,2.36061538" id="Shape" fill="#253B6E" fill-rule="nonzero" mask="url(#mask-2)"></path>
                        </g>
                    </g>
                    <path d="M69.7540421,19.754 C70.2683368,19.236 70.5163579,18.5015385 70.5002526,17.5538462 C70.4841474,16.6061538 70.2092842,15.8792308 69.6778105,15.372 C69.1452632,14.8636923 68.5397053,14.616 67.8611368,14.6278462 C67.1814947,14.6386154 66.5856,14.9046154 66.0713053,15.4236923 C65.5559368,15.9427692 65.3079158,16.6761538 65.3240211,17.6227692 C65.3412,18.5704615 65.6160632,19.2984615 66.1475368,19.8067692 C66.6800842,20.3129231 67.2845684,20.5606154 67.9642105,20.5498462 C68.6427789,20.5390769 69.2397474,20.272 69.7540421,19.7529231 L69.7540421,19.754 Z M65.2477895,13.1869231 C66.0337263,12.0389231 67.1804211,11.452 68.6857263,11.4250769 C70.1921053,11.3981538 71.4773053,11.9549231 72.5456211,13.0910769 C73.6117895,14.2293846 74.1604421,15.6950769 74.1915789,17.4892308 C74.2227158,19.2844615 73.7245263,20.7630769 72.6991579,21.9315385 C71.6716421,23.0989231 70.4165053,23.6944615 68.9305263,23.7213846 C67.4466947,23.7472308 66.2677895,23.1366154 65.3981053,21.8863077 L65.4292421,23.6309231 L61.8001895,23.6955385 L61.5242526,7.75923077 L65.1511579,7.69461538 L65.2477895,13.1869231 Z M84.1296,19.7572308 C84.6449684,19.2316923 84.8929895,18.494 84.8758105,17.5463077 C84.8597053,16.5986154 84.5859158,15.876 84.0533684,15.3752308 C83.5208211,14.8744615 82.9152632,14.63 82.2366947,14.6418462 C81.5570526,14.6526154 80.9611579,14.9218462 80.4468632,15.4484615 C79.9325684,15.974 79.6845474,16.7116923 79.7006526,17.6593846 C79.7178316,18.6070769 79.9916211,19.3307692 80.5241684,19.8304615 C81.0556421,20.3312308 81.6622737,20.5767692 82.3397684,20.5627692 C83.0183368,20.552 83.6153053,20.2827692 84.1296,19.7572308 Z M77.6563579,22.1113846 C76.5901895,20.9806154 76.0404632,19.5181538 76.0104,17.7229231 C75.9781895,15.9287692 76.4753053,14.4447692 77.5028211,13.2709231 C78.5281895,12.0970769 79.7951368,11.4961538 81.3004421,11.4703077 C82.8078947,11.4433846 83.9739158,11.9904615 84.7985053,13.1104615 L84.7716632,11.5381538 L88.4007158,11.4756923 L88.6079368,23.492 L84.9810316,23.5544615 L84.9509684,21.8098462 C84.0952421,23.0903077 82.9324421,23.7418462 81.4625684,23.7676923 C79.9916211,23.7935385 78.7225263,23.24 77.6563579,22.1113846 Z M100.228421,11.5004615 L100.282105,14.5363077 L95.8467158,20.5595385 L100.386253,20.4809231 L100.438863,23.5167692 L91.6346526,23.6707692 L91.5809684,20.6338462 L96.0185053,14.6116923 L91.4800421,14.6903077 L91.4263579,11.6533846 L100.228421,11.5004615 Z M110.610947,19.7572308 C111.125242,19.2316923 111.373263,18.494 111.357158,17.5463077 C111.341053,16.5986154 111.066189,15.876 110.534716,15.3752308 C110.002168,14.8744615 109.396611,14.63 108.718042,14.6418462 C108.0384,14.6526154 107.442505,14.9218462 106.928211,15.4484615 C106.412842,15.974 106.164821,16.7116923 106.182,17.6593846 C106.199179,18.6070769 106.471895,19.3307692 107.005516,19.8304615 C107.536989,20.3312308 108.142547,20.5767692 108.820042,20.5627692 C109.499684,20.552 110.096653,20.2827692 110.610947,19.7572308 Z M104.136632,22.1113846 C103.071537,20.9806154 102.521811,19.5181538 102.491747,17.7229231 C102.459537,15.9287692 102.956653,14.4447692 103.983095,13.2709231 C105.009537,12.0970769 106.276484,11.4961538 107.781789,11.4703077 C109.289242,11.4433846 110.454189,11.9904615 111.279853,13.1104615 L111.253011,11.5381538 L114.880989,11.4756923 L115.089284,23.492 L111.462379,23.5544615 L111.432316,21.8098462 C110.576589,23.0903077 109.413789,23.7418462 107.942842,23.7676923 C106.471895,23.7935385 105.203874,23.24 104.137705,22.1113846 L104.136632,22.1113846 Z M125.792842,19.7572308 C126.306063,19.2316923 126.555158,18.494 126.537979,17.5463077 C126.521874,16.5986154 126.248084,15.876 125.715537,15.3752308 C125.182989,14.8744615 124.577432,14.63 123.898863,14.6418462 C123.219221,14.6526154 122.623326,14.9218462 122.109032,15.4484615 C121.594737,15.974 121.346716,16.7116923 121.362821,17.6593846 C121.38,18.6070769 121.653789,19.3307692 122.186337,19.8304615 C122.717811,20.3312308 123.324442,20.5767692 124.001937,20.5627692 C124.680505,20.552 125.277474,20.2827692 125.791768,19.7572308 L125.792842,19.7572308 Z M119.318526,22.1113846 C118.252358,20.9806154 117.702632,19.5181538 117.672568,17.7229231 C117.640358,15.9287692 118.137474,14.4447692 119.164989,13.2709231 C120.190358,12.0970769 121.457305,11.4961538 122.962611,11.4703077 C124.470063,11.4433846 125.636084,11.9904615 126.460674,13.1104615 L126.433832,11.5381538 L130.062884,11.4756923 L130.270105,23.492 L126.6432,23.5544615 L126.613137,21.8098462 C125.757411,23.0903077 124.594611,23.7418462 123.124737,23.7676923 C121.653789,23.7935385 120.384695,23.24 119.318526,22.1113846 Z M137.245832,11.564 L137.284484,13.804 C138.105853,12.2101538 139.223558,11.4003077 140.636526,11.3755385 L140.703095,15.1232308 L139.811937,15.1372308 C138.976611,15.1523077 138.353874,15.3644615 137.943726,15.7736923 C137.535726,16.1829231 137.338168,16.8904615 137.356421,17.8952308 L137.454126,23.5813846 L133.826147,23.646 L133.617853,11.6275385 L137.246905,11.564 L137.245832,11.564 Z" id="Shape" fill="#828BFF" fill-rule="nonzero"></path>
                    <path d="M0.966315789,39.6006154 C0.318884211,38.9264615 -0.00322105263,38.0358462 1.16890547e-17,36.9298462 C0.00429473684,35.8206154 0.332842105,34.9332308 0.988863158,34.2633846 C1.64488421,33.5935385 2.48772632,33.2596923 3.51846316,33.2618462 C4.38492632,33.2661538 5.1,33.4729231 5.66583158,33.8821538 C6.23166316,34.2946154 6.61389474,34.8793846 6.81037895,35.6375385 L5.21273684,35.6321538 C4.94646316,34.8826154 4.38063158,34.5067692 3.51416842,34.5035385 C2.90861053,34.5024615 2.42437895,34.7135385 2.06469474,35.1389231 C1.70393684,35.5643077 1.52355789,36.1609231 1.52033684,36.9287692 C1.51818947,37.6933846 1.69534737,38.2932308 2.05395789,38.7261538 C2.41149474,39.1569231 2.89357895,39.3744615 3.49913684,39.3755385 C4.35808421,39.3787692 4.92713684,39.0050769 5.20629474,38.2555385 L6.80393684,38.262 C6.59242105,38.9835385 6.20267368,39.5586154 5.62932632,39.9818462 C5.05597895,40.4083077 4.34412632,40.6193846 3.49591579,40.6161538 C2.45766316,40.6129231 1.61482105,40.2747692 0.966315789,39.6006154 Z M9.77911579,33.3975385 L9.77482105,34.6381538 C10.2375789,33.7335385 10.9526526,33.2855385 11.9221895,33.2876846 L11.9168211,34.8126154 L11.5421053,34.8115385 C10.9623158,34.8104615 10.5221053,34.9547692 10.2214737,35.2466154 C9.92191579,35.5395385 9.77052632,36.0467692 9.76837895,36.7704615 L9.75764211,40.5181538 L8.27703158,40.5138462 L8.29850526,33.3932308 L9.78018947,33.3975385 L9.77911579,33.3975385 Z M15.2398737,40.418 L12.444,33.4061538 L14.0931789,33.4115385 L16.0902316,38.8446154 L18.1978737,33.4233846 L19.7310947,33.4287692 L15.3075158,43.8835385 L13.7764421,43.8792308 L15.2398737,40.418 Z M26.0121474,38.7390769 C26.4469895,38.2964615 26.6638737,37.7095385 26.6660211,36.9772308 C26.6692421,36.2449231 26.4566526,35.6666154 26.0293263,35.2433846 C25.6272548,34.8298416 25.0741177,34.5991265 24.4982526,34.6047692 C23.9198189,34.5967653 23.3639385,34.8295357 22.9628842,35.2476923 C22.5334105,35.6763077 22.3176,36.2567692 22.3154526,36.9901538 C22.3133053,37.7224615 22.5269684,38.3072308 22.9532211,38.7433846 C23.3805474,39.1784615 23.8873263,39.3981538 24.4778526,39.3992308 C25.0673053,39.4013846 25.5783789,39.1806154 26.0121474,38.7390769 Z M24.8203579,33.3275385 C25.7823789,33.3307692 26.5812,33.67 27.2211158,34.3484615 C27.8599579,35.0269231 28.1766947,35.9067692 28.1734737,36.9869231 C28.1702526,38.0692308 27.846,38.9555385 27.1964211,39.6469231 C26.5511368,40.3383077 25.7512421,40.684 24.7988842,40.6807692 C24.2362737,40.6796923 23.7423789,40.5461538 23.3193474,40.2823077 C22.8991608,40.0207486 22.5516367,39.6569886 22.3090105,39.2247692 L22.2950526,43.9416923 L20.8133684,43.9373846 L20.8455789,33.4309231 L22.3261895,33.4352308 L22.3218947,34.7027692 C22.5656211,34.2892308 22.9016842,33.9575385 23.3311579,33.7033846 C23.7606316,33.4513846 24.2577474,33.3264615 24.8214316,33.3264615 L24.8203579,33.3275385 Z M33.1167158,34.6704615 L31.3762737,34.664 L31.3644632,38.6055385 C31.3633895,38.8736923 31.4267368,39.0653846 31.5502105,39.1827692 C31.6758316,39.2990769 31.8894947,39.3583077 32.1944211,39.3583077 L33.1027579,39.3615385 L33.0984632,40.5892308 L31.9302947,40.586 C30.5527579,40.5816923 29.8666737,39.9204615 29.8709684,38.6023077 L29.8817053,34.6607692 L29.0377895,34.6564615 L29.0420842,33.4556923 L29.886,33.4578462 L29.8913684,31.6884615 L31.3859368,31.6916923 L31.3805684,33.4632308 L33.1199368,33.4686154 L33.1167158,34.6693846 L33.1167158,34.6704615 Z M39.1175368,38.8370769 C39.5513053,38.4063077 39.7692632,37.8096923 39.7714105,37.0429231 C39.7746316,36.2750769 39.5663368,35.6773846 39.1476,35.2509231 C38.7516167,34.8314859 38.1988303,34.5972096 37.6229684,34.6047692 C37.052586,34.5922815 36.5039211,34.8241601 36.1144421,35.2423077 C35.7064421,35.6666154 35.5024421,36.2653846 35.4992211,37.0364615 C35.4970737,37.8075385 35.6946316,38.4063077 36.0918947,38.8349231 C36.4880842,39.2624615 36.9830526,39.4767692 37.5757263,39.4789231 C38.155587,39.4856623 38.7128511,39.2536767 39.1175368,38.8370769 Z M37.5735789,40.7195385 C36.5299579,40.7163077 35.6710105,40.3749231 34.9967368,39.6964615 C34.3246105,39.018 33.9896211,38.1295385 33.9928421,37.0310769 C33.9949895,35.9326154 34.3471579,35.0463077 35.0450526,34.3710769 C35.7450947,33.698 36.6147789,33.3630769 37.6541053,33.3663077 C38.6923579,33.3695385 39.5598947,33.7087692 40.2556421,34.3872308 C40.9492421,35.0656923 41.2960421,35.952 41.2917474,37.0472308 C41.2885263,38.1413846 40.9288421,39.0276923 40.2137684,39.7061538 C39.4965474,40.3846154 38.6161263,40.7227692 37.5725053,40.7184615 L37.5735789,40.7195385 Z M48.1482947,33.5138462 L48.144,34.6370769 C48.6228632,33.8110769 49.3862526,33.4007692 50.4352421,33.404 C50.9892632,33.4050769 51.4810105,33.5364615 51.9147789,33.796 C52.3464,34.0555385 52.6738737,34.4313846 52.8982737,34.9235385 C53.1505895,34.4496923 53.4995368,34.0803077 53.9472632,33.8153846 C54.3928421,33.5493846 54.8985474,33.4169231 55.4611579,33.4190769 C56.2836,33.4212308 56.9578737,33.6883077 57.4850526,34.2192308 C58.0111579,34.7501538 58.2742105,35.5007692 58.2709895,36.4635385 L58.2581053,40.6646154 L56.7764211,40.6603077 L56.7903789,36.6789231 C56.7903789,36.0435385 56.6325474,35.5524615 56.3125895,35.2110769 C55.9947789,34.8696923 55.5567158,34.6984615 55.0026947,34.6973846 C54.4486737,34.6952308 54.0106105,34.8643077 53.6895789,35.2035385 C53.3674737,35.5427692 53.2064211,36.0306154 53.2053474,36.6681538 L53.1924632,40.6484615 L51.7247368,40.6441538 L51.7376211,36.6638462 C51.7376211,36.0263077 51.5797895,35.5373846 51.2598316,35.196 C50.9420211,34.8546154 50.5039579,34.6833846 49.9499368,34.6812308 C49.3959158,34.6812308 48.9567789,34.8481538 48.6293053,35.1884615 C48.3050526,35.5266154 48.1397053,36.0155385 48.1386316,36.6530769 L48.1257474,40.6333846 L46.6462105,40.6290769 L46.6676842,33.5084615 L48.1482947,33.5127692 L48.1482947,33.5138462 Z M64.8677053,38.8693846 C65.2982526,38.4353846 65.5140632,37.8527692 65.5162105,37.1204615 C65.5172842,36.3870769 65.3057684,35.8044615 64.8784421,35.3736923 C64.4821671,34.9545516 63.9307752,34.7183631 63.3548842,34.7210769 C62.7812545,34.7138506 62.2293507,34.940876 61.8259579,35.35 C61.3964842,35.7721538 61.1806737,36.3483077 61.1774526,37.0806154 C61.1763789,37.8129231 61.3889684,38.4009231 61.8152211,38.8467692 C62.2436211,39.2915385 62.7514737,39.5144615 63.3409263,39.5166154 C63.9293053,39.5187692 64.4382316,39.3012308 64.8677053,38.8693846 Z M60.6245053,39.7470769 C59.9770737,39.0524615 59.6549684,38.164 59.6571158,37.0827692 C59.6614105,36.0015385 59.9867368,35.1227692 60.6341684,34.4496923 C61.2805263,33.7755385 62.0857895,33.4395385 63.0467368,33.4427692 C63.6093474,33.4427692 64.1043158,33.572 64.5327158,33.8272308 C64.9600421,34.0835385 65.2907368,34.4173846 65.5226526,34.8330769 L65.5269474,33.5655385 L67.0215158,33.5698462 L66.9989684,40.6904615 L65.5054737,40.6861538 L65.5097684,39.3550769 C65.2724641,39.7874104 64.9263324,40.14981 64.5058737,40.4061538 C64.0817684,40.6678462 63.5878737,40.7970769 63.0241895,40.796 C62.1108423,40.8101769 61.2359499,40.4277537 60.6245053,39.7470769 Z M70.4497895,33.5806154 L70.4454947,34.8212308 C70.9082526,33.9166154 71.6233263,33.4686154 72.5928632,33.4707615 L72.5885684,34.9956923 L72.2127789,34.9946154 C71.6329895,34.9935385 71.1927789,35.1378462 70.8921474,35.4296923 C70.5925895,35.7204615 70.4412,36.2298462 70.4390526,36.9535385 L70.4283158,40.7012308 L68.9477053,40.6969231 L68.9691789,33.5763077 L70.4508632,33.5806154 L70.4497895,33.5806154 Z M75.4155789,40.7163077 L73.9349684,40.712 L73.9628842,31.1489231 L75.4445684,31.1532308 L75.4284632,36.7101538 L78.0353684,33.6032308 L80.0882526,33.6086154 L76.7780842,37.1667692 L80.0657053,40.7303077 L78.0654316,40.7249231 L75.4252421,37.6535385 L75.4155789,40.7163077 Z M85.5769263,35.2735385 C85.1968421,34.9235385 84.7340842,34.748 84.1886526,34.7458462 C83.6432211,34.7447692 83.1858316,34.9170769 82.8175579,35.2649231 C82.4482105,35.6127692 82.2377684,36.0801538 82.1840842,36.6649231 L86.1577895,36.6778462 C86.1502737,36.092 85.9570105,35.6235385 85.578,35.2735385 L85.5769263,35.2735385 Z M84.1446316,40.8595385 C83.1053053,40.8563077 82.2624632,40.5170769 81.6150316,39.8429231 C80.9676,39.1687692 80.6444211,38.276 80.6487158,37.1656923 C80.6519368,36.0543077 80.9837053,35.1647692 81.6440211,34.4992308 C82.3032632,33.8336923 83.1557684,33.502 84.1993895,33.5052308 C85.2419368,33.5084615 86.0890737,33.8326154 86.7354316,34.4755385 C87.3828632,35.1195385 87.7049684,35.9584615 87.7017474,36.9923077 C87.7017474,37.2421538 87.6834947,37.4747692 87.6491368,37.6901538 L82.1669053,37.674 C82.1991158,38.2673846 82.3998947,38.7412308 82.7681684,39.0901538 C83.1342947,39.4401538 83.5949053,39.6156923 84.1478526,39.6178462 C84.9531158,39.62 85.5221684,39.2904615 85.8528632,38.6281538 L87.4505053,38.6324615 C87.2361831,39.2810637 86.8204042,39.8437754 86.2640842,40.2381538 C85.6896632,40.6538462 84.9842526,40.8606154 84.1446316,40.8595385 Z M92.6310316,34.8492308 L90.8916632,34.8438462 L90.8787789,38.7853846 C90.8787789,39.0524615 90.9410526,39.2430769 91.0645263,39.3615385 C91.1901474,39.4778462 91.4038105,39.5381538 91.7087368,39.5381538 L92.6170737,39.5403077 L92.6127789,40.768 L91.4446105,40.7636923 C90.0670737,40.7604615 89.3809895,40.0992308 89.3852842,38.7810769 L89.3960211,34.8395385 L88.5521053,34.8373846 L88.5564,33.6355385 L89.4003158,33.6376923 L89.4056842,31.8672308 L90.9002526,31.8715385 L90.8948842,33.642 L92.6353263,33.6473846 L92.6310316,34.8492308 Z M97.8727579,40.7830769 L97.8953053,33.6624615 L99.3748421,33.6678462 L99.3533684,40.7884615 L97.8727579,40.7830769 Z M99.5906526,31.7810769 C99.5957899,32.0337077 99.495348,32.2769791 99.3136421,32.452 C99.1368294,32.630486 98.8944311,32.7278937 98.6436632,32.7212308 C98.3931822,32.7263193 98.1516545,32.627781 97.9758316,32.4487692 C97.7967101,32.2716027 97.6987567,32.0279298 97.7052632,31.7756923 C97.6999602,31.5234591 97.7995414,31.2803879 97.9801263,31.1047692 C98.1572962,30.9268251 98.399452,30.8295149 98.6501053,30.8355385 C98.900492,30.8309588 99.1418272,30.9294186 99.3179368,31.108 C99.4977821,31.2847618 99.5961942,31.5286083 99.5895789,31.7810769 L99.5906526,31.7810769 Z M102.805263,33.6775385 L102.800968,34.8018462 C103.279832,33.9769231 104.043221,33.5655385 105.092211,33.5687692 C105.897474,33.5709231 106.559937,33.8401538 107.082821,34.3764615 C107.605705,34.9116923 107.865537,35.658 107.862316,36.6143077 L107.849432,40.8143077 L106.381705,40.81 L106.394589,36.8296923 C106.395663,36.1921538 106.236758,35.7021538 105.9168,35.3607692 C105.598989,35.0193846 105.160926,34.8481538 104.606905,34.8470769 C104.052884,34.8449231 103.613747,35.014 103.287347,35.3532308 C102.962021,35.6924615 102.796674,36.1803077 102.7956,36.8178462 L102.782716,40.7981538 L101.303179,40.7938462 L101.324653,33.6732308 L102.805263,33.6775385 Z M109.422379,35.7398462 C109.423453,35.1367692 109.681137,34.6273846 110.193284,34.2106154 C110.704358,33.7938462 111.377558,33.5881538 112.208589,33.5903077 C113.039621,33.5935385 113.698863,33.7992308 114.187389,34.2095385 C114.675916,34.6209231 114.935747,35.1787692 114.967958,35.8863077 L113.448695,35.882 C113.424,35.5287692 113.300526,35.252 113.081495,35.0527692 C112.860316,34.8546154 112.552168,34.7544615 112.153832,34.7533846 C111.756568,34.7523077 111.443053,34.8395385 111.217579,35.0150769 C110.997859,35.1779557 110.870891,35.4378794 110.877221,35.7118462 C110.877221,36.0004615 111.017874,36.2276923 111.304547,36.3903077 C111.589074,36.5572308 111.938021,36.6789231 112.349242,36.7564615 C112.759389,36.8361538 113.169537,36.9309231 113.581832,37.0450769 C113.993053,37.1570769 114.339853,37.3638462 114.625453,37.6610769 C114.909979,37.9604615 115.051705,38.3589231 115.050632,38.8586154 C115.048484,39.4789231 114.785432,39.9818462 114.2604,40.3684615 C113.735368,40.754 113.062168,40.9467692 112.238653,40.9435385 C111.415137,40.9413846 110.748379,40.7410769 110.2416,40.3426154 C109.730526,39.9441538 109.450295,39.3798462 109.399832,38.6475385 L110.933053,38.6529231 C110.958821,39.0061538 111.087663,39.2818462 111.320653,39.4810769 C111.552568,39.6792308 111.871453,39.7793846 112.274084,39.7804615 C112.676716,39.7826154 112.996674,39.6943077 113.237179,39.5187692 C113.46676,39.3590456 113.601381,39.0946512 113.595789,38.8144615 C113.596863,38.5226154 113.454063,38.2943077 113.169537,38.1295385 C112.843649,37.9497962 112.490827,37.8243175 112.124842,37.758 C111.710751,37.6745849 111.299333,37.5783337 110.891179,37.4693846 C110.497143,37.3693263 110.136872,37.1655977 109.847558,36.8792308 C109.563032,36.5938462 109.420232,36.2115385 109.422379,35.7398462 Z M116.668674,40.8401538 L116.691221,33.7195385 L118.170758,33.7238462 L118.149284,40.8444615 L116.668674,40.8401538 Z M118.386568,31.8381538 C118.391706,32.0907846 118.291264,32.334056 118.109558,32.5090769 C117.932745,32.6875629 117.690347,32.7849706 117.439579,32.7783077 C117.188963,32.7829857 116.94746,32.6840683 116.771747,32.5047692 C116.592573,32.3280809 116.494583,32.0847064 116.501179,31.8327692 C116.496096,31.5802617 116.59562,31.3369425 116.776042,31.1607692 C116.953141,30.9827173 117.195345,30.8853877 117.446021,30.8915385 C117.696566,30.887242 117.937924,30.9861004 118.113853,31.1650769 C118.293698,31.3418387 118.39211,31.5856852 118.385495,31.8381538 L118.386568,31.8381538 Z M124.824379,39.0492308 C125.253853,38.6163077 125.470737,38.0326154 125.472884,37.3003077 C125.472884,36.5669231 125.262442,35.9853846 124.835116,35.5535385 C124.438474,35.134413 123.886613,34.8985794 123.310484,34.902 C122.737131,34.8945685 122.185483,35.1216481 121.782632,35.5309231 C121.353158,35.9509231 121.137347,36.5292308 121.134126,37.2615385 C121.133053,37.9938462 121.345642,38.5807692 121.771895,39.0266154 C122.200295,39.4724615 122.708147,39.6943077 123.296526,39.6975385 C123.885979,39.6996923 124.394905,39.4821538 124.824379,39.0492308 Z M120.581179,39.9269231 C119.933747,39.2323077 119.611642,38.3438462 119.613789,37.2626154 C119.618084,36.1813846 119.943411,35.3026154 120.590842,34.6295385 C121.2372,33.9553846 122.042463,33.6193846 123.003411,33.6226154 C123.566021,33.6247692 124.060989,33.7518462 124.489389,34.0070769 C124.916716,34.2644615 125.247411,34.5983077 125.479326,35.0129231 L125.483621,33.7453846 L126.978189,33.7507692 L126.955642,40.9876923 C126.952421,41.9881538 126.641053,42.8023077 126.019389,43.4323077 C125.3988,44.0644615 124.573137,44.3789231 123.5424,44.3756923 C122.511663,44.3724615 121.677411,44.1430769 121.037495,43.6907692 C120.417595,43.2702737 120.019023,42.5925161 119.952,41.8449231 L121.419726,41.8503077 C121.531389,42.2196923 121.769747,42.5212308 122.138021,42.7506154 C122.505221,42.9789231 122.966905,43.0952308 123.520926,43.0973846 C124.074947,43.0973846 124.535558,42.9196923 124.904905,42.5589231 C125.274253,42.1981538 125.46,41.6726154 125.462147,40.9833846 L125.466442,39.5349231 C125.229752,39.9677088 124.883483,40.3302522 124.462547,40.586 C124.038442,40.8476923 123.544547,40.978 122.980863,40.9758462 C122.067516,40.9900231 121.192624,40.6075999 120.581179,39.9269231 Z M130.412905,31.318 L130.402168,34.8847692 C130.882105,34.0598462 131.644421,33.6484615 132.693411,33.6516923 C133.498674,33.6538462 134.161137,33.9230769 134.685095,34.4593846 C135.206905,34.9946154 135.466737,35.7409231 135.463516,36.6961538 L135.450632,40.8972308 L133.982905,40.8929231 L133.995789,36.9115385 C133.995789,36.2761538 133.837958,35.784 133.519074,35.4436923 C133.200189,35.1023077 132.762126,34.93 132.208105,34.9289231 C131.654084,34.9289231 131.214947,35.0969231 130.887474,35.4361538 C130.563221,35.7753846 130.397874,36.2632308 130.3968,36.9007692 L130.384989,40.8810769 L128.903305,40.8767692 L128.932295,31.3136923 L130.412905,31.318 Z" id="Shape" fill="#253B6E" fill-rule="nonzero"></path>
                    <g transform="translate(136.357895, 31.452615)" id="Clipped">
                        <g>
                            <mask id="mask-4" fill="white">
                                <use xlink:href="#path-3"></use>
                            </mask>
                            <g id="c"></g>
                            <path d="M4.46223158,3.54092308 L2.72286316,3.53553846 L2.70997895,7.47707692 C2.70997895,7.74415385 2.77225263,7.93584615 2.89572632,8.05323077 C3.02134737,8.16953846 3.23501053,8.22984615 3.53993684,8.22984615 L4.44827368,8.232 L4.44397895,9.45969231 L3.27581053,9.45646154 C1.89827368,9.45215385 1.21326316,8.79092308 1.21648421,7.47384615 L1.22722105,3.53230769 L0.383305263,3.52907692 L0.3876,2.32723077 L1.23151579,2.33046154 L1.23688421,0.56 L2.73145263,0.564307692 L2.72608421,2.33476923 L4.46652632,2.34015385 L4.46223158,3.542 L4.46223158,3.54092308 Z" id="Shape" fill="#253B6E" fill-rule="nonzero" mask="url(#mask-4)"></path>
                        </g>
                    </g>
                </g>
            </g>
        </g>
    </g>
</svg>