
<svg width="179px" height="50px" viewBox="0 0 179 50" version="1.1" xmlns="http://www.w3.org/2000/svg" xmlns:xlink="http://www.w3.org/1999/xlink">
    <!-- Generator: Sketch 49.1 (51147) - http://www.bohemiancoding.com/sketch -->
    <desc>Created with Sketch.</desc>
    <defs>
        <polygon id="path-1" points="0.666091661 0.755425101 21.4458743 0.755425101 21.4458743 21.0491498 0.666091661 21.0491498"></polygon>
        <polygon id="path-3" points="3.94720984 8.35724696 3.94720984 0.494736842 0.338738922 0.494736842 0.338738922 8.35819838 3.94720984 8.35819838"></polygon>
    </defs>
    <g id="Page-1" stroke="none" stroke-width="1" fill="none" fill-rule="evenodd">
        <g id="landing" transform="translate(-1006.000000, -15760.000000)">
            <g id="tge-partners" transform="translate(273.000000, 15579.000000)">
                <g id="Group-17" transform="translate(0.000000, 159.000000)">
                    <g id="Group-25">
                        <g id="logo-(2)" transform="translate(733.472904, 22.263158)">
                            <path d="M22.1840784,7.45149798 C22.0702166,7.45910931 21.9468663,7.46672065 21.8254137,7.46672065 C21.7030122,7.46672065 21.5806107,7.45910931 21.4658001,7.45149798 L21.4658001,12.6338664 L14.1701038,16.8581579 C14.3219196,17.045587 14.450963,17.2539474 14.5439501,17.469919 L21.4658001,13.4701619 L21.4658001,21.4772874 C21.5806107,21.4620648 21.7030122,21.4563563 21.8254137,21.4563563 C21.9478151,21.4563563 22.0692677,21.4620648 22.1850273,21.4772874 L22.1850273,13.4701619 L29.1068772,17.469919 C29.2035137,17.2500821 29.3292613,17.0443092 29.4807235,16.8581579 L22.1840784,12.6338664 L22.1840784,7.45149798 Z M22.1840784,33.1892308 L22.1840784,27.9783198 C21.9454748,28.0064619 21.7044037,28.0064619 21.4658001,27.9783198 L21.4658001,33.1892308 C21.5850758,33.1741745 21.7051975,33.1668651 21.8254137,33.1673482 C21.9478151,33.1673482 22.0692677,33.1740081 22.1850273,33.1892308 L22.1840784,33.1892308 Z M20.3945501,35.2937652 C20.2436832,35.4811943 20.1364633,35.7038259 20.0643508,35.9416802 C20.0207715,36.1042331 19.9990719,36.2719006 19.9998291,36.4402227 C19.9985786,36.9891532 20.2435813,37.5095474 20.6670546,37.8574331 C21.0905279,38.2053187 21.6475733,38.3438112 22.1840784,38.2345951 C23.0377365,38.0646042 23.6522574,37.3129071 23.6509982,36.4402227 C23.6509982,36.2670648 23.6291747,36.1005668 23.5864765,35.9416802 C23.5185546,35.7067026 23.4061233,35.4870456 23.2553284,35.2947166 C22.9041667,34.8643083 22.3799899,34.6131942 21.8254137,34.6096964 C21.7020634,34.6096964 21.5806107,34.6230162 21.4648512,34.6448988 C21.0350228,34.7314777 20.6611765,34.969332 20.3945501,35.2937652 Z M23.5580111,24.1441093 C23.3096075,23.397004 22.6108112,22.8943199 21.8254137,22.897753 C21.3403865,22.8949484 20.874415,23.0869061 20.5314432,23.4308062 C20.1884715,23.7747063 19.997032,24.2419392 19.9998291,24.7282794 C19.9998291,24.9290283 20.0358854,25.1307287 20.0928163,25.311498 C20.1725195,25.5417409 20.2939722,25.7510526 20.4590718,25.9308704 C20.7114655,26.2334211 21.0625395,26.4427328 21.4658001,26.5226518 C21.5806107,26.543583 21.7030122,26.5588057 21.8254137,26.5588057 C21.9478151,26.5588057 22.0702166,26.543583 22.1850273,26.5226518 C22.5781042,26.4470312 22.9332514,26.2380695 23.1908067,25.9308704 C23.4913,25.6033719 23.6558855,25.1732704 23.6509982,24.7282794 C23.6509982,24.5189676 23.614942,24.3239271 23.5580111,24.1441093 Z M24.4489798,26.6587045 L31.3138989,30.6308704 L24.4983199,34.5725911 C24.635903,34.7676316 24.7583044,34.9836032 24.8446497,35.2071862 L32.039768,31.0485425 L36.5894966,33.6792105 C36.6836447,33.4576508 36.8016881,33.247086 36.9415194,33.0512753 L32.4202562,30.4434413 L32.4202562,22.1109312 C32.3054456,22.1252024 32.1830441,22.1318623 32.0606426,22.1318623 C31.93919,22.1318623 31.8234305,22.1252024 31.7019779,22.1175911 L31.7019779,30.0238664 L24.8152353,26.0383806 C24.7210274,26.2604767 24.5978692,26.4690687 24.4489798,26.6587045 Z M29.0489974,20.1367409 L24.4489798,22.7892915 C24.5922559,22.9833806 24.7146574,23.1926923 24.8095423,23.4162753 L29.4019691,20.7561134 C29.2609601,20.5642862 29.1425181,20.356771 29.0489974,20.1376923 L29.0489974,20.1367409 Z M31.7010291,20.6552632 C31.8167886,20.6771457 31.9382412,20.691417 32.0615915,20.691417 C32.5460757,20.6924301 33.0110075,20.499897 33.3535903,20.1563869 C33.6961731,19.8128767 33.8881864,19.3466863 33.8871761,18.8608907 C33.8871761,18.6373077 33.850171,18.4289474 33.7714165,18.2339069 C33.6907449,18.0035876 33.5631009,17.792648 33.3966214,17.6145344 C33.0513542,17.2424695 32.5674907,17.0308954 32.0606426,17.0303644 C31.5425714,17.0303644 31.0757379,17.2472874 30.7531294,17.5917004 C30.5806306,17.7639201 30.4458687,17.9703366 30.3574596,18.197753 C30.199341,18.5806825 30.1838491,19.007862 30.3138125,19.4012955 C30.3792831,19.6391498 30.5007357,19.8484615 30.6591934,20.0358907 C30.918229,20.3460526 31.2778426,20.5762955 31.7010291,20.6552632 Z M14.6018299,20.1367409 C14.5078939,20.3527126 14.3930832,20.5620243 14.2498071,20.7551619 L18.8422339,23.4162753 C18.9361699,23.1926923 19.0585714,22.9833806 19.2008987,22.7883401 L14.6018299,20.1367409 Z M18.8346431,26.039332 L11.9488494,30.0248178 L11.9488494,22.1185425 C11.826448,22.1252024 11.7116373,22.1328138 11.5892358,22.1328138 C11.4677832,22.1328138 11.3453818,22.1252024 11.2305711,22.1118826 L11.2305711,30.4424899 L6.70835904,33.0522267 C6.84499322,33.2463158 6.96739468,33.4556275 7.06038184,33.6801619 L11.6101105,31.0485425 L18.8052288,35.2071862 C18.891574,34.9836032 19.0139755,34.7676316 19.1506097,34.5735425 L12.3359796,30.629919 L19.2008987,26.6587045 C19.051441,26.4696303 18.9279394,26.2613172 18.8336943,26.039332 L18.8346431,26.039332 Z" id="Shape" fill="#253B6E" fill-rule="nonzero"></path>
                            <path d="M40.8289518,11.1639271 C40.1609625,11.1639271 39.5432621,11.4227126 39.0897125,11.8556073 L26.2309173,4.40315789 C26.067168,4.85718702 25.8295909,5.28090396 25.5278206,5.65712551 L38.3572014,13.0876923 C38.2133931,13.6176031 38.2487625,14.1803602 38.4577794,14.6879757 L34.6547945,16.885749 C34.8066103,17.0731781 34.9290117,17.2824899 35.0295897,17.5060729 L38.817393,15.3149595 C39.1400015,15.733583 39.5935511,16.0427935 40.1106735,16.1940688 L40.1106735,31.0485425 C40.3402948,31.0123887 40.5850978,30.9914575 40.8299007,30.9914575 C41.0747036,30.9914575 41.3185577,31.0123887 41.548179,31.0485425 L41.548179,16.1940688 C42.7696589,15.8349448 43.5424447,14.6304898 43.3620284,13.3670242 C43.181612,12.1035587 42.1028055,11.1649349 40.8299007,11.1639271 L40.8289518,11.1639271 Z M37.1426753,38.6598785 C36.8399132,38.2828738 36.5996294,37.8594719 36.4310389,37.4059109 L23.5788857,44.8497976 L23.5760392,44.850749 C23.1923581,44.4890892 22.7058185,44.2563015 22.1840784,44.1847571 L22.1840784,39.6893117 C21.9454748,39.7174538 21.7044037,39.7174538 21.4658001,39.6893117 L21.4658001,44.1847571 C20.944414,44.2565523 20.45825,44.489319 20.0747881,44.850749 L20.0719416,44.8497976 L7.21883954,37.4049595 C7.05024911,37.8585205 6.80996523,38.2819224 6.50720315,38.6589271 L19.3451236,46.0961538 L19.348919,46.0980567 C19.3005277,46.2978543 19.2663692,46.5005061 19.2663692,46.7136235 C19.2663692,48.1305078 20.41188,49.2791194 21.8249392,49.2791194 C23.2379984,49.2791194 24.3835093,48.1305078 24.3835093,46.7136235 C24.3835093,46.5005061 24.3502996,46.2969028 24.3019083,46.0980567 L24.3057037,46.0961538 L37.1436242,38.6589271 L37.1426753,38.6598785 Z M11.5892358,20.691417 C11.7125861,20.691417 11.8340387,20.6771457 11.9497983,20.6552632 C12.358489,20.5769586 12.7270237,20.3578643 12.9916339,20.0358907 C13.1516401,19.8523662 13.2692513,19.6356747 13.336066,19.4012955 C13.4661608,19.007951 13.4510079,18.5808342 13.2933678,18.197753 C13.2048423,17.9706764 13.0700869,17.7645937 12.8976979,17.5926518 C12.5577916,17.2319489 12.0841475,17.0284091 11.5892358,17.0303644 C11.0654714,17.0303644 10.5900983,17.2539474 10.2532571,17.613583 C10.0872086,17.7943522 9.95816522,18.003664 9.87941079,18.2339069 C9.80038728,18.4333238 9.76106126,18.6463238 9.76365127,18.8608907 C9.76264088,19.3466863 9.95465421,19.8128767 10.297237,20.1563869 C10.6398198,20.499897 11.1047517,20.6924301 11.5892358,20.691417 Z" id="Shape" fill="#253B6E" fill-rule="nonzero"></path>
                            <path d="M2.10264832,16.1817004 L2.10264832,31.0485425 C2.33132081,31.0123887 2.57612373,30.9914575 2.82092665,30.9914575 C3.06572957,30.9914575 3.30958364,31.0123887 3.54015383,31.0485425 L3.54015383,16.1817004 C4.04816263,16.0318423 4.49692303,15.7268702 4.82394588,15.309251 L4.83343436,15.3149595 L8.62028881,17.5060729 C8.72086675,17.2824899 8.84231936,17.0731781 8.99413512,16.8876518 L5.19115025,14.6879757 L5.19020141,14.6879757 C5.30880747,14.392085 5.37807341,14.0695547 5.37807341,13.7318016 C5.37807341,13.50917 5.34011947,13.297004 5.2879328,13.0905466 L5.2917282,13.0876923 L18.1230067,5.65712551 C17.8212364,5.28090396 17.5836593,4.85718702 17.41991,4.40315789 L4.56016599,11.8556073 L4.55637059,11.8575101 C4.08603343,11.4145513 3.46524588,11.167605 2.8199778,11.1667814 C1.40739757,11.1673065 0.262405854,12.3153976 0.261882192,13.7318016 C0.261882192,14.8972874 1.03993798,15.8696356 2.10264832,16.1817004" id="Shape" fill="#253B6E" fill-rule="nonzero"></path>
                            <path d="M20.0207038,4.56204453 C20.401192,4.93690283 20.9050306,5.19568826 21.4658001,5.27560729 C21.5806107,5.29748988 21.7030122,5.3041498 21.8254137,5.3041498 C21.9478151,5.3041498 22.0702166,5.29748988 22.1850273,5.27560729 C22.7301146,5.19869291 23.2362597,4.94860324 23.6291747,4.56204453 C23.9669648,4.22334008 24.2117677,3.79044534 24.3189876,3.30046559 C24.3626346,3.11969636 24.3844581,2.93321862 24.3844581,2.73817814 C24.3852146,2.05740789 24.1158447,1.40430215 23.6357667,0.922924595 C23.1556887,0.441547038 22.5043461,0.171447959 21.8254137,0.172206478 C21.1463169,0.171195014 20.4947303,0.441182421 20.0144469,0.922587449 C19.5341634,1.40399248 19.2646634,2.05724281 19.2654204,2.73817814 C19.2654204,2.93321862 19.2872439,3.11969636 19.3318398,3.29951417 C19.4381108,3.79044534 19.6829137,4.22238866 20.0216526,4.56204453 M41.548179,33.2539271 C41.0783555,33.1197316 40.580497,33.1197316 40.1106735,33.2539271 C39.5974826,33.4100367 39.1437816,33.7189638 38.8098022,34.1396964 C38.6655772,34.3271255 38.5441246,34.5364372 38.4587282,34.7609717 C38.3353779,35.0559109 38.2708562,35.3793927 38.2708562,35.7190486 C38.2688492,36.4124277 38.5495965,37.0764962 39.0479632,37.5571862 C39.7840474,38.2783236 40.8797311,38.4863209 41.827768,38.0848858 C42.7758048,37.6834508 43.3911561,36.7509359 43.3889451,35.7190486 C43.3889451,34.5583198 42.6118382,33.570749 41.548179,33.2548785 M4.8400763,34.1406478 C4.50659635,33.7198058 4.05315651,33.4108312 3.54015383,33.2548785 C3.30625807,33.187767 3.06420984,33.1535068 2.82092665,33.1530769 C2.56948179,33.1530769 2.33226966,33.1901822 2.10169947,33.2548785 C1.01306558,33.5788167 0.265240304,34.5804208 0.261882192,35.7190486 C0.260054432,36.7507628 0.875546556,37.6829264 1.82349794,38.0841175 C2.77144933,38.4853085 3.8669032,38.2772499 4.60286417,37.5562348 C5.3523185,36.8333464 5.5855291,35.7248604 5.19115025,34.7600202 C5.10441147,34.5377217 4.98617118,34.3291196 4.8400763,34.1406478" id="Shape" fill="#828BFF" fill-rule="nonzero"></path>
                            <g id="Group" transform="translate(54.084366, 7.611336)">
                                <path d="M0.123350308,1.31961538 L0.225825948,21.27083 L2.18899354,21.2613158 L2.08746674,1.31010121 L0.123350308,1.31961538 Z M21.1972759,3.43842105 C20.1682135,3.0094255 19.063806,2.79169889 17.9493675,2.79811741 C16.4122329,2.80572874 15.0060393,3.18439271 13.7269915,3.93315789 C12.4662555,4.66598955 11.4210728,5.7199095 10.6973182,6.98815789 C9.95342098,8.27637652 9.58716545,9.68257085 9.59475624,11.2038866 C9.60234702,12.7271053 9.98378413,14.122834 10.7400164,15.3939271 C11.4818936,16.6511578 12.5366405,17.6936793 13.8010017,18.4194332 C15.0866915,19.1634413 16.4976292,19.5325911 18.0347638,19.5240283 C19.1383948,19.5179608 20.2300553,19.2942532 21.2475649,18.8656478 C22.2753959,18.4403388 23.2174532,17.8310186 24.0276911,17.0674696 L25.2298822,18.3452227 C24.2414913,19.2678431 23.0986804,20.0085908 21.8538791,20.5334818 C20.6231329,21.0645335 19.2986887,21.3427564 17.9588559,21.3517004 C16.079187,21.3612146 14.350385,20.9140486 12.7705522,20.0082996 C11.2164467,19.1284299 9.91932955,17.8556838 9.00836785,16.3168016 C8.080394,14.7612348 7.61166283,13.0601012 7.60217434,11.2143522 C7.59173701,9.36860324 8.04813315,7.67222672 8.97136276,6.12617409 C9.88122988,4.59151511 11.1743183,3.32115984 12.7231098,2.44038462 C14.3029426,1.52797571 16.0336423,1.06653846 17.9114135,1.05702429 C19.2587784,1.04941296 20.5587009,1.29582996 21.8149763,1.79342105 C23.0399952,2.27212309 24.1640708,2.97802453 25.1283554,3.87417004 L23.9679136,5.25182186 C23.1680926,4.47602981 22.2276443,3.86082311 21.1972759,3.43937247 L21.1972759,3.43842105 Z" id="Shape" fill="#253B6E" fill-rule="nonzero"></path>
                                <g transform="translate(27.516607, 0.195992)" id="Clipped">
                                    <g>
                                        <mask id="mask-2" fill="white">
                                            <use xlink:href="#path-1"></use>
                                        </mask>
                                        <g id="a"></g>
                                        <path d="M6.83455589,3.66010121 C5.56792003,4.38925432 4.51311552,5.4374034 3.77451941,6.70082996 C3.02208254,7.98048583 2.65108277,9.38097166 2.6596224,10.9032389 C2.65665985,12.3888238 3.05716646,13.8471804 3.81816645,15.1218219 C4.56429086,16.3927582 5.62989688,17.4451739 6.90856608,18.1739676 C8.1900413,18.916228 9.64733707,19.2984643 11.1271466,19.2804656 C12.5937715,19.2824022 14.0334239,18.8851795 15.2925916,18.1311538 C16.556755,17.3853979 17.6057312,16.3227623 18.3364977,15.0476113 C19.0848265,13.7650674 19.4708905,12.3024726 19.4532924,10.8166599 C19.4447527,9.29439271 19.0585714,7.89866397 18.2928506,6.62661943 C17.5449236,5.37377341 16.4856698,4.33689407 15.2185814,3.61728745 C13.9491603,2.88606362 12.5075316,2.50923996 11.0436479,2.52601215 C9.56499033,2.5219067 8.11200726,2.91339546 6.83455589,3.66010121 M16.2338493,2.08550607 C17.7920871,2.95118863 19.0987865,4.20863543 20.025448,5.73419028 C20.9629104,7.27072874 21.4363858,8.96139676 21.4458743,10.8071457 C21.4553627,12.6528947 20.9999154,14.3587854 20.0776347,15.9238664 C19.1709302,17.4730243 17.8771898,18.7584618 16.3239899,19.6534211 C14.7441572,20.5743927 13.0058667,21.040587 11.1081696,21.0491498 C9.21047259,21.058664 7.46648901,20.611498 5.87716773,19.7067004 C4.31465096,18.8284292 3.00823466,17.5558662 2.08746674,16.0152024 C1.14905556,14.460587 0.675580146,12.758502 0.666091661,10.912753 C0.656603176,9.06700405 1.11299931,7.37062753 2.03528008,5.8245749 C2.94579098,4.29009559 4.23912825,3.0198171 5.78797597,2.13878543 C7.36780876,1.2254251 9.10894579,0.765890688 11.0066428,0.755425101 C12.9043399,0.745910931 14.6454769,1.18927126 16.2347982,2.08550607" id="Shape" fill="#253B6E" fill-rule="nonzero" mask="url(#mask-2)"></path>
                                    </g>
                                </g>
                                <path d="M61.6438418,17.4518421 C62.0983403,16.9942105 62.3175243,16.3453441 62.3032915,15.5080972 C62.2890588,14.6708502 62.0461536,14.0286437 61.5764736,13.5805263 C61.1058447,13.1314575 60.5706941,12.9126316 59.9710219,12.9230972 C59.3704008,12.9326113 58.8437898,13.1676113 58.3892914,13.6261943 C57.9338441,14.0847773 57.7146601,14.7326923 57.7288928,15.5689879 C57.7440744,16.4062348 57.9869796,17.0493927 58.4566596,17.4984615 C58.9272885,17.9456275 59.4614902,18.1644534 60.0621113,18.1549393 C60.6617836,18.1454251 61.1893434,17.9094737 61.6438418,17.4508907 L61.6438418,17.4518421 Z M57.6615246,11.6501012 C58.3560817,10.6358907 59.3694519,10.1173684 60.6997375,10.093583 C62.030972,10.0697976 63.1667437,10.5616802 64.110848,11.5654251 C65.0530545,12.5710729 65.5379161,13.8659514 65.5654327,15.4510121 C65.5929494,17.0370243 65.1526836,18.3433198 64.2465333,19.3756073 C63.3384853,20.4069433 62.2292814,20.9330769 60.916075,20.9568623 C59.6047663,20.9796964 58.5629307,20.4402429 57.7943634,19.3356478 L57.82188,20.8769433 L54.614772,20.9340283 L54.3709179,6.85495951 L57.5761282,6.79787449 L57.6615246,11.6501012 Z M74.3479747,17.4546964 C74.8034219,16.9904049 75.0226059,16.3386842 75.0074244,15.5014372 C74.9931916,14.6641903 74.7512353,14.0257895 74.2806064,13.5833806 C73.8099775,13.1409717 73.274827,12.925 72.6751547,12.9354656 C72.0745336,12.9449798 71.5479227,13.182834 71.0934242,13.6480769 C70.6389258,14.1123684 70.4197418,14.7640891 70.4339745,15.601336 C70.4491561,16.438583 70.6911125,17.0779352 71.1617413,17.5193927 C71.6314213,17.9618016 72.1675208,18.1787247 72.7662442,18.1663563 C73.3659164,18.1568421 73.8934762,17.9189879 74.3479747,17.4546964 Z M68.6273669,19.5344939 C67.6851603,18.5355061 67.1993499,17.2434818 67.1727821,15.6574696 C67.1443167,14.0724089 67.5836336,12.7613563 68.4916816,11.7243117 C69.3978319,10.6872672 70.5174732,10.1563765 71.8477588,10.1335425 C73.1799421,10.1097571 74.2103916,10.5930769 74.9391073,11.5825506 L74.9153861,10.1934818 L78.1224941,10.1382996 L78.3056218,20.7542105 L75.1004115,20.8093927 L75.0738438,19.2680972 C74.3176115,20.399332 73.2900086,20.9749393 71.9910349,20.9977733 C70.6911125,21.0206073 69.5695735,20.5315789 68.6273669,19.5344939 Z M88.5750094,10.1601822 L88.6224518,12.8422267 L84.7027586,18.163502 L88.7144901,18.0940486 L88.7609837,20.7760931 L80.9804258,20.9121457 L80.9329834,18.2291498 L84.8545743,12.9088259 L80.8437916,12.9782794 L80.7963492,10.2952834 L88.5750094,10.1601822 Z M97.7503746,17.4546964 C98.204873,16.9904049 98.424057,16.3386842 98.4098243,15.5014372 C98.3955915,14.6641903 98.1526863,14.0257895 97.6830063,13.5833806 C97.2123774,13.1409717 96.6772269,12.925 96.0775546,12.9354656 C95.4769335,12.9449798 94.9503226,13.182834 94.4958241,13.6480769 C94.0403768,14.1123684 93.8211928,14.7640891 93.8363744,15.601336 C93.851556,16.438583 94.0925635,17.0779352 94.5641412,17.5193927 C95.0338212,17.9618016 95.5689718,18.1787247 96.1676952,18.1663563 C96.7683163,18.1568421 97.2958761,17.9189879 97.7503746,17.4546964 Z M92.028818,19.5344939 C91.0875602,18.5355061 90.6017498,17.2434818 90.575182,15.6574696 C90.5467166,14.0724089 90.9860335,12.7613563 91.8931326,11.7243117 C92.8002318,10.6872672 93.9198731,10.1563765 95.2501587,10.1335425 C96.582342,10.1097571 97.6118427,10.5930769 98.3415072,11.5825506 L98.317786,10.1934818 L101.523945,10.1382996 L101.708022,20.7542105 L98.5028114,20.8093927 L98.4762437,19.2680972 C97.7200114,20.399332 96.6924085,20.9749393 95.392486,20.9977733 C94.0925635,21.0206073 92.9719734,20.5315789 92.0297668,19.5344939 L92.028818,19.5344939 Z M111.167093,17.4546964 C111.620642,16.9904049 111.840775,16.3386842 111.825594,15.5014372 C111.811361,14.6641903 111.569404,14.0257895 111.098776,13.5833806 C110.628147,13.1409717 110.092996,12.925 109.493324,12.9354656 C108.892703,12.9449798 108.366092,13.182834 107.911593,13.6480769 C107.457095,14.1123684 107.237911,14.7640891 107.252144,15.601336 C107.267325,16.438583 107.509282,17.0779352 107.97991,17.5193927 C108.44959,17.9618016 108.98569,18.1787247 109.584413,18.1663563 C110.184086,18.1568421 110.711645,17.9189879 111.166144,17.4546964 L111.167093,17.4546964 Z M105.445536,19.5344939 C104.503329,18.5355061 104.017519,17.2434818 103.990951,15.6574696 C103.962486,14.0724089 104.401803,12.7613563 105.309851,11.7243117 C106.216001,10.6872672 107.335642,10.1563765 108.665928,10.1335425 C109.998111,10.1097571 111.028561,10.5930769 111.757276,11.5825506 L111.733555,10.1934818 L114.940663,10.1382996 L115.123791,20.7542105 L111.918581,20.8093927 L111.892013,19.2680972 C111.135781,20.399332 110.108178,20.9749393 108.809204,20.9977733 C107.509282,21.0206073 106.387743,20.5315789 105.445536,19.5344939 Z M121.28846,10.2163158 L121.322618,12.1952632 C122.048487,10.787166 123.036239,10.0717004 124.284923,10.0498178 L124.343752,13.360749 L123.556208,13.3731174 C122.818004,13.3864372 122.267671,13.5738664 121.905211,13.9354049 C121.544649,14.2969433 121.370061,14.9220243 121.386191,15.8096964 L121.472536,20.8331781 L118.266377,20.8902632 L118.082301,10.2724494 L121.289409,10.2163158 L121.28846,10.2163158 Z" id="Shape" fill="#828BFF" fill-rule="nonzero"></path>
                                <path d="M0.853963668,34.9855061 C0.281808011,34.389919 -0.00284654556,33.6030972 -1.96220264e-16,32.6259919 C0.00379539408,31.6460324 0.294143041,30.8620648 0.873889487,30.2702834 C1.45363593,29.678502 2.19848202,29.3835628 3.1093766,29.3854656 C3.87509736,29.3892713 4.50703047,29.5719433 5.00707364,29.9334818 C5.50711681,30.2978745 5.84490688,30.8144939 6.01854616,31.4842915 L4.60665957,31.4795344 C4.37134513,30.8173482 3.87130196,30.4853036 3.10558121,30.4824494 C2.57043064,30.481498 2.14249996,30.6679757 1.8246357,31.0437854 C1.5058226,31.4195951 1.34641605,31.9466802 1.3435695,32.6250405 C1.34167181,33.3005466 1.49823181,33.8304858 1.81514722,34.2129555 C2.13111378,34.5935223 2.55714676,34.7857085 3.09229733,34.7866599 C3.85137614,34.7895142 4.35426586,34.4593725 4.60096647,33.7971862 L6.01285307,33.8028947 C5.82592991,34.4403441 5.4814979,34.9484008 4.97481279,35.3223077 C4.46812768,35.6990688 3.83904111,35.8855466 3.08945078,35.8826923 C2.17191426,35.8798381 1.42706817,35.5810931 0.853963668,34.9855061 Z M8.64211232,29.5053441 L8.63831693,30.6013765 C9.04727064,29.8021862 9.67920375,29.4063968 10.536014,29.4082928 L10.5312697,30.7555061 L10.2001216,30.7545547 C9.68774339,30.7536032 9.2987155,30.8810931 9.03303791,31.1389271 C8.76830918,31.3977126 8.63452153,31.84583 8.63262384,32.4851822 L8.62313535,35.7961134 L7.31467324,35.7923077 L7.33365021,29.5015385 L8.64306117,29.5053441 L8.64211232,29.5053441 Z M13.4679559,35.7076316 L10.9971543,29.5129555 L12.4545857,29.5177126 L14.2194439,34.3176113 L16.0820336,29.5281781 L17.4369893,29.5329352 L13.5277334,38.7692915 L12.1746754,38.7654858 L13.4679559,35.7076316 Z M22.9877531,34.2243725 C23.3720368,33.8333401 23.5637042,33.3148178 23.5656018,32.6678543 C23.5684484,32.0208907 23.3805764,31.5099798 23.0029347,31.1360729 C22.6476114,30.7707247 22.1587868,30.5668974 21.6498767,30.5718826 C21.1386966,30.5648115 20.6474476,30.7704545 20.2930233,31.1398785 C19.9134839,31.5185425 19.7227653,32.0313563 19.7208676,32.6792713 C19.7189699,33.3262348 19.9077908,33.8428543 20.2844837,34.2281781 C20.6621254,34.6125506 21.1099819,34.8066397 21.6318486,34.8075911 C22.1527664,34.8094939 22.6044183,34.6144534 22.9877531,34.2243725 Z M21.9345312,29.443502 C22.7846995,29.4463563 23.4906428,29.7460526 24.0561565,30.3454453 C24.6207214,30.9448381 24.9006317,31.7221457 24.8977852,32.676417 C24.8949386,33.6325911 24.6083864,34.4156073 24.034333,35.026417 C23.4640751,35.6372267 22.7571829,35.9426316 21.9155543,35.9397773 C21.4183576,35.9388259 20.9818873,35.8208502 20.608041,35.587753 C20.2367089,35.3566764 19.9295909,35.0353094 19.7151746,34.6534615 L19.7028395,38.820668 L18.3934286,38.8168623 L18.421894,29.5348381 L19.7303561,29.5386437 L19.7265607,30.6584615 C19.9419493,30.2931174 20.2389389,30.000081 20.6184783,29.7755466 C20.9980178,29.552915 21.4373346,29.4425506 21.9354801,29.4425506 L21.9345312,29.443502 Z M29.2662838,30.629919 L27.7282003,30.6242105 L27.717763,34.1063968 C27.7168141,34.3432996 27.7727962,34.5126518 27.8819138,34.6163563 C27.992929,34.7191093 28.1817499,34.7714372 28.4512229,34.7714372 L29.2539487,34.7742915 L29.2501533,35.8589069 L28.2178061,35.8560526 C27.0004335,35.852247 26.3941193,35.2680769 26.3979147,34.1035425 L26.4074032,30.6213563 L25.6616082,30.6175506 L25.6654036,29.5567206 L26.4111986,29.5586235 L26.4159428,27.9954453 L27.7367399,27.9982996 L27.7319957,29.5633806 L29.2691303,29.5681377 L29.2662838,30.6289676 L29.2662838,30.629919 Z M34.5693981,34.3109514 C34.9527329,33.9303846 35.1453492,33.4032996 35.1472469,32.7258907 C35.1500934,32.0475304 34.9660168,31.5194939 34.5959659,31.1427328 C34.246023,30.7721774 33.7575083,30.565204 33.248601,30.5718826 C32.7445361,30.5608502 32.2596636,30.7657053 31.9154688,31.1351215 C31.5549064,31.5099798 31.3746252,32.0389676 31.3717786,32.7201822 C31.3698809,33.4013968 31.5444691,33.9303846 31.895543,34.3090486 C32.2456681,34.6867611 32.6830873,34.8760931 33.2068517,34.877996 C33.7192928,34.8839498 34.2117646,34.6790001 34.5693981,34.3109514 Z M33.204954,35.9740283 C32.2826732,35.9711741 31.5235944,35.6695749 30.9277175,35.0701822 C30.3337383,34.4707895 30.0376976,33.6858704 30.0405442,32.7154251 C30.0424418,31.7449798 30.3536642,30.9619636 30.9704157,30.3654251 C31.5890649,29.7707895 32.3576322,29.4748988 33.2761176,29.477753 C34.1936541,29.4806073 34.9603237,29.7803036 35.5751776,30.3796964 C36.1881337,30.9790891 36.4946118,31.7621053 36.4908164,32.7296964 C36.4879698,33.696336 36.1701056,34.4793522 35.5381725,35.0787449 C34.9043417,35.6781377 34.1262859,35.9768826 33.2040051,35.9730769 L33.204954,35.9740283 Z M42.550163,29.6080972 L42.5463676,30.6004251 C42.9695541,29.8706883 43.6441854,29.5081984 44.5712104,29.5110526 C45.0608162,29.512004 45.4953888,29.6280769 45.8787237,29.8573684 C46.2601608,30.0866599 46.5495596,30.4187045 46.7478689,30.853502 C46.9708483,30.4348785 47.2792241,30.1085425 47.6748939,29.8744939 C48.068666,29.6394939 48.5155737,29.5224696 49.0127703,29.5243725 C49.7395883,29.5262753 50.3354651,29.7622267 50.8013498,30.2312753 C51.2662855,30.7003239 51.4987534,31.3634615 51.4959069,32.2140283 L51.4845207,35.9255061 L50.1751097,35.9217004 L50.1874448,32.4043117 C50.1874448,31.8429757 50.047964,31.4091296 49.7652072,31.1075304 C49.484348,30.8059312 49.0972178,30.6546559 48.607612,30.6537045 C48.1180062,30.6518016 47.730876,30.8011741 47.4471703,31.1008704 C47.1625157,31.4005668 47.0201884,31.8315587 47.0192396,32.3947976 L47.0078534,35.9112348 L45.7107775,35.9074291 L45.7221636,32.3909919 C45.7221636,31.827753 45.5826829,31.3958097 45.2999261,31.0942105 C45.0190669,30.7926113 44.6319367,30.641336 44.1423309,30.6394332 C43.652725,30.6394332 43.264646,30.7869028 42.9752472,31.0875506 C42.6886949,31.3862955 42.5425723,31.8182389 42.5416234,32.3814777 L42.5302372,35.897915 L41.222724,35.8941093 L41.2417009,29.6033401 L42.550163,29.6071457 L42.550163,29.6080972 Z M57.3256322,34.3394939 C57.7061205,33.9560729 57.896839,33.4413563 57.8987367,32.7943927 C57.8996856,32.1464777 57.7127624,31.6317611 57.3351207,31.2511943 C56.98492,30.8809008 56.4976376,30.6722381 55.9887046,30.6746356 C55.48177,30.6682515 54.9940353,30.868819 54.6375443,31.2302632 C54.2580049,31.6032186 54.0672864,32.1122267 54.0644398,32.7591903 C54.063491,33.4061538 54.251363,33.9256275 54.6280559,34.3195142 C55.0066464,34.7124494 55.4554518,34.9093927 55.9763696,34.9112955 C56.4963386,34.9131984 56.9460928,34.7210121 57.3256322,34.3394939 Z M53.5757828,35.1148988 C53.0036272,34.5012348 52.7189726,33.7163158 52.7208703,32.7610931 C52.7246657,31.8058704 53.0121668,31.0295142 53.5843225,30.4348785 C54.1555293,29.8392915 54.8671657,29.5424494 55.7163851,29.5453036 C56.2135817,29.5453036 56.6510009,29.6594737 57.0295915,29.8849595 C57.4072332,30.1113968 57.6994785,30.406336 57.9044298,30.773583 L57.9082252,29.6537652 L59.2290223,29.6575709 L59.2090965,35.9483401 L57.8892482,35.9445344 L57.8930436,34.768583 C57.6833303,35.1505318 57.3774428,35.4706968 57.0058702,35.697166 C56.6310751,35.9283603 56.1946048,36.0425304 55.6964593,36.0415789 C54.8893057,36.0541037 54.1161357,35.7162486 53.5757828,35.1148988 Z M62.2586957,29.667085 L62.2549003,30.7631174 C62.663854,29.9639271 63.2957871,29.5681377 64.1525973,29.5700337 L64.1488019,30.917247 L63.8167049,30.9162955 C63.3043267,30.9153441 62.9152988,31.042834 62.6496212,31.300668 C62.3848925,31.5575506 62.2511049,32.0075709 62.2492072,32.6469231 L62.2397187,35.9578543 L60.9312566,35.9540486 L60.9502335,29.6632794 L62.2596445,29.667085 L62.2586957,29.667085 Z M66.6471201,35.9711741 L65.338658,35.9673684 L65.363328,27.5187854 L66.672739,27.5225911 L66.6585062,32.4319028 L68.9623105,29.6870648 L70.7765088,29.6918219 L67.8512088,32.8353036 L70.756583,35.9835425 L68.9888782,35.9787854 L66.6556597,33.2653441 L66.6471201,35.9711741 Z M75.6270225,31.1627126 C75.2911301,30.853502 74.8821764,30.6984211 74.4001613,30.6965182 C73.9181463,30.6955668 73.5139368,30.8477935 73.1884818,31.1551012 C72.8620779,31.4624089 72.6761036,31.8753239 72.6286611,32.3919433 L76.1403495,32.4033603 C76.1337076,31.8857895 75.9629148,31.4719231 75.6279713,31.1627126 L75.6270225,31.1627126 Z M74.3612585,36.0977126 C73.4427732,36.0948583 72.6979271,35.7951619 72.1257714,35.1995749 C71.5536158,34.6039879 71.2680124,33.8152632 71.2718077,32.8343522 C71.2746543,31.8524899 71.5678485,31.0666194 72.1513903,30.4786437 C72.7339833,29.890668 73.487369,29.5976316 74.4096498,29.6004858 C75.3309817,29.6033401 76.0796232,29.8897166 76.65083,30.4577126 C77.2229857,31.0266599 77.5076402,31.7678138 77.5047937,32.6811741 C77.5047937,32.9019028 77.4886633,33.1074089 77.4583001,33.2976923 L72.6134796,33.2834211 C72.641945,33.8076518 72.8193797,34.2262753 73.1448347,34.5345344 C73.4683921,34.8437449 73.8754481,34.9988259 74.3641051,35.0007287 C75.0757415,35.0026316 75.5786312,34.711498 75.8708765,34.1263765 L77.2827631,34.1301822 C77.0933599,34.7031954 76.725923,35.2003279 76.2342855,35.5487449 C75.7266516,35.9159919 75.1032581,36.098664 74.3612585,36.0977126 Z M81.8609572,30.7878543 L80.3238226,30.7830972 L80.3124364,34.2652834 C80.3124364,34.5012348 80.3674697,34.6696356 80.4765872,34.7742915 C80.5876025,34.8770445 80.7764234,34.9303239 81.0458964,34.9303239 L81.8486222,34.9322267 L81.8448268,36.0168421 L80.8124796,36.0130364 C79.595107,36.0101822 78.9887928,35.4260121 78.9925882,34.2614777 L79.0020766,30.7792915 L78.2562817,30.7773887 L78.2600771,29.7156073 L79.005872,29.7175101 L79.0106163,28.1533806 L80.3314134,28.1571862 L80.3266692,29.7213158 L81.8647526,29.7260729 L81.8609572,30.7878543 Z M86.4932357,36.0301619 L86.5131615,29.7393927 L87.8206748,29.7441498 L87.8016978,36.034919 L86.4932357,36.0301619 Z M88.0113933,28.0772672 C88.0159333,28.300456 87.9271697,28.5153763 87.7665904,28.67 C87.6103354,28.827685 87.3961204,28.9137406 87.1745089,28.9078543 C86.9531511,28.9123498 86.7397054,28.8252952 86.5843252,28.6671457 C86.4260299,28.5106264 86.3394653,28.2953515 86.3452153,28.0725101 C86.3405289,27.8496725 86.428532,27.6349292 86.5881206,27.4797773 C86.7446912,27.322571 86.9586919,27.2366015 87.180202,27.2419231 C87.4014767,27.2378772 87.6147522,27.3248623 87.7703858,27.4826316 C87.9293207,27.6387933 88.0162906,27.8542216 88.0104445,28.0772672 L88.0113933,28.0772672 Z M90.8522458,29.7527126 L90.8484504,30.7459919 C91.2716369,30.0172065 91.9462682,29.6537652 92.8732932,29.6566194 C93.5849295,29.6585223 94.1703691,29.8963765 94.6324583,30.3701822 C95.0945475,30.8430364 95.3241689,31.5023684 95.3213223,32.3472267 L95.3099362,36.057753 L94.0128602,36.0539474 L94.0242464,32.5375101 C94.0251953,31.9742713 93.8847657,31.5413765 93.6020088,31.2397773 C93.3211497,30.9381781 92.9340195,30.7869028 92.4444136,30.7859514 C91.9548078,30.7840486 91.5667287,30.9334211 91.2782788,31.2331174 C90.9907777,31.5328138 90.844655,31.9638057 90.8437062,32.5270445 L90.83232,36.0434818 L89.5248067,36.0396761 L89.5437837,29.7489069 L90.8522458,29.7527126 Z M96.6999992,31.5746761 C96.7009481,31.0418826 96.9286717,30.5918623 97.3812725,30.223664 C97.8329244,29.8554656 98.4278524,29.6737449 99.1622612,29.6756478 C99.8966699,29.678502 100.479263,29.8602227 100.910989,30.2227126 C101.342715,30.5861538 101.572336,31.0789879 101.600802,31.7040688 L100.258181,31.7002632 C100.236358,31.3881984 100.12724,31.1436842 99.933675,30.9676721 C99.7382122,30.7926113 99.4658927,30.7041296 99.1138699,30.7031781 C98.7627959,30.7022267 98.4857322,30.7792915 98.286474,30.9343725 C98.0923005,31.0782692 97.9800953,31.307901 97.985689,31.5499393 C97.985689,31.804919 98.1099881,32.005668 98.3633307,32.149332 C98.6147756,32.2968016 98.9231513,32.4043117 99.2865603,32.4728138 C99.6490204,32.5432186 100.011481,32.6269433 100.375838,32.7277935 C100.739247,32.8267409 101.045725,33.009413 101.298119,33.272004 C101.549564,33.536498 101.674812,33.8885223 101.673863,34.3299798 C101.671965,34.877996 101.439498,35.3223077 100.975511,35.6638664 C100.511524,36.0044737 99.9165957,36.1747773 99.1888289,36.1719231 C98.4610621,36.1700202 97.8718272,35.9930567 97.4239707,35.6410324 C96.9723188,35.2890081 96.7246693,34.7904656 96.6800734,34.143502 L98.0350291,34.1482591 C98.0578015,34.4603239 98.1716633,34.7038866 98.3775634,34.8798988 C98.5825147,35.0549595 98.8643227,35.1434413 99.2201409,35.1443927 C99.5759591,35.1462955 99.858716,35.0682794 100.071258,34.9131984 C100.274146,34.7720891 100.393115,34.5385076 100.388173,34.2909717 C100.389122,34.0331377 100.262925,33.8314372 100.011481,33.6858704 C99.7234829,33.5270756 99.4116831,33.4162204 99.088251,33.3576316 C98.7223053,33.2839378 98.3587222,33.1989039 97.998024,33.1026518 C97.649802,33.0142544 97.3314189,32.8342686 97.0757433,32.5812753 C96.8242984,32.3291498 96.6981015,31.9913968 96.6999992,31.5746761 Z M103.103778,36.080587 L103.123704,29.7898178 L104.431217,29.7936235 L104.41224,36.0843927 L103.103778,36.080587 Z M104.621936,28.1276923 C104.626475,28.3508811 104.537712,28.5658014 104.377133,28.7204251 C104.220878,28.8781101 104.006663,28.9641657 103.785051,28.9582794 C103.563574,28.9624122 103.350151,28.8750227 103.194867,28.7166194 C103.036526,28.5605226 102.949928,28.3455113 102.955758,28.1229352 C102.951266,27.8998553 103.039218,27.6848928 103.198663,27.529251 C103.355171,27.3719495 103.569214,27.2859628 103.790744,27.2913968 C104.012159,27.287601 104.225454,27.3749383 104.380928,27.5330567 C104.539863,27.6892184 104.626833,27.9046467 104.620987,28.1276923 L104.621936,28.1276923 Z M110.311231,34.4983806 C110.690771,34.1159109 110.882438,33.6002429 110.884336,32.9532794 C110.884336,32.3053644 110.698361,31.7915992 110.32072,31.410081 C109.970195,31.0398009 109.482498,30.8314517 108.973355,30.8344737 C108.466664,30.8279083 107.979156,31.0285237 107.623143,31.3901012 C107.243604,31.7611538 107.052885,32.2720648 107.050039,32.9190283 C107.04909,33.5659919 107.236962,34.0845142 107.613655,34.4784008 C107.992245,34.8722874 108.441051,35.0682794 108.96102,35.0711336 C109.481938,35.0730364 109.931692,34.8808502 110.311231,34.4983806 Z M106.561382,35.2737854 C105.989226,34.6601215 105.704572,33.8752024 105.706469,32.9199798 C105.710265,31.9647571 105.997766,31.1884008 106.569922,30.5937652 C107.141128,29.9981781 107.852765,29.701336 108.701984,29.7041903 C109.199181,29.7060931 109.6366,29.8183603 110.015191,30.0438462 C110.392832,30.2712348 110.685078,30.5661741 110.890029,30.9324696 L110.893824,29.8126518 L112.214621,29.8174089 L112.194696,36.2109312 C112.191849,37.0947976 111.916683,37.8140688 111.3673,38.3706478 C110.818865,38.9291296 110.089201,39.2069433 109.178306,39.2040891 C108.267412,39.2012348 107.530156,38.998583 106.964643,38.5989879 C106.416817,38.2274974 106.064587,37.6287267 106.005357,36.9682591 L107.302433,36.9730162 C107.401113,37.2993522 107.611757,37.565749 107.937212,37.7684008 C108.261718,37.9701012 108.669723,38.0728543 109.159329,38.0747571 C109.648935,38.0747571 110.055991,37.9177733 110.382395,37.5990486 C110.708799,37.2803239 110.87295,36.8160324 110.874847,36.2071255 L110.878643,34.9274696 C110.669472,35.3098179 110.363463,35.6301101 109.991469,35.8560526 C109.616674,36.087247 109.180204,36.2023684 108.682058,36.2004656 C107.874905,36.2129903 107.101735,35.8751352 106.561382,35.2737854 Z M115.249988,27.6681579 L115.240499,30.819251 C115.664635,30.0904656 116.338317,29.7270243 117.265342,29.7298785 C117.976978,29.7317814 118.562418,29.9696356 119.025456,30.4434413 C119.486596,30.9162955 119.716218,31.5756275 119.713371,32.4195344 L119.701985,36.1310121 L118.404909,36.1272065 L118.416295,32.6098178 C118.416295,32.0484818 118.276815,31.6136842 117.995007,31.3130364 C117.713199,31.0114372 117.326068,30.8592105 116.836463,30.8582591 C116.346857,30.8582591 115.958778,31.0066802 115.669379,31.3063765 C115.382827,31.6060729 115.236704,32.0370648 115.235755,32.6003036 L115.225318,36.1167409 L113.915907,36.1129352 L113.941526,27.6643522 L115.249988,27.6681579 Z" id="Shape" fill="#253B6E" fill-rule="nonzero"></path>
                                <g transform="translate(120.503762, 27.787085)" id="Clipped">
                                    <g>
                                        <mask id="mask-4" fill="white">
                                            <use xlink:href="#path-3"></use>
                                        </mask>
                                        <g id="c"></g>
                                        <path d="M3.94341445,3.12825911 L2.40627985,3.12350202 L2.39489367,6.60568826 C2.39489367,6.84163968 2.44992688,7.0109919 2.55904446,7.11469636 C2.67005974,7.21744939 2.85888059,7.27072874 3.12835357,7.27072874 L3.93107942,7.27263158 L3.92728403,8.35724696 L2.89493684,8.35439271 C1.67756418,8.35058704 1.07219883,7.766417 1.07504537,6.60283401 L1.08453386,3.12064777 L0.338738922,3.11779352 L0.342534316,2.05601215 L1.08832925,2.0588664 L1.0930735,0.494736842 L2.41387064,0.49854251 L2.40912639,2.06267206 L3.94720984,2.06742915 L3.94341445,3.12921053 L3.94341445,3.12825911 Z" id="Shape" fill="#253B6E" fill-rule="nonzero" mask="url(#mask-4)"></path>
                                    </g>
                                </g>
                            </g>
                        </g>
                    </g>
                </g>
            </g>
        </g>
    </g>
</svg>