<?xml version="1.0" encoding="UTF-8"?>
<svg width="32px" height="32px" viewBox="0 0 32 32" version="1.1" xmlns="http://www.w3.org/2000/svg" xmlns:xlink="http://www.w3.org/1999/xlink">
    <!-- Generator: Sketch 49.1 (51147) - http://www.bohemiancoding.com/sketch -->
    <title>icons/general/32px/icon2-technology</title>
    <desc>Created with Sketch.</desc>
    <defs></defs>
    <g id="icons/general/32px/icon2-technology" stroke="none" stroke-width="1" fill="none" fill-rule="evenodd">
        <g>
            <circle id="Oval-11-Copy" fill="#DED5FC" fill-rule="evenodd" cx="16" cy="16" r="16"></circle>
            <path d="M21.8588235,24.4 L10.5411765,24.4 C9.5787686,24.4 8.8,23.6293271 8.8,22.6769231 L8.8,14.9230769 C8.8,13.9706733 9.5787686,13.2 10.5411765,13.2 L21.8588235,13.2 C22.8212318,13.2 23.6,13.9706733 23.6,14.9230769 L23.6,22.6769231 C23.6,23.6293271 22.8212318,24.4 21.8588235,24.4" id="Shape" fill="#BFB1EC" fill-rule="nonzero"></path>
            <path d="M16.2,7.2 C18.626875,7.2 20.6,9.15479876 20.6,11.5591331 L20.6,13.3027864 L18.84,13.3027864 L18.84,11.5591331 C18.84,10.116873 17.6557814,8.94365325 16.2,8.94365325 C14.7442186,8.94365325 13.56,10.116873 13.56,11.5591331 L13.56,13.3027864 L11.8,13.3027864 L11.8,11.5591331 C11.8,9.15479876 13.773125,7.2 16.2,7.2 Z M12.8,18.8 C12.8,19.4625 12.2625,20 11.6,20 C10.9375,20 10.4,19.4625 10.4,18.8 C10.4,18.1375 10.9375,17.6 11.6,17.6 C12.2625,17.6 12.8,18.1375 12.8,18.8 Z M22,18.8 C22,19.4625 21.4625,20 20.8,20 C20.1375,20 19.6,19.4625 19.6,18.8 C19.6,18.1375 20.1375,17.6 20.8,17.6 C21.4625,17.6 22,18.1375 22,18.8 Z M17.4,18.8 C17.4,19.4625 16.8625,20 16.2,20 C15.5375,20 15,19.4625 15,18.8 C15,18.1375 15.5375,17.6 16.2,17.6 C16.8625,17.6 17.4,18.1375 17.4,18.8 Z" id="Combined-Shape" fill="#6743DF" fill-rule="nonzero"></path>
        </g>
    </g>
</svg>