<?xml version="1.0" encoding="UTF-8"?>
<svg width="228px" height="42px" viewBox="0 0 228 42" version="1.1" xmlns="http://www.w3.org/2000/svg" xmlns:xlink="http://www.w3.org/1999/xlink">
    <!-- Generator: Sketch 51.1 (57501) - http://www.bohemiancoding.com/sketch -->
    <title>icons/general/logotypes/jinse</title>
    <desc>Created with Sketch.</desc>
    <defs></defs>
    <g id="icons/general/logotypes/jinse" stroke="none" stroke-width="1" fill="none" fill-rule="evenodd">
        <g id="logo-(2)">
            <g>
                <path d="M41.2675392,0.00014646905 L32.4586913,0.00014646905 C31.9956497,0.00014646905 31.6166636,0.376571926 31.6166636,0.836484743 L31.6166636,30.4283592 C31.6166636,30.888272 31.2376774,31.2639651 30.7761105,31.2639651 L0.982193548,31.2639651 C0.518414747,31.2639651 0.140903226,31.641123 0.140903226,32.1010358 L0.140903226,40.849632 C0.140903226,41.3095449 0.518414747,41.6859703 0.982193548,41.6859703 L41.2675392,41.6859703 L42.1095668,41.6859703 L42.1095668,40.849632 L42.1095668,0.836484743 C42.1095668,0.376571926 41.7305806,0.00014646905 41.2675392,0.00014646905" id="Fill-2" fill="#F29700" fill-rule="nonzero"></path>
                <path d="M1.09905991,27.1125928 L11.1333456,27.1125928 C11.6612719,27.1125928 12.0926083,26.6841709 12.0926083,26.1598117 L12.0926083,16.1933252 C12.0926083,15.6696984 11.6612719,15.2412764 11.1333456,15.2412764 L1.09905991,15.2412764 C0.571870968,15.2412764 0.140534562,15.6696984 0.140534562,16.1933252 L0.140534562,26.1598117 C0.140534562,26.6841709 0.571870968,27.1125928 1.09905991,27.1125928" id="Fill-4" fill="#F29700" fill-rule="nonzero"></path>
                <path d="M16.0335484,11.8713897 L26.0678341,11.8713897 C26.5957604,11.8713897 27.0270967,11.4429678 27.0270967,10.9193409 L27.0270967,0.952854403 C27.0270967,0.428495205 26.5957604,7.32345248e-05 26.0678341,7.32345248e-05 L25.5295852,7.32345248e-05 L16.7207373,7.32345248e-05 L16.0335484,7.32345248e-05 C15.5063595,7.32345248e-05 15.075023,0.428495205 15.075023,0.952854403 L15.075023,10.9193409 C15.075023,11.4429678 15.5063595,11.8713897 16.0335484,11.8713897" id="Fill-6" fill="#F29700" fill-rule="nonzero"></path>
                <path d="M172.182047,11.7158396 C171.839926,11.7158396 171.461677,11.9758221 171.340756,12.2936599 L162.551816,35.3801115 C162.430894,35.6979494 162.172092,35.7301726 161.975225,35.4518815 L156.325825,27.4495449 C156.129696,27.171986 155.968959,26.6666678 155.968959,26.3268597 L155.968959,11.3804255 C155.968959,11.0413496 155.689512,10.7630584 155.347392,10.7630584 L152.353843,10.7630584 C152.012461,10.7630584 151.733014,11.0413496 151.733014,11.3804255 L151.733014,26.431585 C151.733014,26.7713932 151.57154,27.2767115 151.373936,27.5535379 L144.169512,37.6979843 C143.972645,37.9748108 144.045641,38.3541656 144.332461,38.539449 L146.549604,39.977775 C146.836424,40.1630584 147.233106,40.0890915 147.432184,39.8129973 L153.516608,31.3661273 C153.715687,31.0900331 154.040848,31.0907655 154.239189,31.3668597 L159.824442,39.1436338 C160.02352,39.419728 160.353106,39.6460227 160.556608,39.6460227 L161.549788,39.6460227 L164.314765,39.6460227 L165.193659,39.6460227 C165.335964,39.6460227 165.549051,39.3853077 165.667761,39.0667376 L175.626102,12.2951247 C175.744811,11.9765545 175.561954,11.7158396 175.219834,11.7158396 L172.182047,11.7158396 Z" id="Fill-8" fill="#545555" fill-rule="nonzero"></path>
                <path d="M72.3080553,2.5611578 C71.9659355,2.5611578 71.4866728,2.7552293 71.2418802,2.99250915 L58.2265806,15.598368 C57.9817881,15.8349155 57.9825253,16.2223261 58.227318,16.4596059 L60.3788387,18.5350723 C60.6243687,18.7716198 61.026212,18.7723522 61.2724792,18.5358047 L73.2319263,7.08046033 C73.4781935,6.84464516 73.9589309,6.65203836 74.3010507,6.65203836 L81.3086083,6.65203836 C81.6507281,6.65203836 82.1314654,6.84464516 82.3769954,7.08046033 L94.3371797,18.5358047 C94.583447,18.7723522 94.9852903,18.7716198 95.2308203,18.5350723 L97.3823411,16.4596059 C97.6271336,16.2223261 97.627871,15.8349155 97.3830783,15.598368 L84.3677788,2.99250915 C84.1229861,2.7552293 83.6437235,2.5611578 83.3016037,2.5611578 L72.3080553,2.5611578 Z" id="Fill-10" fill="#545555" fill-rule="nonzero"></path>
                <path d="M79.9729401,28.2587131 C79.9729401,27.9196374 80.2531245,27.6413461 80.5945069,27.6413461 L93.98953,27.6413461 C94.3316498,27.6413461 94.6118341,27.3637872 94.6118341,27.0239791 L94.6118341,24.2271525 C94.6118341,23.8873444 94.3316498,23.6090532 93.98953,23.6090532 L80.5945069,23.6090532 C80.2531245,23.6090532 79.9729401,23.3314944 79.9729401,22.9924185 L79.9729401,18.7697158 C79.9729401,18.4306399 80.2531245,18.1530811 80.5945069,18.1530811 L88.6542304,18.1530811 C88.9963502,18.1530811 89.2757972,17.8747899 89.2757972,17.5349817 L89.2757972,14.6971439 C89.2757972,14.358068 88.9963502,14.0805092 88.6542304,14.0805092 L66.9561659,14.0805092 C66.6147834,14.0805092 66.3345991,14.358068 66.3345991,14.6971439 L66.3345991,17.5349817 C66.3345991,17.8747899 66.6147834,18.1530811 66.9561659,18.1530811 L75.060129,18.1530811 C75.4022489,18.1530811 75.6816958,18.4306399 75.6816958,18.7697158 L75.6816958,22.9924185 C75.6816958,23.3314944 75.4022489,23.6090532 75.060129,23.6090532 L61.6208663,23.6090532 C61.2787465,23.6090532 61.0000369,23.8873444 61.0000369,24.2271525 L61.0000369,27.0239791 C61.0000369,27.3637872 61.2787465,27.6413461 61.6208663,27.6413461 L75.060129,27.6413461 C75.4022489,27.6413461 75.6816958,27.9196374 75.6816958,28.2587131 L75.6816958,35.0394978 C75.6816958,35.379306 75.4022489,35.6568649 75.060129,35.6568649 L60.8356129,35.6568649 C60.4934931,35.6568649 60.2140461,35.9344237 60.2140461,36.2742319 L60.2140461,39.1128021 C60.2140461,39.4526103 60.4934931,39.7301691 60.8356129,39.7301691 L94.77847,39.7301691 C95.1205898,39.7301691 95.4007741,39.4526103 95.4007741,39.1128021 L95.4007741,36.2742319 C95.4007741,35.9344237 95.1205898,35.6568649 94.77847,35.6568649 L80.5945069,35.6568649 C80.2531245,35.6568649 79.9729401,35.379306 79.9729401,35.0394978 L79.9729401,28.2587131 Z" id="Fill-12" fill="#545555" fill-rule="nonzero"></path>
                <path d="M148.921659,7.12542633 C148.921659,6.78561813 149.201106,6.50805928 149.543226,6.50805928 L158.155945,6.50805928 C158.498065,6.50805928 158.777512,6.78561813 158.777512,7.12542633 L158.777512,28.5282162 C158.777512,28.8672921 159.057696,29.1448509 159.399078,29.1448509 L162.393364,29.1448509 C162.734747,29.1448509 163.014194,28.8672921 163.014194,28.5282162 L163.014194,3.17881779 C163.014194,2.83900959 162.734747,2.56145074 162.393364,2.56145074 L145.308756,2.56145074 C144.966636,2.56145074 144.686452,2.83900959 144.686452,3.17881779 L144.686452,28.5282162 C144.686452,28.8672921 144.966636,29.1448509 145.308756,29.1448509 L148.300092,29.1448509 C148.642212,29.1448509 148.921659,28.8672921 148.921659,28.5282162 L148.921659,7.12542633 Z" id="Fill-14" fill="#545555" fill-rule="nonzero"></path>
                <path d="M180.536701,3.17874455 C180.536701,2.83893635 180.256516,2.5613775 179.915134,2.5613775 L176.921585,2.5613775 C176.580203,2.5613775 176.300018,2.83893635 176.300018,3.17874455 L176.300018,4.71520488 C176.300018,5.05501308 176.020571,5.33257193 175.678452,5.33257193 L166.391816,5.33257193 C166.050433,5.33257193 165.770986,5.61013077 165.770986,5.94993897 L165.770986,8.73285092 C165.770986,9.07192676 166.050433,9.35021796 166.391816,9.35021796 L175.678452,9.35021796 C176.020571,9.35021796 176.300018,9.62777681 176.300018,9.967585 L176.300018,35.1346295 C176.300018,35.4744376 176.020571,35.7519966 175.678452,35.7519966 L172.6473,35.7519966 C172.305917,35.7519966 172.025733,36.0295554 172.025733,36.3693635 L172.025733,39.1127288 C172.025733,39.4525371 172.305917,39.7300959 172.6473,39.7300959 L179.915134,39.7300959 C180.256516,39.7300959 180.536701,39.4525371 180.536701,39.1127288 L180.536701,9.967585 C180.536701,9.62777681 180.816148,9.35021796 181.158268,9.35021796 L182.957346,9.35021796 C183.298728,9.35021796 183.578913,9.07192676 183.578913,8.73285092 L183.578913,5.94993897 C183.578913,5.61013077 183.298728,5.33257193 182.957346,5.33257193 L181.158268,5.33257193 C180.816148,5.33257193 180.536701,5.05501308 180.536701,4.71520488 L180.536701,3.17874455 Z" id="Fill-16" fill="#545555" fill-rule="nonzero"></path>
                <path d="M203.241954,26.4124708 C203.241954,26.752279 203.522138,27.0298378 203.863521,27.0298378 L212.330986,27.0298378 C212.673106,27.0298378 212.952553,27.308129 212.952553,27.6472049 L212.952553,35.0248509 C212.952553,35.3646591 212.673106,35.642218 212.330986,35.642218 L203.863521,35.642218 C203.522138,35.642218 203.241954,35.9197768 203.241954,36.259585 L203.241954,39.0029503 C203.241954,39.3427585 203.522138,39.6203173 203.863521,39.6203173 L226.360111,39.6203173 C226.701493,39.6203173 226.981678,39.3427585 226.981678,39.0029503 L226.981678,36.259585 C226.981678,35.9197768 226.701493,35.642218 226.360111,35.642218 L217.807853,35.642218 C217.465733,35.642218 217.186286,35.3646591 217.186286,35.0248509 L217.186286,27.6472049 C217.186286,27.308129 217.465733,27.0298378 217.807853,27.0298378 L226.360111,27.0298378 C226.701493,27.0298378 226.981678,26.752279 226.981678,26.4124708 L226.981678,23.6288265 C226.981678,23.2890183 226.701493,23.0114595 226.360111,23.0114595 L203.863521,23.0114595 C203.522138,23.0114595 203.241954,23.2890183 203.241954,23.6288265 L203.241954,26.4124708 Z" id="Fill-18" fill="#545555" fill-rule="nonzero"></path>
                <path d="M218.717861,12.2418831 C218.445051,12.0375588 218.445051,11.7036094 218.718599,11.4992851 L224.596571,7.11546644 C224.87012,6.91187446 225.09353,6.46734088 225.09353,6.1275327 L225.09353,3.40833479 C225.09353,3.06925894 224.814083,2.79170009 224.471963,2.79170009 L203.787724,2.79170009 C203.445604,2.79170009 203.165419,3.06925894 203.165419,3.40833479 L203.165419,6.12972973 C203.165419,6.46953793 203.445604,6.74709678 203.787724,6.74709678 L217.553623,6.74709678 C217.895742,6.74709678 218.127263,6.81154315 218.069751,6.89136879 C218.01224,6.97046207 217.740903,7.20188317 217.467355,7.40547516 L202.446525,18.5612903 C202.172977,18.7648823 202.122101,19.1493635 202.335189,19.4144725 L204.103299,21.6268876 C204.31565,21.8927288 204.71307,21.943993 204.986617,21.7396687 L214.318968,14.7801918 C214.592516,14.5765998 215.040074,14.5765998 215.312885,14.7809241 L224.601733,21.7389363 C224.875282,21.9432606 225.277861,21.8978552 225.497585,21.6378727 L227.332056,19.4664691 C227.551042,19.2057541 227.508277,18.8256669 227.234728,18.6213426 L218.717861,12.2418831 Z" id="Fill-20" fill="#545555" fill-rule="nonzero"></path>
                <path d="M108.302452,17.0589572 C108.302452,16.7191491 108.581899,16.4415903 108.924018,16.4415903 L117.647337,16.4415903 C117.989456,16.4415903 118.268903,16.7191491 118.268903,17.0589572 L118.268903,24.497388 C118.268903,24.8371962 117.989456,25.114755 117.647337,25.114755 L108.924018,25.114755 C108.581899,25.114755 108.302452,24.8371962 108.302452,24.497388 L108.302452,17.0589572 Z M122.48494,17.0589572 C122.48494,16.7191491 122.765125,16.4415903 123.107245,16.4415903 L132.763282,16.4415903 C133.105401,16.4415903 133.384848,16.7191491 133.384848,17.0589572 L133.384848,24.497388 C133.384848,24.8371962 133.105401,25.114755 132.763282,25.114755 L123.107245,25.114755 C122.765125,25.114755 122.48494,24.8371962 122.48494,24.497388 L122.48494,17.0589572 Z M138.253419,36.3181726 C138.253419,35.9783644 137.973236,35.7008056 137.631115,35.7008056 L108.924018,35.7008056 C108.581899,35.7008056 108.302452,35.4232467 108.302452,35.0834385 L108.302452,29.7629503 C108.302452,29.4231421 108.581899,29.1448509 108.924018,29.1448509 L136.98153,29.1448509 C137.322912,29.1448509 137.602359,28.8672921 137.602359,28.5282162 L137.602359,13.0684081 C137.602359,12.7285998 137.322912,12.451041 136.98153,12.451041 L133.140055,12.451041 C132.798673,12.451041 132.583374,12.1808056 132.662267,11.8505178 L134.306506,4.99796338 C134.385401,4.66767568 134.170101,4.39744027 133.828719,4.39744027 L129.732866,4.39744027 L128.49047,4.39744027 L110.206968,4.39744027 C109.864848,4.39744027 109.626691,4.12281081 109.677567,3.78666434 L109.786691,3.06530428 C109.837567,2.7291578 109.59941,2.45452833 109.258028,2.45452833 L106.282912,2.45452833 C105.940793,2.45452833 105.611945,2.72769311 105.550747,3.06164255 L104.693972,7.74865214 C104.632774,8.08260157 104.86282,8.35649869 105.20494,8.35649869 L108.178581,8.35649869 L109.422452,8.35649869 L128.49047,8.35649869 C128.831853,8.35649869 129.053788,8.62819878 128.982268,8.95995117 L128.36365,11.8468561 C128.292129,12.1793409 127.954433,12.451041 127.612314,12.451041 L104.665217,12.451041 C104.323834,12.451041 104.044387,12.7285998 104.044387,13.0684081 L104.044387,39.1128021 C104.044387,39.4526103 104.323834,39.7301691 104.665217,39.7301691 L137.631115,39.7301691 C137.973236,39.7301691 138.253419,39.4526103 138.253419,39.1128021 L138.253419,36.3181726 Z" id="Fill-22" fill="#545555" fill-rule="nonzero"></path>
                <path d="M188.738801,35.3461308 C188.396682,35.3461308 188.116498,35.6236896 188.116498,35.9634978 L188.116498,38.7068631 C188.116498,39.0466714 188.396682,39.3249626 188.738801,39.3249626 L199.244977,39.3249626 C199.58636,39.3249626 199.866544,39.0466714 199.866544,38.7068631 L199.866544,35.9634978 C199.866544,35.6236896 199.58636,35.3461308 199.244977,35.3461308 L188.738801,35.3461308 Z" id="Fill-24" fill="#545555" fill-rule="nonzero"></path>
                <path d="M69.3313917,33.173775 C69.3313917,33.5128509 69.0512073,33.7911421 68.7090875,33.7911421 L65.7973825,33.7911421 C65.4552627,33.7911421 65.1758156,33.5128509 65.1758156,33.173775 L65.1758156,30.2810113 C65.1758156,29.9412031 65.4552627,29.6636443 65.7973825,29.6636443 L68.7090875,29.6636443 C69.0512073,29.6636443 69.3313917,29.9412031 69.3313917,30.2810113 L69.3313917,33.173775 Z" id="Fill-26" fill="#545555" fill-rule="nonzero"></path>
                <path d="M90.4078157,33.173775 C90.4078157,33.5128509 90.1276313,33.7911421 89.7855115,33.7911421 L86.8738065,33.7911421 C86.5316867,33.7911421 86.2522396,33.5128509 86.2522396,33.173775 L86.2522396,30.2810113 C86.2522396,29.9412031 86.5316867,29.6636443 86.8738065,29.6636443 L89.7855115,29.6636443 C90.1276313,29.6636443 90.4078157,29.9412031 90.4078157,30.2810113 L90.4078157,33.173775 Z" id="Fill-28" fill="#545555" fill-rule="nonzero"></path>
                <path d="M195.358157,27.3382284 C195.016037,27.3382284 194.828755,27.0767811 194.943042,26.756014 L198.407742,16.9909224 C198.521291,16.6708876 198.334009,16.4094403 197.991889,16.4101726 L194.612719,16.4182284 C194.271336,16.4189608 193.898986,16.6818727 193.786175,17.0026399 L188.94636,30.733381 C188.832811,31.0541482 189.020092,31.3163278 189.362211,31.3163278 L199.244608,31.3163278 C199.585991,31.3163278 199.866175,31.0380367 199.866175,30.6982284 L199.866175,27.9555955 C199.866175,27.6157872 199.585991,27.3382284 199.244608,27.3382284 L195.358157,27.3382284 Z" id="Fill-30" fill="#545555" fill-rule="nonzero"></path>
                <path d="M193.56306,13.8545806 C193.681032,13.5360104 193.88011,13.0167777 194.006194,12.7004045 L197.801216,3.13597559 C197.926562,2.81960244 197.749604,2.56108457 197.407484,2.56108457 L193.90518,2.56108457 C193.563798,2.56108457 193.186286,2.82179948 193.067576,3.14036966 L188.332461,15.8297158 C188.213751,16.148286 188.396609,16.4082685 188.738728,16.4082685 L191.99329,16.4082685 C192.33541,16.4082685 192.712185,16.1475536 192.830156,15.8289834 L193.56306,13.8545806 Z" id="Fill-32" fill="#F29700" fill-rule="nonzero"></path>
            </g>
        </g>
    </g>
</svg>