<svg width="20px" height="20px" viewBox="0 0 20 20" version="1.1" xmlns="http://www.w3.org/2000/svg" xmlns:xlink="http://www.w3.org/1999/xlink">
    <!-- Generator: Sketch 49.1 (51147) - http://www.bohemiancoding.com/sketch -->
    <desc>Created with Sketch.</desc>
    <defs></defs>
    <g id="Page-1" stroke="none" stroke-width="1" fill="none" fill-rule="evenodd">
        <g id="landing" transform="translate(-676.000000, -14889.000000)" fill="#0282BD" fill-rule="nonzero">
            <g id="leadership" transform="translate(-234.000000, 13107.000000)">
                <g id="bio" transform="translate(580.000000, 1460.000000)">
                    <g id="Group-19" transform="translate(328.000000, 320.000000)">
                        <path d="M2.00212228,7.71594576 L5.80741634,7.71594576 L5.80741634,21.0492791 L2.00212228,21.0492791 L2.00212228,7.71594576 Z M3.90476931,2.00166005 C3.39379158,1.97986208 2.89709145,2.17353265 2.53544775,2.53557833 C2.17380405,2.89762402 1.98034852,3.39487625 2.00212228,3.90642195 C1.97738027,4.41878883 2.16987941,4.91779784 2.53219788,5.28051905 C2.89451635,5.64324026 3.39297131,5.83595336 3.90476931,5.81118386 L3.90476931,5.81118386 C4.41574703,5.83298182 4.91244716,5.63931125 5.27409086,5.27726557 C5.63573456,4.91521988 5.8291901,4.41796765 5.80741634,3.90642195 C5.8291901,3.39487625 5.63573456,2.89762402 5.27409086,2.53557833 C4.91244716,2.17353265 4.41574703,1.97986208 3.90476931,2.00166005 L3.90476931,2.00166005 Z M16.3290544,7.71594576 C14.7344762,7.70759574 13.2588153,8.55904518 12.4666809,9.94451719 L12.4666809,7.71594576 L8.66138688,7.71594576 L8.66138688,21.0492791 L12.4666809,21.0492791 L12.4666809,13.6492791 C12.4509481,13.2981476 12.4960075,12.9469379 12.5998662,12.6111839 C12.9898084,11.6834071 13.8966281,11.0794391 14.9020691,11.0778505 C16.3766206,11.0778505 17.242325,12.2111839 17.242325,13.9349934 L17.242325,21.0492791 L21.047619,21.0492791 L21.047619,13.4873743 C21.0285926,9.54451719 19.0213,7.71594576 16.3290544,7.71594576 Z" id="Shape"></path>
                    </g>
                </g>
            </g>
        </g>
    </g>
</svg>