<?xml version="1.0" encoding="UTF-8"?>
<svg width="24px" height="24px" viewBox="0 0 24 24" version="1.1" xmlns="http://www.w3.org/2000/svg" xmlns:xlink="http://www.w3.org/1999/xlink">
    <!-- Generator: Sketch 49.1 (51147) - http://www.bohemiancoding.com/sketch -->
    <title>icons/general/24px/social/linkedin</title>
    <desc>Created with Sketch.</desc>
    <defs></defs>
    <g id="icons/general/24px/social/linkedin" stroke="none" stroke-width="1" fill="none" fill-rule="evenodd">
        <g fill="#FFFFFF" fill-rule="nonzero" id="Shape">
            <path d="M2.00222839,8.00174305 L5.99778715,8.00174305 L5.99778715,22.001743 L2.00222839,22.001743 L2.00222839,8.00174305 Z M4.00000777,2.00174305 C3.46348116,1.97885519 2.94194602,2.18220928 2.56222014,2.56235725 C2.18249425,2.94250522 1.97936594,3.46462006 2.00222839,4.00174305 C1.97624928,4.53972827 2.17837338,5.06368774 2.55880777,5.444545 C2.93924217,5.82540227 3.46261988,6.02775103 4.00000777,6.00174305 L4.00000777,6.00174305 C4.53653438,6.02463091 5.05806952,5.82127681 5.4377954,5.44112885 C5.81752129,5.06098088 6.0206496,4.53886603 5.99778715,4.00174305 C6.0206496,3.46462006 5.81752129,2.94250522 5.4377954,2.56235725 C5.05806952,2.18220928 4.53653438,1.97885519 4.00000777,2.00174305 L4.00000777,2.00174305 Z M17.0455071,8.00174305 C15.3712,7.99297553 13.821756,8.88699744 12.990015,10.341743 L12.990015,8.00174305 L8.99445623,8.00174305 L8.99445623,22.001743 L12.990015,22.001743 L12.990015,14.231743 C12.9734955,13.863055 13.0208079,13.4942848 13.1298595,13.141743 C13.5392988,12.1675775 14.4914595,11.533411 15.5471726,11.531743 C17.0954516,11.531743 18.0044412,12.721743 18.0044412,14.531743 L18.0044412,22.001743 L22,22.001743 L22,14.061743 C21.9800222,9.92174305 19.872365,8.00174305 17.0455071,8.00174305 Z"></path>
        </g>
    </g>
</svg>