<?xml version="1.0" encoding="UTF-8"?>
<svg width="112px" height="42px" viewBox="0 0 112 42" version="1.1" xmlns="http://www.w3.org/2000/svg" xmlns:xlink="http://www.w3.org/1999/xlink">
    <!-- Generator: Sketch 49.1 (51147) - http://www.bohemiancoding.com/sketch -->
    <title>icons/general/logotype</title>
    <desc>Created with Sketch.</desc>
    <defs></defs>
    <g id="icons/general/logotype" stroke="none" stroke-width="1" fill="none" fill-rule="evenodd">
        <g fill="#fff" id="LOGO">
            <path d="M13.3634249,18.2209384 L17.1308684,18.2209384 C17.6156173,18.2209384 18.0085839,17.8279718 18.0085839,17.343223 L18.0085839,17.245699 C18.0085839,16.7609502 17.6156173,16.3679836 17.1308684,16.3679836 L7.70867322,16.3679836 C7.22392437,16.3679836 6.83095779,16.7609502 6.83095779,17.245699 L6.83095779,17.343223 C6.83095779,17.8279718 7.22392437,18.2209384 7.70867322,18.2209384 L11.4760681,18.2209384 L12.0642834,17.0745805 C12.1069327,16.9811326 12.1940609,16.9220534 12.2893073,16.9220534 L12.55012,16.9220534 C12.6453664,16.9220534 12.7324946,16.9811326 12.7751439,17.0745805 L13.3634249,18.2209384 Z M11.886088,29.9695699 L1.78096135,24.1714945 C1.44767919,23.9802653 1.24214475,23.6253704 1.24214475,23.2411236 L1.24214475,11.65662 C1.24214475,11.2723754 1.44767686,10.9174822 1.78095602,10.7262522 L11.8859414,4.92818099 C12.2165492,4.73848375 12.6229924,4.73848375 12.9536003,4.92818099 L23.0585856,10.7262522 C23.3918648,10.9174822 23.5973969,11.2723754 23.5973969,11.65662 L23.5973969,23.2411319 C23.5973969,23.6253743 23.3918671,23.9802658 23.058591,24.1714966 L12.9537469,29.9695637 C12.6231402,30.1592629 12.2166969,30.1592652 11.886088,29.9695699 Z M10.1925901,10.8091192 C9.70784128,10.8091192 9.31487469,11.2020858 9.31487469,11.6868346 L9.31487469,11.7843586 C9.31487469,12.2691074 9.70784128,12.662074 10.1925901,12.662074 L14.6469515,12.662074 C15.1317004,12.662074 15.524667,12.2691074 15.524667,11.7843586 L15.524667,11.6868346 C15.524667,11.2020858 15.1317004,10.8091192 14.6469515,10.8091192 L10.1925901,10.8091192 Z M10.1925901,21.926848 C9.70784128,21.926848 9.31487469,22.3198146 9.31487469,22.8045634 L9.31487469,22.9020874 C9.31487469,23.3868362 9.70784128,23.7798028 10.1925901,23.7798028 L14.6469515,23.7798028 C15.1317004,23.7798028 15.524667,23.3868362 15.524667,22.9020874 L15.524667,22.8045634 C15.524667,22.3198146 15.1317004,21.926848 14.6469515,21.926848 L10.1925901,21.926848 Z M8.95063167,13.5885514 C8.46588283,13.5885514 8.07291624,13.981518 8.07291624,14.4662668 L8.07291624,14.5637908 C8.07291624,15.0485396 8.46588283,15.4415062 8.95063167,15.4415062 L15.88891,15.4415062 C16.3736588,15.4415062 16.7666254,15.0485396 16.7666254,14.5637908 L16.7666254,14.4662668 C16.7666254,13.981518 16.3736588,13.5885514 15.88891,13.5885514 L8.95063167,13.5885514 Z M8.95063167,19.1474158 C8.46588283,19.1474158 8.07291624,19.5403824 8.07291624,20.0251312 L8.07291624,20.1226552 C8.07291624,20.607404 8.46588283,21.0003706 8.95063167,21.0003706 L15.88891,21.0003706 C16.3736588,21.0003706 16.7666254,20.607404 16.7666254,20.1226552 L16.7666254,20.0251312 C16.7666254,19.5403824 16.3736588,19.1474158 15.88891,19.1474158 L8.95063167,19.1474158 Z M12.0555278,8.02968698 C11.570779,8.02968698 11.1778124,8.42265357 11.1778124,8.90740242 L11.1778124,9.00492635 C11.1778124,9.4896752 11.570779,9.88264178 12.0555278,9.88264178 L12.7840138,9.88264178 C13.2687627,9.88264178 13.6617293,9.4896752 13.6617293,9.00492635 L13.6617293,8.90740242 C13.6617293,8.42265357 13.2687627,8.02968698 12.7840138,8.02968698 L12.0555278,8.02968698 Z M12.0555278,24.7062802 C11.570779,24.7062802 11.1778124,25.0992468 11.1778124,25.5839956 L11.1778124,25.6815196 C11.1778124,26.1662684 11.570779,26.559235 12.0555278,26.559235 L12.7840138,26.559235 C13.2687627,26.559235 13.6617293,26.1662684 13.6617293,25.6815196 L13.6617293,25.5839956 C13.6617293,25.0992468 13.2687627,24.7062802 12.7840138,24.7062802 L12.0555278,24.7062802 Z M37.2587536,28.4118192 C37.2587536,30.3883043 38.1188098,32.0059339 39.4719236,33.1393246 C38.7844996,32.8780579 38.0387035,32.7353804 37.2587536,32.7353804 C36.2471784,32.7353804 35.3287502,32.8934992 34.4270883,33.4036794 L20.3792963,41.5307392 C19.2975504,42.1564203 17.9618241,42.1564203 16.8806993,41.5307392 L1.7306691,32.7674983 C0.659479939,32.1479937 -1.42108547e-14,31.0065736 -1.42108547e-14,29.773741 L-1.42108547e-14,27.5495776 L3.72587536,29.6897404 L3.72587536,29.6909757 L18.6293768,38.2559504 L33.5328782,29.6341517 L33.5328782,12.3658483 L27.6335756,8.9570291 L27.6335756,8.95517614 L14.9153,1.6063574 L16.8806993,0.469260803 C17.9618241,-0.156420268 19.2975504,-0.156420268 20.3786753,0.469260803 L35.5280845,9.23311936 C36.5998946,9.85262392 37.2587536,10.9928088 37.2587536,12.226259 L37.2587536,28.4013191 L37.2587536,28.4118192 Z M105.43794,32.6561677 C104.350569,32.7746696 103.29267,32.69207 102.26421,32.4083662 C101.235751,32.1246625 100.294876,31.6522508 99.4415572,30.9911172 C98.5882381,30.3299835 97.8941215,29.5169049 97.3591866,28.5518568 C96.8188484,27.5770609 96.4930919,26.5502397 96.3819073,25.4713626 C96.2707227,24.3924855 96.3673319,23.3418012 96.6717378,22.3192784 C96.9761436,21.2967556 97.4666964,20.3558348 98.1434108,19.496488 C98.8201252,18.6371411 99.6435937,17.9385697 100.613841,17.4007529 C101.574288,16.8683686 102.59058,16.5407726 103.662747,16.4179552 C104.734915,16.2951378 105.785213,16.3755798 106.813672,16.6592836 C107.826927,16.9386718 108.7651,17.4062096 109.62822,18.0619107 C110.491339,18.7176119 111.197455,19.517668 111.746587,20.4621031 C112.00595,20.9300052 112.064522,21.3881403 111.922305,21.8365221 C111.780089,22.284904 111.473774,22.6394695 111.003351,22.9002291 L101.815449,27.9931661 C102.465715,28.5884507 103.259137,28.9450819 104.195738,29.0630704 C105.107335,29.1821758 105.974741,29.0135664 106.797981,28.557237 C107.229202,28.3182073 107.566652,28.0833699 107.81034,27.8527179 C108.054029,27.6220659 108.264949,27.3554216 108.443108,27.0527769 C108.682454,26.6525 108.94423,26.3735946 109.228444,26.2160523 C109.669465,25.9715901 110.146236,25.9303128 110.65877,26.0922191 C110.882431,26.1721315 111.092646,26.2913514 111.289421,26.4498824 C111.486196,26.6084134 111.644018,26.7949036 111.762893,27.0093587 C111.941204,27.3310414 111.998201,27.6881062 111.933886,28.0805639 C111.86957,28.4730217 111.695439,28.875374 111.411487,29.2876329 C111.127536,29.6998918 110.73707,30.1106598 110.240079,30.5199493 C109.743087,30.9292387 109.171185,31.31315 108.524353,31.6716945 C107.554106,32.2095113 106.525312,32.5376658 105.43794,32.6561677 Z M107.738556,21.150541 C107.399412,20.8160646 107.01633,20.5409941 106.589298,20.3253214 C106.162267,20.1096487 105.711906,19.9674434 105.238201,19.8987012 C104.265789,19.7623338 103.314074,19.9521908 102.383029,20.4682776 C101.481385,20.968067 100.831249,21.6788734 100.432601,22.6007182 C100.24427,23.0236895 100.13086,23.4720265 100.092369,23.9457426 C100.053878,24.4194588 100.088797,24.8811479 100.197127,25.3308237 L107.738556,21.150541 Z M64.4836523,32.0497573 C64.1138736,31.7042508 63.928987,31.2751605 63.928987,30.7624735 L63.928987,24.3427729 C63.928987,23.7632137 63.8393451,23.2115262 63.6600584,22.6876938 C63.4807718,22.1638615 63.2230511,21.7124808 62.8868886,21.3335382 C62.5395207,20.9434503 62.1277279,20.6397435 61.6514977,20.4224088 C61.1752676,20.2050741 60.6514222,20.0964084 60.0799461,20.0964084 C59.486059,20.0964084 58.9061875,20.1995015 58.340314,20.4056909 C57.7744405,20.6118802 57.2618004,20.8988692 56.8023784,21.2666663 C56.3317509,21.6456089 55.9591765,22.0886307 55.6846438,22.595745 C55.4101111,23.1028593 55.2728468,23.6350427 55.2728468,24.1923112 L55.2728468,30.6956017 C55.2728468,31.219434 55.0935629,31.6596695 54.7349896,32.0163213 C54.3764163,32.3729731 53.9394116,32.5512964 53.4239625,32.5512964 C52.8861026,32.5512964 52.4378927,32.3729731 52.0793194,32.0163213 C51.7207461,31.6596695 51.5414621,31.219434 51.5414621,30.6956017 L51.5414621,12.3727061 C51.5414621,11.8488737 51.7263487,11.4030656 52.0961274,11.0352684 C52.4547007,10.6786166 52.897308,10.5002934 53.4239625,10.5002934 C53.9394116,10.5002934 54.3764163,10.6786166 54.7349896,11.0352684 C55.0935629,11.3919203 55.2728468,11.8377283 55.2728468,12.3727061 L55.2728468,18.5583551 C55.9339663,17.8784876 56.676314,17.3518768 57.499912,16.9785069 C58.3235101,16.6051371 59.1835128,16.4184549 60.0799461,16.4184549 C61.1444605,16.4184549 62.1445289,16.6190686 63.0801811,17.0203019 C64.0158333,17.4215351 64.8254124,17.9899405 65.5089427,18.7255348 C66.1924731,19.4499838 66.721921,20.2942329 67.0973024,21.2583074 C67.4726839,22.2223818 67.6603718,23.2449541 67.6603718,24.3260549 L67.6603718,30.7624735 C67.6603718,31.2751605 67.4754852,31.7042508 67.1057065,32.0497573 C66.9376252,32.2169378 66.7387321,32.3478939 66.5090211,32.4426296 C66.2793101,32.5373652 66.0411985,32.5847323 65.7946794,32.5847323 C65.2792303,32.5847323 64.8422256,32.4064091 64.4836523,32.0497573 Z M85.9199532,32.2754499 C85.6062016,32.0804059 85.3708914,31.8101348 85.2140155,31.4646283 L79.8690591,19.0431763 C79.7457995,18.764542 79.6841706,18.513775 79.6841706,18.2908676 C79.6841706,17.8004714 79.8634546,17.3658085 80.2220279,16.9868659 C80.603012,16.6079234 81.0512219,16.4184549 81.566671,16.4184549 C81.9252443,16.4184549 82.2586004,16.5187617 82.5667494,16.7193784 C82.8748983,16.919995 83.1074072,17.1874799 83.264283,17.521841 L86.9284356,26.3489294 L90.5757801,17.5385589 C90.7214505,17.2041979 90.951158,16.9339267 91.2649097,16.7277374 C91.5786613,16.521548 91.9204214,16.4184549 92.2902001,16.4184549 C92.8056492,16.4184549 93.2538591,16.6079234 93.6348432,16.9868659 C93.791719,17.1651918 93.9149768,17.3658055 94.0046201,17.5887128 C94.0942634,17.8116202 94.1390844,18.0400969 94.1390844,18.2741496 C94.1390844,18.5304931 94.0830582,18.7924054 93.971004,19.0598942 L88.6596636,31.4646283 C88.4579661,31.8547162 88.2198546,32.1361326 87.9453219,32.3088858 C87.6707892,32.481639 87.3486384,32.5680144 86.9788597,32.5680144 C86.5866701,32.5680144 86.2337048,32.4704938 85.9199532,32.2754499 Z M72.5834959,13.857795 C72.2170145,13.4917774 72.0337766,13.0545963 72.0337766,12.5462385 C72.0337766,12.3022268 72.082131,12.065844 72.1788414,11.837083 C72.2755518,11.608322 72.4104353,11.4075237 72.5834959,11.234682 C72.9397972,10.8788316 73.3775323,10.700909 73.8967143,10.700909 C74.1512152,10.700909 74.3904425,10.7466605 74.6144034,10.8381649 C74.8383642,10.9296693 75.036872,11.0618404 75.2099326,11.234682 C75.3829933,11.4075237 75.5178768,11.608322 75.6145871,11.837083 C75.7112975,12.065844 75.759652,12.3022268 75.759652,12.5462385 C75.759652,13.0545963 75.576414,13.4917774 75.2099326,13.857795 C75.036872,14.0306366 74.8358192,14.1653494 74.6067684,14.2619374 C74.3777175,14.3585254 74.1410352,14.4068186 73.8967143,14.4068186 C73.3877124,14.4068186 72.9499773,14.2238126 72.5834959,13.857795 Z M72.6052499,32.1667831 C72.2242658,31.8101312 72.0337766,31.3754684 72.0337766,30.8627814 L72.0337766,18.2741496 C72.0337766,18.0289515 72.0842002,17.792116 72.1850489,17.5636359 C72.2858977,17.3351558 72.4259633,17.1373285 72.6052499,16.9701479 C72.7733312,16.8029674 72.9750256,16.669225 73.2103393,16.5689167 C73.4456531,16.4686083 73.6921685,16.4184549 73.9498931,16.4184549 C74.4541368,16.4184549 74.8911414,16.6023508 75.2609201,16.9701479 C75.4177959,17.1373285 75.543855,17.3351558 75.639101,17.5636359 C75.734347,17.792116 75.7819693,18.0289515 75.7819693,18.2741496 L75.7819693,30.8627814 C75.7819693,31.3754684 75.6026854,31.8101312 75.2441121,32.1667831 C74.8855388,32.5234349 74.4485341,32.7017581 73.933085,32.7017581 C73.4064305,32.7017581 72.9638232,32.5234349 72.6052499,32.1667831 Z"></path>
        </g>
    </g>
</svg>