<?xml version="1.0" encoding="UTF-8"?>
<svg width="80px" height="80px" viewBox="0 0 80 80" version="1.1" xmlns="http://www.w3.org/2000/svg" xmlns:xlink="http://www.w3.org/1999/xlink">
    <!-- Generator: Sketch 49.1 (51147) - http://www.bohemiancoding.com/sketch -->
    <title>logo to diagram</title>
    <desc>Created with Sketch.</desc>
    <defs></defs>
    <g id="logo-to-diagram" stroke="none" stroke-width="1" fill="none" fill-rule="evenodd">
        <rect id="Rectangle-29" x="0" y="0" width="80" height="80"></rect>
        <path d="M28.3916399,34.7065493 L35.5604322,34.7065493 C36.4757908,34.7065493 37.2178356,33.9645045 37.2178356,33.0491459 L37.2178356,32.834515 C37.2178356,31.9191564 36.4757908,31.1771116 35.5604322,31.1771116 L17.6368021,31.1771116 C16.7214435,31.1771116 15.9793987,31.9191564 15.9793987,32.834515 L15.9793987,33.0491459 C15.9793987,33.9645045 16.7214435,34.7065493 17.6368021,34.7065493 L24.805502,34.7065493 L25.9231609,32.5230104 C26.0041983,32.3450144 26.1697491,32.2324827 26.3507254,32.2324827 L26.8462917,32.2324827 C27.0272679,32.2324827 27.1928188,32.3450144 27.2738561,32.5230104 L28.3916399,34.7065493 Z M25.5889924,57.0874361 L6.37577085,46.0362215 C5.74747918,45.6748357 5.36018029,45.0052699 5.36018029,44.2804595 L5.36018029,22.1914333 C5.36018029,21.466627 5.74747478,20.7970644 6.37576078,20.435677 L25.5887138,9.38447026 C26.2139563,9.02483349 26.9832779,9.02483349 27.6085205,9.38447026 L46.8214735,20.435677 C47.4497595,20.7970644 47.837054,21.466627 47.837054,22.1914333 L47.837054,44.280475 C47.837054,45.0052771 47.4497639,45.6748366 46.8214836,46.0362255 L27.6087991,57.0874245 C26.9835586,57.4470648 26.214237,57.4470692 25.5889924,57.0874361 Z M22.3564548,20.5887984 C21.4410961,20.5887984 20.6990513,21.3308432 20.6990513,22.2462019 L20.6990513,22.4608327 C20.6990513,23.3761914 21.4410961,24.1182362 22.3564548,24.1182362 L30.8407795,24.1182362 C31.7561381,24.1182362 32.4981829,23.3761914 32.4981829,22.4608327 L32.4981829,22.2462019 C32.4981829,21.3308432 31.7561381,20.5887984 30.8407795,20.5887984 L22.3564548,20.5887984 Z M22.3564548,41.7654247 C21.4410961,41.7654247 20.6990513,42.5074695 20.6990513,43.4228282 L20.6990513,43.637459 C20.6990513,44.5528177 21.4410961,45.2948625 22.3564548,45.2948625 L30.8407795,45.2948625 C31.7561381,45.2948625 32.4981829,44.5528177 32.4981829,43.637459 L32.4981829,43.4228282 C32.4981829,42.5074695 31.7561381,41.7654247 30.8407795,41.7654247 L22.3564548,41.7654247 Z M19.9966284,25.882955 C19.0812698,25.882955 18.339225,26.6249998 18.339225,27.5403584 L18.339225,27.7549893 C18.339225,28.670348 19.0812698,29.4123927 19.9966284,29.4123927 L33.2006058,29.4123927 C34.1159645,29.4123927 34.8580093,28.670348 34.8580093,27.7549893 L34.8580093,27.5403584 C34.8580093,26.6249998 34.1159645,25.882955 33.2006058,25.882955 L19.9966284,25.882955 Z M19.9966284,36.4712682 C19.0812698,36.4712682 18.339225,37.213313 18.339225,38.1286716 L18.339225,38.3433025 C18.339225,39.2586611 19.0812698,40.0007059 19.9966284,40.0007059 L33.2006058,40.0007059 C34.1159645,40.0007059 34.8580093,39.2586611 34.8580093,38.3433025 L34.8580093,38.1286716 C34.8580093,37.213313 34.1159645,36.4712682 33.2006058,36.4712682 L19.9966284,36.4712682 Z M25.8961942,15.2946419 C24.9808356,15.2946419 24.2387908,16.0366867 24.2387908,16.9520453 L24.2387908,17.1666762 C24.2387908,18.0820348 24.9808356,18.8240796 25.8961942,18.8240796 L27.30104,18.8240796 C28.2163987,18.8240796 28.9584435,18.0820348 28.9584435,17.1666762 L28.9584435,16.9520453 C28.9584435,16.0366867 28.2163987,15.2946419 27.30104,15.2946419 L25.8961942,15.2946419 Z M25.8961942,47.0595813 C24.9808356,47.0595813 24.2387908,47.8016261 24.2387908,48.7169847 L24.2387908,48.9316156 C24.2387908,49.8469743 24.9808356,50.589019 25.8961942,50.589019 L27.30104,50.589019 C28.2163987,50.589019 28.9584435,49.8469743 28.9584435,48.9316156 L28.9584435,48.7169847 C28.9584435,47.8016261 28.2163987,47.0595813 27.30104,47.0595813 L25.8961942,47.0595813 Z M73.7947895,54.1177509 C73.7947895,57.8824844 75.4289692,60.9636836 78,63.122523 C76.6938361,62.6248722 75.2767604,62.3531055 73.7947895,62.3531055 C71.872711,62.3531055 70.1276194,62.6542842 68.4143855,63.6260561 L41.72239,79.1061699 C39.6669813,80.2979434 37.1289881,80.2979434 35.0747593,79.1061699 L6.28841797,62.4142825 C4.25306777,61.2342738 3,59.0601401 3,56.7118876 L3,52.4753858 L10.079479,56.5518864 L10.079479,56.5542394 L38.3973948,72.868477 L66.7153106,56.4460033 L66.7153106,23.5539967 L55.5061355,17.0610078 L55.5061355,17.0574784 L31.3403342,3.05972838 L35.0747593,0.893830102 C37.1289881,-0.297943367 39.6669813,-0.297943367 41.7212101,0.893830102 L70.5063715,17.586894 C72.5429016,18.7669027 73.7947895,20.9386834 73.7947895,23.2881124 L73.7947895,54.0977507 L73.7947895,54.1177509 Z" id="LOGO" fill="#EBF5FF"></path>
    </g>
</svg>