<svg width="144px" height="131px" viewBox="0 0 144 131" version="1.1" xmlns="http://www.w3.org/2000/svg">
    <defs>
        <linearGradient x1="50%" y1="91.145632%" x2="50%" y2="3.061617e-15%" id="linearGradient-1">
            <stop stop-color="#EBE6FB" stop-opacity="0" offset="0%"></stop>
            <stop stop-color="#E5DFF9" stop-opacity="0.22" offset="27.1494569%"></stop>
            <stop stop-color="#FFFFFF" offset="100%"></stop>
        </linearGradient>
    </defs>
    <g id="Page-1" stroke="none" stroke-width="1" fill="none" fill-rule="evenodd">
        <g id="Splashscreen-Copy-6" transform="translate(-116.000000, -264.000000)" fill="url(#linearGradient-1)" fill-rule="nonzero">
            <g id="icons8-error" transform="translate(116.000000, 264.000000)">
                <path d="M0,71.739759 C0,32.1253012 32.1253012,0 71.739759,0 C111.354217,0 143.479518,32.1253012 143.479518,71.739759 C143.479518,111.354217 111.354217,143.479518 71.739759,143.479518 C32.1253012,143.479518 0,111.354217 0,71.739759 Z M64.8378003,78.0218104 C65.2150458,81.6886768 65.8078602,84.4388266 66.6162434,86.2722597 C67.4785189,88.0517684 68.9336087,88.968485 71.0892973,88.968485 C73.1910937,88.968485 74.7000758,88.0517684 75.6162434,86.1644107 C76.5324111,84.277053 77.1252255,81.6347523 77.3946865,78.1296594 L79.9276207,48.8486528 C80.1970817,46.1524275 80.3587584,43.5101267 80.3587584,40.867826 C80.3587584,36.4460165 79.765944,33.0487726 78.6342075,30.6760944 C77.502471,28.3034161 75.1851057,27.117077 71.7898961,27.117077 C68.9875009,27.117077 66.7240278,28.0337936 64.9994769,29.8672268 C63.2749261,31.70066 62.4126506,34.2890363 62.4126506,37.5784311 C62.4126506,40.0050339 62.5743272,43.9954473 62.9515728,49.5496714 L64.8378003,78.0218104 Z M71.4665428,117.117077 C73.8378003,117.117077 75.8857045,116.362134 77.7180398,114.744399 C79.4964829,113.180588 80.4126506,110.969683 80.4126506,108.219534 C80.4126506,105.792931 79.5503752,103.689875 77.771932,101.964291 C75.9934889,100.238707 73.8378003,99.3759146 71.3587584,99.3759146 C68.8797165,99.3759146 66.7779201,100.238707 65.0533692,101.964291 C63.3288183,103.689875 62.4665428,105.739006 62.4665428,108.219534 C62.4665428,111.023608 63.3827105,113.234513 65.1611536,114.798323 C66.9395967,116.362134 69.0413931,117.117077 71.4665428,117.117077 Z" id="Combined-Shape"></path>
            </g>
        </g>
    </g>
</svg>