<?xml version="1.0" encoding="UTF-8"?>
<svg width="226px" height="48px" viewBox="0 0 226 48" version="1.1" xmlns="http://www.w3.org/2000/svg" xmlns:xlink="http://www.w3.org/1999/xlink">
    <!-- Generator: Sketch 49.1 (51147) - http://www.bohemiancoding.com/sketch -->
    <title>icons/general/microsoft</title>
    <desc>Created with Sketch.</desc>
    <defs></defs>
    <g id="icons/general/microsoft" stroke="none" stroke-width="1" fill="none" fill-rule="evenodd">
        <g id="microsoft">
            <g>
                <path d="M225.944484,21.6842715 L225.944484,17.7356742 L221.010077,17.7356742 L221.010077,11.5971041 L220.843965,11.6479276 L216.209217,13.057086 L216.117855,13.0846697 L216.117855,17.7358914 L208.80258,17.7358914 L208.80258,15.1447602 C208.80258,13.9382443 209.074043,13.0149502 209.609099,12.3992036 C210.140439,11.7908416 210.900402,11.4815566 211.869754,11.4815566 C212.566551,11.4815566 213.288046,11.6446697 214.014132,11.9663348 L214.196199,12.0471312 L214.196199,7.88872398 L214.11052,7.85744796 C213.433176,7.61549321 212.511909,7.49364706 211.369888,7.49364706 C209.930613,7.49364706 208.622917,7.80488688 207.482426,8.42171946 C206.341279,9.03942081 205.443617,9.92123077 204.814795,11.0423891 C204.188159,12.1622443 203.870141,13.455638 203.870141,14.8869502 L203.870141,17.7356742 L200.434242,17.7356742 L200.434242,21.6842715 L203.870141,21.6842715 L203.870141,38.3189864 L208.80258,38.3189864 L208.80258,21.6842715 L216.117855,21.6842715 L216.117855,32.2553484 C216.117855,36.6090136 218.184422,38.815276 222.260072,38.815276 C222.929766,38.815276 223.63465,38.7373032 224.354397,38.5846154 C225.087039,38.4278009 225.586031,38.2712036 225.879787,38.1039638 L225.944702,38.0657376 L225.944702,34.0806516 L225.744056,34.2124887 C225.476309,34.3897195 225.142992,34.5345882 224.752191,34.6423167 C224.359642,34.752 224.031789,34.8069502 223.777812,34.8069502 C222.823104,34.8069502 222.116691,34.5513122 221.67846,34.0467692 C221.235203,33.5376652 221.010296,32.6473846 221.010296,31.401991 L221.010296,21.6842715 L225.944484,21.6842715 Z M189.419255,34.8076018 C187.628959,34.8076018 186.217443,34.2177014 185.222737,33.0557104 C184.221911,31.8878552 183.714832,30.2228416 183.714832,28.1073665 C183.714832,25.9247783 184.221911,24.216543 185.223174,23.0280543 C186.218536,21.8473846 187.616501,21.2481448 189.379039,21.2481448 C191.089338,21.2481448 192.450803,21.8204525 193.426056,22.9500814 C194.406118,24.0855747 194.90358,25.7801267 194.90358,27.9881267 C194.90358,30.223276 194.435843,31.9401991 193.513484,33.088724 C192.597462,34.2285611 191.220043,34.8076018 189.419255,34.8076018 Z M189.63848,17.239819 C186.222907,17.239819 183.510033,18.2343529 181.5757,20.1958371 C179.642679,22.1575385 178.662617,24.8722534 178.662617,28.265267 C178.662617,31.488 179.619292,34.0802172 181.506414,35.968724 C183.393536,37.8578824 185.961718,38.8148416 189.13905,38.8148416 C192.449928,38.8148416 195.108816,37.8064072 197.042275,35.8177738 C198.975515,33.8313122 199.954921,31.1422262 199.954921,27.8284887 C199.954921,24.5553665 199.035839,21.943819 197.222375,20.0679095 C195.408037,18.1911312 192.856029,17.239819 189.63848,17.239819 Z M170.709996,17.239819 C168.386611,17.239819 166.464737,17.830371 164.996611,18.9947511 C163.519524,20.1660814 162.770271,21.7022986 162.770271,23.561267 C162.770271,24.5275656 162.932012,25.3859186 163.250248,26.1139548 C163.570451,26.8443801 164.065946,27.4874932 164.724275,28.0272217 C165.377576,28.5626063 166.386052,29.1234027 167.722381,29.6939729 C168.845824,30.1533394 169.683598,30.5419005 170.215812,30.8481448 C170.736006,31.1483077 171.105168,31.449991 171.313683,31.7438552 C171.516296,32.0314208 171.619023,32.4249774 171.619023,32.9106244 C171.619023,34.2935023 170.576888,34.966371 168.432511,34.966371 C167.637139,34.966371 166.729861,34.8013032 165.736029,34.4759457 C164.749257,34.1555074 163.817917,33.686245 162.974632,33.0845973 L162.769834,32.9386425 L162.769834,37.657629 L162.845021,37.6923801 C163.542911,38.0125249 164.422868,38.2824977 165.459977,38.494914 C166.495118,38.7075475 167.435619,38.8157104 168.252629,38.8157104 C170.773818,38.8157104 172.804103,38.2223348 174.285561,37.0510045 C175.776418,35.871638 176.53201,34.2991493 176.53201,32.3758914 C176.53201,30.9884525 176.125253,29.7986606 175.323544,28.839095 C174.527298,27.8873484 173.145288,27.0135747 171.217731,26.2412308 C169.682068,25.6287421 168.69829,25.1202896 168.292408,24.729991 C167.90117,24.3529412 167.702491,23.8197285 167.702491,23.1444706 C167.702491,22.5458824 167.947725,22.0663167 168.451089,21.6779729 C168.958387,21.2876742 169.664582,21.0891584 170.550222,21.0891584 C171.372041,21.0891584 172.212874,21.2181719 173.049118,21.4709864 C173.884706,21.7238009 174.61866,22.0624072 175.231308,22.4765973 L175.432828,22.6134299 L175.432828,18.1370498 L175.355455,18.1040362 C174.790236,17.8631674 174.044917,17.6570498 173.139605,17.48981 C172.238447,17.3236561 171.421,17.239819 170.709996,17.239819 Z M149.911658,34.8076018 C148.121799,34.8076018 146.709845,34.2177014 145.715358,33.0557104 C144.714313,31.8878552 144.208108,30.223276 144.208108,28.1073665 C144.208108,25.9247783 144.714969,24.216543 145.716451,23.0280543 C146.710938,21.8473846 148.108685,21.2481448 149.872097,21.2481448 C151.581741,21.2481448 152.943205,21.8204525 153.918677,22.9500814 C154.898957,24.0855747 155.396201,25.7801267 155.396201,27.9881267 C155.396201,30.223276 154.928246,31.9401991 154.005886,33.088724 C153.089865,34.2285611 151.713101,34.8076018 149.911658,34.8076018 Z M150.131538,17.239819 C146.715091,17.239819 144.001998,18.2343529 142.068758,20.1958371 C140.135737,22.1575385 139.155019,24.8722534 139.155019,28.265267 C139.155019,31.4893032 140.11235,34.0802172 141.999472,35.968724 C143.886594,37.8578824 146.454557,38.8148416 149.63189,38.8148416 C152.942331,38.8148416 155.601874,37.8064072 157.535333,35.8177738 C159.468135,33.8313122 160.447979,31.1422262 160.447979,27.8284887 C160.447979,24.5553665 159.528679,21.943819 157.714778,20.0679095 C155.900002,18.1911312 153.348431,17.239819 150.131538,17.239819 Z M131.667731,21.3002715 L131.667731,17.7356742 L126.795398,17.7356742 L126.795398,38.318552 L131.667731,38.318552 L131.667731,27.7896109 C131.667731,25.999276 132.076236,24.5284344 132.882317,23.4174842 C133.678126,22.3197828 134.738621,21.7635475 136.033422,21.7635475 C136.472308,21.7635475 136.964961,21.8354389 137.498487,21.9777014 C138.026549,22.119095 138.409044,22.2726516 138.634607,22.4342443 L138.839406,22.5817195 L138.839406,17.7004887 L138.760503,17.6668235 C138.306754,17.4752579 137.664818,17.3786063 136.852617,17.3786063 C135.628195,17.3786063 134.532511,17.7695566 133.593977,18.5392941 C132.770191,19.2158552 132.17481,20.1434932 131.719532,21.3002715 L131.667731,21.3002715 Z M118.069919,17.239819 C115.834617,17.239819 113.840834,17.7161267 112.144959,18.6550588 C110.445588,19.5961629 109.131335,20.9397285 108.23717,22.648181 C107.34694,24.3525068 106.89494,26.3433122 106.89494,28.5634751 C106.89494,30.5082353 107.33317,32.2929231 108.199358,33.8658462 C109.065983,35.4413756 110.29259,36.6739548 111.845302,37.5288326 C113.395828,38.3826244 115.187872,38.8154932 117.172039,38.8154932 C119.487555,38.8154932 121.464509,38.3554751 123.049569,37.4482534 L123.113609,37.4117647 L123.113609,32.976 L122.90881,33.1245611 C122.190812,33.6443077 121.388447,34.0591493 120.525101,34.358009 C119.66394,34.6566516 118.878841,34.8076018 118.19035,34.8076018 C116.27853,34.8076018 114.743741,34.2131403 113.629696,33.0411584 C112.513248,31.8676561 111.947155,30.2198009 111.947155,28.1462443 C111.947155,26.0596561 112.537509,24.369448 113.70095,23.1223167 C114.860894,21.8788778 116.398524,21.2481448 118.270783,21.2481448 C119.872236,21.2481448 121.432816,21.7870045 122.909248,22.8512579 L123.113609,22.998733 L123.113609,18.3249231 L123.047602,18.288 C122.492,17.9789321 121.734222,17.7237285 120.793503,17.5302081 C119.856718,17.3371222 118.940478,17.239819 118.069919,17.239819 Z M103.539255,17.7358914 L98.6669226,17.7358914 L98.6669226,38.318552 L103.539255,38.318552 L103.539255,17.7358914 Z M101.152923,8.96752941 C100.350994,8.96752941 99.6515745,9.23880543 99.0769574,9.77636199 C98.4999362,10.3154389 98.2072727,10.9941719 98.2072727,11.7951855 C98.2072727,12.5836018 98.4964391,13.2499548 99.0679961,13.7746968 C99.6358375,14.2979186 100.337443,14.5631131 101.153141,14.5631131 C101.968621,14.5631131 102.672849,14.2979186 103.247466,13.7755656 C103.825799,13.2499548 104.119118,12.583819 104.119118,11.7951855 C104.119118,11.02219 103.833667,10.3504072 103.27129,9.79808145 C102.70935,9.24684163 101.996379,8.96752941 101.152923,8.96752941 Z M88.9961335,16.217267 L88.9961335,38.318552 L93.9685706,38.318552 L93.9685706,9.59761086 L87.086499,9.59761086 L78.3389439,30.9306787 L69.8499555,9.59761086 L62.6876789,9.59761086 L62.6876789,38.318552 L67.3604584,38.3183348 L67.3604584,16.215095 L67.5208878,16.215095 L76.4850445,38.318552 L80.0114313,38.318552 L88.8357041,16.217267 L88.9961335,16.217267 Z" id="Shape" fill="#706D6E" fill-rule="nonzero"></path>
                <polygon id="Shape" fill="#F1511B" fill-rule="nonzero" points="22.9208588 22.7767602 0 22.7767602 0 0 22.9208588 0"></polygon>
                <polygon id="Shape" fill="#80CC28" fill-rule="nonzero" points="48.2280503 22.7767602 25.3076286 22.7767602 25.3076286 0 48.2280503 0"></polygon>
                <polygon id="Shape" fill="#00ADEF" fill-rule="nonzero" points="22.9202031 47.9337557 0 47.9337557 0 25.1572127 22.9202031 25.1572127"></polygon>
                <polygon id="Shape" fill="#FBBC09" fill-rule="nonzero" points="48.2280503 47.9337557 25.3076286 47.9337557 25.3076286 25.1572127 48.2280503 25.1572127"></polygon>
            </g>
        </g>
    </g>
</svg>