<?xml version="1.0" encoding="UTF-8"?>
<svg width="24px" height="24px" viewBox="0 0 24 24" version="1.1" xmlns="http://www.w3.org/2000/svg" xmlns:xlink="http://www.w3.org/1999/xlink">
    <!-- Generator: Sketch 51.1 (57501) - http://www.bohemiancoding.com/sketch -->
    <title>icons/general/24px/mistake</title>
    <desc>Created with Sketch.</desc>
    <defs></defs>
    <g id="icons/general/24px/mistake" stroke="none" stroke-width="1" fill="none" fill-rule="evenodd">
        <g fill="#F37067" id="Combined-Shape">
            <path d="M12,24 C5.372583,24 0,18.627417 0,12 C0,5.372583 5.372583,0 12,0 C18.627417,0 24,5.372583 24,12 C24,18.627417 18.627417,24 12,24 Z M10.6053925,6.76929373 L11.1832469,13.6330908 C11.2169617,14.0371451 11.526054,14.3701633 11.9288783,14.4067151 C12.3800829,14.4476498 12.7778061,14.1012348 12.8171799,13.6330908 L13.3950343,6.76929373 C13.4012512,6.68907827 13.4020482,6.59918734 13.3950343,6.51649099 C13.327764,5.71714808 12.6487652,5.12586918 11.8784256,5.1955822 C11.108086,5.26546062 10.5381223,5.97011621 10.6053925,6.76929373 Z M12.0000002,18.8106701 C12.662742,18.8106701 13.2000003,18.2734117 13.2000003,17.61067 C13.2000003,16.9479283 12.662742,16.41067 12.0000002,16.41067 C11.3372585,16.41067 10.8000002,16.9479283 10.8000002,17.61067 C10.8000002,18.2734117 11.3372585,18.8106701 12.0000002,18.8106701 Z"></path>
        </g>
    </g>
</svg>