
<svg width="174px" height="74px" viewBox="0 0 174 74" version="1.1" xmlns="http://www.w3.org/2000/svg" xmlns:xlink="http://www.w3.org/1999/xlink">
    <!-- Generator: Sketch 49.1 (51147) - http://www.bohemiancoding.com/sketch -->
    <desc>Created with Sketch.</desc>
    <defs>
        <linearGradient x1="148.920222%" y1="-4.69824449%" x2="34.8324179%" y2="58.3882638%" id="linearGradient-1">
            <stop stop-color="#8D54A2" offset="50%"></stop>
            <stop stop-color="#68CEF2" offset="100%"></stop>
        </linearGradient>
    </defs>
    <g id="Page-1" stroke="none" stroke-width="1" fill="none" fill-rule="evenodd">
        <g id="landing" transform="translate(-739.000000, -15748.000000)">
            <g id="tge-partners" transform="translate(273.000000, 15579.000000)">
                <g id="Group-17" transform="translate(0.000000, 159.000000)">
                    <g id="Group-25">
                        <g id="mt_logo" transform="translate(466.755484, 9.894737)">
                            <g id="Group" transform="translate(48.103625, 6.746411)" fill="#000000" fill-rule="nonzero">
                                <path d="M25.9248473,24.6513876 L25.9248473,14.4035885 C25.9248473,11.1143381 23.7030611,8.79507177 20.4402824,8.79507177 C17.1767521,8.79507177 14.9203915,11.2185327 14.9203915,14.5077831 L14.9203915,24.6521372 L13.2194774,24.6521372 L13.2194774,14.5077831 C13.2194774,11.2192823 10.9631167,8.83030303 7.70033806,8.83030303 C4.43755939,8.83030303 2.21577322,11.2192823 2.21577322,14.5077831 L2.21577322,24.6521372 L0.514859109,24.6521372 L0.514859109,7.54848485 L2.11204978,7.54848485 L2.14662426,10.3872249 C3.3266663,8.13767145 5.51387799,7.20216906 7.73566416,7.20216906 C10.3392729,7.20216906 13.0811795,8.37904306 14.0883491,11.4254226 C15.1300932,8.62116427 17.8028509,7.20216906 20.4410341,7.20216906 C24.6410818,7.20216906 27.626513,10.1443541 27.626513,14.4028389 L27.626513,24.650638 L25.9248473,24.650638 L25.9248473,24.6513876 Z" id="Shape"></path>
                                <path d="M31.6161074,16.1344179 C31.6161074,10.699059 35.5042332,7.23665072 40.3296281,7.23665072 C45.1550229,7.23665072 49.0431487,10.699059 49.0431487,16.1344179 C49.0431487,21.5697767 45.1550229,24.8935088 40.3296281,24.8935088 C35.5042332,24.8935088 31.6161074,21.5697767 31.6161074,16.1344179 Z M47.3768091,16.1344179 C47.3768091,11.7027751 44.2177539,8.82955343 40.3296281,8.82955343 C36.4415023,8.82955343 33.2831986,11.7027751 33.2831986,16.1344179 C33.2831986,20.5660606 36.4422539,23.2316427 40.3296281,23.2316427 C44.2170022,23.2316427 47.3768091,20.5660606 47.3768091,16.1344179 Z" id="Shape"></path>
                                <path d="M69.4187919,0.416778309 L69.4187919,24.6513876 L67.7524523,24.6513876 L67.7524523,20.8778947 C66.3288856,23.4745136 63.5170785,24.9279904 60.6007962,24.9279904 C55.8107274,24.9279904 52.0270767,21.7774163 52.0270767,16.0999362 C52.0270767,10.4569378 55.8453019,7.27188198 60.6361223,7.27188198 C63.586979,7.27188198 66.3634601,8.5184689 67.7524523,11.287496 L67.7524523,0.416778309 L69.4187919,0.416778309 Z M53.6934163,16.0999362 C53.6934163,20.8434131 56.8517199,23.266874 60.7052713,23.266874 C64.731695,23.266874 67.7171262,20.3239394 67.7171262,16.0662041 C67.7171262,11.8084689 64.662546,8.89926635 60.7052713,8.89926635 C56.8517199,8.89926635 53.6934163,11.2882456 53.6934163,16.0999362 Z" id="Shape"></path>
                                <path d="M73.7210599,16.0999362 C73.7210599,10.9764115 77.6091857,7.27188198 82.4338289,7.27188198 C87.2592238,7.27188198 91.5637466,10.214067 90.9045766,16.8960128 L75.4573001,16.8960128 C75.8037965,20.9116268 78.8937028,23.2316427 82.4338289,23.2316427 C84.6901896,23.2316427 87.3291244,22.3313716 88.6136415,20.6350239 L89.828258,21.6042584 C88.1619184,23.7855981 85.1764871,24.8935088 82.4338289,24.8935088 C77.6091857,24.8935088 73.7210599,21.5352951 73.7210599,16.0999362 Z M89.3772865,15.4080542 C89.342712,11.184051 86.5662309,8.83030303 82.4345805,8.83030303 C78.8944544,8.83030303 75.8398742,11.2192823 75.4580517,15.4080542 L89.3772865,15.4080542 Z" id="Shape"></path>
                                <path d="M96.9085103,7.54848485 L96.9784108,10.5948644 C98.0547294,8.27559809 100.483962,7.37532695 102.671174,7.37532695 C103.955691,7.3408453 105.205634,7.68716108 106.351101,8.37979266 L105.587456,9.76430622 C104.684762,9.21035088 103.677592,8.96748006 102.671174,8.96748006 C99.4775445,9.00196172 97.0129853,11.5640989 97.0129853,14.6801914 L97.0129853,24.6513876 L95.3120712,24.6513876 L95.3120712,7.54848485 L96.9085103,7.54848485 Z" id="Shape"></path>
                                <path d="M110.584972,7.54848485 L110.584972,10.5948644 C111.904064,8.24036683 114.299474,7.27113238 116.694884,7.23665072 C121.277506,7.23665072 124.43581,10.0409091 124.43581,14.7836364 L124.43581,24.650638 L122.734895,24.650638 L122.734895,14.8196172 C122.734895,10.9419298 120.339485,8.86478469 116.624983,8.89926635 C113.084106,8.93374801 110.619547,11.6000797 110.619547,15.1307018 L110.619547,24.6513876 L108.918632,24.6513876 L108.918632,7.54848485 L110.584972,7.54848485 Z" id="Shape"></path>
                            </g>
                            <g id="Group" transform="translate(25.555051, 48.724083)" fill="#000000" fill-rule="nonzero">
                                <path d="M5.50110047,2.32676236 L5.50110047,7.48551834 L11.3329134,7.48551834 L11.3329134,8.90526316 L5.50110047,8.90526316 L5.50110047,19.3254705 C5.50110047,21.6447368 5.98664643,23.2728708 8.6601557,23.2728708 C9.49370133,23.2728708 10.4302188,22.9955183 11.2983389,22.5802392 L11.8883599,23.9655024 C10.8120413,24.4842265 9.73647431,24.8305423 8.6601557,24.8305423 C5.01480289,24.8305423 3.83551246,22.6844338 3.83551246,19.3254705 L3.83551246,8.90451356 L0.190159642,8.90451356 L0.190159642,7.48476874 L3.83551246,7.48476874 L3.83551246,2.49917065 L5.50110047,2.32676236 Z" id="Shape"></path>
                                <path d="M14.4566425,16.0714514 C14.4566425,10.6353429 18.3447683,7.17368421 23.1701632,7.17368421 C27.995558,7.17368421 31.8829322,10.6353429 31.8829322,16.0714514 C31.8829322,21.5068102 27.995558,24.8305423 23.1701632,24.8305423 C18.3447683,24.8305423 14.4566425,21.5068102 14.4566425,16.0714514 Z M30.2165926,16.0714514 C30.2165926,11.6398086 27.0575373,8.76583732 23.1701632,8.76583732 C19.2820374,8.76583732 16.1229821,11.6398086 16.1229821,16.0714514 C16.1229821,20.5023445 19.2820374,23.1686762 23.1701632,23.1686762 C27.0575373,23.1686762 30.2165926,20.5023445 30.2165926,16.0714514 Z" id="Shape"></path>
                                <polygon id="Shape" points="37.4712205 0.353062201 37.4712205 14.9627911 45.559394 7.48476874 47.8157547 7.48476874 47.8157547 7.55373206 39.1368085 15.5519777 48.8221727 24.4842265 48.8221727 24.5869219 46.6695355 24.5869219 37.4712205 16.209378 37.4712205 24.5869219 35.8048809 24.5869219 35.8048809 0.353062201"></polygon>
                                <path d="M50.0360376,16.0362201 C50.0360376,10.9126954 53.9241634,7.20891547 58.7488066,7.20891547 C63.5742015,7.20891547 67.8779727,10.1511005 67.2195543,16.8330463 L51.7722778,16.8330463 C52.1187742,20.8486603 55.2086805,23.1686762 58.7495583,23.1686762 C61.0059189,23.1686762 63.6448537,22.2684051 64.9286192,20.5720574 L66.1439873,21.5412919 C64.4776477,23.7226316 61.4922165,24.8305423 58.7495583,24.8305423 C53.9241634,24.8305423 50.0360376,21.4715789 50.0360376,16.0362201 Z M65.6922642,15.3435885 C65.6576898,11.1195853 62.880457,8.76583732 58.7495583,8.76583732 C55.2086805,8.76583732 52.1541003,11.1555662 51.7722778,15.3435885 L65.6922642,15.3435885 Z" id="Shape"></path>
                                <path d="M73.2933886,7.48551834 L73.2933886,10.5311483 C74.6124802,8.17665072 77.0071387,7.20816587 79.4025489,7.17368421 C83.9851708,7.17368421 87.144226,9.97794258 87.144226,14.7206699 L87.144226,24.5869219 L85.4425603,24.5869219 L85.4425603,14.7551515 C85.4425603,10.8774641 83.0471501,8.80106858 79.3334,8.83555024 C75.7925222,8.8700319 73.3279631,11.5363636 73.3279631,15.0669856 L73.3279631,24.5869219 L71.6262973,24.5869219 L71.6262973,7.48551834 L73.2933886,7.48551834 Z" id="Shape"></path>
                            </g>
                            <path d="M23.1100336,9.51244019 C22.5733776,7.70515152 22.7597791,5.97507177 23.667735,4.31995215 C24.5756909,2.66633174 25.9391281,1.57266348 27.7580464,1.04044657 C29.566442,0.511977671 31.3004274,0.700877193 32.9592508,1.60714514 C34.6188259,2.51266348 35.7124317,3.86794258 36.2415716,5.67148325 C36.7759728,7.48551834 36.588068,9.21859649 35.6793605,10.8737161 C34.7714045,12.5288357 33.408719,13.6180064 31.5928072,14.1427273 C30.8126265,14.3825997 30.0339491,14.4028389 29.2672976,14.6299681 C28.0083355,14.9935247 26.9665914,15.6299362 26.1428168,16.5392026 C25.6956035,17.0331898 25.3949558,17.5938915 25.0469561,18.1605901 L13.0172918,40.0999203 C12.8977844,40.3105582 12.7835383,40.5976555 12.6978537,40.8232855 C12.1860011,42.1845614 12.1469169,43.599059 12.5790979,45.0675279 C12.7978191,45.8328708 13.1999353,46.5022648 13.4284275,47.2811005 C13.9650836,49.0883892 13.778682,50.8192185 12.8699745,52.4735885 C11.9620186,54.1287081 10.5985815,55.2208772 8.77966315,55.7530941 C6.97201912,56.2808134 5.23728215,56.0926635 3.57845871,55.1863955 C1.91963528,54.2808772 0.825277813,52.9255981 0.29613794,51.1213078 C-0.237511647,49.3080223 -0.0496068631,47.573445 0.858349055,45.9198246 C1.76630497,44.2647049 3.12899047,43.1755343 4.94415069,42.651563 C5.72733783,42.410941 6.48346668,42.399697 7.27116354,42.1688198 C8.73982733,41.7407974 9.91235319,40.9439713 10.7887411,39.7805901 C10.9480844,39.5677033 11.0871339,39.3495694 11.2269351,39.1239394 L23.257351,17.1853589 C23.5647632,16.6261563 23.8278299,16.0931898 24.005212,15.4807656 C24.3554665,14.2701595 24.3404341,13.0198246 23.9586116,11.7320096 C23.7286162,10.9524242 23.3400291,10.2950239 23.1100336,9.51244019 Z" id="Shape" fill="url(#linearGradient-1)"></path>
                        </g>
                    </g>
                </g>
            </g>
        </g>
    </g>
</svg>