<svg width="64px" height="64px" viewBox="0 0 64 64" version="1.1" xmlns="http://www.w3.org/2000/svg">
    <defs></defs>
    <g id="Page-1" stroke="none" stroke-width="1" fill="none" fill-rule="evenodd">
        <g id="Splashscreen-Copy-10" transform="translate(-156.000000, -214.000000)">
            <g id="Group-2" transform="translate(16.000000, 198.000000)">
                <g id="Group" transform="translate(140.000000, 16.000000)">
                    <circle id="Oval" stroke="#FFFFFF" stroke-width="3" cx="32" cy="32" r="30.5"></circle>
                    <rect id="Rectangle" fill="#FFFFFF" transform="translate(33.036232, 32.463768) rotate(45.000000) translate(-33.036232, -32.463768) " x="31.5362319" y="0.927536232" width="3" height="63.0724638"></rect>
                    <g id="icons8-screenshot-filled" transform="translate(13.913043, 17.623188)" fill="#FFFFFF" fill-rule="nonzero" opacity="0.600000024">
                        <path d="M13.6358696,0 C12.88519,0 12.1992754,0.401983219 11.7282609,1.11136537 L10.5036232,3.02669718 L3.76811594,3.02669718 C1.68976487,3.02669718 0,4.7233032 0,6.81006865 L0,24.9702517 C0,27.0570179 1.68976487,28.7536232 3.76811594,28.7536232 L32.4057971,28.7536232 C34.4841489,28.7536232 36.173913,27.0570179 36.173913,24.9702517 L36.173913,6.81006865 C36.173913,4.7233032 34.4841489,3.02669718 32.4057971,3.02669718 L25.576087,3.02669718 L24.375,1.0877193 C23.9128172,0.393115753 23.2180708,0 22.4673913,0 L13.6358696,0 Z M6.49275362,6.49275362 C7.51449322,6.49275362 8.34782609,7.32608742 8.34782609,8.34782609 C8.34782609,9.36956568 7.51449322,10.2028986 6.49275362,10.2028986 C5.47101496,10.2028986 4.63768116,9.36956568 4.63768116,8.34782609 C4.63768116,7.32608742 5.47101496,6.49275362 6.49275362,6.49275362 Z M18.0869565,7.42028986 C22.9464754,7.42028986 26.8985507,11.3723652 26.8985507,16.2318841 C26.8985507,21.091403 22.9464754,25.0434783 18.0869565,25.0434783 C13.2274376,25.0434783 9.27536232,21.091403 9.27536232,16.2318841 C9.27536232,11.3723652 13.2274376,7.42028986 18.0869565,7.42028986 Z M18.0869565,10.2028986 C14.7636879,10.2028986 12.057971,12.9086155 12.057971,16.2318841 C12.057971,19.5577699 14.7636879,22.2608696 18.0869565,22.2608696 C21.4128424,22.2608696 24.115942,19.5577699 24.115942,16.2318841 C24.115942,12.9086155 21.4128424,10.2028986 18.0869565,10.2028986 Z" id="Shape"></path>
                    </g>
                </g>
            </g>
        </g>
    </g>
</svg>