<?xml version="1.0" encoding="UTF-8"?>
<svg width="64px" height="64px" viewBox="0 0 64 64" version="1.1" xmlns="http://www.w3.org/2000/svg" xmlns:xlink="http://www.w3.org/1999/xlink">
    <!-- Generator: Sketch 51.1 (57501) - http://www.bohemiancoding.com/sketch -->
    <title>icons/general/64px/play</title>
    <desc>Created with Sketch.</desc>
    <defs></defs>
    <g id="icons/general/64px/play" stroke="none" stroke-width="1" fill="none" fill-rule="evenodd">
        <g>
            <path d="M43.06,33.69625 L27.06,43.69625 C26.73625,43.898375 26.368125,44 26,44 C25.6665,44 25.3325,43.917 25.03025,43.749 C24.3945,43.3965 24,42.7275 24,42 L24,22 C24,21.2725 24.3945,20.6035 25.03025,20.251 C25.666,19.8965 26.443375,19.918 27.06,20.30375 L43.06,30.30375 C43.6445,30.67 44,31.310625 44,32 C44,32.689375 43.6445,33.330125 43.06,33.69625 Z" id="Combined-Shape" fill="#6743DF" fill-rule="nonzero"></path>
            <path d="M32,0 C14.327125,0 0,14.326875 0,32 C0,49.673125 14.327125,64 32,64 C49.672875,64 64,49.673125 64,32 C64,14.326875 49.672875,0 32,0 Z M43.06,33.69625 L27.06,43.69625 C26.73625,43.898375 26.368125,44 26,44 C25.6665,44 25.3325,43.917 25.03025,43.749 C24.3945,43.3965 24,42.7275 24,42 L24,22 C24,21.2725 24.3945,20.6035 25.03025,20.251 C25.666,19.8965 26.443375,19.918 27.06,20.30375 L43.06,30.30375 C43.6445,30.67 44,31.310625 44,32 C44,32.689375 43.6445,33.330125 43.06,33.69625 Z" id="Shape-Copy" fill="#FFFFFF" fill-rule="evenodd"></path>
        </g>
    </g>
</svg>