<?xml version="1.0" encoding="UTF-8"?>
<svg width="214px" height="44px" viewBox="0 0 214 44" version="1.1" xmlns="http://www.w3.org/2000/svg" xmlns:xlink="http://www.w3.org/1999/xlink">
    <!-- Generator: Sketch 49.1 (51147) - http://www.bohemiancoding.com/sketch -->
    <title>icons/general/logotypes/popchest</title>
    <desc>Created with Sketch.</desc>
    <defs></defs>
    <g id="icons/general/logotypes/popchest" stroke="none" stroke-width="1" fill="none" fill-rule="evenodd">
        <g id="logo" fill-rule="nonzero">
            <path d="M66.6051005,15.2027266 C66.3113683,15.2027266 66.0229321,15.2126713 65.73857,15.2316959 C65.4538006,15.2511527 65.2077337,15.2706096 65.0011841,15.2892018 L65.0011841,21.0557933 L66.2685917,21.0557933 C67.6659584,21.0557933 68.7178538,20.8443618 69.4250926,20.4210662 C70.1319239,19.9990677 70.4855432,19.2104149 70.4855432,18.0568371 C70.4855432,17.4999375 70.3951013,17.0385928 70.2142177,16.6732357 C70.0329267,16.3083107 69.7742306,16.0151602 69.4381291,15.793784 C69.1016205,15.5728401 68.6917805,15.4193468 68.2090168,15.3328717 C67.7262531,15.2459643 67.1913426,15.2027266 66.6051005,15.2027266 Z M66.3464042,11.3684211 C69.0197339,11.3684211 71.0717854,11.8924601 72.5037808,12.9392411 C73.9353687,13.9873192 74.6511628,15.7029851 74.6511628,18.0862387 C74.6511628,20.4885167 73.9268135,22.2232071 72.4781148,23.2898774 C71.0290089,24.35698 68.9594394,24.890099 66.2685917,24.890099 L65.0011841,24.890099 L65.0011841,31.5789474 L60.9651163,31.5789474 L60.9651163,11.8872716 C61.8446833,11.6952969 62.7759895,11.5608281 63.7590351,11.4834329 C64.7420805,11.4069025 65.604537,11.3684211 66.3464042,11.3684211 Z" id="Fill-16" fill="#7F25BC"></path>
            <path d="M83.9823736,21.4879377 C83.9823736,22.4383061 84.0952387,23.2956081 84.3205433,24.0594243 C84.5458477,24.8236597 84.8703883,25.4805752 85.2941651,26.0301706 C85.717942,26.5801854 86.23627,27.0040153 86.8495752,27.3020797 C87.4624544,27.6005634 88.1656258,27.7493859 88.9590893,27.7493859 C89.734239,27.7493859 90.4331513,27.6005634 91.0554005,27.3020797 C91.6776496,27.0040153 92.2002368,26.5801854 92.6240136,26.0301706 C93.0477904,25.4805752 93.3723311,24.8236597 93.5980614,24.0594243 C93.8229399,23.2956081 93.9358051,22.4383061 93.9358051,21.4879377 C93.9358051,20.53715 93.8229399,19.6756559 93.5980614,18.9021976 C93.3723311,18.1287394 93.0477904,17.4672125 92.6240136,16.9176171 C92.2002368,16.3676022 91.6776496,15.9437723 91.0554005,15.6457079 C90.4331513,15.3476435 89.734239,15.1979826 88.9590893,15.1979826 C88.1656258,15.1979826 87.4624544,15.3518357 86.8495752,15.6595421 C86.23627,15.9668294 85.717942,16.3961092 85.2941651,16.9452854 C84.8703883,17.4953002 84.5458477,18.156827 84.3205433,18.9302852 C84.0952387,19.7033242 83.9823736,20.5560148 83.9823736,21.4879377 Z M98.2906977,21.4879377 C98.2906977,23.1467855 98.0513383,24.6048275 97.5738973,25.8629025 C97.0960304,27.1205581 96.4422641,28.1732159 95.6130244,29.021295 C94.7833589,29.8693741 93.7961079,30.5078439 92.6512716,30.9358661 C91.5060094,31.3647267 90.2751401,31.5789474 88.9590893,31.5789474 C87.6788149,31.5789474 86.4709444,31.3647267 85.3350522,30.9358661 C84.1991599,30.5078439 83.2072239,29.8693741 82.3596704,29.021295 C81.5121168,28.1732159 80.8451473,27.1205581 80.3583364,25.8629025 C79.8715254,24.6048275 79.627907,23.1467855 79.627907,21.4879377 C79.627907,19.829509 79.8804694,18.3710477 80.3855944,17.1133921 C80.8898675,15.8553172 81.5708917,14.7976288 82.4273894,13.9403269 C83.2834612,13.0834441 84.2753971,12.4403629 85.4023454,12.0115023 C86.5292936,11.5830609 87.7150169,11.3684211 88.9590893,11.3684211 C90.2393639,11.3684211 91.4476602,11.5830609 92.5835525,12.0115023 C93.7198707,12.4403629 94.7109547,13.0834441 95.5589343,13.9403269 C96.406062,14.7976288 97.0734573,15.8553172 97.5602683,17.1133921 C98.0470792,18.3710477 98.2906977,19.829509 98.2906977,21.4879377 Z" id="Fill-17" fill="#7F25BC"></path>
            <path d="M108.907426,15.2027266 C108.613694,15.2027266 108.325258,15.2126713 108.040896,15.2316959 C107.756126,15.2511527 107.510059,15.2706096 107.30351,15.2892018 L107.30351,21.0557933 L108.570917,21.0557933 C109.968284,21.0557933 111.020179,20.8443618 111.727011,20.4210662 C112.434249,19.9990677 112.787869,19.2104149 112.787869,18.0568371 C112.787869,17.4999375 112.697427,17.0385928 112.516543,16.6732357 C112.335252,16.3083107 112.076556,16.0151602 111.740455,15.793784 C111.403946,15.5728401 110.994106,15.4193468 110.511342,15.3328717 C110.028579,15.2459643 109.493668,15.2027266 108.907426,15.2027266 Z M108.64873,11.3684211 C111.321652,11.3684211 113.374111,11.8924601 114.806106,12.9392411 C116.237694,13.9873192 116.953488,15.7029851 116.953488,18.0862387 C116.953488,20.4885167 116.228732,22.2232071 114.78044,23.2898774 C113.331334,24.35698 111.261765,24.890099 108.570917,24.890099 L107.30351,24.890099 L107.30351,31.5789474 L103.267442,31.5789474 L103.267442,11.8872716 C104.147009,11.6952969 105.078315,11.5608281 106.061361,11.4834329 C107.044406,11.4069025 107.906863,11.3684211 108.64873,11.3684211 Z" id="Fill-18" fill="#7F25BC"></path>
            <path d="M130.368401,31.5789474 C127.215566,31.5789474 124.813595,30.7031999 123.162487,28.9517048 C121.511821,27.1997904 120.686047,24.7117283 120.686047,21.4879377 C120.686047,19.8852652 120.938097,18.4548915 121.441758,17.1968165 C121.945859,15.9391609 122.635472,14.8768611 123.512362,14.0099171 C124.389251,13.1438116 125.434027,12.4864769 126.646689,12.03959 C127.859353,11.5922838 129.174246,11.3684211 130.59269,11.3684211 C131.413177,11.3684211 132.159194,11.4292077 132.831181,11.5503619 C133.502729,11.6715161 134.090112,11.8115351 134.594214,11.9695805 C135.097434,12.1280451 135.51737,12.2911211 135.853145,12.4588085 C136.188918,12.6264959 136.431274,12.7572921 136.581094,12.8503587 L135.321723,16.3722136 C134.724646,16.0557037 134.029744,15.7853077 133.237018,15.561445 C132.443852,15.3380015 131.544049,15.2264894 130.536728,15.2264894 C129.86474,15.2264894 129.207294,15.3380015 128.563507,15.561445 C127.919721,15.7853077 127.350403,16.1441588 126.856438,16.6379982 C126.362031,17.1314185 125.965448,17.7698884 125.667129,18.5525693 C125.36837,19.3352504 125.219431,20.2856188 125.219431,21.4040939 C125.219431,22.2987063 125.317696,23.132532 125.513343,23.9059902 C125.709432,24.6790292 126.026257,25.3451675 126.465143,25.9044051 C126.903146,26.4636426 127.47643,26.9063373 128.185872,27.2320703 C128.894435,27.5586414 129.752816,27.7212983 130.760578,27.7212983 C131.39423,27.7212983 131.963545,27.6839879 132.467647,27.6097862 C132.970867,27.5355845 133.419005,27.4467101 133.810301,27.3440016 C134.202036,27.2421315 134.547064,27.1251695 134.845823,26.9947925 C135.144142,26.8644155 135.4147,26.7428421 135.657496,26.6313301 L136.860465,30.1255167 C136.245321,30.498202 135.377685,30.833996 134.257999,31.1316412 C133.138754,31.4297055 131.842368,31.5789474 130.368401,31.5789474" id="Fill-19" fill="#9192FC"></path>
            <polyline id="Fill-20" fill="#9192FC" points="152.709971 11.3684211 156.767442 11.3684211 156.767442 31.5789474 152.709971 31.5789474 152.709971 23.0044533 145.89509 23.0044533 145.89509 31.5789474 141.837209 31.5789474 141.837209 11.3684211 145.89509 11.3684211 145.89509 19.0970558 152.709971 19.0970558 152.709971 11.3684211"></polyline>
            <path d="M187.93855,27.8613173 C188.535155,27.8613173 189.026777,27.8101725 189.415551,27.7070448 C189.803898,27.6047555 190.115857,27.4651557 190.350999,27.2878263 C190.58486,27.1113352 190.747881,26.9017261 190.838353,26.6589984 C190.928399,26.4166901 190.974062,26.1467133 190.974062,25.8482298 C190.974062,25.2147906 190.684721,24.688252 190.106468,24.2686143 C189.528214,23.8493957 188.535155,23.3978973 187.125581,22.9132808 C186.510626,22.6898372 185.896526,22.4332755 185.282851,22.1444339 C184.667897,21.8555923 184.117382,21.4921299 183.629602,21.0540465 C183.141393,20.6163822 182.743656,20.0856515 182.437246,19.4610159 C182.129556,18.8367995 181.975924,18.0771755 181.975924,17.1825632 C181.975924,16.2879508 182.138518,15.4822127 182.464131,14.7645105 C182.789319,14.0476468 183.250216,13.4368454 183.845965,12.9337832 C184.44257,12.4307209 185.16464,12.0437821 186.014311,11.7738054 C186.863553,11.5038286 187.820765,11.3684211 188.887228,11.3684211 C190.151704,11.3684211 191.244625,11.5080208 192.165989,11.7876396 C193.087782,12.0672584 193.846552,12.3745456 194.44273,12.7099204 L193.22349,16.148351 C192.699007,15.8687322 192.116486,15.6218125 191.475073,15.4075917 C190.833659,15.1937903 190.061659,15.0860511 189.158218,15.0860511 C188.14638,15.0860511 187.418763,15.2306816 186.976217,15.5195232 C186.533244,15.808784 186.312613,16.2510595 186.312613,16.8471883 C186.312613,17.2014279 186.393696,17.4999116 186.556289,17.7418007 C186.71931,17.984109 186.949331,18.2033603 187.247634,18.3987162 C187.545509,18.594072 187.88862,18.7718207 188.277394,18.9298661 C188.665742,19.0883307 189.094631,19.2514067 189.564915,19.4190941 C190.540479,19.7921986 191.389295,20.1598532 192.112218,20.5233158 C192.834716,20.8867782 193.435587,21.3106083 193.914407,21.7952248 C194.3928,22.2798414 194.749993,22.8483019 194.985136,23.5001867 C195.219425,24.1529099 195.337209,24.9448138 195.337209,25.8763175 C195.337209,27.6839879 194.723108,29.0866931 193.494479,30.0831755 C192.265423,31.0804965 190.413732,31.5789474 187.93855,31.5789474 C187.107231,31.5789474 186.357422,31.5273835 185.689123,31.4250941 C185.020397,31.3228048 184.428914,31.19662 183.914246,31.0477974 C183.398727,30.8989748 182.955754,30.7405103 182.585757,30.5724037 C182.215334,30.4047162 181.903802,30.2466709 181.651163,30.097429 L182.843517,26.6309108 C183.402994,26.9482593 184.094337,27.2320703 184.916696,27.4836014 C185.738626,27.7351325 186.746195,27.8613173 187.93855,27.8613173" id="Fill-21" fill="#9192FC"></path>
            <polyline id="Fill-22" fill="#9192FC" points="214 11.3684211 214 15.2473901 208.563415 15.2473901 208.563415 31.5789474 204.505944 31.5789474 204.505944 15.2473901 199.069767 15.2473901 199.069767 11.3684211 214 11.3684211"></polyline>
            <polyline id="Fill-23" fill="#9192FC" points="162.988372 31.5789474 162.988372 11.3684211 176.033153 11.3684211 176.033153 15.1896582 167.336779 15.1896582 167.336779 27.7590224 176.674419 27.7590224 176.674419 31.5789474 162.988372 31.5789474"></polyline>
            <path d="M170.922175,19.0042267 L175.237015,21.2316393 C175.494638,21.3648558 175.494638,21.5825222 175.237015,21.7157387 L170.922175,23.9431513 C170.664552,24.0763679 170.453488,23.9673365 170.453488,23.7009034 L170.453488,19.2460782 C170.453488,18.9800415 170.664552,18.8710101 170.922175,19.0042267" id="Fill-24" fill="#9192FC"></path>
            <g id="Group-8">
                <path d="M37.2174701,24.4497087 C35.693765,27.1379663 32.7592375,30.7825448 31.6515494,31.9075523 C30.5438614,33.0321308 26.9535996,36.0114052 24.3065636,37.5583444 L23.941703,37.9283392 L29.7963834,43.8718651 C32.9862712,41.5463055 36.0987898,38.8919571 37.3151326,37.6574962 C38.4887745,36.4659581 40.9637384,33.481533 43.1939117,30.364047 L37.293148,24.3733061 L37.2174701,24.4497087" id="Fill-25" fill="#9192FC"></path>
                <path d="M19.592548,6.40280021 L13.6719136,0.391885539 C10.6008275,2.65606541 7.66164936,5.16876853 6.48800745,6.35987736 C5.27166459,7.5947675 2.65760556,10.7547471 0.366551704,13.9937046 L6.32565929,20.0436791 C7.74662848,17.3305263 10.9766804,13.3030761 12.1515907,12.1102504 C13.2728077,10.9719366 16.9370564,7.93257027 19.592548,6.40280021" id="Fill-26" fill="#7F25BC"></path>
                <path d="M6.58567002,24.4497087 L6.5099921,24.3733061 L0.609228381,30.364047 C2.83940167,33.481533 5.31436554,36.4659581 6.48800745,37.6574962 C7.7043503,38.8919571 10.8168689,41.5463055 14.0071794,43.8718651 L19.8614372,37.9283392 L19.4969993,37.5583444 C16.8495406,36.0114052 13.2592786,33.0321308 12.1515907,31.9075523 C11.0439027,30.7825448 8.10937514,27.1379663 6.58567002,24.4497087" id="Fill-27" fill="#7F25BC"></path>
                <path d="M37.4774808,20.0436791 L43.4365884,13.9937046 C41.1455345,10.7547471 38.5314755,7.5947675 37.3151326,6.35987736 C36.1414908,5.16876853 33.2023126,2.65606541 30.1316494,0.391885539 L24.2105921,6.40280021 C26.8660838,7.93257027 30.5303325,10.9719366 31.6515494,12.1102504 C32.8264597,13.3030761 36.0565116,17.3305263 37.4774808,20.0436791" id="Fill-28" fill="#9192FC"></path>
                <path d="M19.0294028,16.625304 L27.3171918,21.4837405 C27.8126919,21.774328 27.8126919,22.249484 27.3171918,22.5396423 L19.0294028,27.3976494 C18.5339027,27.6878079 18.1284551,27.4504445 18.1284551,26.8696986 L18.1284551,17.153255 C18.1284551,16.5729381 18.5339027,16.3351456 19.0294028,16.625304" id="Fill-29" fill="#7F25BC"></path>
            </g>
        </g>
    </g>
</svg>