<?xml version="1.0" encoding="UTF-8"?>
<svg width="32px" height="32px" viewBox="0 0 32 32" version="1.1" xmlns="http://www.w3.org/2000/svg" xmlns:xlink="http://www.w3.org/1999/xlink">
    <!-- Generator: Sketch 49.1 (51147) - http://www.bohemiancoding.com/sketch -->
    <title>icons/general/32px/promo-abuse</title>
    <desc>Created with Sketch.</desc>
    <defs></defs>
    <g id="icons/general/32px/promo-abuse" stroke="none" stroke-width="1" fill="none" fill-rule="evenodd">
        <g id="icons/general/32/promo-abuse">
            <g id="Group-2" transform="translate(5.000000, 0.000000)">
                <path d="M13.75,21.6949153 L12.65,21.6949153 L15.4150392,11.2648304 L16.4849608,11.5148306 L13.75,21.6949153 Z M15.6116521,23.9480151 L15.3029343,22.5207867 L20.3994142,11.1652545 L21.4005858,11.6144071 L15.6116521,23.9480151 Z M9.35,21.6949153 L8.25,21.6949153 L5.5150392,11.5148306 L6.5849608,11.2648304 L9.35,21.6949153 Z M6.71800483,22.043715 L6.366777,23.6084231 L0.5994142,11.0720342 L1.6005858,10.6228816 L6.71800483,22.043715 Z" id="Combined-Shape" fill="#987DF7" fill-rule="nonzero"></path>
                <path d="M11,0 C4.92421875,0 0,4.8559322 0,10.8474576 C0,10.8474576 0.55,12.4745763 2.2,12.4745763 C3.85,12.4745763 4.4,10.8474576 4.4,10.8474576 C4.4,10.8474576 4.95,12.4745763 6.6,12.4745763 C8.25,12.4745763 8.8,10.8474576 8.8,10.8474576 C8.8,10.8474576 9.35,12.4745763 11,12.4745763 C12.65,12.4745763 13.2,10.8474576 13.2,10.8474576 C13.2,10.8474576 13.75,12.4745763 15.4,12.4745763 C17.05,12.4745763 17.6,10.8474576 17.6,10.8474576 C17.6,10.8474576 18.15,12.4745763 19.8,12.4745763 C21.45,12.4745763 22,10.8474576 22,10.8474576 C22,4.8559322 17.0757812,0 11,0 Z" id="Shape" fill="#6743DF" fill-rule="nonzero"></path>
                <path d="M4.4,10.8474576 C4.4,1.08474576 11,0 11,0 C8.8,2.17161003 8.8,10.8474576 8.8,10.8474576 C8.8,10.8474576 8.25,12.4745763 6.6,12.4745763 C4.95,12.4745763 4.4,10.8474576 4.4,10.8474576 Z M11,0 C11,0 17.6,1.08474576 17.6,10.8474576 C17.6,10.8474576 17.05,12.4745763 15.4,12.4745763 C13.75,12.4745763 13.2,10.8474576 13.2,10.8474576 C13.2,10.8474576 13.2,2.17161003 11,0 Z" id="Combined-Shape" fill="#BFB1EC" fill-rule="nonzero"></path>
                <g id="Group" transform="translate(3.850000, 20.067797)">
                    <path d="M3.56911163,0.91509509 L10.4074975,0.915003581 C10.8079912,0.915003581 11.1541235,1.18056418 11.2493497,1.56069468 L13.0262185,8.67857882 C13.0369033,8.72140527 13.0409335,8.7631336 13.038028,8.80989496 C13.0309048,8.95603565 12.9517996,9.08945651 12.8264871,9.16678205 C12.8195513,9.17099149 12.8127093,9.17547545 12.805961,9.18014244 C11.9433952,9.70998249 11.0085661,10.11903 10.0266864,10.3961208 C9.03974534,10.6756823 8.0174694,10.8173391 6.98835143,10.8173391 C4.98119646,10.8173391 3.0138753,10.278165 1.30130302,9.25920665 C1.25921978,9.23395003 1.2046709,9.19981698 1.14702905,9.16367072 C1.02359113,9.08533859 0.945704329,8.95237527 0.938299928,8.8006525 C0.935675583,8.76075436 0.939705827,8.72003263 0.950203205,8.67729768 L2.72716566,1.56096921 C2.82239188,1.18065569 3.16871163,0.91509509 3.56911163,0.91509509 Z M6.99548502,4.03373916 C6.28325665,4.03373916 5.70393258,4.59945094 5.70393258,5.29474019 C5.70393258,5.99002944 6.28335037,6.55574123 6.99548502,6.55574123 C7.70761966,6.55574123 8.28694373,5.99002944 8.28694373,5.29474019 C8.28703745,4.59945094 7.70761966,4.03373916 6.99548502,4.03373916 Z" id="Combined-Shape" fill="#6743DF"></path>
                    <path d="M6.99548502,7.47083632 C5.76654195,7.47083632 4.76666667,6.49470438 4.76666667,5.29474019 C4.76666667,4.094776 5.76654195,3.11864407 6.99548502,3.11864407 C8.22442809,3.11864407 9.22420964,4.09486751 9.22420964,5.29474019 C9.22420964,6.49461287 8.22452182,7.47083632 6.99548502,7.47083632 Z M6.99548502,4.03373916 C6.28325665,4.03373916 5.70393258,4.59945094 5.70393258,5.29474019 C5.70393258,5.99002944 6.28335037,6.55574123 6.99548502,6.55574123 C7.70761966,6.55574123 8.28694373,5.99002944 8.28694373,5.29474019 C8.28703745,4.59945094 7.70761966,4.03373916 6.99548502,4.03373916 Z" id="Shape" fill="#BFB1EC" fill-rule="nonzero"></path>
                </g>
            </g>
        </g>
    </g>
</svg>