<?xml version="1.0" encoding="UTF-8"?>
<svg width="32px" height="32px" viewBox="0 0 32 32" version="1.1" xmlns="http://www.w3.org/2000/svg" xmlns:xlink="http://www.w3.org/1999/xlink">
    <!-- Generator: Sketch 49.1 (51147) - http://www.bohemiancoding.com/sketch -->
    <title>icons/general/32px/quotes-up</title>
    <desc>Created with Sketch.</desc>
    <defs></defs>
    <g id="icons/general/32px/quotes-up" stroke="none" stroke-width="1" fill="none" fill-rule="evenodd" opacity="0.3">
        <g fill="#6743DF" id="“">
            <path d="M4.99949995,28.8984999 C3.91949455,27.1974914 3.11625258,25.5032583 2.58974995,23.8157499 C2.06324732,22.1282415 1.79999995,20.4475083 1.79999995,18.7734999 C1.79999995,15.8844855 2.55599239,13.1102632 4.06799995,10.4507499 C5.58000751,7.79123661 7.80748524,5.34101111 10.7505,3.0999999 L14.7195,5.4489999 C15.0435016,5.66500098 15.2797492,5.90124862 15.42825,6.1577499 C15.5767507,6.41425119 15.651,6.67749855 15.651,6.9474999 C15.651,7.24450139 15.5835006,7.52799855 15.4485,7.7979999 C15.3134993,8.06800125 15.1515009,8.29749896 14.9625,8.4864999 C14.6654985,8.81050152 14.3347518,9.20874754 13.97025,9.6812499 C13.6057481,10.1537523 13.2615016,10.7072467 12.9375,11.3417499 C12.6134983,11.9762531 12.3367511,12.6782461 12.10725,13.4477499 C11.8777488,14.2172538 11.763,15.0474954 11.763,15.9384999 C11.763,16.9105048 11.9317483,17.9499944 12.26925,19.0569999 C12.6067516,20.1640054 13.166996,21.3519936 13.95,22.6209999 C14.2200013,23.0530021 14.355,23.4849977 14.355,23.9169999 C14.355,24.4030023 14.1930016,24.834998 13.869,25.2129999 C13.5449983,25.5910018 13.0995028,25.8879988 12.5325,26.1039999 L4.99949995,28.8984999 Z M19.4985,28.8984999 C18.4184946,27.1974914 17.6152526,25.5032583 17.08875,23.8157499 C16.5622473,22.1282415 16.299,20.4475083 16.299,18.7734999 C16.299,15.8844855 17.0549924,13.1102632 18.567,10.4507499 C20.0790075,7.79123661 22.3064852,5.34101111 25.2495,3.0999999 L29.2185,5.4489999 C29.5425016,5.66500098 29.7787492,5.90124862 29.92725,6.1577499 C30.0757507,6.41425119 30.15,6.67749855 30.15,6.9474999 C30.15,7.24450139 30.0825006,7.52799855 29.9475,7.7979999 C29.8124993,8.06800125 29.6505009,8.29749896 29.4615,8.4864999 C29.1644985,8.81050152 28.8337518,9.20874754 28.46925,9.6812499 C28.1047481,10.1537523 27.7605016,10.7072467 27.4365,11.3417499 C27.1124983,11.9762531 26.8357511,12.6782461 26.60625,13.4477499 C26.3767488,14.2172538 26.262,15.0474954 26.262,15.9384999 C26.262,16.9105048 26.4307483,17.9499944 26.76825,19.0569999 C27.1057516,20.1640054 27.665996,21.3519936 28.449,22.6209999 C28.7190013,23.0530021 28.854,23.4849977 28.854,23.9169999 C28.854,24.4030023 28.6920016,24.834998 28.368,25.2129999 C28.0439983,25.5910018 27.5985028,25.8879988 27.0315,26.1039999 L19.4985,28.8984999 Z"></path>
        </g>
    </g>
</svg>