<?xml version="1.0" encoding="UTF-8"?>
<svg width="32px" height="32px" viewBox="0 0 32 32" version="1.1" xmlns="http://www.w3.org/2000/svg" xmlns:xlink="http://www.w3.org/1999/xlink">
    <!-- Generator: Sketch 49.1 (51147) - http://www.bohemiancoding.com/sketch -->
    <title>icons/general/32px/reputation-score</title>
    <desc>Created with Sketch.</desc>
    <defs></defs>
    <g id="icons/general/32px/reputation-score" stroke="none" stroke-width="1" fill="none" fill-rule="evenodd">
        <g id="icons/general/32/reputation-score">
            <path d="M28.9802446,6.15213929 C29.9411165,6.15213929 30.7200572,6.93107991 30.7200572,7.89195187 L30.7200572,24.0628885 C30.7200572,25.0237604 29.9411165,25.802701 28.9802446,25.802701 C28.0193726,25.802701 27.240432,25.0237604 27.240432,24.0628885 L27.240432,7.89195187 C27.240432,6.93107991 28.0193726,6.15213929 28.9802446,6.15213929 Z M18.5413691,10.4240005 C19.502241,10.4240005 20.2811817,11.2029412 20.2811817,12.1638131 L20.2811817,24.0628885 C20.2811817,25.0237604 19.502241,25.802701 18.5413691,25.802701 C17.5804971,25.802701 16.8015565,25.0237604 16.8015565,24.0628885 L16.8015565,12.1638131 C16.8015565,11.2029412 17.5804971,10.4240005 18.5413691,10.4240005 Z M8.1024936,13.8414895 C9.06336556,13.8414895 9.84230618,14.6204302 9.84230618,15.5813021 L9.84230618,24.0628885 C9.84230618,25.0237604 9.06336556,25.802701 8.1024936,25.802701 C7.14162165,25.802701 6.36268102,25.0237604 6.36268102,24.0628885 L6.36268102,15.5813021 C6.36268102,14.6204302 7.14162165,13.8414895 8.1024936,13.8414895 Z" id="Combined-Shape" fill="#BFB1EC" fill-rule="nonzero"></path>
            <path d="M13.3219313,16.4046063 C14.2828033,16.4046063 15.0617439,17.1835469 15.0617439,18.1444189 L15.0617439,24.0628885 C15.0617439,25.0237604 14.2828033,25.802701 13.3219313,25.802701 C12.3610594,25.802701 11.5821188,25.0237604 11.5821188,24.0628885 L11.5821188,18.1444189 C11.5821188,17.1835469 12.3610594,16.4046063 13.3219313,16.4046063 Z M2.88305586,18.1133508 C3.84392781,18.1133508 4.62286844,18.8922914 4.62286844,19.8531634 L4.62286844,24.0628885 C4.62286844,25.0237604 3.84392781,25.802701 2.88305586,25.802701 C1.9221839,25.802701 1.14324327,25.0237604 1.14324327,24.0628885 L1.14324327,19.8531634 C1.14324327,18.8922914 1.9221839,18.1133508 2.88305586,18.1133508 Z M23.7608068,12.9871173 C24.7216788,12.9871173 25.5006194,13.7660579 25.5006194,14.7269299 L25.5006194,24.0628885 C25.5006194,25.0237604 24.7216788,25.802701 23.7608068,25.802701 C22.7999349,25.802701 22.0209943,25.0237604 22.0209943,24.0628885 L22.0209943,14.7269299 C22.0209943,13.7660579 22.7999349,12.9871173 23.7608068,12.9871173 Z" id="Combined-Shape" fill="#6743DF" fill-rule="evenodd"></path>
        </g>
    </g>
</svg>