<?xml version="1.0" encoding="UTF-8"?>
<svg width="160px" height="160px" viewBox="0 0 160 160" version="1.1" xmlns="http://www.w3.org/2000/svg" xmlns:xlink="http://www.w3.org/1999/xlink">
    <!-- Generator: Sketch 49.1 (51147) - http://www.bohemiancoding.com/sketch -->
    <title>request_done</title>
    <desc>Created with Sketch.</desc>
    <defs></defs>
    <g id="request_done" stroke="none" stroke-width="1" fill="none" fill-rule="evenodd">
        <g>
            <path d="M143.321996,14.7243229 C148.76781,13.3936126 150.971409,16.3152412 148.233828,21.2363713 L99.6879244,108.275056 C96.9515805,113.191224 94.689867,117.1925 94.6676509,117.176418 C94.6441975,117.165299 94.6380795,117.063613 94.6455041,117.033835 C94.6529286,117.004057 90.960162,114.269924 86.4367514,110.954407 L71.5545472,100.042884 C67.0373122,96.7236345 59.5949265,91.3571695 55.028252,88.1310254 L53.4521389,87.0053071 C48.8891767,83.7642739 48.9981784,78.614763 53.7078071,75.5664725 L118.779399,33.1548978 C123.482864,30.0892558 123.148594,29.4734835 118.039318,31.7895417 L40.318301,67.0408625 C35.1917478,69.3420696 27.2764493,68.5230393 22.7344888,65.2608845 L9.27152109,55.5993842 C4.72092165,52.3298038 5.45022776,48.5632295 10.8972783,47.2275562 L143.321996,14.7243229 Z M49.9856054,92.7884611 C54.4966648,96.111442 54.830539,101.967062 50.7168466,105.801797 C50.7168466,105.801797 36.1595606,119.378684 36.6909395,118.551744 C37.2136795,117.71738 32.9991018,89.2859993 32.9941636,89.284768 C32.1687158,83.7177675 35.1836495,81.891674 39.6947089,85.2146548 L49.9856054,92.7884611 Z" id="Combined-Shape" fill="#6743DF" fill-rule="nonzero"></path>
            <circle id="Oval-12-Copy-6" fill="#22CC4E" fill-rule="evenodd" cx="91" cy="120" r="32"></circle>
            <path d="M91.0361465,150.929959 C108.156974,150.929959 122.036147,137.050786 122.036147,119.929959 C122.036147,102.809131 108.156974,88.9299585 91.0361465,88.9299585 C73.9153193,88.9299585 60.0361465,102.809131 60.0361465,119.929959 C60.0361465,137.050786 73.9153193,150.929959 91.0361465,150.929959 Z M91.0361465,155.929959 C71.1538955,155.929959 55.0361465,139.812209 55.0361465,119.929959 C55.0361465,100.047708 71.1538955,83.9299585 91.0361465,83.9299585 C110.918397,83.9299585 127.036147,100.047708 127.036147,119.929959 C127.036147,139.812209 110.918397,155.929959 91.0361465,155.929959 Z" id="Oval-12-Copy-7" fill="#FFFFFF" fill-rule="nonzero"></path>
            <path d="M87.5218608,127.091429 L104.720453,109.892837 C105.896808,108.716482 107.804056,108.716482 108.980411,109.892837 C110.156766,111.069192 110.156766,112.97644 108.980411,114.152794 L89.6518396,133.481366 C89.0636622,134.069543 88.2927615,134.363632 87.5218608,134.363632 C86.7509601,134.363632 85.9800594,134.069543 85.391882,133.481366 L75.7275963,123.81708 C74.5512415,122.640725 74.5512415,120.733477 75.7275963,119.557123 C76.9039511,118.380768 78.8111991,118.380768 79.9875539,119.557123 L87.5218608,127.091429 Z" id="Combined-Shape" fill="#FFFFFF" fill-rule="nonzero"></path>
        </g>
    </g>
</svg>