<svg width="16px" height="16px" viewBox="0 0 16 16" version="1.1" xmlns="http://www.w3.org/2000/svg" xmlns:xlink="http://www.w3.org/1999/xlink">
    <g id="Page-1" stroke="none" stroke-width="1" fill="none" fill-rule="evenodd">
        <g id="1710-copy-13" transform="translate(-32.000000, -122.000000)" fill="#767FAB" fill-rule="nonzero">
            <g id="Float" transform="translate(32.000000, 119.000000)">
                <g id="icons/general/24px/search" transform="translate(0.000000, 3.000000)">
                    <path d="M15.9001436,15.3414964 L12.2320897,11.6764923 C14.7645732,8.85073418 14.5855526,4.52416912 11.8282671,1.9169224 C9.07098168,-0.690324328 4.73752837,-0.630685301 2.05315913,2.05145204 C-0.631210117,4.73358938 -0.690898771,9.06343967 1.91851753,11.8184326 C4.52793384,14.5734255 8.85809919,14.7522973 11.6862088,12.2219194 L15.3476055,15.893575 C15.499367,16.0379896 15.7387184,16.0350736 15.8869106,15.8870046 C16.0351028,15.7389356 16.0380212,15.4997833 15.8934865,15.3481479 L15.9001436,15.3414964 Z M0.702018552,7.0270589 C0.697745906,4.18419537 2.60368828,1.6923548 5.35020137,0.949996624 C8.09671445,0.20763845 11.0000096,1.39958469 12.4307127,3.8568967 C13.8614158,6.3142087 13.4633303,9.42509909 11.4598679,11.4436881 L11.4598679,11.4436881 L11.4598679,11.4436881 C9.66846226,13.2579398 6.95721529,13.8103102 4.59790423,12.8416963 C2.23859316,11.8730825 0.699280397,9.57564708 0.702018552,7.0270589 L0.702018552,7.0270589 Z" id="Shape"></path>
                </g>
            </g>
        </g>
    </g>
</svg>