<?xml version="1.0" encoding="UTF-8"?>
<svg width="32px" height="32px" viewBox="0 0 32 32" version="1.1" xmlns="http://www.w3.org/2000/svg" xmlns:xlink="http://www.w3.org/1999/xlink">
    <!-- Generator: Sketch 49.1 (51147) - http://www.bohemiancoding.com/sketch -->
    <title>icons/general/32px/security</title>
    <desc>Created with Sketch.</desc>
    <defs></defs>
    <g id="icons/general/32px/security" stroke="none" stroke-width="1" fill="none" fill-rule="evenodd">
        <g id="icons/general/32/security">
            <g id="Group-32" transform="translate(2.000000, 0.000000)">
                <path d="M19.6952023,26.7764466 L14.7092575,31.0190686 C14.301854,31.3640142 13.6981365,31.3640142 13.290733,31.0190686 L8.30478868,26.7764466 C3.99222089,23.1059789 1.34093112,17.9152733 0.929305588,12.3362458 L0.557787278,6.2346359 C0.519791357,5.65421886 0.971523578,5.15229214 1.5646862,5.11304725 L3.5193794,4.98704882 C6.82504773,4.7701671 9.98295337,3.57008761 12.5688057,1.54585693 L13.3245074,0.953046387 C13.7192457,0.645280834 14.2807447,0.645280834 14.6754831,0.953046387 L15.4311854,1.54585693 C18.0170371,3.57008761 21.1749428,4.7701671 24.4806111,4.98704882 L26.4353043,5.11304725 C27.0305777,5.15229214 27.4801997,5.65421886 27.4422032,6.2346359 L27.0706849,12.3362458 C26.6590594,17.9152733 24.0077696,23.1059789 19.6952023,26.7764466 Z M19.0882773,10.9037752 L13.1792861,16.8124399 L10.6577749,14.2909286 C10.1796557,13.8129727 9.40444651,13.8129727 8.9264906,14.2909286 C8.44837145,14.769211 8.44837145,15.544257 8.9264906,16.0223762 L12.313644,19.4095296 C12.5526219,19.6485075 12.8660357,19.7679965 13.1792861,19.7679965 C13.4925366,19.7679965 13.8059503,19.6485075 14.0449283,19.4095296 L20.8193983,12.6352228 C21.2976807,12.1571036 21.2976807,11.3818944 20.8195616,10.9039385 C20.3416056,10.4258193 19.5663964,10.4256561 19.0882773,10.9037752 Z" id="Combined-Shape" fill="#BFB1EC" fill-rule="nonzero"></path>
                <path d="M18.659711,24.6211573 L14.5803016,28.0152549 C14.2469715,28.2912113 13.7530208,28.2912113 13.4196906,28.0152549 L9.34028165,24.6211573 C5.81181709,21.6847832 3.64258001,17.5322186 3.30579548,13.0689966 L3.00182595,8.18770872 C2.97073838,7.72337509 3.34033747,7.32183372 3.82565235,7.2904378 L5.42494678,7.18963906 C8.12958451,7.01613368 10.7133255,6.05607009 12.8290228,4.43668555 L13.4473242,3.96243711 C13.770292,3.71622467 14.2297002,3.71622467 14.552668,3.96243711 L15.1709698,4.43668555 C17.2866667,6.05607009 19.8704077,7.01613368 22.5750454,7.18963906 L24.1743399,7.2904378 C24.6613817,7.32183372 25.0292543,7.72337509 24.9981663,8.18770872 L24.6941967,13.0689966 C24.3574122,17.5322186 22.1881751,21.6847832 18.659711,24.6211573 Z M19.0882773,10.9037752 L13.1792861,16.8124399 L10.6577749,14.2909286 C10.1796557,13.8129727 9.40444651,13.8129727 8.9264906,14.2909286 C8.44837145,14.769211 8.44837145,15.544257 8.9264906,16.0223762 L12.313644,19.4095296 C12.5526219,19.6485075 12.8660357,19.7679965 13.1792861,19.7679965 C13.4925366,19.7679965 13.8059503,19.6485075 14.0449283,19.4095296 L20.8193983,12.6352228 C21.2976807,12.1571036 21.2976807,11.3818944 20.8195616,10.9039385 C20.3416056,10.4258193 19.5663964,10.4256561 19.0882773,10.9037752 Z" id="Combined-Shape" fill="#6743DF" fill-rule="nonzero"></path>
            </g>
        </g>
    </g>
</svg>