<?xml version="1.0" encoding="UTF-8"?>
<svg width="32px" height="32px" viewBox="0 0 32 32" version="1.1" xmlns="http://www.w3.org/2000/svg" xmlns:xlink="http://www.w3.org/1999/xlink">
    <!-- Generator: Sketch 49.1 (51147) - http://www.bohemiancoding.com/sketch -->
    <title>icons/general/32px/secure</title>
    <desc>Created with Sketch.</desc>
    <defs></defs>
    <g id="icons/general/32px/secure" stroke="none" stroke-width="1" fill="none" fill-rule="evenodd">
        <g id="icons/general/32/secure" fill-rule="nonzero">
            <path d="M14.9733276,21.0627835 C18.347135,18.0955002 20.4212919,13.8992244 20.7433147,9.38902115 L21.0339609,4.45635126 C21.0636863,3.98712992 20.7119381,3.58136179 20.2462438,3.54963539 L18.7170483,3.44777561 C16.130958,3.27244386 13.6604654,2.30227434 11.637502,0.665843639 L11.046301,0.186603114 C10.7374894,-0.062201038 10.2982175,-0.062201038 9.98940581,0.186603114 L9.39820525,0.665843639 C7.37524142,2.30227434 4.90474883,3.27244386 2.31865853,3.44777561 L0.789463038,3.54963539 C0.325420084,3.58136179 -0.027979046,3.98712992 0.00174592081,4.45635126 L0.292392108,9.38902115 C0.614414978,13.8992244 2.68857186,18.0955002 6.06237969,21.0627835 L9.96298343,24.4926084 C10.2817033,24.7714697 10.7540036,24.7714697 11.0727234,24.4926084 L14.9733276,21.0627835 Z" id="Shape" fill="#BFB1EC"></path>
            <path d="M12.7321429,7.57894737 C12.7321429,8.97368421 11.6163504,10.1052632 10.2410714,10.1052632 C8.86579241,10.1052632 7.75,8.97368421 7.75,7.57894737 C7.75,6.18421053 8.86579241,5.05263158 10.2410714,5.05263158 C11.6163504,5.05263158 12.7321429,6.18421053 12.7321429,7.57894737 Z M14.9464286,14.5526257 L14.9464286,15.4166637 C14.9464286,15.8938588 14.5595856,16.2807018 14.0823906,16.2807018 L6.39975231,16.2807018 C5.92255728,16.2807018 5.53571429,15.8938588 5.53571429,15.4166637 L5.53571429,14.5526257 C6.39856726,12.3362554 7.96701964,11.2280702 10.2410714,11.2280702 C12.5151232,11.2280702 14.0835756,12.3362554 14.9464286,14.5526257 Z" id="Combined-Shape" fill="#6743DF"></path>
            <path d="M27.5341615,16.720061 L28.754386,16.720061 C29.9946044,16.720061 31,17.7254567 31,18.9656751 L31,29.4126621 C31,30.6528805 29.9946044,31.6582761 28.754386,31.6582761 L15.5313283,31.6582761 C14.2911099,31.6582761 13.2857143,30.6528805 13.2857143,29.4126621 L13.2857143,18.9656751 C13.2857143,17.7254567 14.2911099,16.720061 15.5313283,16.720061 L16.7515528,16.720061 L16.7515528,14.2303585 C16.7515528,11.0261632 19.1692158,8.42105263 22.1428571,8.42105263 C25.1164984,8.42105263 27.5341615,11.0261632 27.5341615,14.2303585 L27.5341615,16.720061 Z M25.3776398,16.720061 L25.3776398,14.2303585 C25.3776398,12.308295 23.9266209,10.744775 22.1428571,10.744775 C20.3590934,10.744775 18.9080745,12.308295 18.9080745,14.2303585 L18.9080745,16.720061 L25.3776398,16.720061 Z" id="Combined-Shape" fill="#6743DF"></path>
            <path d="M18.8664596,24.1943173 C18.8664596,24.8844215 18.3065638,25.4443173 17.6164596,25.4443173 C16.9263555,25.4443173 16.3664596,24.8844215 16.3664596,24.1943173 C16.3664596,23.5042131 16.9263555,22.9443173 17.6164596,22.9443173 C18.3065638,22.9443173 18.8664596,23.5042131 18.8664596,24.1943173 Z M23.3999996,24.1943173 C23.3999996,24.8844215 22.8401038,25.4443173 22.1499996,25.4443173 C21.4598955,25.4443173 20.8999996,24.8844215 20.8999996,24.1943173 C20.8999996,23.5042131 21.4598955,22.9443173 22.1499996,22.9443173 C22.8401038,22.9443173 23.3999996,23.5042131 23.3999996,24.1943173 Z M27.9200001,24.1943173 C27.9200001,24.8844215 27.3601042,25.4443173 26.6700001,25.4443173 C25.9798959,25.4443173 25.4200001,24.8844215 25.4200001,24.1943173 C25.4200001,23.5042131 25.9798959,22.9443173 26.6700001,22.9443173 C27.3601042,22.9443173 27.9200001,23.5042131 27.9200001,24.1943173 Z" id="Combined-Shape" fill="#BFB1EC"></path>
        </g>
    </g>
</svg>