<?xml version="1.0" encoding="UTF-8"?>
<svg width="89px" height="55px" viewBox="0 0 89 55" version="1.1" xmlns="http://www.w3.org/2000/svg" xmlns:xlink="http://www.w3.org/1999/xlink">
    <!-- Generator: Sketch 49.1 (51147) - http://www.bohemiancoding.com/sketch -->
    <title>icons/general/logotypes/solutions</title>
    <desc>Created with Sketch.</desc>
    <defs>
        <linearGradient x1="-0.848374987%" y1="50.0328253%" x2="49.9925096%" y2="-171.557704%" id="linearGradient-1">
            <stop stop-color="#ED3BFF" offset="0%"></stop>
            <stop stop-color="#00DEFA" offset="100%"></stop>
        </linearGradient>
        <linearGradient x1="-0.41506838%" y1="50.0328253%" x2="49.9925734%" y2="-171.557704%" id="linearGradient-2">
            <stop stop-color="#ED3BFF" offset="0%"></stop>
            <stop stop-color="#00DEFA" offset="100%"></stop>
        </linearGradient>
        <linearGradient x1="57.3964501%" y1="-88.979728%" x2="95.5416404%" y2="83.4319758%" id="linearGradient-3">
            <stop stop-color="#000001" offset="0%"></stop>
            <stop stop-color="#424242" offset="100%"></stop>
        </linearGradient>
        <linearGradient x1="56.8191116%" y1="-88.979728%" x2="91.9868345%" y2="83.4319758%" id="linearGradient-4">
            <stop stop-color="#000001" offset="0%"></stop>
            <stop stop-color="#424242" offset="100%"></stop>
        </linearGradient>
    </defs>
    <g id="icons/general/logotypes/solutions" stroke="none" stroke-width="1" fill="none" fill-rule="evenodd">
        <g id="482-logo" fill-rule="nonzero">
            <g id="Vector" fill="url(#linearGradient-2)">
                <g id="path0_fill-link">
                    <path d="M1.17234877,29.6977931 L87.4417165,29.6977931 L88.6151418,29.6977931 L88.6151418,30.8694096 L88.6151418,52.8409824 L88.6151418,54.0115244 L87.4417165,54.0115244 L1.17234877,54.0115244 L1.05130511e-05,54.0115244 L1.05130511e-05,52.8409824 L1.05130511e-05,30.8694096 L1.05130511e-05,29.6977931 L1.17234877,29.6977931 Z M1.17343607,1.20714128e-05 L24.7711159,1.20714128e-05 L25.9445413,1.20714128e-05 L25.9445413,1.17270221 L25.9445413,23.1442644 L25.9445413,24.315881 L24.7711159,24.315881 L1.17343607,24.315881 L1.05130511e-05,24.315881 L1.05130511e-05,23.1442644 L1.05130511e-05,1.17270221 L1.05130511e-05,1.20714128e-05 L1.17343607,1.20714128e-05 Z M32.5071107,1.20714128e-05 L56.105878,1.20714128e-05 L57.2793033,1.20714128e-05 L57.2793033,1.17270221 L57.2793033,23.1442644 L57.2793033,24.315881 L56.105878,24.315881 L32.5071107,24.315881 L31.3336854,24.315881 L31.3336854,23.1442644 L31.3336854,1.17270221 L31.3336854,1.20714128e-05 L32.5071107,1.20714128e-05 Z M63.8418725,1.20714128e-05 L87.4417165,1.20714128e-05 L88.6151418,1.20714128e-05 L88.6151418,1.17270221 L88.6151418,23.1442644 L88.6151418,24.315881 L87.4417165,24.315881 L63.8418725,24.315881 L62.6695239,24.315881 L62.6695239,23.1442644 L62.6695239,1.17270221 L62.6695239,1.20714128e-05 L63.8418725,1.20714128e-05 Z" id="path0_fill"></path>
                </g>
            </g>
            <g id="Vector" transform="translate(2.153074, 2.149755)" fill="url(#linearGradient-4)">
                <g id="path1_fill-link" transform="translate(0.192700, 0.193478)">
                    <path d="M83.9225168,29.6945684 L-4.9927319e-06,29.6945684 L-4.9927319e-06,49.3250581 L83.9225168,49.3250581 L83.9225168,29.6945684 Z M21.2529931,4.1987406e-06 L-4.9927319e-06,4.1987406e-06 L-4.9927319e-06,19.6283397 L21.2529931,19.6283397 L21.2529931,4.1987406e-06 Z M52.5877551,4.1987406e-06 L31.3336854,4.1987406e-06 L31.3336854,19.6283397 L52.5877551,19.6283397 L52.5877551,4.1987406e-06 Z M83.9225168,4.1987406e-06 L62.6695239,4.1987406e-06 L62.6695239,19.6283397 L83.9225168,19.6283397 L83.9225168,4.1987406e-06 Z" id="path1_fill"></path>
                </g>
            </g>
            <g id="Group" transform="translate(9.688833, 5.820462)" fill="#FEFEFE">
                <g id="Vector" transform="translate(60.732834, 2.778559)">
                    <g id="path2_fill-link" transform="translate(0.236838, 0.007524)">
                        <path d="M0.626533756,2.16911374 L9.34001331,2.16911374 L9.9654813,1.08455149 L9.34001331,-2.63035944e-07 L0.626533756,-2.63035944e-07 L2.10260591e-05,1.08455149 L0.626533756,2.16911374 Z M0.626533756,7.10170551 L9.34001331,7.10170551 L9.9654813,6.01715401 L9.34001331,4.93368818 L0.626533756,4.93368818 L2.10260591e-05,6.01715401 L0.626533756,7.10170551 Z" id="path2_fill"></path>
                    </g>
                </g>
                <g id="Vector">
                    <g id="path3_fill-link" transform="translate(0.018301, 0.274094)">
                        <path d="M3.27160665,3.76314646 L8.67327092e-06,5.64848176 L8.67327092e-06,6.89963929 L1.08623658,7.52413242 L6.52812025,4.38872522 L6.52812025,3.13648207 L1.08623658,-6.2981163e-06 L8.67327092e-06,0.625573386 L8.67327092e-06,1.87459727 L3.27160665,3.76314646 Z M5.44405829,7.11355065 L6.52812025,7.73804383 L6.52812025,8.99137258 L1.08623658,12.126769 L8.67327092e-06,11.5011903 L8.67327092e-06,10.2521717 L5.44405829,7.11355065 Z" id="path3_fill"></path>
                    </g>
                </g>
                <g id="Vector" transform="translate(27.989961, 1.703681)">
                    <g id="path4_fill-link" transform="translate(0.435965, 0.438550)">
                        <path d="M8.36251774,4.19418312 L10.2130848,3.12897943 L10.2130848,5.26151506 L8.36251774,4.19418312 Z M2.1724301,3.12897943 L4.02194216,4.19418312 L2.1724301,5.26151506 L2.1724301,3.12897943 Z M-2.36544241e-05,6.51375821 L-2.36544241e-05,7.76491574 L1.08623658,8.39049452 L6.19222996,5.4474689 L11.2971791,8.39049452 L12.3823284,7.76491574 L12.3823284,6.51375821 L12.3823284,1.8778219 L12.3823284,0.626663307 L11.2971791,7.84492097e-07 L6.19222996,2.9430256 L1.08623658,7.84492097e-07 L-2.36544241e-05,0.626663307 L-2.36544241e-05,1.8778219 L-2.36544241e-05,6.51375821 Z" id="path4_fill"></path>
                    </g>
                </g>
                <g id="Vector" transform="translate(0.446763, 32.246328)">
                    <g id="path5_fill-link" transform="translate(0.066745, 0.120387)">
                        <path d="M2.6472152,0.0193414549 C2.23597807,0.0193414549 1.87102127,0.0741917063 1.5459071,0.185978546 C1.22186947,0.297765816 0.940898701,0.466516226 0.706213641,0.690090766 C0.470452044,0.91474018 0.294979744,1.16625294 0.177637213,1.44357136 C0.0602947898,1.72303953 -5.26704414e-07,2.02933665 -5.26704414e-07,2.36039895 C-5.26704414e-07,2.52163059 0.0150802366,2.67540258 0.0430701981,2.82266081 C0.0721366965,2.96776929 0.117358678,3.10641774 0.178721286,3.23432818 C0.242236968,3.36331349 0.314358486,3.48047515 0.400481445,3.58688803 C0.483374793,3.69437579 0.582394663,3.78896502 0.694354509,3.87280547 C0.919350739,4.04263613 1.13250614,4.17592096 1.33489509,4.27588457 C1.43501303,4.32747869 1.54376479,4.37585893 1.66218386,4.42100379 C1.77844986,4.46829843 1.90223008,4.51338953 2.03033798,4.55745952 C2.30485491,4.64774922 2.53416805,4.72734393 2.71394973,4.80151046 C2.8937314,4.87030264 3.02399238,4.93365593 3.1090388,4.98310026 C3.19193215,5.03361955 3.25653513,5.09602694 3.30067315,5.17664276 C3.34373463,5.25188419 3.36739691,5.34213089 3.36739691,5.44424428 C3.36739691,5.65492026 3.28880971,5.82477243 3.13055877,5.94730847 C3.05197157,6.0085765 2.95508324,6.05586036 2.83774071,6.09025643 C2.72255126,6.12035301 2.58691837,6.1386152 2.43620319,6.1386152 C2.16060972,6.1386152 1.84732669,6.07304765 1.49206949,5.94513721 C1.13896536,5.81615191 0.741746897,5.62270621 0.303596346,5.36473557 C0.276682921,5.40988042 0.257295567,5.50119127 0.246530197,5.64092535 C0.233611753,5.77958457 0.230372454,5.96341015 0.235755139,6.19450883 C0.24221436,6.42453262 0.250844957,6.61264697 0.261610327,6.75668058 C0.275605308,6.90178906 0.291732908,7.00605217 0.314340185,7.06732019 C0.622229763,7.25112426 0.959206292,7.3919547 1.32415125,7.48654394 C1.68802075,7.58220807 2.07986945,7.62949194 2.50187194,7.62949194 C3.27590203,7.62949194 3.91535423,7.42742568 4.42025008,7.02434656 C4.67215972,6.82226959 4.861641,6.58041137 4.98436622,6.29449396 C5.10924452,6.00642673 5.1706179,5.67856759 5.1706179,5.30988459 C5.1706179,5.13038 5.15445906,4.96378471 5.1232395,4.80577774 C5.08879029,4.64884558 5.04250999,4.50267299 4.98007082,4.36831329 C4.91870825,4.23287872 4.84332913,4.11137455 4.75505308,4.00066216 C4.66677703,3.88887489 4.56558256,3.79216816 4.45362272,3.7083277 C4.34166288,3.62556213 4.23294341,3.5502992 4.12528971,3.48258191 C4.01871255,3.4159395 3.9142777,3.36218487 3.81308322,3.31489026 C3.71188874,3.27189515 3.60209274,3.22569691 3.48475021,3.18270181 C3.3652546,3.13755695 3.23608093,3.09241209 3.09613112,3.04834211 C2.84314493,2.96880117 2.62889254,2.89461312 2.45772316,2.82797071 C2.28332417,2.76025342 2.15201895,2.69902839 2.06266638,2.64420963 C1.97331381,2.58616624 1.90547045,2.51953458 1.86133244,2.44214339 C1.81611788,2.36260245 1.79353214,2.27011998 1.79353214,2.16155735 C1.79353214,2.05514446 1.81397558,1.96163011 1.85273091,1.8756399 C1.8904097,1.79287433 1.94636809,1.71870778 2.01741953,1.65743975 C2.09062405,1.59617173 2.17892161,1.55108061 2.28011609,1.52098404 C2.38131057,1.49303723 2.49434695,1.47794595 2.62353138,1.47794595 C2.8539103,1.47794595 3.137018,1.54244935 3.47397407,1.67035978 C3.80770053,1.80041997 4.19419884,1.99499431 4.63234939,2.25189006 C4.68832932,2.16160034 4.70983853,1.89288094 4.69907316,1.44573186 C4.69369047,1.22215732 4.68509971,1.03724828 4.67433434,0.889990051 C4.66033935,0.742731817 4.64418052,0.633111504 4.62157325,0.55894495 C4.30076524,0.37514088 3.97457453,0.23429107 3.63761845,0.140776718 C3.30066238,0.04403795 2.95508324,-1.20714128e-05 2.60197912,-1.20714128e-05 L2.6472152,0.0193414549 Z M11.0269683,0.0193414549 C10.4607206,0.0193414549 9.94397208,0.109611718 9.47998465,0.294490664 C9.01384413,0.480444487 8.60367277,0.757788704 8.24410945,1.1275466 C7.88562261,1.49730449 7.61541182,1.90899336 7.43670668,2.36151682 C7.25692502,2.81296541 7.16757245,3.30629123 7.16757245,3.83835565 C7.16757245,4.37042005 7.25692502,4.86384264 7.43670668,5.31421632 C7.61541182,5.76888954 7.88562261,6.18055693 8.24410945,6.54923993 C8.60367277,6.91792294 9.0149207,7.19525213 9.47998465,7.38013106 C9.94397208,7.56286027 10.4596441,7.65743875 11.0269683,7.65743875 C11.5943033,7.65743875 12.1099645,7.56286027 12.5739519,7.38013106 C13.0400924,7.19417722 13.450253,6.91684808 13.8087398,6.54923993 C14.1672267,6.17948202 14.4374375,5.76888954 14.6172191,5.31959072 C14.7970008,4.87136675 14.8863534,4.37906207 14.8863534,3.84807254 C14.8863534,3.31600813 14.7970008,2.82476757 14.6172191,2.37654361 C14.4374375,1.92831966 14.1672267,1.51770567 13.8087398,1.14794777 C13.450253,0.778192031 13.0390159,0.500887586 12.5739519,0.316008639 C12.1099645,0.130054815 11.5943033,0.0397447814 11.0269683,0.0397447814 L11.0269683,0.0193414549 Z M11.0269683,1.53167908 C11.5986094,1.53167908 12.0819745,1.74341921 12.4749105,2.17014562 C12.6708403,2.38189651 12.8204789,2.62807572 12.9195203,2.91076852 C13.0185617,3.19131158 13.0691589,3.5094861 13.0691589,3.86204595 C13.0691589,4.21353092 13.0185617,4.53168392 12.9195203,4.81115213 C12.8204789,5.09277006 12.6708403,5.33999187 12.4749105,5.55281767 C12.0830511,5.97846917 11.599686,6.19129496 11.0269683,6.19129496 C10.4542614,6.19129496 9.97196204,5.97954407 9.57794951,5.55281767 C9.38309631,5.33999187 9.23666576,5.09169515 9.13439473,4.81115213 C9.03427683,4.53168392 8.98478842,4.21353092 8.98478842,3.86204595 C8.98478842,3.5094861 9.03427683,3.19131158 9.13439473,2.91076852 C9.23666576,2.62700084 9.38309631,2.38189651 9.57794951,2.17014562 C9.97196204,1.74341921 10.4553379,1.53167908 11.0269683,1.53167908 Z M18.9362855,5.97952257 L18.9362855,0.185978546 C18.3420371,0.0860153598 17.7477887,0.0860153598 17.1513872,0.185978546 L17.1513872,7.46823879 L21.9538186,7.46823879 C21.9990332,7.21564254 22.0216405,6.96523905 22.0216405,6.7190921 C22.0216405,6.47079537 21.9990332,6.22566953 21.9538186,5.97952257 L18.9362855,5.97952257 Z M28.3828975,4.69076585 C28.3828975,4.90896599 28.3559841,5.1045722 28.3000041,5.27977726 C28.2429477,5.45283254 28.1579013,5.60766865 28.047018,5.74202834 C27.9361347,5.87638807 27.800491,5.97953332 27.6411635,6.04617574 C27.4839891,6.11389301 27.3020544,6.14616081 27.0932062,6.14616081 C26.8865111,6.14616081 26.7024233,6.11389301 26.5441723,6.04617574 C26.3859214,5.97845842 26.2524308,5.87638807 26.1393944,5.74202834 C26.0274346,5.60766865 25.9423882,5.45283254 25.8874848,5.27977726 C25.8315048,5.1045722 25.8035149,4.90896599 25.8035149,4.69076585 L25.8035149,0.185978546 C25.4956253,0.135459299 25.1877358,0.111779746 24.8841523,0.111779746 C24.5794924,0.111779746 24.278062,0.135459299 23.973402,0.185978546 L23.973402,4.4091264 C23.973402,5.48615375 24.2317709,6.29339755 24.7495852,6.8297615 C25.2652464,7.36720031 26.0435826,7.63591969 27.0824408,7.63591969 C28.1202225,7.63591969 28.8985587,7.36720031 29.4142199,6.8297615 C29.9309577,6.29339755 30.1904031,5.48615375 30.1904031,4.4091264 L30.1904031,0.185978546 C29.881437,0.135459299 29.574624,0.111779746 29.2710405,0.111779746 C28.9674571,0.111779746 28.6638736,0.135459299 28.3602902,0.185978546 L28.3828975,4.69076585 Z M32.3424005,0.185978546 C32.297186,0.432125515 32.2745787,0.680399666 32.2745787,0.928696392 C32.2745787,1.17484121 32.297186,1.42314868 32.3424005,1.67574492 L34.3167693,1.67574492 L34.3167693,7.46823879 C34.9120943,7.56820241 35.5063427,7.56820241 36.1005911,7.46823879 L36.1005911,1.67574492 L38.0760365,1.67574492 C38.121251,1.42959795 38.1438583,1.1823761 38.1438583,0.934076154 C38.1438583,0.687929184 38.121251,0.438574781 38.0760365,0.185978546 L32.3424005,0.185978546 Z M42.0463048,0.185978546 C41.4520564,0.0860153598 40.857808,0.0860153598 40.2635596,0.185978546 L40.2635596,7.46823879 C40.857808,7.56820241 41.4520564,7.56820241 42.0463048,7.46823879 L42.0463048,0.185978546 Z M48.1621116,0.0193414549 C47.5947764,0.0193414549 47.0791151,0.109611718 46.6140511,0.294490664 C46.1479108,0.480444487 45.7377503,0.757788704 45.3792634,1.1275466 C45.0197001,1.49730449 44.7505657,1.90899336 44.5707841,2.36151682 C44.3910024,2.81296541 44.3005733,3.30629123 44.3005733,3.83835565 C44.3005733,4.37042005 44.3910024,4.86384264 44.5707841,5.31421632 C44.7505657,5.76888954 45.0197001,6.18055693 45.3792634,6.54923993 C45.7377503,6.91792294 46.1489875,7.19525213 46.6140511,7.38013106 C47.0791151,7.56286027 47.5936997,7.65743875 48.1621116,7.65743875 C48.7272934,7.65743875 49.2440309,7.56286027 49.709095,7.38013106 C50.1752357,7.19417722 50.5843195,6.91684808 50.9438832,6.54923993 C51.3034464,6.17948202 51.573657,5.76888954 51.7512859,5.31959072 C51.9310673,4.87136675 52.0204199,4.37906207 52.0204199,3.84807254 C52.0204199,3.31600813 51.9310673,2.82476757 51.7512859,2.37654361 C51.573657,1.92831966 51.3034464,1.51770567 50.9438832,1.14794777 C50.5843195,0.778192031 50.174159,0.500887586 49.709095,0.316008639 C49.2440309,0.130054815 48.7283701,0.0397447814 48.1621116,0.0397447814 L48.1621116,0.0193414549 Z M48.1621116,1.53167908 C48.7337527,1.53167908 49.2160412,1.74341921 49.6100535,2.17014562 C49.8059835,2.38189651 49.9545456,2.62807572 50.0546634,2.91076852 C50.1537049,3.19131158 50.2043021,3.5094861 50.2043021,3.86204595 C50.2043021,4.21353092 50.1537049,4.53168392 50.0546634,4.81115213 C49.9545456,5.09277006 49.8059835,5.33999187 49.6100535,5.55281767 C49.2160412,5.97846917 48.734829,6.19129496 48.1621116,6.19129496 C47.5893938,6.19129496 47.1071053,5.97954407 46.7141693,5.55281767 C46.517163,5.33999187 46.3696772,5.09169515 46.2684827,4.81115213 C46.1683649,4.53168392 46.1188444,4.21353092 46.1188444,3.86204595 C46.1188444,3.5094861 46.1683649,3.19131158 46.2684827,2.91076852 C46.3696772,2.62700084 46.517163,2.38189651 46.7141693,2.17014562 C47.1060286,1.74341921 47.5883171,1.53167908 48.1621116,1.53167908 Z M60.8383346,0.185978546 C60.2440859,0.0860153598 59.6498377,0.0860153598 59.0555891,0.185978546 L59.0555891,4.45426051 L55.6558855,0.185978546 C55.4255065,0.147282953 55.1929744,0.12680331 54.9572128,0.12680331 C54.7246808,0.12680331 54.4889191,0.147282953 54.2542341,0.185978546 L54.2542341,7.46823879 C54.8484828,7.56820241 55.442731,7.56820241 56.0380559,7.46823879 L56.0380559,3.1998891 L59.4366831,7.46823879 C59.6670622,7.50693439 59.8995942,7.52525029 60.1342792,7.52525029 C60.3689642,7.52525029 60.6047258,7.50693439 60.8383346,7.46823879 L60.8383346,0.185978546 Z M65.6838275,0.0193414549 C65.2758199,0.0193414549 64.9087207,0.0741917063 64.5836065,0.185978546 C64.2595689,0.297765816 63.9796693,0.466516226 63.7460606,0.690090766 C63.5092227,0.91474018 63.3337472,1.16625294 63.2153282,1.44357136 C63.0990622,1.72303953 63.0376994,2.02933665 63.0376994,2.36039895 C63.0376994,2.52163059 63.0538476,2.67540258 63.080761,2.82266081 C63.1109041,2.96776929 63.1550421,3.10641774 63.2174812,3.23432818 C63.2799203,3.36331349 63.3531247,3.48047515 63.4381713,3.58688803 C63.5221413,3.69437579 63.6222591,3.78896502 63.7342187,3.87280547 C63.9581385,4.04263613 64.1702164,4.17592096 64.3726053,4.27588457 C64.4737998,4.32747869 64.5825302,4.37585893 64.7009492,4.42100379 C64.8161385,4.46829843 64.9399405,4.51338953 65.0702014,4.55745952 C65.3436417,4.64774922 65.572944,4.72734393 65.7516492,4.80151046 C65.931431,4.87030264 66.0616919,4.93365593 66.1467381,4.98310026 C66.2307081,5.03361955 66.2953001,5.09602694 66.3394385,5.17664276 C66.3824998,5.25188419 66.4051073,5.34213089 66.4051073,5.44424428 C66.4051073,5.65492026 66.3275966,5.82477243 66.1693456,5.94730847 C66.0907583,6.0085765 65.9938701,6.05586036 65.8754507,6.09025643 C65.7602614,6.12035301 65.6256942,6.1386152 65.4739025,6.1386152 C65.1993855,6.1386152 64.8850369,6.07304765 64.5297796,5.94513721 C64.1766757,5.81615191 63.7815863,5.62270621 63.3423595,5.36473557 C63.3143693,5.40988042 63.2949919,5.50119127 63.28315,5.64092535 C63.2723843,5.77958457 63.2691547,5.96341015 63.2745377,6.19450883 C63.2799203,6.42453262 63.2896093,6.61264697 63.3003745,6.75668058 C63.3132931,6.90178906 63.3294409,7.00605217 63.3531247,7.06732019 C63.6610144,7.25112426 63.9979705,7.3919547 64.3618401,7.48654394 C64.7267859,7.58220807 65.1197219,7.62949194 65.540648,7.62949194 C66.3157547,7.62949194 66.9541409,7.42742568 67.4590369,7.02434656 C67.7109464,6.82226959 67.9014934,6.58041137 68.0231421,6.29449396 C68.149097,6.00642673 68.2115361,5.67856759 68.2115361,5.30988459 C68.2115361,5.13038 68.1943116,4.96378471 68.1620156,4.80577774 C68.1286429,4.64884558 68.0823515,4.50267299 68.0199124,4.36831329 C67.9574733,4.23287872 67.8831923,4.11137455 67.7938397,4.00066216 C67.7055638,3.88887489 67.6043693,3.79216816 67.4924097,3.7083277 C67.3804496,3.62556213 67.2717196,3.5502992 67.165142,3.48258191 C67.0574887,3.4159395 66.9541409,3.36218487 66.8529464,3.31489026 C66.7517519,3.27189515 66.6430219,3.22569691 66.5235263,3.18270181 C66.4040306,3.13755695 66.274846,3.09241209 66.1348962,3.04834211 C65.8829867,2.96880117 65.6687559,2.89461312 65.4965101,2.82797071 C65.3242638,2.7613283 65.1929267,2.69902839 65.1035741,2.64420963 C65.0131448,2.58616624 64.9463994,2.51953458 64.9011852,2.44214339 C64.8570468,2.36260245 64.833363,2.27011998 64.833363,2.16155735 C64.833363,2.05514446 64.8527409,1.96163011 64.8925725,1.8756399 C64.9291749,1.79287433 64.9851547,1.71870778 65.0583595,1.65743975 C65.1304875,1.59617173 65.2187634,1.55108061 65.3199579,1.52098404 C65.4200756,1.49303723 65.5341887,1.47794595 65.6622966,1.47794595 C65.8937519,1.47794595 66.1758049,1.54244935 66.5116844,1.67035978 C66.8464871,1.80041997 67.2340405,1.99499431 67.6711148,2.25189006 C67.7270947,2.16160034 67.7497017,1.89288094 67.7389365,1.44573186 C67.733554,1.22215732 67.723865,1.03724828 67.7130994,0.889990051 C67.7001812,0.742731817 67.684033,0.633111504 67.6603492,0.55894495 C67.3406175,0.37514088 67.0122741,0.23429107 66.6774709,0.140776718 C66.3405148,0.04403795 65.9949464,-1.20714128e-05 65.6407658,-1.20714128e-05 L65.6838275,0.0193414549 Z" id="path5_fill"></path>
                    </g>
                </g>
            </g>
        </g>
    </g>
</svg>