<?xml version="1.0" encoding="UTF-8"?>
<svg width="24px" height="24px" viewBox="0 0 24 24" version="1.1" xmlns="http://www.w3.org/2000/svg" xmlns:xlink="http://www.w3.org/1999/xlink">
    <!-- Generator: Sketch 49.1 (51147) - http://www.bohemiancoding.com/sketch -->
    <title>icons/general/24px/social/telegram</title>
    <desc>Created with Sketch.</desc>
    <defs></defs>
    <g id="icons/general/24px/social/telegram" stroke="none" stroke-width="1" fill="none" fill-rule="evenodd">
        <g fill="#FFFFFF" fill-rule="nonzero" id="Shape">
            <path d="M20.5528199,3.35 L1.98061496,10.7724375 C1.37905817,11.012875 1.41550139,11.8981875 2.0347313,12.0856875 L6.75412742,13.5149375 L8.5154072,19.2465625 C8.69939058,19.84525 9.43916343,20.02675 9.86740166,19.5783125 L12.3074515,17.0231875 L17.0950416,20.62725 C17.6809363,21.0683125 18.5153518,20.740625 18.6641108,20.0110625 L21.8349751,4.4635625 C21.9902548,3.702 21.2596842,3.0675 20.5528199,3.35 Z M18.2243546,6.800375 L9.59767313,14.624 C9.51168421,14.702 9.45695845,14.8099375 9.44416066,14.9269375 L9.1120277,17.9549375 C9.10118006,18.0536875 8.96643767,18.06675 8.93767313,17.971875 L7.57117452,13.4560625 C7.50858726,13.2493125 7.59018837,13.0253125 7.76954017,12.91125 L17.956759,6.4315 C18.1910194,6.282375 18.4308864,6.613125 18.2243546,6.800375 Z"></path>
        </g>
    </g>
</svg>