<?xml version="1.0" encoding="UTF-8"?>
<svg width="32px" height="32px" viewBox="0 0 32 32" version="1.1" xmlns="http://www.w3.org/2000/svg" xmlns:xlink="http://www.w3.org/1999/xlink">
    <!-- Generator: Sketch 49.1 (51147) - http://www.bohemiancoding.com/sketch -->
    <title>icons/general/32px/trust</title>
    <desc>Created with Sketch.</desc>
    <defs></defs>
    <g id="icons/general/32px/trust" stroke="none" stroke-width="1" fill="none" fill-rule="evenodd">
        <g id="icons/general/32/trust">
            <g id="Group" transform="translate(0.000000, 5.500000)">
                <path d="M26.7914111,11.9839533 L17.0108105,5.52509829 L14.4906558,4.10218888 C14.3386465,4.01566061 14.1626356,3.9695122 13.9846247,3.9695122 L9.94437662,3.9695122 C9.57035365,3.9695122 9.22633253,4.16948865 9.05632209,4.49060469 L4.75605802,12.5069686 C4.53204427,12.9280729 4.65605188,13.4395511 5.05007608,13.7222102 L12.9725626,19.3561623 C13.858617,19.9849344 14.9146818,20.298359 15.9687466,20.298359 C17.0408124,20.298359 18.108878,19.9733973 18.9949324,19.3253966 L26.8354138,13.5376165 C27.0894294,13.3491772 27.2334383,13.0569039 27.2254378,12.7492478 C27.2174373,12.4435145 27.0554273,12.1589327 26.7914111,11.9839533 Z" id="Shape" fill="#6743DF" fill-rule="nonzero"></path>
                <path d="M26.9680436,12.3377578 L22.7657855,4.49060469 C22.5957751,4.16948865 22.2537541,3.9695122 21.8797311,3.9695122 L17.839483,3.9695122 C17.5734667,3.9695122 17.3194511,4.07142327 17.1314395,4.25024837 L11.1310711,10.0188 C10.7670487,10.3706817 10.739047,10.932154 11.0690673,11.3128784 L11.8511153,12.218541 C12.7611712,13.2684174 14.3152666,13.5645364 15.543342,12.9357643 L17.7274761,11.8416623 L22.659779,15.6066037 C22.8417902,15.7450489 23.0598036,15.8142716 23.2818172,15.8142716 C23.4958304,15.8142716 23.7138437,15.7488946 23.8938548,15.6142951 L26.6940267,13.5376165 C27.07205,13.2549575 27.1900572,12.7473249 26.9680436,12.3377578 Z" id="Shape" fill="#BFB1EC" fill-rule="nonzero"></path>
                <path d="M10.4487202,1.54367401 L7.448536,0.101536102 C6.95450567,-0.134974515 6.35446882,0.0553876892 6.10645359,0.530331774 L0.10608513,12.067435 C-0.1419301,12.5423791 0.0600823051,13.1192343 0.554112642,13.3576678 L3.55429687,14.7998057 C3.69630559,14.8690283 3.84831493,14.9017167 4.00032426,14.9017167 C4.36834686,14.9017167 4.72036848,14.705586 4.89637928,14.37101 L10.8967477,2.83390673 C11.1427629,2.35896264 10.9427506,1.78018463 10.4487202,1.54367401 Z" id="Shape" fill="#BFB1EC" fill-rule="nonzero"></path>
                <path d="M31.5410317,12.0693105 L25.5406633,0.532207217 C25.292648,0.0553402816 24.6946113,-0.135021922 24.1985808,0.101488695 L21.1983966,1.5436266 C20.7043663,1.78206007 20.504354,2.35891523 20.7503691,2.83385932 L26.7507376,14.3709626 C26.9267484,14.7074614 27.2807701,14.9016693 27.6447925,14.9016693 C27.7948017,14.9016693 27.946811,14.8689809 28.09282,14.7997583 L31.0930042,13.3576204 C31.5890347,13.1211097 31.7870468,12.5442546 31.5410317,12.0693105 Z" id="Shape" fill="#6743DF" fill-rule="nonzero"></path>
            </g>
        </g>
    </g>
</svg>