<?xml version="1.0" encoding="UTF-8"?>
<svg width="24px" height="24px" viewBox="0 0 24 24" version="1.1" xmlns="http://www.w3.org/2000/svg" xmlns:xlink="http://www.w3.org/1999/xlink">
    <!-- Generator: Sketch 49.1 (51147) - http://www.bohemiancoding.com/sketch -->
    <title>icons/general/24px/social/twitter</title>
    <desc>Created with Sketch.</desc>
    <defs></defs>
    <g id="icons/general/24px/social/twitter" stroke="none" stroke-width="1" fill="none" fill-rule="evenodd">
        <g fill="#FFFFFF" fill-rule="nonzero" id="Shape">
            <path d="M21.1799769,6.45442476 C21.7235731,5.95074132 22.131066,5.31438777 22.3636949,4.60589412 C22.3926828,4.51181499 22.3603588,4.40940463 22.2828902,4.34988511 C22.2054216,4.29036559 22.0994615,4.28653155 22.0180073,4.34030063 C21.3292516,4.74013577 20.5888292,5.04049925 19.8181775,5.23269474 L19.6819976,5.23269474 C19.5366989,5.22580466 19.398877,5.16536194 19.2944085,5.06271491 C18.4535712,4.36324318 17.3963655,3.98704022 16.3089251,4.00034098 C15.8229169,4.00015657 15.3394712,4.07173213 14.8737981,4.21281576 C13.4222385,4.6395084 12.2997151,5.81022539 11.9197409,7.29370016 C11.7881761,7.82462631 11.7526834,8.37535552 11.8149871,8.91913228 C11.8324778,8.95977612 11.8324778,9.0059733 11.8149871,9.04661715 C11.782386,9.08156701 11.7367082,9.100869 11.6892825,9.09973584 C8.52142436,8.83576263 5.58641479,7.30735334 3.52896133,4.85024012 C3.48353592,4.78787412 3.41162012,4.75107442 3.3351668,4.75107442 C3.25871348,4.75107442 3.18679767,4.78787412 3.14137227,4.85024012 C2.74293059,5.5164035 2.53274735,6.28083932 2.53380021,7.0599779 C2.52581946,8.26707723 3.01575677,9.42260309 3.88512426,10.2470997 C3.52021286,10.1640706 3.16790425,10.0318702 2.83758624,9.85402134 C2.76573078,9.81856995 2.68121891,9.82155509 2.61196959,9.86199058 C2.54272027,9.90242608 2.49774391,9.97505066 2.49189869,10.0558724 C2.49540767,11.8250003 3.54375887,13.4197983 5.15264526,14.1035171 L5.00598994,14.1035171 C4.74938143,14.102528 4.49340501,14.0776346 4.24128718,14.0291509 C4.1607286,14.0100591 4.07626028,14.0362232 4.01996729,14.097705 C3.96367431,14.1591868 3.94419453,14.2465522 3.9689273,14.3266156 C4.5155715,15.9245776 5.89162819,17.0827574 7.54103194,17.3331338 C6.14802697,18.2417329 4.52523339,18.7214436 2.86901238,18.7142199 L2.34524337,18.7142199 C2.18966103,18.7130211 2.05245949,18.8173796 2.01003121,18.9691897 C1.97273111,19.1205769 2.04184167,19.278278 2.17763729,19.3516443 C4.08565859,20.4329555 6.23524925,20.9999108 8.42096387,20.9983239 C10.248744,21.0278952 12.0620972,20.6658805 13.742457,19.9359499 C15.2210964,19.2695691 16.547838,18.3002075 17.6392984,17.0887878 C18.6677772,15.9512439 19.4777855,14.6289491 20.0276851,13.1898755 C20.5506498,11.8353554 20.8240468,10.3949967 20.8342894,8.94037975 L20.8342894,8.82351862 C20.8407449,8.59695157 20.9487331,8.3857391 21.1276,8.2498367 C21.8320952,7.7036628 22.4502755,7.05164997 22.9607916,6.31631615 C23.0190733,6.2284027 23.011763,6.11172818 22.9429779,6.03200324 C22.8741927,5.95227831 22.761136,5.92944234 22.6674809,5.97635649 C22.1870959,6.18148506 21.6891769,6.34151102 21.1799769,6.45442476 L21.1799769,6.45442476 Z"></path>
        </g>
    </g>
</svg>