<?xml version="1.0" encoding="UTF-8"?>
<svg width="32px" height="32px" viewBox="0 0 32 32" version="1.1" xmlns="http://www.w3.org/2000/svg" xmlns:xlink="http://www.w3.org/1999/xlink">
    <!-- Generator: Sketch 49.1 (51147) - http://www.bohemiancoding.com/sketch -->
    <title>icons/general/32px/user-experience</title>
    <desc>Created with Sketch.</desc>
    <defs></defs>
    <g id="icons/general/32px/user-experience" stroke="none" stroke-width="1" fill="none" fill-rule="evenodd">
        <g id="icons/general/32/user-experience">
            <path d="M24.2653061,11.1304348 C22.5746385,11.1304348 21.2040816,9.76782315 21.2040816,8.08695652 C21.2040816,6.40608989 22.5746385,5.04347826 24.2653061,5.04347826 C25.9559737,5.04347826 27.3265306,6.40608989 27.3265306,8.08695652 C27.3265306,9.76782315 25.9559737,11.1304348 24.2653061,11.1304348 Z M17.4576803,13.6968788 C17.4576803,16.7940234 14.9302508,19.3068011 11.815047,19.3068011 C8.69984326,19.3068011 6.17241379,16.7940234 6.17241379,13.6968788 C6.17241379,10.5997342 8.69984326,8.08695652 11.815047,8.08695652 C14.9302508,8.08695652 17.4576803,10.5997342 17.4576803,13.6968788 Z" id="Combined-Shape" fill="#BFB1EC" fill-rule="evenodd"></path>
            <path d="M29.1127553,9.0895958 C29.1607814,8.89478447 29.1607814,8.65031565 29.1607814,8.40584683 C29.1607814,8.16137801 29.1607814,7.96656716 29.1127553,7.72209834 L30.4882265,6.74422305 C30.6361472,6.6449076 30.6860942,6.45009626 30.5881211,6.30303311 L29.2587551,4.05506603 C29.1607814,3.90800238 29.0128608,3.8583449 28.866861,3.90800238 L27.3415477,4.64140885 C26.9976798,4.34728254 26.6038649,4.1524712 26.1620238,3.95575057 L26.0141026,2.29412631 C26.0141026,2.14706315 25.866182,2 25.7182613,2 L23.1113977,2 C22.965398,2 22.8174768,2.14706315 22.8174768,2.29412631 L22.6196091,4.00540805 C22.1777675,4.1524712 21.8338996,4.39694003 21.4400847,4.68915703 L19.9147719,4.00540805 C19.7687721,3.95575057 19.5709039,4.00540805 19.5228778,4.1524712 L18.1935118,6.40043878 C18.0955382,6.54750193 18.1454852,6.74422305 18.2934064,6.84162823 L19.6688776,7.81950352 C19.620851,8.01431485 19.620851,8.25878367 19.620851,8.50325249 C19.620851,8.74772132 19.620851,8.94444244 19.6688776,9.18891126 L18.2934064,10.1667865 C18.1454852,10.2641917 18.1454852,10.4590031 18.1935118,10.6060662 L19.5228778,12.8559436 C19.620851,13.0010969 19.7687721,13.0507544 19.9147719,13.0010969 L21.4400847,12.317348 C21.7839526,12.6114748 22.1777675,12.8062856 22.6196091,13.0010969 L22.7675298,14.6646305 C22.7675298,14.8116941 22.9154504,14.9568475 23.0633711,14.9568475 L25.6702352,14.9568475 C25.8162349,14.9568475 25.9641556,14.8116941 25.9641556,14.6646305 L26.1120763,13.0010969 C26.5539178,12.8559436 26.8997067,12.6114748 27.2916007,12.317348 L28.8169135,13.0010969 C28.9648342,13.0507544 29.1607814,13.0010969 29.2107285,12.8559436 L30.5381736,10.6060662 C30.6361472,10.4590031 30.5881211,10.2641917 30.4401999,10.1667865 L29.1127553,9.0895958 Z M21.9318733,8.40584683 C21.9318733,7.03643957 23.0134241,5.96115862 24.3908162,5.96115862 C25.7682083,5.96115862 26.8497592,7.03643957 26.8497592,8.40584683 C26.8497592,9.77525408 25.7682083,10.850535 24.3908162,10.850535 C23.0134241,10.850535 21.9318733,9.77525408 21.9318733,8.40584683 Z M11.4431143,20.8275862 C15.6229662,20.8275862 18.6709708,22.258279 20.6834161,25.1312681 C21.4026732,26.1580875 21.9060954,27.7213531 21.9060954,28.9695575 L21.9060979,29.4292419 C21.9060979,29.737745 21.6526307,29.9878398 21.3399631,29.9878398 L1.56613484,29.9878398 C1.2534672,29.9878398 1,29.737745 1,29.4292374 L1,28.9695637 C1,27.721362 1.48355127,26.1580981 2.20280535,25.1312783 C4.21525015,22.2582826 7.26325718,20.8275862 11.4431143,20.8275862 Z" id="Combined-Shape" fill="#6743DF" fill-rule="nonzero"></path>
        </g>
    </g>
</svg>