<svg width="138px" height="137px" viewBox="0 0 138 137" version="1.1" xmlns="http://www.w3.org/2000/svg" xmlns:xlink="http://www.w3.org/1999/xlink">
    <!-- Generator: Sketch 49.1 (51147) - http://www.bohemiancoding.com/sketch -->
    <desc>Created with Sketch.</desc>
    <defs>
        <linearGradient x1="50%" y1="-2.48949813e-15%" x2="50%" y2="100%" id="linearGradient-1">
            <stop stop-color="#FFFFFF" offset="0%"></stop>
            <stop stop-color="#FFFFFF" stop-opacity="0" offset="100%"></stop>
        </linearGradient>
    </defs>
    <g id="Page-1" stroke="none" stroke-width="1" fill="none" fill-rule="evenodd">
        <g id="Splashscreen-Copy-9" transform="translate(-119.000000, -266.000000)" fill="url(#linearGradient-1)" fill-rule="nonzero">
            <g id="icons8-spy-filled" transform="translate(119.000000, 266.000000)">
                <path d="M51.5858883,0 C37.3399395,0 30.9497344,24.7349226 25.8957633,45.38125 C8.72950178,49.2557826 0.033221354,54.714375 0.033221354,61.65 C0.033221354,68.2752351 8.41699675,73.3592201 20.9818803,76.805625 C20.690926,77.7796101 20.4646295,78.9248451 20.4646295,80.31625 C20.4646295,81.8360951 20.7771345,83.5057826 21.3267142,85.2825 C15.8632516,88.2686726 8.01828049,93.8985149 0.550472193,104.12 C0.119429827,104.719375 -0.0853154345,105.447187 0.033221354,106.175 C0.151758143,106.902812 0.636680666,107.555702 1.24013998,107.973125 L25.8095548,125.269375 L19.9473787,132.5475 C19.2900397,133.37164 19.1499517,134.506173 19.6025448,135.45875 C20.0551406,136.400625 21.0465381,137 22.1025905,137 L115.897409,137 C115.918963,137 115.962067,137 115.983618,137 C117.51382,137 118.742289,135.779845 118.742289,134.26 C118.742289,133.43586 118.375904,132.708048 117.793996,132.205 L112.190445,125.269375 L136.75986,107.973125 C137.363319,107.545 137.848241,106.89211 137.966778,106.175 C138.085316,105.447187 137.88057,104.719375 137.449528,104.12 C129.981719,93.8878125 122.125973,88.2686726 116.673286,85.2825 C117.233641,83.4415625 117.53537,81.6113274 117.53537,79.97375 C117.53537,78.6572649 117.362953,77.6511726 117.104328,76.72 C129.615332,73.2735951 137.966778,68.2538274 137.966778,61.65 C137.966778,54.714375 129.281276,49.2557826 112.104236,45.38125 L111.845611,44.439375 C111.102064,41.528125 110.315412,38.5633601 109.517982,35.62 C109.517982,35.5450774 109.517982,35.44875 109.517982,35.363125 L109.431774,35.363125 C104.539444,17.3176576 98.4294181,0 86.4141115,0 C82.3084336,0 79.2588082,1.5840625 76.5863455,2.996875 C74.0970752,4.31336006 71.931088,5.48 68.9999999,5.48 C66.0689118,5.48 63.9029246,4.31336006 61.4136543,2.996875 C58.7411916,1.5840625 55.6915662,0 51.5858883,0 Z M32.4476073,41.699375 C39.3227344,46.8796875 54.5816341,49.32 68.9999999,49.32 C83.3429353,49.32 98.4294181,46.9225 105.466184,41.870625 C105.800243,43.1764076 106.177405,44.4607826 106.500686,45.72375 L107.276562,48.635 C106.123523,51.9850774 91.8021411,57.54 68.9999999,57.54 C46.2194122,57.54 31.984236,51.9850774 30.8096463,48.635 L30.8958548,48.2925 C31.4023302,46.2375 31.8549233,44.0219524 32.4476073,41.699375 Z M26.3268057,78.09 C30.1954116,78.94625 34.3010894,79.6419524 38.6546173,80.230625 L38.6546173,81.086875 C38.6546173,88.0010951 43.4176369,95.5682024 52.2755561,95.9 C52.5772858,95.9214076 52.9221196,95.9 53.2238493,95.9 C56.564429,95.9 59.6571559,94.9795326 61.9309051,93.245625 C63.9029246,91.7364851 66.2413288,88.8359375 66.2413288,83.826875 L66.2413288,82.2 C67.1680712,82.2107024 68.0732602,82.2 68.9999999,82.2 C69.9159642,82.2 70.8427067,82.2107024 71.758671,82.2 L71.758671,83.826875 C71.758671,92.1753125 78.2889643,95.9 84.7761505,95.9 C85.0778801,95.9 85.3688344,95.9214076 85.6382352,95.9 C94.5284833,95.5682024 99.3453825,88.0010951 99.3453825,81.086875 L99.3453825,80.230625 C103.731239,79.6419524 107.869246,78.94625 111.759403,78.09 C111.910269,78.5930476 112.018028,79.1389076 112.018028,79.97375 C112.018028,81.4400774 111.651643,83.1311726 111.069735,84.683125 C109.873592,87.8940625 107.686054,90.7732024 105.379976,91.019375 L103.742015,91.190625 L103.138555,92.64625 C95.2935842,111.986798 85.1640886,131.808985 68.9999999,131.52 C52.0815884,131.263125 41.434842,109.418048 34.8614445,92.98875 L34.2579852,91.4475 L32.6200242,91.27625 C30.5941251,91.0514851 28.2233921,88.0225 26.930265,84.683125 C26.3591345,83.2060951 25.9819718,81.6969524 25.9819718,80.31625 C25.9819718,79.3208601 26.132838,78.5930476 26.3268057,78.09 Z" id="Shape"></path>
            </g>
        </g>
    </g>
</svg>