<?xml version="1.0" encoding="UTF-8"?>
<svg width="24px" height="24px" viewBox="0 0 24 24" version="1.1" xmlns="http://www.w3.org/2000/svg" xmlns:xlink="http://www.w3.org/1999/xlink">
    <!-- Generator: Sketch 49.1 (51147) - http://www.bohemiancoding.com/sketch -->
    <title>icons/general/24px/social/wechat</title>
    <desc>Created with Sketch.</desc>
    <defs></defs>
    <g id="icons/general/24px/social/wechat" stroke="none" stroke-width="1" fill="none" fill-rule="evenodd">
        <g fill="#FFFFFF" fill-rule="nonzero" id="Combined-Shape">
            <path d="M16.7006523,8.08867056 C16.7501094,8.23494393 16.7271641,8.39693224 16.639293,8.5224743 C16.5487148,8.64468692 16.4087656,8.71700234 16.259793,8.71851168 L16.125043,8.7118972 C11.8286406,8.7118972 8.33339063,11.6865514 8.33339063,15.3411659 C8.33648438,15.7617407 8.38628516,16.1805397 8.48189063,16.5893505 C8.49396484,16.6425327 8.49705859,16.6974907 8.491,16.7517827 C8.46199609,17.0115678 8.23464844,17.1978832 7.98319531,17.1679626 C7.28959375,17.0884112 6.60712109,16.927 5.94909766,16.6868808 L3.52359766,18.1197383 C3.38820313,18.2026636 3.22109766,18.2079907 3.08101953,18.1338995 C2.85569141,18.0147056 2.76657422,17.7293949 2.88194531,17.4966005 L3.82884766,15.54 C2.09200781,14.3188949 1.03721094,12.3025421 1,10.1324136 C1,6.21543925 4.59790234,3.02960981 9.02084766,3.02960981 C12.5903477,3.02960981 15.67675,5.06194393 16.7006523,8.08867056 Z M6.04165234,5.87073131 C5.28226563,5.87073131 4.66665234,6.50674299 4.66665234,7.29129206 C4.66665234,8.07584112 5.28226563,8.7118528 6.04165234,8.7118528 C6.80103906,8.7118528 7.41665234,8.07584112 7.41665234,7.29129206 C7.41665234,6.50674299 6.80103906,5.87073131 6.04165234,5.87073131 Z M11.5416523,5.87073131 C10.7822656,5.87073131 10.1666523,6.50674299 10.1666523,7.29129206 C10.1666523,8.07584112 10.7822656,8.7118528 11.5416523,8.7118528 C12.3010391,8.7118528 12.9166523,8.07584112 12.9166523,7.29129206 C12.9166523,6.50674299 12.3010391,5.87073131 11.5416523,5.87073131 Z M23,15.3411215 C22.9357617,17.137021 22.0015352,18.7791449 20.514,19.7107664 L21.1364023,21.32075 C21.1851289,21.4464252 21.179457,21.5876822 21.1207617,21.708785 C21.0074531,21.9426449 20.7321094,22.0372897 20.50575,21.9202266 L18.2333477,20.7468435 C17.5446016,20.9301846 16.8362188,21.0230981 16.125,21.0233645 C12.3336523,21.0233645 9.25,18.4748785 9.25,15.3411215 C9.25,12.2073645 12.3336523,9.6588785 16.125,9.6588785 C19.9163477,9.6588785 23,12.2073645 23,15.3411215 Z M13.8333477,12.5 C13.3270898,12.5 12.9166953,12.923993 12.9166953,13.4470257 C12.9166953,13.9700584 13.3270898,14.3940514 13.8333477,14.3940514 C14.3396055,14.3940514 14.75,13.9700584 14.75,13.4470257 C14.75,12.923993 14.3396055,12.5 13.8333477,12.5 Z M18.4166523,12.5 C17.9103945,12.5 17.5,12.923993 17.5,13.4470257 C17.5,13.9700584 17.9103945,14.3940514 18.4166523,14.3940514 C18.9229102,14.3940514 19.3333047,13.9700584 19.3333047,13.4470257 C19.3333477,12.923993 18.9229102,12.5 18.4166523,12.5 Z"></path>
        </g>
    </g>
</svg>