<?xml version="1.0" encoding="utf-8"?>
<svg viewBox="0 0 16 16" xmlns="http://www.w3.org/2000/svg"><path fill="#5A659B" d="M15.974 11.991c0 .35-.098.674-.256.96l-5.044-5.636 4.989-4.359c.194.308.311.67.311 1.06v7.975zM7.987 8.338l6.942-6.065a1.974 1.974 0 0 0-.952-.252H1.997c-.347 0-.668.096-.951.252l6.941 6.065zm1.935-.367L8.316 9.376a.499.499 0 0 1-.658 0L6.051 7.971.944 13.68c.306.192.665.307 1.053.307h11.98c.388 0 .747-.115 1.053-.307L9.922 7.97zM.311 2.956A1.978 1.978 0 0 0 0 4.016v7.975c0 .35.098.674.256.96L5.3 7.314.311 2.956z"/></svg>