<?xml version="1.0" encoding="UTF-8"?>
<svg width="546px" height="348px" viewBox="0 0 546 348" version="1.1" xmlns="http://www.w3.org/2000/svg" xmlns:xlink="http://www.w3.org/1999/xlink">
    <!-- Generator: Sketch 49.1 (51147) - http://www.bohemiancoding.com/sketch -->
    <title>Group</title>
    <desc>Created with Sketch.</desc>
    <defs>
        <filter x="-22.2%" y="-45.6%" width="144.4%" height="191.3%" filterUnits="objectBoundingBox" id="filter-1">
            <feGaussianBlur stdDeviation="31.2581232" in="SourceGraphic"></feGaussianBlur>
        </filter>
        <filter x="-24.2%" y="-45.8%" width="148.5%" height="191.6%" filterUnits="objectBoundingBox" id="filter-2">
            <feGaussianBlur stdDeviation="12.0887769" in="SourceGraphic"></feGaussianBlur>
        </filter>
    </defs>
    <g id="Page-1" stroke="none" stroke-width="1" fill="none" fill-rule="evenodd">
        <g id="Services-Copy-4" transform="translate(-827.000000, -80.000000)">
            <g id="Group" transform="translate(858.000000, 152.000000)">
                <polygon id="Rectangle-2_Top_Isometric-Copy-6" fill="#9793E2" opacity="0.803894928" filter="url(#filter-1)" transform="translate(242.010190, 102.720000) scale(-1, 1) translate(-242.010190, -102.720000) " points="30.9788235 114.257114 272.355134 0 453.041557 96.2513858 230.90196 205.44"></polygon>
                <g id="Page-1" transform="translate(233.409412, 104.325000) scale(-1, 1) translate(-233.409412, -104.325000) translate(61.957647, 20.330000)">
                    <path d="M342.324132,78.2427677 L342.324132,70.9597644 L301.96292,58.415096 L199.745526,11.2074801 C195.788521,9.38020985 191.233307,9.37111292 187.269044,11.1844346 L37.9450197,79.4738857 L0.986154853,90.2628464 L0.986154853,98.4622139 L1.08535217,98.4234003 C1.09382024,99.5872011 1.71319862,100.747363 2.94772137,101.317437 L142.077406,165.572096 C147.128606,167.905762 152.943142,167.916072 158.003415,165.601813 L340.588179,82.1010795 C342.172917,81.3763573 342.749955,79.6800828 342.324132,78.2427677" id="Fill-4" fill="#A2AAD6"></path>
                    <path d="M151.849733,153.29603 C143.545587,153.890363 35.098722,101.951736 7.11600484,88.4737226 L0.986336312,90.2627857 L0.986336312,98.4621532 L1.08553363,98.4233397 C1.0940017,99.5871404 1.71338008,100.747302 2.94790283,101.317377 L142.076983,165.572036 C147.00963,167.850514 152.667506,167.908128 157.642494,165.755794 L157.642494,151.359596 C154.647219,152.556753 152.643312,153.239022 151.849733,153.29603" id="Fill-6" fill="#A2AAD6"></path>
                    <path d="M6.46995205,88.662211 L0.986275825,90.2626644 L0.986275825,98.4626384 L1.08547315,98.4232184 C1.09394121,99.5876256 1.7133196,100.747181 2.94784234,101.317255 L142.076922,165.571914 C142.378748,165.712007 142.683599,165.84179 142.990263,165.964295 L142.990263,154.602228 C119.421222,146.715795 25.0398113,98.2412798 6.46995205,88.662211" id="Fill-8" fill="#858DBE"></path>
                    <path d="M187.269286,4.00980607 L2.95885082,88.3001531 C0.463796284,89.4409083 0.456537943,92.9929568 2.94796331,94.1434154 L142.077043,158.397468 C147.128848,160.731134 152.943384,160.74205 158.003657,158.427184 L340.588421,74.9270575 C343.083476,73.7856958 343.089524,70.2342538 340.598704,69.0837952 L199.745768,4.03345809 C195.788763,2.20558134 191.233549,2.19709087 187.269286,4.00980607" id="Fill-10" fill="#9199C6"></path>
                    <path d="M195.336871,12.3874734 L19.5664782,92.7715981 L101.707303,130.707621 C103.777744,131.663406 106.161504,131.668257 108.235575,130.719751 L280.739109,51.8293422 L195.336871,12.3874734 Z" id="Fill-15" fill="#232426"></path>
                    <path d="M86.7987319,130.286009 L214.006593,72.1105262" id="Stroke-17" stroke="#C7B8AF" stroke-width="1.53240185" stroke-linecap="round" stroke-linejoin="round"></path>
                    <path d="M73.5097993,123.62378 L200.718265,65.4482975" id="Stroke-19" stroke="#C7B8AF" stroke-width="1.53240185" stroke-linecap="round" stroke-linejoin="round"></path>
                    <path d="M61.7542515,118.242945 L188.962112,60.0674626" id="Stroke-21" stroke="#C7B8AF" stroke-width="1.53240185" stroke-linecap="round" stroke-linejoin="round"></path>
                    <path d="M51.2764136,111.83719 L178.484879,53.6617067" id="Stroke-23" stroke="#C7B8AF" stroke-width="1.53240185" stroke-linecap="round" stroke-linejoin="round"></path>
                    <path d="M26.6832206,84.8099031 L121.350126,128.530362" id="Stroke-25" stroke="#C7B8AF" stroke-width="1.53240185" stroke-linecap="round" stroke-linejoin="round"></path>
                    <path d="M105.284213,126.42988 L102.206677,127.837479 C101.95203,127.95392 101.951425,128.315371 102.205467,128.433025 L103.567615,129.061926 C103.654111,129.101952 103.753308,129.101952 103.839803,129.062532 L106.91734,127.65554 C107.171986,127.538493 107.172591,127.176435 106.918549,127.059995 L105.556401,126.430487 C105.469906,126.391067 105.370708,126.391067 105.284213,126.42988" id="Fill-27" fill="#C7B8AF"></path>
                    <path d="M80.7510222,115.497552 L77.6734858,116.905151 C77.418839,117.021591 77.4182342,117.383043 77.6722761,117.50009 L79.0344246,118.129598 C79.1209199,118.169624 79.2201172,118.169624 79.3066124,118.130204 L82.3841488,116.722606 C82.6387955,116.606165 82.6394004,116.244107 82.3853585,116.12706 L81.0232099,115.498159 C80.9367147,115.458132 80.8375174,115.458132 80.7510222,115.497552" id="Fill-29" fill="#C7B8AF"></path>
                    <path d="M68.6121131,109.860548 L65.5339718,111.268146 C65.2799299,111.384587 65.2793251,111.746038 65.533367,111.863085 L66.8955155,112.492593 C66.9814059,112.532013 67.0812081,112.53262 67.1677033,112.492593 L70.2452397,111.085601 C70.4992816,110.96916 70.5004913,110.607102 70.2464494,110.490055 L68.8843008,109.860548 C68.7978056,109.821128 68.6986083,109.821128 68.6121131,109.860548" id="Fill-31" fill="#C7B8AF"></path>
                    <path d="M57.3675525,103.96707 L54.2900161,105.374669 C54.0353693,105.49111 54.0347645,105.852561 54.2888064,105.969608 L55.650955,106.599116 C55.7374502,106.639142 55.8366475,106.639142 55.9231427,106.599722 L59.0006791,105.192124 C59.2553259,105.075683 59.2559307,104.713625 59.0018888,104.596578 L57.6397403,103.967677 C57.553245,103.92765 57.4540477,103.92765 57.3675525,103.96707" id="Fill-33" fill="#C7B8AF"></path>
                    <path d="M94.2954484,121.305458 L91.217912,122.713056 C90.9632653,122.829497 90.9626604,123.190948 91.2167023,123.307996 L92.5788509,123.937503 C92.6653461,123.97753 92.7645434,123.97753 92.8510386,123.937503 L95.928575,122.530511 C96.1832218,122.41407 96.1838266,122.052619 95.9297847,121.935572 L94.5676362,121.306064 C94.4811409,121.266038 94.3819436,121.266038 94.2954484,121.305458" id="Fill-35" fill="#C7B8AF"></path>
                    <path d="M40.8239195,79.3434964 L135.490825,123.063955" id="Stroke-37" stroke="#C7B8AF" stroke-width="1.53240185" stroke-linecap="round" stroke-linejoin="round"></path>
                    <path d="M234.178549,80.503719 L185.675294,102.686283 C184.695418,103.133852 184.692998,104.527502 185.67106,104.97871 L217.414202,119.639324 C219.247538,120.485945 221.35911,120.490191 223.196075,119.649634 L269.330692,98.550818 C270.309963,98.103249 270.312382,96.7095991 269.335531,96.2583913 L235.226774,80.5055384 C234.894705,80.3521035 234.511828,80.351497 234.178549,80.503719" id="Fill-39" fill="#444170"></path>
                    <path d="M132.958995,145.103455 L315.543759,61.6027214 C316.903488,60.9810978 317.517423,59.6438488 317.398265,58.3690655 L199.74601,4.03309422 C195.789005,2.20582393 191.233186,2.196727 187.269528,4.01004866 L2.9584879,88.2997892 C1.59875879,88.9220193 0.984219296,90.2586618 1.10398191,91.5334451 L117.032381,145.073738 C122.084186,147.406798 127.898722,147.417108 132.958995,145.103455" id="Fill-41" fill="#7E87BB"></path>
                    <path d="M16.3813974,102.865189 L16.3813974,105.447505 C16.3813974,105.614888 16.4781753,105.766504 16.6293907,105.835641 L22.1548024,108.387633 C22.4372728,108.518023 22.7596641,108.311219 22.7596641,107.999497 L22.7596641,105.417182 C22.7596641,105.250405 22.6628863,105.098789 22.5116708,105.02844 L16.9862591,102.477054 C16.7037887,102.346664 16.3813974,102.553468 16.3813974,102.865189" id="Fill-49" fill="#232426"></path>
                    <path d="M28.4777243,108.246085 L28.4777243,110.828401 C28.4777243,110.995784 28.5745021,111.1474 28.7257176,111.216536 L34.2511293,113.768529 C34.5335997,113.898918 34.855991,113.692115 34.855991,113.380393 L34.855991,110.798077 C34.855991,110.6313 34.7592131,110.479685 34.6079977,110.409335 L29.082586,107.857949 C28.8001156,107.72756 28.4777243,107.934363 28.4777243,108.246085" id="Fill-51" fill="#232426"></path>
                    <path d="M39.8924324,113.541651 L39.8924324,116.123967 C39.8924324,116.290744 39.9892103,116.442359 40.1404257,116.512103 L45.6658374,119.064095 C45.9483078,119.194484 46.2706991,118.987681 46.2706991,118.675959 L46.2706991,116.093644 C46.2706991,115.926867 46.1739213,115.775251 46.0227058,115.704902 L40.4972941,113.153516 C40.2148237,113.023126 39.8924324,113.22993 39.8924324,113.541651" id="Fill-53" fill="#232426"></path>
                    <path d="M186.758359,4.25560516 L2.44731928,88.5459522 C-0.0477352614,89.6867074 -0.0543887402,93.2381494 2.43643177,94.388608 L135.271926,118.302015 C141.456637,119.473093 146.138266,120.645991 151.197934,118.331731 L333.782699,34.8316045 C336.277753,33.6902429 336.284407,30.1388009 333.793586,28.9883423 L199.234841,4.27865072 C195.277836,2.45138043 190.722623,2.44288996 186.758359,4.25560516" id="Fill-55" fill="#6C76AF"></path>
                    <g id="Group-59" transform="translate(0.551804, 0.371761)" fill="#A6B0E3">
                        <path d="M186.206555,1.58826358 L1.89551562,85.8786106 C-0.599538923,87.0193658 -0.606192402,90.5708078 1.8846281,91.7212664 L134.720122,115.634673 C134.720122,115.634673 145.586463,117.978649 150.646131,115.66439 L333.230895,32.164263 C335.72595,31.0229013 335.732603,27.4714593 333.241783,26.3210007 L198.683038,1.61130914 C194.726032,-0.216567614 190.170819,-0.224451621 186.206555,1.58826358" id="Fill-57"></path>
                    </g>
                    <path d="M199.234781,1.98313105 C195.277776,0.155860758 190.722562,0.147370289 186.758298,1.96008549 L2.44725879,86.2504325 C-0.0477957476,87.3911877 -0.0544492263,90.9426297 2.43637128,92.0930883 L93.9979169,108.576122 L235.798671,8.69727289 L199.234781,1.98313105 Z" id="Fill-60" fill="#9199C6"></path>
                    <path d="M166.755643,48.2418763 L153.334971,54.5211848 C149.665275,56.2386855 149.978594,61.5713067 153.824304,62.8442706 L168.464377,67.6911157 C171.988906,68.8579487 175.82373,68.6311319 179.186761,67.0579692 L193.067732,60.5627602 C196.456772,58.9774683 196.167043,54.0529961 192.6159,52.8776725 L176.818727,47.6475435 C173.511343,46.5522729 169.911811,46.7651411 166.755643,48.2418763" id="Fill-66" fill="#CBD1EF"></path>
                </g>
                <polygon id="Rectangle-2_Top_Isometric-Copy-7" fill="#9793E2" opacity="0.800000012" filter="url(#filter-2)" transform="translate(74.776471, 174.410000) scale(-1, 1) translate(-74.776471, -174.410000) " points="0 184.093604 79.6742139 134.82 149.552941 171.916888 63.6425996 214"></polygon>
                <g id="Page-1" transform="translate(13.887059, 139.100000)">
                    <path d="M70.8048082,59.6505112 C74.7935513,61.8214961 84.8341761,61.1841153 88.9294434,58.9799011 L110.180985,47.0289851 C114.264417,44.8469237 114.181564,39.9315532 110.180985,37.7827212 C110.180985,37.7827212 106.778216,36.345004 102.446228,33.9857194 C85.1419483,24.7147276 45.7591753,4.13740378 45.7591753,4.13740378 C41.7704323,1.9553424 35.2251062,1.98857176 31.1535109,4.19278605 L8.53485244,16.3768851 C4.45142116,18.5810994 4.39224099,22.1034117 8.39282005,24.2965495 C8.39282005,24.2965495 47.0617266,46.8793601 64.223974,56.2168105 C68.2718972,58.2991838 69.5147075,61.0038449 70.8048082,59.6505112 Z" id="Fill-3" fill="#9199C6"></path>
                    <rect id="Rectangle" fill="#444170" transform="translate(93.636170, 50.512886) rotate(60.000000) translate(-93.636170, -50.512886) " x="93.110124" y="43.6311611" width="1.0520918" height="13.7634504" rx="0.526045898"></rect>
                    <path d="M70.8048082,59.6505112 C72.0669836,60.3374854 74.8960537,60.7794935 79.2920183,60.9765354 L37.940064,2.53036781 C34.6792256,2.9546171 32.4170412,3.50875651 31.1535109,4.19278605 L8.53485244,16.3768851 C4.45142116,18.5810994 4.39224099,22.1034117 8.39282005,24.2965495 C8.39282005,24.2965495 47.0617266,46.8793601 64.223974,56.2168105 C68.2718972,58.2991838 69.5147075,61.0038449 70.8048082,59.6505112 Z" id="Fill-3-Copy" fill="#A6B0E3"></path>
                    <g id="Group-7" transform="translate(0.000000, 19.692881)" fill="#858DBE">
                        <path d="M113.265988,30.5966459 C117.100862,28.5364255 117.452863,24.5432392 116.494145,21.585826 C116.813718,23.4245174 115.869915,24.2830673 113.265988,25.6897769 L87.3687483,39.657185 C82.6935154,42.1604636 75.2131427,42.1826165 70.620762,39.7014908 L3.69983308,3.39287566 C1.0254968,1.93025271 1.97525233,2.22856972 2.51496627,0.307418381 C2.52703208,0.264469251 2.00446065,0.0590955131 2.01817807,0.0162244088 C1.59625448,1.0393489 0.450611171,-0.218456322 0.340101645,0.715738523 C-0.0423005941,3.94838476 0.752274586,6.69645364 3.69983308,8.27759173 L70.620762,44.5972834 C75.2131427,47.0673325 82.6935154,47.0673325 87.3687483,44.564054 L113.265988,30.5966459 Z" id="Fill-5"></path>
                    </g>
                    <path d="M3.87500636,16.0113621 L29.7722459,2.05503049 C34.4474788,-0.459324502 41.9160155,-0.481477409 46.5083962,1.98857176 L113.429325,38.3082634 C115.405943,39.3937559 116.506694,40.7561597 116.75525,42.1517928 C117.062987,44.0458664 115.867548,45.93994 113.263621,47.3466496 L87.3663811,61.3251342 C82.6911482,63.8173362 75.2107755,63.8394892 70.6302308,61.3583635 L3.69746587,25.0497483 C0.963342316,23.5544271 -0.125572693,21.5052832 0.489901008,19.5447509 C0.596425302,19.278916 0.750293727,18.9687753 0.915998185,18.6586346 C1.44861966,17.6839066 2.43101037,16.7756374 3.87500636,16.0113621 Z M45.7627261,4.13740378 C41.7739831,1.9553424 35.216821,1.98857176 31.1570618,4.19278605 L8.53840325,16.3768851 C4.45497197,18.5810994 4.3957918,22.1144881 8.38453482,24.2965495 C8.38453482,24.2965495 37.1224222,39.8589669 54.2846697,49.1964174 L64.9214012,54.8466178 C68.9101443,57.0176027 71.4312192,58.36893 71.4312192,58.36893 C75.4199623,60.539915 81.9652883,60.539915 86.0487196,58.3357007 L108.667378,46.1294487 C112.750809,43.9473873 112.80999,40.3918457 108.809411,38.2430137 C108.809411,38.2430137 106.051615,36.7476924 101.731463,34.3884078 C84.4271832,25.1174161 45.7627261,4.13740378 45.7627261,4.13740378 Z" id="Fill-8-Copy-2" fill="#6A73B0"></path>
                    <path d="M2.08335885,17.2295107 C2.57066033,16.7949669 3.16741193,16.3858763 3.87500636,16.0113621 L29.7722459,2.05503049 C34.4474788,-0.459324502 36.3895648,6.15858978 32.0007493,8.52273479 C28.0045184,10.6754044 22.6626639,13.4195951 16.3757454,16.9395333 C11.5538524,19.6392288 4.30639632,16.6298113 4.47210077,16.3196706" id="Fill-8-Copy" fill="#6A73B0"></path>
                </g>
            </g>
        </g>
    </g>
</svg>