<?xml version="1.0" encoding="UTF-8"?>
<svg viewBox="0 0 24 24" xmlns="http://www.w3.org/2000/svg"><path fill="#FFF" d="M10.445 13.15v4.927H8.42V6.005h2.025v3.498l3.11-3.498h2.716l-4.488 5.092h.471c2.043 0 3.616 1.627 3.616 3.703v3.277h-2.024V14.8c0-.956-.654-1.65-1.592-1.65h-1.809zM7.53 6.005v12.072H5.505v-5.01h-3.48v5.01H0V6.005h2.024v5.01h3.482v-5.01H7.53zm16.452 8.674c0 1.658-1.068 3.066-2.606 3.505v.796h-2.024v-.81c-1.458-.454-2.524-1.848-2.524-3.46h2.024c0 .442.176.86.5 1.154V12.93a3.65 3.65 0 0 1-2.543-3.482 3.647 3.647 0 0 1 2.543-3.478v-.95h2.024v.931C22.914 6.377 24 7.756 24 9.454h-2.024c0-.51-.195-.95-.6-1.236v2.955c1.538.438 2.606 1.847 2.606 3.506zm-5.148-5.23c0 .47.194.89.518 1.18V8.272c-.324.29-.518.71-.518 1.178zm2.542 6.464c.405-.294.582-.74.582-1.234 0-.49-.177-.93-.582-1.224v2.458z" opacity=".8"/></svg>