<?xml version="1.0" encoding="UTF-8"?>
<svg viewBox="0 0 24 24" xmlns="http://www.w3.org/2000/svg"><path fill="#FFF" fill-rule="evenodd" d="M13.012 23.588c-1.805 0-3.323-.574-4.39-1.659-1.491-1.516-1.977-3.66-1.336-5.805H5.415c-.78 0-1.415-.627-1.415-1.399s.635-1.399 1.415-1.399h3.452a7.21 7.21 0 0 1 .523-.526c.268-.242.542-.468.809-.677H5.415c-.78 0-1.415-.627-1.415-1.399a1.41 1.41 0 0 1 1.415-1.399h8.428c1.08-1.036 1.565-2.028 1.483-3.028-.083-1.004-.884-1.946-1.947-2.291a4.977 4.977 0 0 0-1.532-.24c-.976 0-2.002.275-3.05.818a1.459 1.459 0 0 1-.673.171c-.654 0-1.248-.486-1.41-1.154-.147-.6.115-1.155.68-1.449C8.83 1.409 10.46 1 11.982 1c2.283 0 4.16.926 5.288 2.607.904 1.348 1.142 3.107.62 4.592a6.794 6.794 0 0 1-.515 1.126h1.739c.78 0 1.415.627 1.415 1.399a1.41 1.41 0 0 1-1.415 1.399h-4.231c-.12.097-.243.194-.368.288-.292.22-.607.446-.932.677l-.331.237h5.862c.78 0 1.415.628 1.415 1.4 0 .772-.635 1.399-1.415 1.399h-8.82c-.544.922-.63 1.869-.262 2.89.526 1.463 1.942 1.77 3.038 1.77 1.047 0 2.263-.284 3.254-.76a1.48 1.48 0 0 1 .645-.152c.67 0 1.294.51 1.448 1.186.135.593-.136 1.131-.708 1.405-1.51.725-3.177 1.125-4.696 1.125" opacity=".8"/></svg>