<?xml version="1.0" encoding="utf-8"?>
<svg viewBox="0 0 16 16" xmlns="http://www.w3.org/2000/svg"><path fill="#9693BC" fill-rule="evenodd" d="M13.336 1H2.664C1.745 1 1 1.743 1 2.66v10.68c0 .917.745 1.66 1.664 1.66h10.672c.919 0 1.664-.743 1.664-1.66V2.66C15 1.743 14.255 1 13.336 1zm-2.273 2.187c0-.241.196-.437.437-.437h1.312c.242 0 .438.196.438.437V4.5a.437.437 0 0 1-.438.437H11.5a.437.437 0 0 1-.437-.437V3.187zM8.016 5.33a2.69 2.69 0 0 1 2.693 2.686 2.69 2.69 0 0 1-2.693 2.686 2.69 2.69 0 0 1-2.692-2.686A2.69 2.69 0 0 1 8.016 5.33zm5.672 7.92a.438.438 0 0 1-.438.438H2.75a.438.438 0 0 1-.438-.438V6.687h1.75c-.227.328-.305.94-.305 1.33a4.259 4.259 0 0 0 8.518 0c0-.39-.055-.992-.337-1.33h1.75v6.563z"/></svg>