<?xml version="1.0" encoding="utf-8"?>
<!-- Generator: Adobe Illustrator 21.1.0, SVG Export Plug-In . SVG Version: 6.00 Build 0)  -->
<svg version="1.1" id="Layer_1" xmlns="http://www.w3.org/2000/svg" xmlns:xlink="http://www.w3.org/1999/xlink" x="0px" y="0px"
	 viewBox="0 0 1158 334" style="enable-background:new 0 0 1158 334;" xml:space="preserve">
<style type="text/css">
	.st0{fill:#000072;}
	.st1{opacity:0.2;}
	.st2{fill:#E5E5F1;}
</style>
<g>
	<path class="st0" d="M740.9,239.2V112.9c0-5.2-4.2-9.4-9.4-9.4c-5.2,0-9.4,4.2-9.4,9.4v126.3c0,5.2,4.2,9.4,9.4,9.4
		C736.7,248.6,740.9,244.4,740.9,239.2z"/>
	<path class="st0" d="M680.7,156.2c-5.2,0-9.4,4.2-9.4,9.4v73.6c0,5.2,4.2,9.4,9.4,9.4c5.2,0,9.4-4.2,9.4-9.4v-73.6
		C690.1,160.4,685.9,156.2,680.7,156.2z"/>
	<path class="st0" d="M791,117.7c-2.4-2.4-5.3-3.6-8.7-3.6c-3.3,0-6.1,1.2-8.5,3.6c-2.4,2.4-3.6,5.3-3.6,8.7s1.2,6.3,3.6,8.7
		c2.4,2.4,5.2,3.6,8.5,3.6c3.4,0,6.3-1.2,8.7-3.6c2.4-2.4,3.6-5.3,3.6-8.7S793.4,120.1,791,117.7z"/>
	<path class="st0" d="M632.2,237c9.1-9.1,13.7-20.6,13.7-34.5c0-13.9-4.6-25.4-13.7-34.6c-9.1-9.2-20.5-13.8-34.3-13.8
		c-13.7,0-25.1,4.6-34.3,13.8c-9.1,9.2-13.7,20.7-13.7,34.6c0,13.9,4.6,25.3,13.7,34.5c9.1,9.1,20.5,13.7,34.3,13.7
		C611.6,250.7,623,246.1,632.2,237z M577,224.9c-5.6-6-8.3-13.5-8.3-22.4c0-9.1,2.8-16.6,8.3-22.6c5.6-6,12.5-9.1,20.9-9.1
		c8.4,0,15.3,3,20.9,9.1c5.6,6,8.3,13.6,8.3,22.6c0,9.1-2.8,16.6-8.3,22.5c-5.6,6-12.5,8.9-20.9,8.9C589.5,234,582.6,231,577,224.9z
		"/>
	<path class="st0" d="M689.4,117.7c-2.4-2.4-5.3-3.6-8.7-3.6c-3.3,0-6.1,1.2-8.5,3.6c-2.4,2.4-3.6,5.3-3.6,8.7s1.2,6.3,3.6,8.7
		c2.4,2.4,5.2,3.6,8.5,3.6c3.4,0,6.3-1.2,8.7-3.6c2.4-2.4,3.6-5.3,3.6-8.7S691.8,120.1,689.4,117.7z"/>
	<path class="st0" d="M504.6,227.2c-5,4.3-11.4,6.4-19.2,6.4c-8.1,0-15.6-1.6-22.5-4.7c-3.4-1.5-7.8-4.6-13.2-9c-3.6-3-9-2.5-12,1.1
		c0,0-0.1,0.1-0.1,0.1c-3,3.8-2.4,9.3,1.3,12.3v0c7,5.6,12.8,9.5,17.4,11.5c9,3.9,18.7,5.9,29.1,5.9c13.2,0,24.1-3.8,32.9-11.5
		c8.8-7.7,13.2-17.3,13.2-28.8c0-9.5-3-17.4-8.9-23.8c-6-6.4-15.7-11.8-29.3-16.1c-14.9-4.9-24.6-9.3-28.9-13
		c-4.3-3.7-6.5-8.4-6.5-14.2c0-6.3,2.3-11.3,7-14.9c4.7-3.6,10.8-5.5,18.5-5.5c5.6,0,11.1,1.2,16.4,3.6c2.3,1.1,5.6,3.1,9.6,6.2
		c3.9,2.9,9.3,2.3,12.4-1.4c0.1-0.1,0.2-0.2,0.3-0.4c2.8-3.7,2.1-9.1-1.6-11.9h0c-5.6-4.2-10.1-7.1-13.7-8.6
		c-7.3-3.2-15.2-4.7-23.6-4.7c-12.9,0-23.5,3.5-31.9,10.6c-8.4,7.1-12.5,16.2-12.5,27.5c0,10,3,18.2,9.1,24.5
		c6,6.3,17.5,12.3,34.4,17.9c11.9,4,19.9,7.7,24,11.3c4,3.6,6.1,8.1,6.1,13.6C512.1,217.5,509.6,223,504.6,227.2z"/>
	<path class="st0" d="M782.3,156.2c-5.2,0-9.4,4.2-9.4,9.4v73.6c0,5.2,4.2,9.4,9.4,9.4c5.2,0,9.4-4.2,9.4-9.4v-73.6
		C791.7,160.4,787.5,156.2,782.3,156.2z"/>
	<path class="st0" d="M1035.3,83c-3,0-5.4,2.4-5.4,5.4v43.3c0,3.1,2.5,5.6,5.6,5.6h23.1c2.7,0,4.8-2.2,4.8-4.8
		c0-2.7-2.2-4.8-4.8-4.8h-17.9V88.4C1040.8,85.4,1038.3,83,1035.3,83z"/>
	<path class="st0" d="M1149.6,90.2c-5.5-4.8-13-7.2-22.6-7.2h-9.7c-3.1,0-5.6,2.5-5.6,5.6v43.2c0,3.1,2.5,5.6,5.6,5.6h9.7
		c9.6,0,17.1-2.4,22.6-7.2c5.5-4.8,8.2-11.5,8.2-19.9C1157.8,101.7,1155,95,1149.6,90.2z M1141.6,123c-3.4,3-8.1,4.5-14.2,4.5h-4.8
		V92.9h4.8c6.2,0,10.9,1.5,14.3,4.5c3.3,3,5,7.3,5,12.8C1146.6,115.7,1144.9,120,1141.6,123z"/>
	<path class="st0" d="M1081.9,137.4c3,0,5.4-2.4,5.4-5.4V92.7h11.1c2.7,0,4.8-2.2,4.8-4.8c0-2.7-2.2-4.8-4.8-4.8h-33
		c-2.7,0-4.8,2.2-4.8,4.8c0,2.7,2.2,4.8,4.8,4.8h11.1v39.3C1076.5,134.9,1078.9,137.4,1081.9,137.4z"/>
	<path class="st0" d="M899.4,237c9.1-9.1,13.7-20.6,13.7-34.5c0-13.9-4.6-25.4-13.7-34.6c-9.1-9.2-20.5-13.8-34.3-13.8
		c-13.7,0-25.1,4.6-34.3,13.8c-9.1,9.2-13.7,20.7-13.7,34.6c0,13.9,4.6,25.3,13.7,34.5c9.1,9.1,20.5,13.7,34.3,13.7
		C878.8,250.7,890.3,246.1,899.4,237z M844.3,224.9c-5.6-6-8.3-13.5-8.3-22.4c0-9.1,2.8-16.6,8.3-22.6c5.6-6,12.5-9.1,20.9-9.1
		c8.4,0,15.3,3,20.9,9.1c5.6,6,8.3,13.6,8.3,22.6c0,9.1-2.8,16.6-8.3,22.5c-5.6,6-12.5,8.9-20.9,8.9
		C856.8,234,849.8,231,844.3,224.9z"/>
	<path class="st0" d="M980,231.7c-3.2,2.3-7.3,3.4-12.5,3.4c-4.9,0-9.6-1-14.1-3c-1.8-0.8-4-2.2-6.8-4.1c-3.6-2.5-8.5-1.8-11.1,1.8
		c-0.1,0.1-0.2,0.2-0.3,0.4c-2.4,3.7-1.4,8.6,2.3,11c4.3,2.8,7.8,4.7,10.5,5.7c6.1,2.3,12.6,3.5,19.4,3.5c10.6,0,19-2.5,25.4-7.6
		c6.4-5.1,9.6-11.9,9.6-20.4c0-7-2.3-12.8-6.9-17.4c-4.6-4.6-11.7-8.3-21.3-11c-8.2-2.3-13.8-4.5-16.8-6.6c-2.9-2.1-4.4-4.7-4.4-8
		c0-3.2,1.3-5.7,3.9-7.6c2.6-1.9,6.1-2.9,10.5-2.9c3.7,0,7.6,0.8,11.6,2.5c1.3,0.5,2.7,1.3,4.4,2.3c3.7,2.2,8.6,1.2,11.1-2.3
		c0.1-0.2,0.3-0.4,0.4-0.6c2.1-3.7,0.9-8.3-2.8-10.4c-3-1.7-5.5-2.9-7.6-3.6c-5.4-1.9-11.1-2.8-17-2.8c-9.6,0-17.4,2.4-23.3,7.2
		c-6,4.8-8.9,11-8.9,18.7c0,7.4,2.3,13.4,7,17.9c4.7,4.5,12.4,8.4,23.2,11.5c7.5,2.2,12.6,4.2,15.2,6.1c2.6,1.9,3.9,4.4,3.9,7.5
		C984.7,226.5,983.2,229.5,980,231.7z"/>
</g>
<g class="st1">
	<path class="st2" d="M141.2,299.9c10.2,9.4,21.6,17.6,34,24.5l1.9-3.5c-11.8-6.6-22.7-14.4-32.5-23.3
		C143.5,298.3,142.3,299.1,141.2,299.9z"/>
	<path class="st2" d="M114.6,262.2c-17.9-27.8-28-60.6-28-95.2c0-64.4,34.9-122.7,90.1-153.6l-2-3.5C118.3,41.5,82.6,101.1,82.6,167
		c0,35.3,10.2,68.8,28.4,97.1C112.3,263.5,113.5,262.9,114.6,262.2z"/>
</g>
<g class="st1">
	<path class="st2" d="M200.9,35.8c-10.2-9.6-21.7-18.1-34.1-25.2l-2,3.5c11.9,6.8,22.9,14.9,32.7,24.1
		C198.6,37.3,199.7,36.5,200.9,35.8z"/>
	<path class="st2" d="M226.9,73.7c17.1,27.4,26.8,59.5,26.8,93.3c0,64.7-35.2,123.1-90.7,154l1.9,3.5
		c56.8-31.5,92.7-91.3,92.7-157.5c0-34.5-9.8-67.4-27.3-95.3C229.2,72.3,228,73,226.9,73.7z"/>
</g>
<g class="st1">
	<path class="st2" d="M270.7,65c-18.5,15.2-40.1,26-63.4,31.6c-0.7,1.5-1.4,3-2.1,4.6c26.6-5.8,51.2-18.3,71.7-36.2H270.7z"/>
	<path class="st2" d="M156.8,100.4c-36.3-3-70-18.3-96.1-43.2L58,60.1c26.6,25.4,60.9,41,97.8,44.3
		C156.1,103,156.4,101.7,156.8,100.4z"/>
</g>
<g class="st1">
	<path class="st2" d="M62.5,269.7h6.1c19.7-16.5,43.1-27.9,68.3-33.3c0.7-1.5,1.3-2.9,1.9-4.5C110.5,237.5,84.2,250.6,62.5,269.7z"
		/>
	<path class="st2" d="M186.8,233.9c36.1,3.8,69.5,19.7,95.1,45.2l2.8-2.8c-26.1-25.9-60.1-42.3-96.8-46.2
		C187.5,231.3,187.1,232.6,186.8,233.9z"/>
</g>
<g class="st1">
	<path class="st2" d="M148.7,167L148.7,167c0-0.6,0-1.2,0-1.8H16.9v4h131.8C148.7,168.4,148.7,167.7,148.7,167z"/>
	<path class="st2" d="M194.7,165.2c0,0.9,0,1.7,0,2.6h0c0,0.5,0,0.9,0,1.4h133.3v-4H194.7z"/>
</g>
<g class="st1">
	<path class="st2" d="M170,271.5c-0.6,0.9-1.2,1.8-1.8,2.6v49.6h4V268C171.4,269.2,170.7,270.4,170,271.5z"/>
	<path class="st2" d="M172.2,65.3V9.7h-4v62.4C169.4,69.8,170.8,67.5,172.2,65.3z"/>
</g>
<g>
	<path class="st0" d="M70.8,269.7C44.2,243.6,27.6,207.2,27.6,167c0-79.5,64.5-144,144-144c14.4,0,28.3,2.1,41.4,6
		c10.5-4.9,22.3-8.1,35-9.5C225.1,7.7,199.2,1,171.6,1C80,1,5.6,75.3,5.6,167c0,38.8,13.3,74.5,35.6,102.7H70.8z"/>
	<path class="st0" d="M302.6,65h-29.3c26.2,26.1,42.4,62.1,42.4,102c0,79.5-64.5,144-144,144c-14,0-27.5-2-40.3-5.7
		c-10.5,5-22.1,8.3-34.8,9.8c22.6,11.5,48.1,17.9,75.1,17.9c91.7,0,166-74.3,166-166C337.6,128.5,324.6,93.1,302.6,65z"/>
</g>
<path class="st0" d="M255.3,31l-0.7,0c-31.4,1.9-55.3,15-71.2,38.9c-15,22.6-22.7,55.2-22.7,97.1h0c0,37.8-6.4,66.6-19.1,85.7
	c-12,18-29.6,27.5-53.9,29.1H17.5v22h71l0.3,0c31.4-1.9,55.3-15,71.2-38.9c15-22.6,22.7-55.2,22.7-97.1h0c0-37.8,6.4-66.6,19.1-85.7
	c12-18,29.6-27.5,53.9-29.1H326V31H255.3z"/>
<path class="st0" d="M25.1,276.6L1.8,290.6c-0.5,0.3-0.8,0.7-1.1,1.1c-1,1.6-0.5,3.6,1.1,4.6l23.2,14.1c0.5,0.3,1.1,0.5,1.7,0.5
	c1.8,0,3.3-1.5,3.3-3.3v-28.2c0-0.6-0.2-1.2-0.5-1.7C28.7,276.1,26.7,275.6,25.1,276.6z"/>
<path class="st0" d="M342.4,39.6l-23.2-14.1c-0.5-0.3-1.1-0.5-1.7-0.5c-1.8,0-3.3,1.5-3.3,3.3v28.2c0,0.6,0.2,1.2,0.5,1.7
	c1,1.6,3,2.1,4.6,1.1l23.2-14.1c0.5-0.3,0.8-0.7,1.1-1.1C344.5,42.7,344,40.6,342.4,39.6z"/>
</svg>
