<?xml version="1.0" encoding="utf-8"?>
<svg viewBox="0 0 16 16" xmlns="http://www.w3.org/2000/svg"><path fill="#5A659B" d="M7.978 7.825c-1.736 0-3.144-1.752-3.144-3.912C4.834 1.752 5.296 0 7.978 0c2.681 0 3.143 1.752 3.143 3.913 0 2.16-1.407 3.912-3.143 3.912zm5.93 5.816c.004.24.006.282.007.26v.293S13.04 16 7.977 16c-5.063 0-5.937-1.806-5.937-1.806V13.8c0 .035.003.019.009-.28.066-3.666.575-4.722 4.206-5.394 0 0 .517.675 1.722.675 1.204 0 1.72-.675 1.72-.675 3.672.68 4.152 1.752 4.21 5.516z"/></svg>