<?xml version="1.0" encoding="utf-8"?>
<svg viewBox="0 0 500 360" xmlns="http://www.w3.org/2000/svg"><defs><filter id="miners-a" width="163.7%" height="227.9%" x="-31.9%" y="-64%" filterUnits="objectBoundingBox"><feGaussianBlur in="SourceGraphic" stdDeviation="34"/></filter></defs><g fill="none" fill-rule="evenodd" transform="translate(90 52)"><polygon fill="#9793E2" points=".151 204.218 214.329 96.775 320.261 151.577 104.049 256.253" filter="url(#miners-a)"/><g transform="translate(30)"><polygon fill="#727BAF" points="83.077 242.86 0 201.425 0 93.903 83.077 135.338"/><g transform="translate(3 103)"><path fill="#434E8F" d="M74 126c-2.631 2.022-3.965 3.024-4.002 3.006-.036-.018-22.035-12.703-65.998-38.055L0 3.007 4 0l70 35.05V126z"/><polygon fill="#9199C6" points="70 129 0 93.951 0 3 70 38.049"/></g><path fill="#565382" d="M37.108 137.89C21.088 128.846 8.054 136.109 8 154.12c-.013 4.944.955 10.185 2.703 15.388 4.593 13.704 14.598 27.05 26.216 33.611 15.993 9.032 29.027 1.763 29.08-16.242.041-11.816-5.527-25.322-13.873-35.772-4.382-5.474-9.517-10.106-15.018-13.214"/><path fill="#6D6AA1" d="M32.108 140.89C16.088 131.846 3.054 139.109 3 157.12c-.013 4.944.955 10.185 2.703 15.388 4.593 13.704 14.598 27.05 26.216 33.611 15.993 9.032 29.027 1.763 29.08-16.242.041-11.816-5.527-25.322-13.873-35.772-4.382-5.474-9.517-10.106-15.018-13.214"/><polygon fill="#858DBE" points="83.077 242.8 269.864 149.322 269.864 41.8 83.077 135.278"/><polygon fill="#7984BB" points="83.077 170.8 269.864 77.322 269.864 72.8 83.077 166.278"/><polygon fill="#7984BB" points="83.077 209.8 269.864 116.322 269.864 111.8 83.077 205.278"/><polygon fill="#99A2CF" points="83.077 173.8 269.864 80.322 269.864 75.8 83.077 169.278"/><polygon fill="#99A2CF" points="83.077 212.8 269.864 119.322 269.864 114.8 83.077 208.278"/><polygon fill="#9199C6" points="0 93.903 186.787 .425 269.864 41.861 83.077 135.338"/><polygon fill="#9199C6" points="19 90.759 182.348 9 245.419 41.094 82.071 122.853"/></g><g transform="translate(47 42)"><polygon fill="#727BAF" points="62.154 84.895 0 53.861 0 38.521 62.154 69.555"/><polygon fill="#C2C8DE" points="62.154 84.85 137.907 46.902 137.907 31.562 62.154 69.509"/><polygon fill="#CBD1EF" points="0 38.521 75.753 .573 137.907 31.607 62.154 69.555"/><path fill="#6B6990" d="M37.501 38.598l39.919-20.22c.734-.373 1.6-.38 2.34-.021a.648.648 0 0 1 .01 1.16L39.853 39.74c-.734.371-1.6.379-2.34.02a.648.648 0 0 1-.01-1.16zm5.51 2.758l39.92-20.222c.734-.372 1.6-.379 2.34-.02a.648.648 0 0 1 .01 1.16L45.362 42.497c-.734.372-1.6.38-2.34.02a.648.648 0 0 1-.01-1.16zm5.511 2.757l39.919-20.221c.734-.372 1.6-.38 2.34-.02a.648.648 0 0 1 .01 1.16L50.874 45.253c-.734.372-1.6.38-2.34.02a.648.648 0 0 1-.011-1.16zm5.51 2.757l39.92-20.22c.734-.373 1.6-.38 2.34-.021a.648.648 0 0 1 .01 1.16L56.383 48.011c-.734.372-1.6.379-2.34.02a.648.648 0 0 1-.01-1.16z"/></g><g fill="#565382" transform="translate(85 105)"><path d="M5.467.981c-.898-.537-1.629-.106-1.632.963 0 .294.054.605.152.914.257.813.818 1.606 1.47 1.995.895.536 1.626.105 1.629-.964.002-.702-.31-1.503-.778-2.124a3.058 3.058 0 0 0-.841-.784m6.501 3.25c-.898-.537-1.628-.106-1.631.963-.001.294.053.605.151.914.258.813.818 1.606 1.47 1.995.896.536 1.626.105 1.63-.964.001-.702-.31-1.503-.778-2.124a3.058 3.058 0 0 0-.842-.784m6.501 3.25c-.898-.537-1.628-.106-1.631.963 0 .294.053.605.151.914.258.813.818 1.606 1.47 1.995.896.536 1.626.105 1.63-.964.002-.702-.31-1.503-.778-2.124a3.058 3.058 0 0 0-.842-.784M2.216 4.231c-.898-.537-1.628-.106-1.631.963-.001.294.053.605.151.914.258.813.818 1.606 1.47 1.995.896.536 1.626.105 1.63-.964.002-.702-.31-1.503-.778-2.124a3.058 3.058 0 0 0-.842-.784m6.501 3.25c-.898-.537-1.628-.106-1.631.963 0 .294.054.605.151.914.258.813.819 1.606 1.47 1.995.896.536 1.627.105 1.63-.964.002-.702-.31-1.503-.778-2.124a3.058 3.058 0 0 0-.842-.784m6.502 3.25c-.898-.537-1.629-.106-1.632.963 0 .294.054.605.152.914.257.813.818 1.606 1.469 1.995.896.536 1.627.105 1.63-.964.002-.702-.31-1.503-.778-2.124a3.058 3.058 0 0 0-.841-.784"/></g><g fill="#565382" transform="translate(49 85)"><path d="M1.966.731C1.068.194.337.625.334 1.694c0 .294.054.605.152.914.257.813.818 1.606 1.469 1.995.896.536 1.627.105 1.63-.964.002-.702-.31-1.503-.778-2.124a3.058 3.058 0 0 0-.841-.784m6.5 3.25c-.897-.537-1.628-.106-1.63.963-.001.294.053.605.15.914.258.813.819 1.606 1.47 1.995.896.536 1.627.105 1.63-.964.002-.702-.31-1.503-.778-2.124a3.058 3.058 0 0 0-.841-.784m6.501 3.25c-.898-.537-1.628-.106-1.631.963-.001.294.053.605.151.914.258.813.818 1.606 1.47 1.995.896.536 1.626.105 1.63-.964.001-.702-.31-1.503-.778-2.124a3.058 3.058 0 0 0-.842-.784m-9.752 0c-.898-.537-1.628-.106-1.631.963-.001.294.053.605.151.914.258.813.818 1.606 1.47 1.995.896.536 1.626.105 1.63-.964.002-.702-.31-1.503-.778-2.124a3.058 3.058 0 0 0-.842-.784m6.501 3.25c-.898-.537-1.628-.106-1.631.963 0 .294.054.605.151.914.258.813.819 1.606 1.47 1.995.896.536 1.627.105 1.63-.964.002-.702-.31-1.503-.778-2.124a3.058 3.058 0 0 0-.842-.784m6.502 3.25c-.898-.537-1.629-.106-1.632.963 0 .294.054.605.152.914.257.813.818 1.606 1.469 1.995.896.536 1.627.105 1.63-.964.002-.702-.31-1.503-.778-2.124a3.058 3.058 0 0 0-.841-.784"/></g><g transform="translate(72 98)"><path fill="#565382" d="M9.874 9.25c-.49.1-.835.1-1.032 0-.196-.098-3.139-1.63-8.827-4.592V.152l9.86 4.83v4.269z"/><path fill="#444170" d="M9.103 9.37C3.034 6.31 0 4.742 0 4.667v-3.48l9.103 4.454V9.37z"/></g><polygon fill="#565382" points="83.071 146.248 99.035 146.254 99.033 149.275 83.071 149.248" transform="rotate(-32 91.053 147.761)"/><polygon fill="#565382" points="83.983 224.101 96.569 224.033 96.566 227.054 83.983 227.101" transform="rotate(-32 90.276 225.567)"/><polygon fill="#565382" points="23.661 114.44 38.394 114.675 38.391 117.695 23.661 117.44" transform="rotate(-29 31.027 116.067)"/><g transform="translate(23 110)"><path fill="#434E8F" d="M70 120.215c-2.49 1.914-3.75 2.862-3.785 2.845-.035-.018-20.845-12.02-62.431-36.007L0 3.845 3.784 1 70 34.162v86.053z"/><polygon fill="#9199C6" points="66.216 123.054 0 89.892 0 3.838 66.216 37.001"/><path fill="#565382" d="M62.007 39.266c-1.104-.62-2.003-.122-2.007 1.112 0 .339.066.698.186 1.054.317.939 1.007 1.853 1.808 2.302 1.103.619 2.002.12 2.006-1.112.003-.81-.381-1.735-.957-2.45a3.68 3.68 0 0 0-1.036-.906m12-7.5c-1.104-.62-2.003-.122-2.007 1.112 0 .339.066.698.186 1.054.317.939 1.007 1.853 1.808 2.302 1.103.619 2.002.12 2.006-1.112.003-.81-.381-1.735-.957-2.45a3.68 3.68 0 0 0-1.036-.906m-71-24.5C1.903 6.646 1.004 7.144 1 8.378c0 .339.066.698.186 1.054.317.939 1.007 1.853 1.808 2.302 1.103.619 2.002.12 2.006-1.112.003-.81-.381-1.735-.957-2.45a3.68 3.68 0 0 0-1.036-.906m11-7C12.903-.354 12.004.144 12 1.378c0 .339.066.698.186 1.054.317.939 1.007 1.853 1.808 2.302 1.103.619 2.002.12 2.006-1.112.003-.81-.381-1.735-.957-2.45a3.68 3.68 0 0 0-1.036-.906m49 115c-1.104-.62-2.003-.122-2.007 1.112 0 .339.066.698.186 1.054.317.939 1.007 1.853 1.808 2.302 1.103.619 2.002.12 2.006-1.112.003-.81-.381-1.735-.957-2.45a3.68 3.68 0 0 0-1.036-.906m9-5c-1.104-.62-2.003-.122-2.007 1.112 0 .339.066.698.186 1.054.317.939 1.007 1.853 1.808 2.302 1.103.619 2.002.12 2.006-1.112.003-.81-.381-1.735-.957-2.45a3.68 3.68 0 0 0-1.036-.906"/></g><g transform="translate(19 130)"><path fill="#565382" d="M36.472 4.499C17.88-5.961 2.755 2.438 2.692 23.264 2.677 28.98 3.801 35.041 5.83 41.057c5.33 15.846 16.94 31.278 30.423 38.864C54.812 90.365 69.937 81.959 70 61.14c.047-13.662-6.415-29.278-16.1-41.362-5.086-6.33-11.045-11.685-17.428-15.28"/><path fill="#9199C6" d="M31.978 10.641C14.378.515.06 8.646 0 28.807c-.015 5.534 1.05 11.402 2.97 17.225 5.045 15.34 16.037 30.28 28.8 37.624 17.57 10.11 31.888 1.973 31.948-18.182.044-13.226-6.073-28.344-15.241-40.042-4.815-6.127-10.456-11.312-16.499-14.791"/><path fill="#CBD1EF" d="M31.978 10.641C14.378.515.06 8.646 0 28.807c-.015 5.534 1.05 11.402 2.97 17.225 5.045 15.34 16.037 30.28 28.8 37.624 17.57 10.11 31.888 1.973 31.948-18.182.044-13.226-6.073-28.344-15.241-40.042-4.815-6.127-10.456-11.312-16.499-14.791"/><path fill="#444170" d="M32.105 14.837C16.636 5.916 4.052 13.08 4 30.844c-.013 4.876.922 10.046 2.61 15.177 4.434 13.517 14.095 26.68 25.311 33.151C47.364 88.081 59.947 80.911 60 63.152c.039-11.654-5.337-24.974-13.395-35.282-4.232-5.398-9.19-9.967-14.5-13.033"/><path fill="#CBD1EF" d="M32.034 37.226c-4.972-2.85-9.017-.562-9.034 5.113-.004 1.558.296 3.21.839 4.848 1.425 4.318 4.53 8.523 8.136 10.59 4.963 2.846 9.008.556 9.025-5.117.013-3.723-1.716-7.978-4.306-11.27-1.36-1.725-2.953-3.185-4.66-4.164"/><rect width="53.85" height="3.25" x="5.418" y="46.167" fill="#CBD1EF"/><rect width="81.85" height="3.25" x="-8.582" y="46.167" fill="#CBD1EF" transform="rotate(-108 32.343 47.792)"/></g></g></svg>