<?xml version="1.0" encoding="utf-8"?>
<svg viewBox="0 0 16 16" xmlns="http://www.w3.org/2000/svg"><path fill="#5A659B" d="M12.146 15h-.014c-2.22-.077-4.822-2.343-6.615-4.232C3.723 8.88 1.57 6.14 1.501 3.812 1.476 2.995 3.38 1.543 3.4 1.53c.493-.363 1.042-.234 1.267.094.152.223 1.595 2.525 1.752 2.786.162.27.138.674-.065 1.079-.112.225-.484.913-.658 1.234.188.281.686.973 1.713 2.055 1.028 1.081 1.684 1.606 1.953 1.804.304-.183.958-.575 1.171-.692.379-.212.76-.239 1.02-.07.265.17 2.445 1.697 2.646 1.844.168.125.277.339.299.588.02.252-.054.518-.207.75-.013.02-1.376 1.999-2.144 1.999z"/></svg>