<?xml version="1.0" encoding="UTF-8"?>
<svg width="304px" height="251px" viewBox="0 0 304 251" version="1.1" xmlns="http://www.w3.org/2000/svg" xmlns:xlink="http://www.w3.org/1999/xlink">
    <!-- Generator: Sketch 49.1 (51147) - http://www.bohemiancoding.com/sketch -->
    <title>Group 10</title>
    <desc>Created with Sketch.</desc>
    <defs>
        <polygon id="path-1" points="1.26589474 1.44665581 2.46694737 1.44665581 2.46694737 2.91177209 1.26589474 2.91177209"></polygon>
        <polygon id="path-3" points="1.26589474 1.44665581 2.46694737 1.44665581 2.46694737 2.91177209 1.26589474 2.91177209"></polygon>
        <polygon id="path-5" points="1.26589474 1.44665581 2.46694737 1.44665581 2.46694737 2.91177209 1.26589474 2.91177209"></polygon>
    </defs>
    <g id="Page-1" stroke="none" stroke-width="1" fill="none" fill-rule="evenodd">
        <g id="Services-Copy-5" transform="translate(-759.000000, -153.000000)">
            <g id="Group-10" transform="translate(757.000000, 118.000000)">
                <g id="Group-9" transform="translate(161.500000, 170.000000) scale(1, -1) rotate(258.000000) translate(-161.500000, -170.000000) translate(17.000000, 36.000000)" fill-rule="nonzero">
                    <path d="M169.133031,118.576197 C168.745402,118.906881 168.210106,119.072223 168.136272,119.92649 C165.939712,120.532744 164.73991,117.749487 163.189397,116.426751 C160.734417,114.332419 157.873351,113.119911 155.953668,109.702842 L157.227304,108.765904 C157.638384,108.781599 157.982636,108.304369 158.00256,107.691181 C158.642832,107.846364 204.205716,69.4499658 204.674837,69.3205212 C207.628196,68.1631272 209.501751,70.5994567 211.089182,75.8904011 C212.090369,79.2559521 211.117076,83.1999364 208.892621,84.7913127 C207.822029,85.7558078 178.140775,110.915351 169.133031,118.576197 Z" id="Shape" fill="#FDFDFD"></path>
                    <path d="M287.828964,11.957589 C287.828964,11.957589 288.988599,16.4690548 286.487027,19.797027 C283.985455,23.1249993 228.782007,76.5802602 222.861579,81.5232024 C219.653916,84.2846226 216.537902,87.0460428 213.385228,89.9455341 C211.279715,91.7385121 208.670082,91.489407 206.731619,89.3104074 L206.163405,88.3991388 C206.658301,86.3280736 207.996355,86.2176168 209.077795,85.2787339 C211.286705,83.6840544 212.253197,79.7318835 211.259006,76.3593466 C209.700998,71.0574198 207.593106,69.1244256 204.623727,70.2566079 C204.157884,70.3863211 203.685948,70.4601904 203.212355,70.4775215 L206.71329,64.1538692 C210.690791,65.8107213 212.505412,70.7812777 214.246714,75.6966057 C215.089871,78.0714271 215.694745,78.458026 217.271081,77.1325442 C223.668077,71.9410742 229.826789,66.0868634 236.150466,60.8125507 C238.863232,58.6034146 284.529654,12.1232742 287.828964,11.957589 Z" id="Shape" fill="#5264AE"></path>
                    <path d="M217.228709,79.571691 C215.665188,80.8518986 215.047052,80.5179314 214.228931,78.1244999 C212.501786,73.198484 210.359467,66.5911902 206.414305,64.8935237 C207.800788,61.8441593 259.298792,17.2754177 267.843614,9.90030915 C269.134428,9.12105239 273.000617,5.11445169 274.77499,3.41629521 C287.060391,-6.56611113 290.97358,9.90030915 286.303125,15.8473446 C281.632669,21.7943801 223.573693,74.2560467 217.228709,79.571691 Z" id="Shape" fill="#728AD4"></path>
                    <path d="M93.3359073,94.7453688 C41.784841,94.7453688 0,133.523272 0,181.372684 C0,229.222097 41.784841,268 93.3359073,268 C144.886974,268 186.671815,229.222097 186.671815,181.372684 C186.671815,133.523272 144.886974,94.7453688 93.3359073,94.7453688 Z M91.784264,249.548998 C50.4557887,249.548998 16.9402938,218.44268 16.9402938,180.084754 C16.9402938,141.726828 50.4557887,110.62051 91.784264,110.62051 C133.112739,110.62051 166.628234,141.726828 166.628234,180.084754 C166.628234,218.44268 133.112739,249.548998 91.784264,249.548998 L91.784264,249.548998 Z" id="Shape" fill="#5264AE"></path>
                    <path d="M93.9266409,83.9169543 C42.7871202,83.9169543 1.18146718,121.907206 1.18146718,168.767427 C1.18146718,215.627649 42.6957996,253.562114 93.9266409,253.562114 C145.157482,253.562114 186.671815,215.571863 186.671815,168.711641 C186.671815,121.85142 145.139218,83.9169543 93.9266409,83.9169543 Z M93.9266409,234.343845 C52.7045344,234.343845 19.2812047,203.661557 19.2812047,166.061807 C19.2812047,128.462058 52.7045344,97.7797699 93.9266409,97.7797699 C135.148747,97.7797699 168.572077,128.462058 168.572077,166.061807 C168.572077,203.661557 135.148747,234.315952 93.9266409,234.315952 L93.9266409,234.343845 Z" id="Shape" fill="#728AD4"></path>
                </g>
                <g id="Group-11" transform="translate(166.000000, 71.000000)">
                    <g id="Page-1-Copy-10" transform="translate(0.000000, 24.000000)">
                        <polygon id="Fill-1" fill="#727BAF" points="0 47.1320581 26.7532632 62.4879419 26.8402105 31.9256163 0.0869473684 16.5697326"></polygon>
                        <polygon id="Fill-2" fill="#858DBE" points="26.8406526 31.9259093 26.7537053 62.4882349 55.4316 45.9192349 55.5185474 15.3569093"></polygon>
                        <polygon id="Fill-3" fill="#9199C6" points="28.7664632 -0.000146511628 0.0870947368 16.5688535 26.8403579 31.9262023 55.5182526 15.3557372"></polygon>
                        <path d="M51.2833263,47.0463488 L51.2730105,43.4905116 L54.3854316,41.7045349 L54.3957474,45.2603721 L51.2833263,47.0463488 Z M48.0780632,48.8865349 L48.0677474,45.3306977 L51.1801684,43.5432558 L51.1904842,47.1005581 L48.0780632,48.8865349 Z M44.8698526,50.728186 L44.8610105,47.1723488 L47.9734316,45.384907 L47.9837474,48.9407442 L44.8698526,50.728186 Z M54.4782737,41.5448372 L51.1801684,43.4377674 L47.9749053,45.2779535 L44.7666947,47.1196047 L44.7770105,50.8878837 L47.9852211,49.0462326 L48.0765895,48.9934884 L51.1919579,47.2060465 L51.2848,47.1518372 L54.4900632,45.3116512 L54.4782737,41.5448372 Z" id="Fill-4" fill="#414042"></path>
                        <g id="Group-62" transform="translate(9.578947, 5.348993)">
                            <path d="M41.0092421,39.1105465 L41.0092485,39.0050581 L40.0469263,39.557407 L39.6166105,39.8050116 L39.5208211,40.0672674 L39.7713474,39.8987791 L39.3822947,40.691407 L39.5812421,40.1214767 L39.3204,40.3119419 L39.5208211,39.8592209 L39.0831368,40.1097558 L39.0846105,40.2152442 C39.0860842,40.6767558 39.3395579,40.9448721 39.7212421,40.8848023 C39.7978737,40.8730814 39.8745053,40.8481744 39.9540842,40.8100814 L39.9585053,42.0129419 L39.4102947,42.3264767 L39.4117684,42.5447791 L40.6968211,41.8063605 L40.6968211,41.5895233 L40.1486105,41.9030581 L40.1456632,40.7016628 C40.2237684,40.6474535 40.3033474,40.5829884 40.3785053,40.5068023 C40.7587158,40.1302674 41.0107158,39.5720581 41.0092421,39.1105465" id="Fill-5" fill="#414042"></path>
                            <polygon id="Fill-7" fill="#414042" points="36.8385684 41.3983256 36.1930947 42.7667442 36.5998316 42.5308605 36.6042526 44.1556744 37.0890947 43.8773023 37.0846737 42.2539535 37.4914105 42.021"></polygon>
                            <polygon id="Fill-9" fill="#414042" points="42.5131368 39.3537558 42.5116632 39.3537558 42.5116632 39.3552209"></polygon>
                            <polygon id="Fill-13" fill="#414042" points="43.9997895 38.5009116 43.9983158 38.5009116 43.9968421 38.5009116"></polygon>
                            <g id="Group-17" transform="translate(43.473684, 36.627907)">
                                <mask id="mask-2" fill="white">
                                    <use xlink:href="#path-1"></use>
                                </mask>
                                <g id="Clip-16"></g>
                                <path d="M1.26589474,1.44812093 L1.26736842,1.44665581 L1.26589474,1.44812093 Z" id="Fill-15" fill="#414042" mask="url(#mask-2)"></path>
                            </g>
                            <path d="M43.6443368,37.7484279 C43.5426526,37.7689395 43.4365474,37.8041023 43.3304421,37.8568465 L43.3304421,37.6634512 L43.1742316,37.7542884 L43.1742316,37.9476837 C43.0681263,38.0165442 42.9634947,38.1000558 42.8618105,38.1982186 C42.5611789,38.4883116 42.1352842,38.9937767 41.7712842,39.777614 C41.7845474,39.7571023 41.9289684,39.5446605 42.1397053,39.4230558 C42.3637053,39.2955907 42.5051789,39.3512651 42.5110737,39.3541953 C42.5199158,39.3424744 42.6599158,39.1241721 42.8824421,38.996707 C43.0091789,38.9249163 43.1123368,38.9117302 43.1771789,38.9146605 L43.1801263,39.9182651 C43.1801263,40.0779628 43.0651789,40.2742884 42.9266526,40.3534047 C42.7866526,40.433986 42.6731789,40.3695209 42.6717053,40.2098233 L42.6717053,39.941707 L42.5125474,40.0325442 L42.5140211,40.2991953 C42.5140211,40.5585209 42.6997053,40.6640093 42.9281263,40.533614 C43.1536,40.4032186 43.3378105,40.0882186 43.3363368,39.828893 L43.3333895,38.8238233 C43.3997053,38.7461721 43.4999158,38.6406837 43.6266526,38.5703581 C43.8506526,38.442893 43.9906526,38.4971023 43.9980211,38.5014977 C44.0053895,38.4897767 44.1468632,38.2700093 44.3693895,38.1440093 C44.5816,38.0224047 44.7245474,38.0692884 44.7392842,38.0736837 C44.3723368,37.7088698 43.9464421,37.6927535 43.6443368,37.7484279" id="Fill-18" fill="#414042"></path>
                            <path d="M15.4501053,54.1093814 L15.3263158,54.0390558 L15.3366316,50.462707 L15.4604211,50.5344977 L15.4501053,54.1093814 Z M15.1936842,53.9628698 L15.0698947,53.8925442 L15.0802105,50.3147302 L15.204,50.3865209 L15.1936842,53.9628698 Z M14.9284211,53.8104977 L14.3949474,53.5042884 L14.4052632,49.9279395 L14.9372632,50.2326837 L14.9284211,53.8104977 Z M14.2623158,53.4281023 L14.1370526,53.3563116 L14.1473684,49.7799628 L14.2726316,49.8517535 L14.2623158,53.4281023 Z M13.9941053,53.2742651 L13.8909474,53.2156605 L13.9012632,49.6393116 L14.0044211,49.6979163 L13.9941053,53.2742651 Z M13.7804211,53.1526605 L13.5578947,53.0237302 L13.5682105,49.4473814 L13.7907368,49.5748465 L13.7804211,53.1526605 Z M13.4267368,52.9490093 L12.8932632,52.6413349 L12.9021053,49.0664512 L13.4370526,49.3726605 L13.4267368,52.9490093 Z M12.7606316,52.566614 L12.6368421,52.4948233 L12.6471579,48.9184744 L12.7724211,48.9902651 L12.7606316,52.566614 Z M12.5056842,52.4201023 L12.3804211,52.3483116 L12.3907368,48.7719628 L12.516,48.8422884 L12.5056842,52.4201023 Z M12.2492632,52.2735907 L12.1254737,52.2018 L12.1357895,48.6254512 L12.2595789,48.6972419 L12.2492632,52.2735907 Z M11.9943158,52.125614 L11.6347368,51.9204977 L11.6450526,48.3426837 L12.0046316,48.5507302 L11.9943158,52.125614 Z M11.4976842,51.8413814 L11.2957895,51.7256372 L11.3046316,48.1492884 L11.5094737,48.2664977 L11.4976842,51.8413814 Z M11.1690526,51.6523814 L10.1875789,51.0883116 L10.1978947,47.5119628 L11.1793684,48.0760326 L11.1690526,51.6523814 Z M10.0505263,51.0106605 L9.87663158,50.9110326 L9.88694737,47.3346837 L10.0608421,47.4343116 L10.0505263,51.0106605 Z M9.75431579,50.840707 L9.33873684,50.6004279 L9.34757895,47.0255442 L9.76463158,47.262893 L9.75431579,50.840707 Z M9.19431579,50.5198465 L8.96884211,50.3894512 L8.97768421,46.8131023 L9.20463158,46.9420326 L9.19431579,50.5198465 Z M8.83915789,50.3147302 L8.50168421,50.1213349 L8.512,46.544986 L8.84947368,46.7398465 L8.83915789,50.3147302 Z M8.37642105,50.0495442 L7.53642105,49.5675209 L7.54673684,45.9911721 L8.38673684,46.4731953 L8.37642105,50.0495442 Z M7.22842105,45.4578698 L7.21515789,49.7345442 L15.7698947,54.6441488 L15.7831579,50.3674744 L7.22842105,45.4578698 Z" id="Fill-20" fill="#EFF0F0"></path>
                            <polygon id="Fill-22" fill="#414042" points="7.53612632 49.568107 8.37612632 50.0501302 8.38644211 46.4737814 7.54644211 45.9917581"></polygon>
                            <polygon id="Fill-24" fill="#414042" points="9.87618947 50.9114721 10.0500842 51.0096349 10.0604 47.4347512 9.88650526 47.3351233"></polygon>
                            <polygon id="Fill-26" fill="#414042" points="8.50183158 50.1217744 8.83930526 50.3151698 8.84814737 46.7388209 8.51214737 46.5454256"></polygon>
                            <polygon id="Fill-28" fill="#414042" points="8.96810526 50.3893047 9.19357895 50.5197 9.20389474 46.941886 8.97842105 46.8129558"></polygon>
                            <polygon id="Fill-30" fill="#414042" points="10.1871368 51.0888977 11.1686105 51.6529674 11.1789263 48.0751535 10.1974526 47.5125488"></polygon>
                            <polygon id="Fill-32" fill="#414042" points="11.2952 51.7256372 11.4985684 51.8413814 11.5103579 48.2664977 11.3055158 48.1492884"></polygon>
                            <polygon id="Fill-34" fill="#414042" points="11.6348842 51.9202047 11.9944632 52.126786 12.0047789 48.5504372 11.6452 48.3438558"></polygon>
                            <polygon id="Fill-36" fill="#414042" points="12.6365474 52.4954093 12.7603368 52.5672 12.7721263 48.989386 12.6468632 48.9190605"></polygon>
                            <polygon id="Fill-38" fill="#414042" points="12.8926737 52.6413349 13.4261474 52.9490093 13.4364632 49.3726605 12.9029895 49.0664512"></polygon>
                            <polygon id="Fill-40" fill="#414042" points="14.1374947 53.3567512 14.2627579 53.4285419 14.2730737 49.8507279 14.1478105 49.7804023"></polygon>
                            <polygon id="Fill-42" fill="#414042" points="14.3950947 53.5041419 14.9270947 53.8103512 14.9374105 50.2340023 14.4054105 49.9292581"></polygon>
                            <polygon id="Fill-44" fill="#414042" points="12.1256211 52.202093 12.2494105 52.2738837 12.2597263 48.6960698 12.1359368 48.6257442"></polygon>
                            <polygon id="Fill-46" fill="#414042" points="12.3804211 52.3480186 12.5056842 52.4198093 12.516 48.8419953 12.3907368 48.7731349"></polygon>
                            <polygon id="Fill-48" fill="#414042" points="13.5576 53.0234372 13.7801263 53.1523674 13.7904421 49.5745535 13.5679158 49.4485535"></polygon>
                            <polygon id="Fill-50" fill="#414042" points="13.8913895 53.2150744 13.9930737 53.2736791 14.0033895 49.6987953 13.9017053 49.6401907"></polygon>
                            <polygon id="Fill-52" fill="#414042" points="15.0701895 53.8918116 15.1939789 53.9636023 15.2042947 50.3857884 15.0805053 50.3154628"></polygon>
                            <polygon id="Fill-54" fill="#414042" points="9.338 50.601014 9.75357895 50.8398279 9.76389474 47.2634791 9.34831579 47.0261302"></polygon>
                            <polygon id="Fill-56" fill="#414042" points="15.3363368 50.4622674 15.3260211 54.0386163 15.4498105 54.1089419 15.4601263 50.5340581"></polygon>
                            <polygon id="Fill-58" fill="#565382" points="5.80926316 50.6153721 5.88147368 20.0442558 0.154736842 16.758 0.144421053 16.7638605 0.0707368421 47.3232558"></polygon>
                            <polygon id="Fill-60" fill="#6B6990" points="28.6916 0.106074419 0.155178947 16.7571209 5.88044211 20.0448419 5.88044211 20.0375163 34.4124421 3.39086512"></polygon>
                        </g>
                    </g>
                    <g id="Page-1-Copy-11" transform="translate(32.000000, 43.000000)">
                        <polygon id="Fill-1" fill="#727BAF" points="0 47.1320581 26.7532632 62.4879419 26.8402105 31.9256163 0.0869473684 16.5697326"></polygon>
                        <polygon id="Fill-2" fill="#858DBE" points="26.8406526 31.9259093 26.7537053 62.4882349 55.4316 45.9192349 55.5185474 15.3569093"></polygon>
                        <polygon id="Fill-3" fill="#9199C6" points="28.7664632 -0.000146511628 0.0870947368 16.5688535 26.8403579 31.9262023 55.5182526 15.3557372"></polygon>
                        <path d="M51.2833263,47.0463488 L51.2730105,43.4905116 L54.3854316,41.7045349 L54.3957474,45.2603721 L51.2833263,47.0463488 Z M48.0780632,48.8865349 L48.0677474,45.3306977 L51.1801684,43.5432558 L51.1904842,47.1005581 L48.0780632,48.8865349 Z M44.8698526,50.728186 L44.8610105,47.1723488 L47.9734316,45.384907 L47.9837474,48.9407442 L44.8698526,50.728186 Z M54.4782737,41.5448372 L51.1801684,43.4377674 L47.9749053,45.2779535 L44.7666947,47.1196047 L44.7770105,50.8878837 L47.9852211,49.0462326 L48.0765895,48.9934884 L51.1919579,47.2060465 L51.2848,47.1518372 L54.4900632,45.3116512 L54.4782737,41.5448372 Z" id="Fill-4" fill="#414042"></path>
                        <g id="Group-62" transform="translate(9.578947, 5.348993)">
                            <path d="M41.0092421,39.1105465 L41.0092485,39.0050581 L40.0469263,39.557407 L39.6166105,39.8050116 L39.5208211,40.0672674 L39.7713474,39.8987791 L39.3822947,40.691407 L39.5812421,40.1214767 L39.3204,40.3119419 L39.5208211,39.8592209 L39.0831368,40.1097558 L39.0846105,40.2152442 C39.0860842,40.6767558 39.3395579,40.9448721 39.7212421,40.8848023 C39.7978737,40.8730814 39.8745053,40.8481744 39.9540842,40.8100814 L39.9585053,42.0129419 L39.4102947,42.3264767 L39.4117684,42.5447791 L40.6968211,41.8063605 L40.6968211,41.5895233 L40.1486105,41.9030581 L40.1456632,40.7016628 C40.2237684,40.6474535 40.3033474,40.5829884 40.3785053,40.5068023 C40.7587158,40.1302674 41.0107158,39.5720581 41.0092421,39.1105465" id="Fill-5" fill="#414042"></path>
                            <polygon id="Fill-7" fill="#414042" points="36.8385684 41.3983256 36.1930947 42.7667442 36.5998316 42.5308605 36.6042526 44.1556744 37.0890947 43.8773023 37.0846737 42.2539535 37.4914105 42.021"></polygon>
                            <polygon id="Fill-9" fill="#414042" points="42.5131368 39.3537558 42.5116632 39.3537558 42.5116632 39.3552209"></polygon>
                            <polygon id="Fill-13" fill="#414042" points="43.9997895 38.5009116 43.9983158 38.5009116 43.9968421 38.5009116"></polygon>
                            <g id="Group-17" transform="translate(43.473684, 36.627907)">
                                <mask id="mask-4" fill="white">
                                    <use xlink:href="#path-3"></use>
                                </mask>
                                <g id="Clip-16"></g>
                                <path d="M1.26589474,1.44812093 L1.26736842,1.44665581 L1.26589474,1.44812093 Z" id="Fill-15" fill="#414042" mask="url(#mask-4)"></path>
                            </g>
                            <path d="M43.6443368,37.7484279 C43.5426526,37.7689395 43.4365474,37.8041023 43.3304421,37.8568465 L43.3304421,37.6634512 L43.1742316,37.7542884 L43.1742316,37.9476837 C43.0681263,38.0165442 42.9634947,38.1000558 42.8618105,38.1982186 C42.5611789,38.4883116 42.1352842,38.9937767 41.7712842,39.777614 C41.7845474,39.7571023 41.9289684,39.5446605 42.1397053,39.4230558 C42.3637053,39.2955907 42.5051789,39.3512651 42.5110737,39.3541953 C42.5199158,39.3424744 42.6599158,39.1241721 42.8824421,38.996707 C43.0091789,38.9249163 43.1123368,38.9117302 43.1771789,38.9146605 L43.1801263,39.9182651 C43.1801263,40.0779628 43.0651789,40.2742884 42.9266526,40.3534047 C42.7866526,40.433986 42.6731789,40.3695209 42.6717053,40.2098233 L42.6717053,39.941707 L42.5125474,40.0325442 L42.5140211,40.2991953 C42.5140211,40.5585209 42.6997053,40.6640093 42.9281263,40.533614 C43.1536,40.4032186 43.3378105,40.0882186 43.3363368,39.828893 L43.3333895,38.8238233 C43.3997053,38.7461721 43.4999158,38.6406837 43.6266526,38.5703581 C43.8506526,38.442893 43.9906526,38.4971023 43.9980211,38.5014977 C44.0053895,38.4897767 44.1468632,38.2700093 44.3693895,38.1440093 C44.5816,38.0224047 44.7245474,38.0692884 44.7392842,38.0736837 C44.3723368,37.7088698 43.9464421,37.6927535 43.6443368,37.7484279" id="Fill-18" fill="#414042"></path>
                            <path d="M15.4501053,54.1093814 L15.3263158,54.0390558 L15.3366316,50.462707 L15.4604211,50.5344977 L15.4501053,54.1093814 Z M15.1936842,53.9628698 L15.0698947,53.8925442 L15.0802105,50.3147302 L15.204,50.3865209 L15.1936842,53.9628698 Z M14.9284211,53.8104977 L14.3949474,53.5042884 L14.4052632,49.9279395 L14.9372632,50.2326837 L14.9284211,53.8104977 Z M14.2623158,53.4281023 L14.1370526,53.3563116 L14.1473684,49.7799628 L14.2726316,49.8517535 L14.2623158,53.4281023 Z M13.9941053,53.2742651 L13.8909474,53.2156605 L13.9012632,49.6393116 L14.0044211,49.6979163 L13.9941053,53.2742651 Z M13.7804211,53.1526605 L13.5578947,53.0237302 L13.5682105,49.4473814 L13.7907368,49.5748465 L13.7804211,53.1526605 Z M13.4267368,52.9490093 L12.8932632,52.6413349 L12.9021053,49.0664512 L13.4370526,49.3726605 L13.4267368,52.9490093 Z M12.7606316,52.566614 L12.6368421,52.4948233 L12.6471579,48.9184744 L12.7724211,48.9902651 L12.7606316,52.566614 Z M12.5056842,52.4201023 L12.3804211,52.3483116 L12.3907368,48.7719628 L12.516,48.8422884 L12.5056842,52.4201023 Z M12.2492632,52.2735907 L12.1254737,52.2018 L12.1357895,48.6254512 L12.2595789,48.6972419 L12.2492632,52.2735907 Z M11.9943158,52.125614 L11.6347368,51.9204977 L11.6450526,48.3426837 L12.0046316,48.5507302 L11.9943158,52.125614 Z M11.4976842,51.8413814 L11.2957895,51.7256372 L11.3046316,48.1492884 L11.5094737,48.2664977 L11.4976842,51.8413814 Z M11.1690526,51.6523814 L10.1875789,51.0883116 L10.1978947,47.5119628 L11.1793684,48.0760326 L11.1690526,51.6523814 Z M10.0505263,51.0106605 L9.87663158,50.9110326 L9.88694737,47.3346837 L10.0608421,47.4343116 L10.0505263,51.0106605 Z M9.75431579,50.840707 L9.33873684,50.6004279 L9.34757895,47.0255442 L9.76463158,47.262893 L9.75431579,50.840707 Z M9.19431579,50.5198465 L8.96884211,50.3894512 L8.97768421,46.8131023 L9.20463158,46.9420326 L9.19431579,50.5198465 Z M8.83915789,50.3147302 L8.50168421,50.1213349 L8.512,46.544986 L8.84947368,46.7398465 L8.83915789,50.3147302 Z M8.37642105,50.0495442 L7.53642105,49.5675209 L7.54673684,45.9911721 L8.38673684,46.4731953 L8.37642105,50.0495442 Z M7.22842105,45.4578698 L7.21515789,49.7345442 L15.7698947,54.6441488 L15.7831579,50.3674744 L7.22842105,45.4578698 Z" id="Fill-20" fill="#EFF0F0"></path>
                            <polygon id="Fill-22" fill="#414042" points="7.53612632 49.568107 8.37612632 50.0501302 8.38644211 46.4737814 7.54644211 45.9917581"></polygon>
                            <polygon id="Fill-24" fill="#414042" points="9.87618947 50.9114721 10.0500842 51.0096349 10.0604 47.4347512 9.88650526 47.3351233"></polygon>
                            <polygon id="Fill-26" fill="#414042" points="8.50183158 50.1217744 8.83930526 50.3151698 8.84814737 46.7388209 8.51214737 46.5454256"></polygon>
                            <polygon id="Fill-28" fill="#414042" points="8.96810526 50.3893047 9.19357895 50.5197 9.20389474 46.941886 8.97842105 46.8129558"></polygon>
                            <polygon id="Fill-30" fill="#414042" points="10.1871368 51.0888977 11.1686105 51.6529674 11.1789263 48.0751535 10.1974526 47.5125488"></polygon>
                            <polygon id="Fill-32" fill="#414042" points="11.2952 51.7256372 11.4985684 51.8413814 11.5103579 48.2664977 11.3055158 48.1492884"></polygon>
                            <polygon id="Fill-34" fill="#414042" points="11.6348842 51.9202047 11.9944632 52.126786 12.0047789 48.5504372 11.6452 48.3438558"></polygon>
                            <polygon id="Fill-36" fill="#414042" points="12.6365474 52.4954093 12.7603368 52.5672 12.7721263 48.989386 12.6468632 48.9190605"></polygon>
                            <polygon id="Fill-38" fill="#414042" points="12.8926737 52.6413349 13.4261474 52.9490093 13.4364632 49.3726605 12.9029895 49.0664512"></polygon>
                            <polygon id="Fill-40" fill="#414042" points="14.1374947 53.3567512 14.2627579 53.4285419 14.2730737 49.8507279 14.1478105 49.7804023"></polygon>
                            <polygon id="Fill-42" fill="#414042" points="14.3950947 53.5041419 14.9270947 53.8103512 14.9374105 50.2340023 14.4054105 49.9292581"></polygon>
                            <polygon id="Fill-44" fill="#414042" points="12.1256211 52.202093 12.2494105 52.2738837 12.2597263 48.6960698 12.1359368 48.6257442"></polygon>
                            <polygon id="Fill-46" fill="#414042" points="12.3804211 52.3480186 12.5056842 52.4198093 12.516 48.8419953 12.3907368 48.7731349"></polygon>
                            <polygon id="Fill-48" fill="#414042" points="13.5576 53.0234372 13.7801263 53.1523674 13.7904421 49.5745535 13.5679158 49.4485535"></polygon>
                            <polygon id="Fill-50" fill="#414042" points="13.8913895 53.2150744 13.9930737 53.2736791 14.0033895 49.6987953 13.9017053 49.6401907"></polygon>
                            <polygon id="Fill-52" fill="#414042" points="15.0701895 53.8918116 15.1939789 53.9636023 15.2042947 50.3857884 15.0805053 50.3154628"></polygon>
                            <polygon id="Fill-54" fill="#414042" points="9.338 50.601014 9.75357895 50.8398279 9.76389474 47.2634791 9.34831579 47.0261302"></polygon>
                            <polygon id="Fill-56" fill="#414042" points="15.3363368 50.4622674 15.3260211 54.0386163 15.4498105 54.1089419 15.4601263 50.5340581"></polygon>
                            <polygon id="Fill-58" fill="#565382" points="5.80926316 50.6153721 5.88147368 20.0442558 0.154736842 16.758 0.144421053 16.7638605 0.0707368421 47.3232558"></polygon>
                            <polygon id="Fill-60" fill="#6B6990" points="28.6916 0.106074419 0.155178947 16.7571209 5.88044211 20.0448419 5.88044211 20.0375163 34.4124421 3.39086512"></polygon>
                        </g>
                    </g>
                    <g id="Page-1-Copy-12" transform="translate(17.000000, 0.000000)">
                        <polygon id="Fill-1" fill="#727BAF" points="0 47.1320581 26.7532632 62.4879419 26.8402105 31.9256163 0.0869473684 16.5697326"></polygon>
                        <polygon id="Fill-2" fill="#858DBE" points="26.8406526 31.9259093 26.7537053 62.4882349 55.4316 45.9192349 55.5185474 15.3569093"></polygon>
                        <polygon id="Fill-3" fill="#9199C6" points="28.7664632 -0.000146511628 0.0870947368 16.5688535 26.8403579 31.9262023 55.5182526 15.3557372"></polygon>
                        <path d="M51.2833263,47.0463488 L51.2730105,43.4905116 L54.3854316,41.7045349 L54.3957474,45.2603721 L51.2833263,47.0463488 Z M48.0780632,48.8865349 L48.0677474,45.3306977 L51.1801684,43.5432558 L51.1904842,47.1005581 L48.0780632,48.8865349 Z M44.8698526,50.728186 L44.8610105,47.1723488 L47.9734316,45.384907 L47.9837474,48.9407442 L44.8698526,50.728186 Z M54.4782737,41.5448372 L51.1801684,43.4377674 L47.9749053,45.2779535 L44.7666947,47.1196047 L44.7770105,50.8878837 L47.9852211,49.0462326 L48.0765895,48.9934884 L51.1919579,47.2060465 L51.2848,47.1518372 L54.4900632,45.3116512 L54.4782737,41.5448372 Z" id="Fill-4" fill="#414042"></path>
                        <g id="Group-62" transform="translate(9.578947, 5.348993)">
                            <path d="M41.0092421,39.1105465 L41.0092485,39.0050581 L40.0469263,39.557407 L39.6166105,39.8050116 L39.5208211,40.0672674 L39.7713474,39.8987791 L39.3822947,40.691407 L39.5812421,40.1214767 L39.3204,40.3119419 L39.5208211,39.8592209 L39.0831368,40.1097558 L39.0846105,40.2152442 C39.0860842,40.6767558 39.3395579,40.9448721 39.7212421,40.8848023 C39.7978737,40.8730814 39.8745053,40.8481744 39.9540842,40.8100814 L39.9585053,42.0129419 L39.4102947,42.3264767 L39.4117684,42.5447791 L40.6968211,41.8063605 L40.6968211,41.5895233 L40.1486105,41.9030581 L40.1456632,40.7016628 C40.2237684,40.6474535 40.3033474,40.5829884 40.3785053,40.5068023 C40.7587158,40.1302674 41.0107158,39.5720581 41.0092421,39.1105465" id="Fill-5" fill="#414042"></path>
                            <polygon id="Fill-7" fill="#414042" points="36.8385684 41.3983256 36.1930947 42.7667442 36.5998316 42.5308605 36.6042526 44.1556744 37.0890947 43.8773023 37.0846737 42.2539535 37.4914105 42.021"></polygon>
                            <polygon id="Fill-9" fill="#414042" points="42.5131368 39.3537558 42.5116632 39.3537558 42.5116632 39.3552209"></polygon>
                            <polygon id="Fill-13" fill="#414042" points="43.9997895 38.5009116 43.9983158 38.5009116 43.9968421 38.5009116"></polygon>
                            <g id="Group-17" transform="translate(43.473684, 36.627907)">
                                <mask id="mask-6" fill="white">
                                    <use xlink:href="#path-5"></use>
                                </mask>
                                <g id="Clip-16"></g>
                                <path d="M1.26589474,1.44812093 L1.26736842,1.44665581 L1.26589474,1.44812093 Z" id="Fill-15" fill="#414042" mask="url(#mask-6)"></path>
                            </g>
                            <path d="M43.6443368,37.7484279 C43.5426526,37.7689395 43.4365474,37.8041023 43.3304421,37.8568465 L43.3304421,37.6634512 L43.1742316,37.7542884 L43.1742316,37.9476837 C43.0681263,38.0165442 42.9634947,38.1000558 42.8618105,38.1982186 C42.5611789,38.4883116 42.1352842,38.9937767 41.7712842,39.777614 C41.7845474,39.7571023 41.9289684,39.5446605 42.1397053,39.4230558 C42.3637053,39.2955907 42.5051789,39.3512651 42.5110737,39.3541953 C42.5199158,39.3424744 42.6599158,39.1241721 42.8824421,38.996707 C43.0091789,38.9249163 43.1123368,38.9117302 43.1771789,38.9146605 L43.1801263,39.9182651 C43.1801263,40.0779628 43.0651789,40.2742884 42.9266526,40.3534047 C42.7866526,40.433986 42.6731789,40.3695209 42.6717053,40.2098233 L42.6717053,39.941707 L42.5125474,40.0325442 L42.5140211,40.2991953 C42.5140211,40.5585209 42.6997053,40.6640093 42.9281263,40.533614 C43.1536,40.4032186 43.3378105,40.0882186 43.3363368,39.828893 L43.3333895,38.8238233 C43.3997053,38.7461721 43.4999158,38.6406837 43.6266526,38.5703581 C43.8506526,38.442893 43.9906526,38.4971023 43.9980211,38.5014977 C44.0053895,38.4897767 44.1468632,38.2700093 44.3693895,38.1440093 C44.5816,38.0224047 44.7245474,38.0692884 44.7392842,38.0736837 C44.3723368,37.7088698 43.9464421,37.6927535 43.6443368,37.7484279" id="Fill-18" fill="#414042"></path>
                            <path d="M15.4501053,54.1093814 L15.3263158,54.0390558 L15.3366316,50.462707 L15.4604211,50.5344977 L15.4501053,54.1093814 Z M15.1936842,53.9628698 L15.0698947,53.8925442 L15.0802105,50.3147302 L15.204,50.3865209 L15.1936842,53.9628698 Z M14.9284211,53.8104977 L14.3949474,53.5042884 L14.4052632,49.9279395 L14.9372632,50.2326837 L14.9284211,53.8104977 Z M14.2623158,53.4281023 L14.1370526,53.3563116 L14.1473684,49.7799628 L14.2726316,49.8517535 L14.2623158,53.4281023 Z M13.9941053,53.2742651 L13.8909474,53.2156605 L13.9012632,49.6393116 L14.0044211,49.6979163 L13.9941053,53.2742651 Z M13.7804211,53.1526605 L13.5578947,53.0237302 L13.5682105,49.4473814 L13.7907368,49.5748465 L13.7804211,53.1526605 Z M13.4267368,52.9490093 L12.8932632,52.6413349 L12.9021053,49.0664512 L13.4370526,49.3726605 L13.4267368,52.9490093 Z M12.7606316,52.566614 L12.6368421,52.4948233 L12.6471579,48.9184744 L12.7724211,48.9902651 L12.7606316,52.566614 Z M12.5056842,52.4201023 L12.3804211,52.3483116 L12.3907368,48.7719628 L12.516,48.8422884 L12.5056842,52.4201023 Z M12.2492632,52.2735907 L12.1254737,52.2018 L12.1357895,48.6254512 L12.2595789,48.6972419 L12.2492632,52.2735907 Z M11.9943158,52.125614 L11.6347368,51.9204977 L11.6450526,48.3426837 L12.0046316,48.5507302 L11.9943158,52.125614 Z M11.4976842,51.8413814 L11.2957895,51.7256372 L11.3046316,48.1492884 L11.5094737,48.2664977 L11.4976842,51.8413814 Z M11.1690526,51.6523814 L10.1875789,51.0883116 L10.1978947,47.5119628 L11.1793684,48.0760326 L11.1690526,51.6523814 Z M10.0505263,51.0106605 L9.87663158,50.9110326 L9.88694737,47.3346837 L10.0608421,47.4343116 L10.0505263,51.0106605 Z M9.75431579,50.840707 L9.33873684,50.6004279 L9.34757895,47.0255442 L9.76463158,47.262893 L9.75431579,50.840707 Z M9.19431579,50.5198465 L8.96884211,50.3894512 L8.97768421,46.8131023 L9.20463158,46.9420326 L9.19431579,50.5198465 Z M8.83915789,50.3147302 L8.50168421,50.1213349 L8.512,46.544986 L8.84947368,46.7398465 L8.83915789,50.3147302 Z M8.37642105,50.0495442 L7.53642105,49.5675209 L7.54673684,45.9911721 L8.38673684,46.4731953 L8.37642105,50.0495442 Z M7.22842105,45.4578698 L7.21515789,49.7345442 L15.7698947,54.6441488 L15.7831579,50.3674744 L7.22842105,45.4578698 Z" id="Fill-20" fill="#EFF0F0"></path>
                            <polygon id="Fill-22" fill="#414042" points="7.53612632 49.568107 8.37612632 50.0501302 8.38644211 46.4737814 7.54644211 45.9917581"></polygon>
                            <polygon id="Fill-24" fill="#414042" points="9.87618947 50.9114721 10.0500842 51.0096349 10.0604 47.4347512 9.88650526 47.3351233"></polygon>
                            <polygon id="Fill-26" fill="#414042" points="8.50183158 50.1217744 8.83930526 50.3151698 8.84814737 46.7388209 8.51214737 46.5454256"></polygon>
                            <polygon id="Fill-28" fill="#414042" points="8.96810526 50.3893047 9.19357895 50.5197 9.20389474 46.941886 8.97842105 46.8129558"></polygon>
                            <polygon id="Fill-30" fill="#414042" points="10.1871368 51.0888977 11.1686105 51.6529674 11.1789263 48.0751535 10.1974526 47.5125488"></polygon>
                            <polygon id="Fill-32" fill="#414042" points="11.2952 51.7256372 11.4985684 51.8413814 11.5103579 48.2664977 11.3055158 48.1492884"></polygon>
                            <polygon id="Fill-34" fill="#414042" points="11.6348842 51.9202047 11.9944632 52.126786 12.0047789 48.5504372 11.6452 48.3438558"></polygon>
                            <polygon id="Fill-36" fill="#414042" points="12.6365474 52.4954093 12.7603368 52.5672 12.7721263 48.989386 12.6468632 48.9190605"></polygon>
                            <polygon id="Fill-38" fill="#414042" points="12.8926737 52.6413349 13.4261474 52.9490093 13.4364632 49.3726605 12.9029895 49.0664512"></polygon>
                            <polygon id="Fill-40" fill="#414042" points="14.1374947 53.3567512 14.2627579 53.4285419 14.2730737 49.8507279 14.1478105 49.7804023"></polygon>
                            <polygon id="Fill-42" fill="#414042" points="14.3950947 53.5041419 14.9270947 53.8103512 14.9374105 50.2340023 14.4054105 49.9292581"></polygon>
                            <polygon id="Fill-44" fill="#414042" points="12.1256211 52.202093 12.2494105 52.2738837 12.2597263 48.6960698 12.1359368 48.6257442"></polygon>
                            <polygon id="Fill-46" fill="#414042" points="12.3804211 52.3480186 12.5056842 52.4198093 12.516 48.8419953 12.3907368 48.7731349"></polygon>
                            <polygon id="Fill-48" fill="#414042" points="13.5576 53.0234372 13.7801263 53.1523674 13.7904421 49.5745535 13.5679158 49.4485535"></polygon>
                            <polygon id="Fill-50" fill="#414042" points="13.8913895 53.2150744 13.9930737 53.2736791 14.0033895 49.6987953 13.9017053 49.6401907"></polygon>
                            <polygon id="Fill-52" fill="#414042" points="15.0701895 53.8918116 15.1939789 53.9636023 15.2042947 50.3857884 15.0805053 50.3154628"></polygon>
                            <polygon id="Fill-54" fill="#414042" points="9.338 50.601014 9.75357895 50.8398279 9.76389474 47.2634791 9.34831579 47.0261302"></polygon>
                            <polygon id="Fill-56" fill="#414042" points="15.3363368 50.4622674 15.3260211 54.0386163 15.4498105 54.1089419 15.4601263 50.5340581"></polygon>
                            <polygon id="Fill-58" fill="#565382" points="5.80926316 50.6153721 5.88147368 20.0442558 0.154736842 16.758 0.144421053 16.7638605 0.0707368421 47.3232558"></polygon>
                            <polygon id="Fill-60" fill="#6B6990" points="28.6916 0.106074419 0.155178947 16.7571209 5.88044211 20.0448419 5.88044211 20.0375163 34.4124421 3.39086512"></polygon>
                        </g>
                    </g>
                </g>
            </g>
        </g>
    </g>
</svg>