<?xml version="1.0" encoding="UTF-8"?>
<svg width="192px" height="223px" viewBox="0 0 192 223" version="1.1" xmlns="http://www.w3.org/2000/svg" xmlns:xlink="http://www.w3.org/1999/xlink">
    <!-- Generator: Sketch 49.1 (51147) - http://www.bohemiancoding.com/sketch -->
    <title>legalAsset 1</title>
    <desc>Created with Sketch.</desc>
    <defs></defs>
    <g id="Page-1" stroke="none" stroke-width="1" fill="none" fill-rule="evenodd">
        <g id="Miners" transform="translate(-975.000000, -137.000000)" fill-rule="nonzero">
            <g id="legalAsset-1" transform="translate(1072.138724, 254.477864) scale(-1, 1) rotate(39.000000) translate(-1072.138724, -254.477864) translate(938.138724, 138.477864)">
                <path d="M2.23333333,87.1086751 L106.124691,6.59282204 C107.660237,5.35096521 109.552108,5.35096521 111.087654,6.59282204 L264.848519,124.672698 C269.025679,128.218223 268.082716,138.91273 264.848519,141.647187 L159.054691,230.748772 C157.485874,232.063264 155.5282,232.063264 153.959383,230.748772 L2.64691358,103.33003 C-0.579012346,100.60716 -1.01740741,89.7736119 2.23333333,87.1086751 Z" id="Shape" fill="#5264AE"></path>
                <path d="M2.69654321,86.0311137 L106.091605,1.26294834 C107.627151,0.021091504 109.519022,0.021091504 111.054568,1.26294834 L264.732716,124.313511 C266.264884,125.53736 267.218241,127.808335 267.236967,130.278843 C267.255693,132.74935 266.336975,135.048169 264.823704,136.317313 L159.029877,225.418898 C157.461059,226.73339 155.503385,226.73339 153.934568,225.418898 L2.64691358,98.0001561 C1.14141602,96.736981 0.224079027,94.454 0.234271939,91.9958033 C0.24446485,89.5376066 1.18067207,87.2697064 2.69654321,86.0311137 L2.69654321,86.0311137 Z" id="Shape" fill="#728AD4"></path>
                <polygon id="Shape" fill="#334488" points="25.145679 101.082214 147.408272 214.040776 246.76679 130.975853 236.584444 118.682383"></polygon>
                <polygon id="Shape" fill="#B2B1CC" points="245.079383 121.24304 226.120864 105.751646 224.334198 107.999463 217.038642 101.082214 31.2501235 102.391509 150.154444 203.612762 245.079383 127.673649 241.381975 124.162884"></polygon>
                <path d="M16.9402469,94.2692445 L111.071111,17.7971435 C111.071111,17.7971435 224.673333,107.814076 245.071111,108.590383 L149.881481,186.99746 C149.881481,186.99746 92.9066667,158.019169 16.9402469,94.2692445 Z" id="Shape" fill="#FFFFFF"></path>
                <polygon id="Shape" fill="#9199C6" points="56.5777778 104.708845 127.589506 47.91093 132.337407 52.1748289 61.557284 109.123371"></polygon>
                <polygon id="Shape" fill="#9199C6" points="55.254321 82.3928955 106.32321 41.6309483 111.071111 45.8832606 60.2338272 86.819008"></polygon>
                <polygon id="Shape" fill="#9199C6" points="67.3060494 114.267858 138.317778 57.4699426 143.065679 61.7338416 72.2855556 118.682383"></polygon>
                <polygon id="Shape" fill="#9199C6" points="79.0765432 123.247536 150.088272 66.4612078 154.836173 70.7135201 84.0560494 127.673649"></polygon>
                <polygon id="Shape" fill="#9199C6" points="90.847037 131.937548 161.850494 75.1512193 166.598395 79.4035316 95.8182716 136.36366"></polygon>
                <polygon id="Shape" fill="#9199C6" points="102.402469 140.928813 173.414198 84.1308978 178.162099 88.3832101 107.381975 145.343339"></polygon>
                <polygon id="Shape" fill="#9199C6" points="114.991852 148.749823 147.300741 122.181561 152.048642 126.433874 119.971358 153.164349"></polygon>
                <polygon id="Shape" fill="#9199C6" points="181.751975 130.570319 209.370864 107.501235 214.118765 111.753548 186.731481 134.984845"></polygon>
                <path d="M52.9382716,53.9128312 L45.3614815,60.6215201 C45.2049948,60.75995 45.1000073,60.9879403 45.0745029,61.2447213 C45.0489985,61.5015023 45.105569,61.7609788 45.2291358,61.9539885 L50.2996296,70.0646659 C50.6573271,70.6358153 51.2537928,70.7718295 51.7223457,70.389093 L90.1604938,39.2904386 C90.4489827,39.053955 90.6075104,38.5974961 90.5622672,38.1335866 C90.5170241,37.6696771 90.2769033,37.2895048 89.9537037,37.1700758 L81.6076543,32.8482434 L68.1249383,44.4349254 L59.4066667,37.5756096 C59.1725409,37.4103504 58.896348,37.4103504 58.6622222,37.5756096 L47.4045679,48.0963169 C47.2690425,48.2148599 47.1866986,48.4228717 47.1866986,48.6466843 C47.1866986,48.8704968 47.2690425,49.0785086 47.4045679,49.1970517 L52.9382716,53.9128312 Z" id="Shape" fill="#BDC5FF"></path>
                <path d="M88.2662963,35.2350999 L80.9790123,32.4427095 C80.5982214,32.2996984 80.1923051,32.3791349 79.8540741,32.6628565 L70.9290123,40.0667463 C70.7293914,40.2281877 70.4834482,40.2281877 70.2838272,40.0667463 L62.268642,33.7635913 C61.81403,33.390326 61.2509082,33.390326 60.7962963,33.7635913 L55.8746914,37.9811435 C55.8167901,35.7333272 53.6248148,33.9373915 50.9117284,33.9373915 C48.198642,33.9373915 45.9487654,35.7912606 45.9487654,38.073837 C45.9487654,40.3564133 48.1655556,42.2102824 50.9117284,42.2102824 L50.9117284,42.2102824 L47.2308642,45.3618599 C46.9828439,45.5871461 46.8395008,45.9807084 46.8548581,46.394221 C46.8702155,46.8077337 47.0419387,47.1783362 47.3053086,47.3663559 L53.3601235,52.7773364 C53.5438445,52.9466298 53.6544554,53.2340144 53.6544554,53.5420574 C53.6544554,53.8501004 53.5438445,54.1374851 53.3601235,54.3067784 L47.3880247,59.6598255 C47.0289114,59.9832172 46.7884562,60.5100685 46.7296387,61.102387 C46.6708213,61.6947056 46.7995014,62.2934811 47.0819753,62.7418829 L50.3906173,68.0022365 C50.8501171,68.7363113 51.6165802,68.9112036 52.218642,68.4193571 L88.6137037,38.8964914 C89.0830326,38.4638825 89.3342382,37.6932214 89.2602161,36.9130883 C89.186194,36.1329553 88.8000015,35.4809646 88.2662963,35.2350999 L88.2662963,35.2350999 Z M47.487284,38.1665304 C47.487284,36.579155 49.0258025,35.2930333 50.9282716,35.2930333 C52.8307407,35.2930333 54.3692593,36.579155 54.3692593,38.1665304 C54.3692593,39.7539059 52.8307407,41.0400276 50.9282716,41.0400276 C49.0258025,41.0400276 47.4955556,39.7539059 47.4955556,38.1665304 L47.487284,38.1665304 Z" id="Shape" fill="#FFFFFF"></path>
            </g>
        </g>
    </g>
</svg>