<?xml version="1.0" encoding="utf-8"?>
<svg viewBox="0 0 438 399" xmlns="http://www.w3.org/2000/svg"><g fill="none" fill-rule="evenodd"><g transform="translate(272.335 4.813)"><path fill="#504A8E" d="M8.976 90.205h3.57c1.656 0 2.853.241 3.59.724.738.482 1.107 1.245 1.107 2.286 0 .702-.181 1.286-.543 1.753-.362.466-.883.759-1.563.88v.082c.845.159 1.466.473 1.863.942.398.469.596 1.103.596 1.904 0 1.08-.377 1.926-1.13 2.538-.755.611-1.803.917-3.147.917H8.976V90.205zm1.966 4.968h1.892c.822 0 1.423-.13 1.801-.39.379-.261.568-.704.568-1.329 0-.565-.204-.973-.613-1.226-.409-.252-1.057-.378-1.945-.378h-1.703v3.323zm0 1.596v3.808h2.09c.822 0 1.443-.157 1.862-.473.42-.315.63-.813.63-1.493 0-.625-.214-1.088-.642-1.39-.428-.301-1.078-.452-1.95-.452h-1.99zm10.882 0h1.843c1.272 0 2.213.22 2.821.658.61.439.913 1.097.913 1.974 0 .938-.316 1.644-.95 2.118-.633.475-1.561.712-2.784.712h-3.776v-9.098h1.933v3.636zm3.66 2.681c0-.455-.168-.773-.505-.954-.337-.18-.821-.271-1.452-.271h-1.703v2.575h1.456c.78 0 1.341-.11 1.687-.33.345-.219.518-.559.518-1.02zm5.29 2.78h-1.941v-9.097h1.941v9.098zm8.407-9.097h2.122l-3.76 4.384 4.08 4.714h-2.22l-3.932-4.615v4.615h-1.933v-9.098h1.933v4.417l3.71-4.417zm2.558 0h2.106l1.85 5.158c.28.735.466 1.425.56 2.073h.065c.05-.302.14-.668.272-1.099.132-.43.828-2.474 2.09-6.132h2.089L46.88 103.44c-.708 1.892-1.887 2.838-3.537 2.838-.428 0-.845-.047-1.25-.14v-1.53c.29.066.622.099.995.099.932 0 1.587-.54 1.966-1.62l.337-.856-3.652-9.098zm18.368 0v9.098h-1.942v-7.568h-4.08v7.568h-1.933v-9.098h7.955zm8.99 0v4.664c0 .543-.044 1.34-.131 2.394l4.565-7.058h2.36v9.098h-1.858v-4.582c0-.252.015-.66.045-1.226.03-.564.056-.976.078-1.233l-4.549 7.04h-2.36v-9.097h1.85zm-57.402 33.301H9.72v-10.34H4.415v10.34H2.449v-12.026h9.246v12.026zm7.575.165c-1.151 0-2.045-.414-2.681-1.242h-.115c.076.767.115 1.233.115 1.398v3.726h-1.933v-13.145h1.563c.044.17.134.576.271 1.218h.099c.603-.921 1.508-1.382 2.714-1.382 1.135 0 2.02.411 2.653 1.234.633.822.95 1.977.95 3.463s-.322 2.646-.966 3.48c-.645.833-1.534 1.25-2.67 1.25zm-.468-7.848c-.768 0-1.329.225-1.683.675-.353.45-.53 1.168-.53 2.155v.288c0 1.108.175 1.91.526 2.406.351.496.924.744 1.72.744.668 0 1.184-.274 1.546-.822.362-.549.543-1.33.543-2.345 0-1.02-.18-1.791-.539-2.315-.36-.524-.887-.786-1.583-.786zm14.42 3.118c0 1.486-.382 2.646-1.144 3.48-.762.833-1.824 1.25-3.184 1.25-.85 0-1.6-.192-2.253-.576-.653-.384-1.155-.935-1.506-1.654-.35-.718-.526-1.551-.526-2.5 0-1.475.378-2.627 1.135-3.455.757-.828 1.823-1.242 3.2-1.242 1.316 0 2.358.424 3.126 1.27.767.848 1.151 1.99 1.151 3.427zm-6.623 0c0 2.1.776 3.15 2.328 3.15 1.536 0 2.304-1.05 2.304-3.15 0-2.079-.774-3.118-2.32-3.118-.812 0-1.4.269-1.765.806-.364.538-.547 1.308-.547 2.312zm16.74-2.205c0 1.075-.628 1.725-1.884 1.95v.066c.702.082 1.24.304 1.612.666.373.362.56.83.56 1.406 0 .861-.328 1.524-.983 1.987-.656.463-1.608.695-2.859.695h-4.343v-9.098h4.327c2.38 0 3.57.776 3.57 2.328zm-1.695 3.973c0-.438-.17-.75-.51-.933-.34-.184-.85-.276-1.53-.276h-2.229v2.575h2.279c1.327 0 1.99-.455 1.99-1.366zm-.238-3.808c0-.362-.142-.624-.424-.786-.282-.161-.703-.242-1.263-.242h-2.344v2.188h2.056c.648 0 1.138-.084 1.473-.251.334-.167.502-.47.502-.91zm8.184 6.77c-1.415 0-2.521-.413-3.319-1.238-.798-.826-1.197-1.962-1.197-3.41 0-1.486.37-2.654 1.11-3.504.741-.85 1.758-1.275 3.052-1.275 1.201 0 2.15.365 2.847 1.094.696.73 1.044 1.733 1.044 3.01v1.045h-6.062c.027.883.266 1.562.716 2.036.45.474 1.083.712 1.9.712.537 0 1.037-.051 1.5-.153.464-.101.962-.27 1.494-.505v1.57a5.935 5.935 0 0 1-1.431.478 8.776 8.776 0 0 1-1.654.14zm-.354-7.963c-.614 0-1.106.195-1.476.584-.37.39-.59.957-.662 1.703h4.13c-.012-.751-.193-1.32-.544-1.707-.35-.387-.833-.58-1.448-.58zm10.702 7.963c-1.152 0-2.045-.414-2.682-1.242h-.115c.077.767.115 1.233.115 1.398v3.726h-1.933v-13.145h1.563c.044.17.135.576.272 1.218h.098c.604-.921 1.509-1.382 2.715-1.382 1.135 0 2.02.411 2.653 1.234.633.822.95 1.977.95 3.463s-.322 2.646-.967 3.48c-.644.833-1.534 1.25-2.669 1.25zm-.469-7.848c-.768 0-1.328.225-1.682.675-.354.45-.53 1.168-.53 2.155v.288c0 1.108.175 1.91.526 2.406.35.496.924.744 1.72.744.668 0 1.184-.274 1.546-.822.361-.549.542-1.33.542-2.345 0-1.02-.18-1.791-.538-2.315-.36-.524-.887-.786-1.584-.786zm11.993-1.415h2.122l-3.759 4.385 4.08 4.713h-2.22l-3.933-4.615v4.615H65.82v-9.098h1.933v4.418l3.71-4.418zm9.632 9.098l-.386-1.267h-.066c-.439.554-.88.931-1.324 1.131-.444.2-1.015.3-1.711.3-.894 0-1.592-.24-2.094-.723-.501-.483-.752-1.166-.752-2.048 0-.938.348-1.646 1.044-2.123.697-.477 1.758-.737 3.184-.781l1.57-.05v-.485c0-.581-.135-1.016-.406-1.304-.272-.287-.693-.431-1.263-.431-.466 0-.913.068-1.34.205-.429.137-.84.3-1.235.486l-.625-1.382a6.728 6.728 0 0 1 1.62-.588 7.457 7.457 0 0 1 1.662-.202c1.157 0 2.03.252 2.62.757.59.504.884 1.297.884 2.377v6.128h-1.382zm-2.879-1.316c.702 0 1.266-.196 1.69-.588.426-.392.638-.942.638-1.65v-.79l-1.168.05c-.91.033-1.572.185-1.986.457-.414.271-.621.687-.621 1.246 0 .406.12.72.362.942.241.222.603.333 1.085.333z"/><g fill="#4F44CC" fill-rule="nonzero" transform="translate(10.44)"><path d="M58.962 12.033H16.846V6.016c0-1.99-1.62-3.61-3.61-3.61H3.61C1.62 2.407 0 4.027 0 6.017c0 1.99 1.62 3.61 3.61 3.61h10.83V19.253h32.489v-2.407H16.846V14.44h42.116c.664 0 1.203.54 1.203 1.203v4.813c0 1.13-.54 2.21-1.443 2.888L42.677 35.377a3.634 3.634 0 0 1-2.166.722H18.05c-1.99 0-3.61 1.62-3.61 3.61v3.731c-2.742.56-4.813 2.99-4.813 5.895a6.023 6.023 0 0 0 6.017 6.017c2.906 0 5.335-2.071 5.895-4.814h9.87c.559 2.743 2.988 4.814 5.894 4.814a6.023 6.023 0 0 0 6.017-6.017 6.023 6.023 0 0 0-6.017-6.016c-2.906 0-5.335 2.07-5.895 4.813h-9.87a6.035 6.035 0 0 0-4.69-4.692V39.71c0-.663.538-1.204 1.202-1.204h22.462a6.05 6.05 0 0 0 3.61-1.203L60.165 25.27a6.046 6.046 0 0 0 2.405-4.813v-4.813c0-1.99-1.62-3.61-3.61-3.61zM3.61 7.22a1.205 1.205 0 0 1 0-2.407h9.626c.664 0 1.204.54 1.204 1.203V7.22H3.61zm33.692 38.505c1.99 0 3.61 1.62 3.61 3.61 0 1.99-1.62 3.61-3.61 3.61-1.99 0-3.61-1.62-3.61-3.61 0-1.99 1.62-3.61 3.61-3.61zm-18.05 3.61c0 1.99-1.619 3.61-3.61 3.61-1.99 0-3.609-1.62-3.609-3.61 0-1.99 1.62-3.61 3.61-3.61 1.99 0 3.61 1.62 3.61 3.61z"/><rect width="26.473" height="2.407" x="14.44" y="21.659"/><rect width="19.253" height="2.407" x="14.44" y="26.473"/><rect width="12.033" height="2.407" x="14.44" y="31.286"/><path d="M33.692 9.626h-14.44V1.203c0-.664.54-1.203 1.204-1.203h12.033c.664 0 1.203.54 1.203 1.203v8.423zm14.44 0H36.099v-3.61c0-.664.539-1.203 1.203-1.203h9.627c.664 0 1.203.54 1.203 1.203v3.61z"/></g></g><g transform="translate(61.385 255.099)"><path fill="#504A8E" d="M11.593 99.824H9.28L4.33 93.73v6.095H2.364V87.798H4.33v5.824l4.87-5.824h2.154l-4.853 5.808 5.092 6.218zm9.451-4.565c0 1.486-.381 2.646-1.143 3.48-.762.833-1.824 1.25-3.184 1.25-.85 0-1.6-.192-2.253-.576-.653-.384-1.155-.935-1.506-1.653-.35-.719-.526-1.552-.526-2.501 0-1.475.378-2.627 1.135-3.455.757-.828 1.823-1.242 3.2-1.242 1.316 0 2.358.424 3.126 1.27.767.848 1.151 1.99 1.151 3.427zm-6.622 0c0 2.1.776 3.15 2.328 3.15 1.536 0 2.304-1.05 2.304-3.15 0-2.078-.774-3.118-2.32-3.118-.812 0-1.4.27-1.765.807-.364.537-.547 1.307-.547 2.31zm10.776-4.532v3.652h4.286v-3.652h1.933v9.097h-1.933v-3.923h-4.286v3.923h-1.933v-9.097h1.933zm12.651 9.262c-1.376 0-2.422-.402-3.138-1.205-.716-.804-1.073-1.957-1.073-3.46 0-1.53.374-2.705 1.122-3.528.749-.823 1.83-1.234 3.245-1.234.96 0 1.824.178 2.592.535l-.584 1.554c-.818-.318-1.492-.477-2.024-.477-1.574 0-2.36 1.045-2.36 3.134 0 1.02.195 1.787.587 2.3.392.512.967.768 1.724.768.86 0 1.675-.213 2.443-.641v1.686a3.818 3.818 0 0 1-1.107.436 6.639 6.639 0 0 1-1.427.132zm12.742-4.73c0 1.486-.381 2.646-1.144 3.48-.762.833-1.823 1.25-3.183 1.25-.85 0-1.601-.192-2.254-.576-.652-.384-1.154-.935-1.505-1.653-.351-.719-.527-1.552-.527-2.501 0-1.475.379-2.627 1.136-3.455.756-.828 1.823-1.242 3.2-1.242 1.315 0 2.357.424 3.125 1.27.768.848 1.152 1.99 1.152 3.427zm-6.622 0c0 2.1.776 3.15 2.328 3.15 1.535 0 2.303-1.05 2.303-3.15 0-2.078-.773-3.118-2.32-3.118-.811 0-1.4.27-1.764.807-.365.537-.547 1.307-.547 2.31zm16.32 4.565h-1.95V92.24H55.83c-.153 1.952-.36 3.477-.62 4.574-.261 1.096-.601 1.897-1.02 2.401-.42.505-.964.757-1.633.757-.423 0-.776-.06-1.061-.18v-1.514c.202.077.405.115.608.115.56 0 1-.63 1.32-1.888.321-1.258.572-3.185.753-5.778h6.112v9.097zm4.614-9.097v4.664c0 .542-.043 1.34-.131 2.393l4.565-7.057h2.36v9.097H69.84v-4.582c0-.252.015-.66.045-1.225.03-.565.056-.976.078-1.234l-4.549 7.041h-2.36v-9.097h1.85zm18.278 12.313h-1.802v-3.216h-6.235v3.216H73.36v-4.713h.74c.648-.927 1.162-2.047 1.543-3.36.381-1.313.607-2.727.679-4.24h5.527v7.6h1.333v4.713zm-3.233-4.713v-6.12H77.99a16.851 16.851 0 0 1-.654 3.34c-.331 1.097-.736 2.023-1.213 2.78h3.825zm10.611 1.497l-.386-1.267h-.066c-.439.554-.88.931-1.325 1.131-.444.2-1.014.3-1.71.3-.894 0-1.592-.24-2.094-.723-.502-.483-.753-1.165-.753-2.048 0-.938.349-1.645 1.045-2.123.697-.477 1.758-.737 3.183-.781l1.572-.05v-.485c0-.581-.136-1.016-.408-1.303-.271-.288-.692-.432-1.262-.432-.466 0-.913.068-1.341.205-.428.137-.84.3-1.234.486l-.625-1.382a6.728 6.728 0 0 1 1.62-.588 7.457 7.457 0 0 1 1.662-.202c1.157 0 2.03.252 2.62.757.59.504.884 1.297.884 2.377v6.128H90.56zm-2.879-1.316c.702 0 1.266-.196 1.69-.588.426-.392.638-.942.638-1.65v-.789l-1.168.05c-.91.032-1.572.184-1.986.456-.414.271-.621.687-.621 1.246 0 .406.12.72.361.942.242.222.604.333 1.086.333zm15.061-.18h1.317v4.696h-1.818v-3.2h-7.6v-9.097h1.932v7.567h4.236v-7.567h1.933v7.6zm4.82-7.601v4.664c0 .542-.043 1.34-.131 2.393l4.565-7.057h2.361v9.097h-1.859v-4.582c0-.252.015-.66.045-1.225.03-.565.056-.976.078-1.234l-4.548 7.041h-2.361v-9.097h1.85zm10.48 9.097h-2.163l2.533-3.726c-.614-.176-1.096-.49-1.447-.942-.351-.452-.527-1.013-.527-1.682 0-.861.307-1.534.921-2.02.615-.485 1.454-.727 2.517-.727h4.146v9.097h-1.941V96.32h-1.834l-2.205 3.504zm.28-6.334c0 .467.177.816.53 1.05.354.232.83.349 1.428.349h1.8V92.19h-2.105c-.526 0-.933.112-1.221.337-.288.225-.432.546-.432.962zm14.69-2.763v4.664c0 .542-.043 1.34-.13 2.393l4.564-7.057h2.361v9.097h-1.859v-4.582c0-.252.015-.66.045-1.225.03-.565.057-.976.079-1.234l-4.55 7.041h-2.36v-9.097h1.85zm-93.282 33.3h-2.262l-3.01-4.918-3.036 4.918h-2.106l3.99-6.235-3.735-5.79h2.188l2.78 4.548 2.78-4.548h2.123l-3.76 5.823 4.048 6.202zm6.03.165c-1.152 0-2.046-.414-2.682-1.242h-.116c.077.768.116 1.234.116 1.398v3.726h-1.933V114.93h1.562c.044.17.135.576.272 1.217h.099c.603-.921 1.508-1.382 2.714-1.382 1.135 0 2.02.412 2.653 1.234.633.823.95 1.977.95 3.463s-.322 2.646-.967 3.48c-.644.833-1.534 1.25-2.669 1.25zm-.47-7.847c-.767 0-1.328.225-1.682.674-.354.45-.53 1.168-.53 2.155v.288c0 1.108.175 1.91.526 2.406.351.497.924.745 1.72.745.668 0 1.184-.275 1.546-.823.362-.548.543-1.33.543-2.344 0-1.02-.18-1.792-.54-2.316-.358-.523-.886-.785-1.583-.785zm12.043 7.682l-.387-1.266h-.066c-.438.554-.88.93-1.324 1.13-.444.2-1.015.301-1.711.301-.894 0-1.592-.241-2.093-.724-.502-.482-.753-1.165-.753-2.048 0-.938.348-1.645 1.045-2.122.696-.477 1.757-.738 3.183-.782l1.571-.05v-.484c0-.582-.136-1.016-.407-1.304-.272-.288-.693-.432-1.263-.432-.466 0-.913.069-1.34.206-.428.137-.84.299-1.234.485l-.626-1.382a6.728 6.728 0 0 1 1.62-.588 7.457 7.457 0 0 1 1.662-.202c1.158 0 2.03.253 2.62.757.59.505.885 1.297.885 2.377v6.128h-1.382zm-2.88-1.316c.703 0 1.266-.196 1.691-.588.425-.392.638-.942.638-1.649v-.79l-1.169.05c-.91.033-1.572.185-1.986.456-.414.272-.621.687-.621 1.246 0 .406.12.72.362.942.241.222.603.333 1.086.333zm8.893-7.781v3.652h4.285v-3.652h1.933v9.097H67.63v-3.923h-4.285v3.923h-1.933v-9.097h1.933zm12.955 9.262c-1.415 0-2.521-.413-3.319-1.238s-1.197-1.962-1.197-3.41c0-1.486.37-2.654 1.11-3.504.74-.85 1.758-1.275 3.052-1.275 1.201 0 2.15.365 2.846 1.094.697.73 1.045 1.733 1.045 3.011v1.045h-6.062c.027.883.266 1.561.715 2.035.45.475 1.083.712 1.9.712.538 0 1.038-.05 1.502-.152.463-.102.96-.27 1.493-.506v1.571a5.935 5.935 0 0 1-1.432.477 8.776 8.776 0 0 1-1.653.14zm-.354-7.962c-.614 0-1.106.194-1.476.584-.37.389-.591.956-.662 1.702h4.129c-.011-.751-.192-1.32-.543-1.707-.35-.386-.833-.58-1.448-.58zm8.02-1.3v3.652h4.286v-3.652h1.933v9.097h-1.933v-3.923h-4.286v3.923h-1.933v-9.097h1.933zm10.834 0v4.664c0 .543-.044 1.34-.132 2.394l4.565-7.058h2.36v9.097h-1.858v-4.581c0-.252.015-.661.045-1.226s.056-.976.078-1.234l-4.548 7.041h-2.361v-9.097h1.85zm13.523 9.262c-1.415 0-2.522-.413-3.32-1.238-.797-.825-1.196-1.962-1.196-3.41 0-1.486.37-2.654 1.11-3.504.74-.85 1.758-1.275 3.052-1.275 1.2 0 2.15.365 2.846 1.094.696.73 1.045 1.733 1.045 3.011v1.045h-6.063c.028.883.266 1.561.716 2.035.45.475 1.083.712 1.9.712.537 0 1.038-.05 1.501-.152.464-.102.961-.27 1.493-.506v1.571a5.935 5.935 0 0 1-1.431.477 8.776 8.776 0 0 1-1.653.14zm-.354-7.962c-.614 0-1.107.194-1.477.584-.37.389-.59.956-.662 1.702h4.13c-.012-.751-.193-1.32-.543-1.707-.351-.386-.834-.58-1.448-.58z"/><g fill="#4F44CC" fill-rule="nonzero" transform="translate(39.692)"><rect width="13.236" height="2.407" x="37.302" y="9.626"/><polygon points="51.742 44.522 49.335 48.132 49.335 13.236 51.742 9.626"/><rect width="13.236" height="2.407" x="7.22" y="9.626"/><path d="M56.555 0H14.44v2.407h42.115c1.99 0 3.61 1.62 3.61 3.61v32.488h2.406V6.016A6.023 6.023 0 0 0 56.555 0z"/><rect width="12.033" height="2.407" x="4.813" y="45.725"/><rect width="10.83" height="2.407" x="4.813" y="40.912"/><rect width="2.407" height="4.813" x="28.879" y="43.319"/><rect width="2.407" height="4.813" x="33.692" y="43.319"/><rect width="2.407" height="4.813" x="38.505" y="43.319"/><path d="M55.352 4.813H14.097c-.832 0-1.645.29-2.288.818l-10.489 8.6A3.596 3.596 0 0 0 0 17.02v32.314c0 1.99 1.62 3.61 3.61 3.61h38.505a8.465 8.465 0 0 0 5.136-1.845l9.15-7.32a3.594 3.594 0 0 0 1.357-2.825V7.22a2.409 2.409 0 0 0-2.406-2.407zm-39.71 12.033h14.44v6.017c0 .664-.539 1.203-1.203 1.203H16.966c-.691 0-1.323-.574-1.323-1.203v-6.017zm15.221-2.406H17.836l8.916-7.22h13.136l-9.025 7.22zm-17.53-6.947c.216-.177.486-.273.764-.273h8.83l-8.913 7.22H4.86l8.473-6.947zm28.886 43.04a4.865 4.865 0 0 1-.229.005H3.61c-.664 0-1.203-.539-1.203-1.203V17.022c0-.062.03-.116.04-.176h10.79v6.017c0 1.956 1.708 3.61 3.73 3.61h11.912c1.99 0 3.61-1.62 3.61-3.61v-6.017h10.83v32.49c0 .627-.484 1.145-1.1 1.198zm1.996-36.093h-9.499l9.026-7.22h9.384l-8.451 6.761a3.597 3.597 0 0 0-.46.459zm11.137 26.515c0 .371-.165.714-.454.944l-9.15 7.32-.023.02V16.798c0-.367.165-.708.452-.936l9.175-7.343v32.436z"/></g></g><rect width="2.407" height="438" x="220.203" y="-19.253" fill="#767FAB" opacity=".1" rx="1.203" transform="rotate(-25 221.407 199.747)"/><rect width="2.407" height="438" x="217.797" y="-18.049" fill="#767FAB" opacity=".1" rx="1.203" transform="rotate(-90 219 200.95)"/><g transform="translate(40.61 39.709)"><path fill="#504A8E" d="M14 109.45h-1.973V99.11H6.72v10.34H4.755V97.426h9.246v12.026zm11.031-4.565c0 1.486-.38 2.646-1.143 3.48-.762.833-1.823 1.25-3.183 1.25-.85 0-1.601-.192-2.254-.576-.653-.384-1.154-.935-1.505-1.653s-.527-1.552-.527-2.5c0-1.476.379-2.627 1.135-3.455.757-.829 1.824-1.243 3.2-1.243 1.316 0 2.358.424 3.126 1.271.768.848 1.151 1.99 1.151 3.426zm-6.621 0c0 2.1.776 3.15 2.328 3.15 1.535 0 2.303-1.05 2.303-3.15 0-2.078-.773-3.117-2.32-3.117-.811 0-1.4.268-1.764.806-.365.537-.547 1.308-.547 2.311zm10.693-4.532v4.664c0 .543-.044 1.34-.131 2.394l4.565-7.058h2.36v9.098H34.04v-4.582c0-.252.015-.66.045-1.226.03-.565.056-.976.078-1.234l-4.549 7.042h-2.36v-9.098h1.85zm13.219 9.262c-1.377 0-2.423-.402-3.138-1.205-.716-.803-1.074-1.956-1.074-3.459 0-1.53.375-2.706 1.123-3.529.749-.822 1.83-1.234 3.245-1.234.96 0 1.823.179 2.591.535l-.584 1.555c-.817-.318-1.491-.477-2.023-.477-1.574 0-2.361 1.044-2.361 3.134 0 1.02.196 1.786.588 2.299.392.512.967.769 1.723.769.861 0 1.676-.214 2.443-.642v1.686a3.818 3.818 0 0 1-1.106.436 6.639 6.639 0 0 1-1.427.132zm10.315-9.262h2.122l-3.76 4.384 4.08 4.714h-2.22l-3.932-4.615v4.615h-1.933v-9.098h1.933v4.417l3.71-4.417z"/><g fill="#4F44CC" fill-rule="nonzero" transform="translate(.099)"><path d="M20.66 9.628A10.786 10.786 0 0 0 9.826 20.456H20.66V9.628z"/><path d="M20.658 4.813c-8.626 0-15.645 7.018-15.645 15.645 0 8.628 7.019 15.646 15.645 15.646 8.627 0 15.645-7.018 15.645-15.646 0-8.627-7.018-15.645-15.645-15.645zm0 28.883c-7.3 0-13.237-5.938-13.237-13.238 0-7.299 5.938-13.237 13.237-13.237 7.3 0 13.238 5.938 13.238 13.237 0 7.3-5.939 13.238-13.238 13.238z"/><path d="M56.481 51.211l-10.53-11.87c-.866-.976-2.401-1.106-3.424-.292l-2.992 2.374-4.963-6.009c4.015-3.737 6.545-9.05 6.545-14.956C41.117 9.178 31.939 0 20.658 0 9.378 0 .2 9.178.2 20.458c0 11.281 9.177 20.459 20.458 20.459 4.511 0 8.672-1.485 12.058-3.969l4.933 5.972-2.847 2.259a2.358 2.358 0 0 0-.898 1.653 2.334 2.334 0 0 0 .59 1.768l10.532 11.87c1.23 1.387 2.995 2.101 4.771 2.101a6.39 6.39 0 0 0 3.98-1.368l1.933-1.533c1.3-1.032 2.093-2.488 2.233-4.098.139-1.593-.38-3.142-1.462-4.36zM2.606 20.458c0-9.953 8.098-18.051 18.052-18.051 9.954 0 18.052 8.098 18.052 18.051 0 9.954-8.097 18.052-18.052 18.052S2.606 30.412 2.606 20.458zm46.502 26.069l-7.782 6.176-1.777-1.992 7.787-6.18 1.772 1.996zm-5.083-5.593a.095.095 0 0 1 .059-.017c.026 0 .054.008.066.022l1.587 1.789-7.792 6.184-1.646-1.846 7.726-6.132zm10.188 16.85l-1.933 1.534c-1.638 1.3-4.084 1.1-5.454-.444l-3.897-4.37 7.778-6.174 3.974 4.48c.638.719.945 1.625.864 2.552-.082.946-.556 1.807-1.332 2.423z"/></g></g><g transform="translate(328.313 245.473)"><path fill="#504A8E" d="M.643 98.138h.93c.794-1.453 1.46-3.085 1.998-4.894.537-1.81.883-3.625 1.037-5.446h6.21v10.34h1.555v5.001H10.48v-3.315H2.535v3.315H.643v-5.001zm5.61-8.637c-.121 1.245-.428 2.688-.922 4.33-.493 1.643-1.055 3.079-1.686 4.307h5.207V89.5h-2.6zm15.925 5.758c0 1.486-.382 2.646-1.144 3.48-.762.833-1.823 1.25-3.183 1.25-.85 0-1.601-.192-2.254-.576-.653-.384-1.154-.935-1.505-1.653-.351-.719-.527-1.552-.527-2.501 0-1.475.379-2.627 1.135-3.455.757-.828 1.824-1.242 3.2-1.242 1.316 0 2.358.424 3.126 1.27.768.848 1.152 1.99 1.152 3.427zm-6.622 0c0 2.1.776 3.15 2.328 3.15 1.535 0 2.303-1.05 2.303-3.15 0-2.078-.773-3.118-2.32-3.118-.811 0-1.4.27-1.764.807-.365.537-.547 1.307-.547 2.31zm12.511 4.73c-1.376 0-2.422-.402-3.138-1.205-.716-.804-1.073-1.957-1.073-3.46 0-1.53.374-2.705 1.122-3.528.749-.823 1.83-1.234 3.245-1.234.96 0 1.824.178 2.591.535l-.584 1.554c-.817-.318-1.491-.477-2.023-.477-1.574 0-2.36 1.045-2.36 3.134 0 1.02.195 1.787.587 2.3.392.512.967.768 1.724.768.86 0 1.675-.213 2.443-.641v1.686a3.818 3.818 0 0 1-1.107.436 6.639 6.639 0 0 1-1.427.132zm11.508-9.262v1.513h-2.961v7.584h-1.942V92.24h-2.96v-1.513h7.863zm7.444 9.097l-.387-1.267h-.065c-.44.554-.88.931-1.325 1.131-.444.2-1.014.3-1.71.3-.895 0-1.592-.24-2.094-.723-.502-.483-.753-1.165-.753-2.048 0-.938.348-1.645 1.045-2.123.696-.477 1.757-.737 3.183-.781l1.571-.05v-.485c0-.581-.135-1.016-.407-1.303-.271-.288-.692-.432-1.262-.432-.467 0-.913.068-1.341.205-.428.137-.84.3-1.234.486l-.625-1.382a6.728 6.728 0 0 1 1.62-.588 7.457 7.457 0 0 1 1.662-.202c1.157 0 2.03.252 2.62.757.59.504.884 1.297.884 2.377v6.128h-1.382zm-2.879-1.316c.702 0 1.265-.196 1.69-.588.425-.392.638-.942.638-1.65v-.789l-1.168.05c-.91.032-1.573.184-1.987.456-.414.271-.62.687-.62 1.246 0 .406.12.72.361.942.242.222.603.333 1.086.333zm14.856-5.454c0 1.075-.628 1.725-1.884 1.95v.066c.702.082 1.24.304 1.612.666.373.362.56.83.56 1.407 0 .86-.328 1.523-.983 1.986-.656.463-1.609.695-2.859.695H51.1v-9.097h4.327c2.38 0 3.57.776 3.57 2.327zM57.3 97.027c0-.438-.17-.75-.51-.933-.34-.184-.85-.276-1.53-.276h-2.229v2.575h2.278c1.328 0 1.991-.455 1.991-1.366zm-.238-3.808c0-.362-.142-.624-.424-.786-.282-.161-.703-.242-1.263-.242h-2.344v2.188h2.056c.647 0 1.138-.084 1.473-.251.334-.167.502-.47.502-.909zm9.854-2.492h2.122L65.28 95.11l4.08 4.713h-2.221l-3.932-4.614v4.614h-1.933v-9.097h1.933v4.417l3.71-4.417zm9.632 9.097l-.386-1.267h-.066c-.439.554-.88.931-1.325 1.131-.444.2-1.014.3-1.71.3-.894 0-1.592-.24-2.094-.723-.502-.483-.753-1.165-.753-2.048 0-.938.349-1.645 1.045-2.123.696-.477 1.758-.737 3.183-.781l1.571-.05v-.485c0-.581-.135-1.016-.407-1.303-.271-.288-.692-.432-1.262-.432-.466 0-.913.068-1.341.205-.428.137-.84.3-1.234.486l-.625-1.382a6.728 6.728 0 0 1 1.62-.588 7.457 7.457 0 0 1 1.662-.202c1.157 0 2.03.252 2.62.757.59.504.884 1.297.884 2.377v6.128H76.55zm-2.879-1.316c.702 0 1.266-.196 1.69-.588.426-.392.638-.942.638-1.65v-.789l-1.168.05c-.91.032-1.572.184-1.987.456-.414.271-.62.687-.62 1.246 0 .406.12.72.361.942.242.222.604.333 1.086.333z"/><g fill="#4F44CC" fill-rule="nonzero" transform="translate(5)"><path d="M40.912 26.471a2.406 2.406 0 1 1-4.812.002 2.406 2.406 0 0 1 4.812-.002"/><circle cx="28.879" cy="26.471" r="2.407"/><path d="M58.962 18.05H39.826L25.707 1.283A3.608 3.608 0 0 0 22.944 0h-4.106c-.851 0-1.621.434-2.06 1.162a2.39 2.39 0 0 0-.069 2.365l7.645 14.522H14.05l-3.3-8.25a5.987 5.987 0 0 0-5.585-3.783H3.61C1.62 6.016 0 7.636 0 9.626v14.439c0 5.972 4.858 10.83 10.83 10.83h13.522L16.71 49.418a2.386 2.386 0 0 0 .069 2.364c.44.73 1.209 1.164 2.06 1.164h4.106c1.07 0 2.077-.47 2.763-1.285l14.119-16.764h23.949a6.023 6.023 0 0 0 6.016-6.017c0-5.972-4.858-10.83-10.83-10.83zM22.944 2.406c.358 0 .694.156.923.428l1.666 1.978h-5.428l-1.267-2.406h4.106zM21.372 7.22h6.187l9.12 10.83h-9.606L21.372 7.22zm6.186 38.505h-6.186l7.893-14.998c.21-.398.62-.645 1.07-.645h10.398L27.558 45.725zm-4.614 4.813H18.84l1.266-2.406h5.425l-1.665 1.978a1.198 1.198 0 0 1-.92.428zm40.83-18.049H41.853l.72-.856c.61-.724.74-1.707.342-2.565a2.384 2.384 0 0 0-2.182-1.392H30.335a3.605 3.605 0 0 0-3.198 1.93l-1.518 2.883H10.83c-4.643 0-8.422-3.78-8.422-8.424V9.625c0-.663.539-1.202 1.203-1.202h1.556c1.483 0 2.799.89 3.35 2.268l3.906 9.765h46.54c4.643 0 8.423 3.78 8.423 8.423 0 1.99-1.62 3.61-3.61 3.61z"/><circle cx="57.758" cy="26.471" r="2.407"/><circle cx="48.132" cy="26.471" r="2.407"/><circle cx="19.253" cy="26.471" r="2.407"/></g></g></g></svg>