<?xml version="1.0" encoding="UTF-8"?>
<svg width="299px" height="237px" viewBox="0 0 299 237" version="1.1" xmlns="http://www.w3.org/2000/svg" xmlns:xlink="http://www.w3.org/1999/xlink">
    <!-- Generator: Sketch 49.1 (51147) - http://www.bohemiancoding.com/sketch -->
    <title>Group 10</title>
    <desc>Created with Sketch.</desc>
    <defs>
        <linearGradient x1="73.8007292%" y1="70.6248648%" x2="58.0222972%" y2="31.1862068%" id="linearGradient-1">
            <stop stop-color="#ABBEEC" offset="0%"></stop>
            <stop stop-color="#627BC8" offset="100%"></stop>
        </linearGradient>
    </defs>
    <g id="Page-1" stroke="none" stroke-width="1" fill="none" fill-rule="evenodd">
        <g id="Services-Copy-8" transform="translate(-845.000000, -142.000000)">
            <g id="Group-10" transform="translate(845.000000, 142.000000)">
                <g id="Page-1" transform="translate(115.000000, 118.000000)">
                    <polygon id="Fill-1" fill="#ECBD00" points="40.7957727 57.6939268 100.257773 92.1338892 103.776045 90.0840184 44.3128636 55.6440561"></polygon>
                    <polygon id="Fill-2" fill="#5E70B8" points="100.258364 92.1342448 100.250091 95.0377344 103.768364 92.9854925 103.775455 90.0831885"></polygon>
                    <polygon id="Fill-3" fill="#5264AE" points="100.258127 92.1341263 100.249855 95.0376158 40.7878545 60.5976535 40.7961273 57.694164"></polygon>
                    <polygon id="Fill-4" fill="#ECBD00" points="83.3803455 101.974217 79.8608909 104.024088 20.4000727 69.5853111 23.9183455 67.5342548"></polygon>
                    <polygon id="Fill-5" fill="#5E70B8" points="83.3803455 101.974217 83.3708909 104.876521 79.8538 106.928763 79.8608909 104.024088"></polygon>
                    <polygon id="Fill-6" fill="#5264AE" points="79.8613636 104.024681 79.8530909 106.92817 20.3922727 72.4882079 20.4005455 69.5847183"></polygon>
                    <polygon id="Fill-7" fill="#728AD4" points="0.00744545455 81.4736129 59.4694455 115.91239 62.9829909 113.86489 3.52217273 79.4249277"></polygon>
                    <polygon id="Fill-8" fill="#5E70B8" points="59.4700364 115.912864 59.4629455 118.816353 62.9753091 116.767668 62.9835818 113.865364"></polygon>
                    <polygon id="Fill-9" fill="#5264AE" points="0 84.3769839 59.462 118.815761 59.4702727 115.913457 0.00709090909 81.4734943"></polygon>
                    <polygon id="Fill-10" fill="#728AD4" points="0.0106363636 79.7151581 11.8347273 86.5654491 56.1410909 60.735181 44.317 53.8872612"></polygon>
                    <polygon id="Fill-11" fill="#5E70B8" points="56.1408545 60.7347067 56.1361273 62.4775118 11.8309455 88.3065944 11.8356727 86.5649749"></polygon>
                    <polygon id="Fill-12" fill="#5264AE" points="0.00531818182 81.4576075 11.8305909 88.3067129 11.8353182 86.5650934 0.0112272727 79.7148025"></polygon>
                    <polygon id="Fill-13" fill="#7296D4" points="79.9572091 74.5298981 35.6520273 100.358981 23.8279364 93.5110608 68.1331182 67.6807927"></polygon>
                    <polygon id="Fill-14" fill="#5E70B8" points="79.9572091 74.5298981 79.9524818 76.2715176 35.6473 102.101786 35.6520273 100.358981"></polygon>
                    <polygon id="Fill-15" fill="#5264AE" points="35.6516727 100.359099 35.6469455 102.101904 23.8216727 95.2516133 23.8275818 93.5111794"></polygon>
                    <polygon id="Fill-16" fill="#728AD4" points="47.6392091 107.301984 59.4680273 114.153461 103.773209 88.3243781 91.9455727 81.471716"></polygon>
                    <polygon id="Fill-17" fill="#5E70B8" points="59.4679091 114.153342 59.4631818 115.896147 103.769545 90.065879 103.774273 88.3242595"></polygon>
                    <polygon id="Fill-18" fill="#5264AE" points="59.4681455 114.153105 59.4634182 115.89591 47.6334182 109.043248 47.6393273 107.302814"></polygon>
                    <polygon id="Fill-19" fill="#8C6F37" points="51.8405727 60.4268112 51.7755727 83.429467 31.8217545 71.8712312 31.8855727 48.8697609"></polygon>
                    <polygon id="Fill-20" fill="#A68340" points="51.8405727 60.4268112 73.2326636 47.9556775 73.1664818 70.9595188 51.7755727 83.429467"></polygon>
                    <polygon id="Fill-21" fill="#B99348" points="31.8858091 48.8696424 53.2779 36.3985086 73.2317182 47.9555589 51.8408091 60.4266926"></polygon>
                    <path d="M70.0721273,71.8079211 L70.0650364,69.1308777 L72.3861273,67.786428 L72.3944,70.4622859 L70.0721273,71.8079211 Z M67.6813091,73.1926805 L67.6742182,70.5156371 L69.9953091,69.1711874 L70.0024,71.8482309 L67.6813091,73.1926805 Z M65.2881273,74.5786255 L65.2810364,71.9015821 L67.6033091,70.5571324 L67.6104,73.2329903 L65.2881273,74.5786255 Z M72.4558545,67.6666843 L69.9953091,69.0917535 L67.6033091,70.4765129 L65.2124909,71.8624579 L65.2195818,74.6983692 L67.6115818,73.3136098 L67.6801273,73.2721145 L70.0024,71.9288504 L70.0721273,71.8873551 L72.4629455,70.5025957 L72.4558545,67.6666843 Z" id="Fill-22" fill="#414042"></path>
                    <g id="Group-591" transform="translate(9.454545, 0.258067)">
                        <path d="M60.0994727,69.6024181 L60.0994783,69.5229841 L59.3821091,69.9379377 L59.0594727,70.124074 L58.9897455,70.3220662 L59.1752909,70.1952089 L58.8845636,70.7915565 L59.0346545,70.3635615 L58.8396545,70.5070169 L58.9897455,70.1655694 L58.6635636,70.3540769 L58.6635636,70.4335109 C58.6647455,70.7808863 58.8538364,70.9824352 59.1386545,70.9373831 C59.1942,70.9278984 59.2532909,70.9101147 59.3123818,70.8816607 L59.3159273,71.7874451 L58.9070182,72.0233759 L58.9070182,72.1869862 L59.8666545,71.6321339 L59.8654727,71.4673381 L59.4565636,71.7044544 L59.4542,70.7998556 C59.5132909,70.7595458 59.5723818,70.710937 59.6291091,70.6540291 C59.9127455,70.3694895 60.1006545,69.9497935 60.0994727,69.6024181" id="Fill-23" fill="#414042"></path>
                        <polygon id="Fill-25" fill="#414042" points="56.9879818 71.3240013 56.5058 72.3530862 56.8107091 72.1776201 56.8142545 73.3999548 57.1747091 73.1901068 57.1711636 71.9677721 57.4748909 71.792306"></polygon>
                        <polygon id="Fill-27" fill="#414042" points="61.2212545 69.7853534 61.2200727 69.7853534 61.2200727 69.7865389"></polygon>
                        <polygon id="Fill-31" fill="#414042" points="62.3292091 69.1427681 62.3292091 69.1427681 62.3280273 69.1439537"></polygon>
                        <path d="M62.0637727,68.5777199 C61.9893182,68.5919468 61.9101364,68.6192152 61.8309545,68.6583394 L61.8309545,68.5136984 L61.7127727,68.5824622 L61.7139545,68.7271031 C61.6347727,68.7792687 61.5567727,68.8421046 61.4811364,68.9144251 C61.2554091,69.1337577 60.9386818,69.5131438 60.6668636,70.1035635 C60.6775,70.0881509 60.7850455,69.929283 60.9434091,69.8368076 C61.1088636,69.7407755 61.2140455,69.7834564 61.2199545,69.7858276 C61.2258636,69.7763429 61.3310455,69.6127327 61.4976818,69.5167006 C61.5910455,69.4621638 61.6666818,69.4514936 61.7151364,69.4538647 L61.7175,70.2102658 C61.7186818,70.3311952 61.6335909,70.4782073 61.5295909,70.5374864 C61.4244091,70.5991366 61.3393182,70.5493422 61.3393182,70.4295984 L61.3393182,70.2280496 L61.2211364,70.2956277 L61.2211364,70.4971766 C61.2223182,70.6927976 61.3605909,70.7722316 61.5295909,70.6738283 C61.6985909,70.5766106 61.8356818,70.3371231 61.8356818,70.1415021 L61.8333182,69.3874721 C61.8817727,69.3281931 61.9574091,69.2487591 62.0507727,69.1954079 C62.2174091,69.0981902 62.3237727,69.1408712 62.3296818,69.1432423 C62.3344091,69.1349432 62.4384091,68.9701474 62.6050455,68.8741153 C62.7634091,68.7828255 62.8721364,68.8183929 62.8804091,68.8219497 C62.6085909,68.5468947 62.2895,68.5350389 62.0637727,68.5777199" id="Fill-35" fill="#414042"></path>
                        <path d="M41.0345,80.8909341 L40.9423182,80.8375829 L40.9505909,78.1463125 L41.0427727,78.1984781 L41.0345,80.8909341 Z M40.8442273,80.780675 L40.7520455,80.7273238 L40.7591364,78.0360534 L40.8525,78.0894046 L40.8442273,80.780675 Z M40.6456818,80.6668592 L40.2474091,80.4356707 L40.2556818,77.7444003 L40.6539545,77.9744032 L40.6456818,80.6668592 Z M40.1493182,80.3775772 L40.0571364,80.3242261 L40.0642273,77.6329556 L40.1564091,77.6863068 L40.1493182,80.3775772 Z M39.9484091,80.2625758 L39.8727727,80.2187093 L39.8798636,77.5262533 L39.9566818,77.5701198 L39.9484091,80.2625758 Z M39.7888636,80.1701004 L39.6245909,80.0740683 L39.6316818,77.3827979 L39.7971364,77.4776444 L39.7888636,80.1701004 Z M39.5265,80.0171604 L39.1270455,79.785972 L39.1353182,77.0947016 L39.5324091,77.32589 L39.5265,80.0171604 Z M39.0301364,79.7302496 L38.9367727,79.6768985 L38.9438636,76.9844425 L39.0372273,77.0377936 L39.0301364,79.7302496 Z M38.8386818,79.6199905 L38.7453182,79.5654538 L38.7535909,76.8729978 L38.8457727,76.9275345 L38.8386818,79.6199905 Z M38.6472273,79.5085459 L38.5550455,79.4551947 L38.5621364,76.7639243 L38.6555,76.8160899 L38.6472273,79.5085459 Z M38.4581364,79.3982868 L38.1898636,79.2429756 L38.1969545,76.5517051 L38.4652273,76.7070163 L38.4581364,79.3982868 Z M38.0882273,79.1848821 L37.9369545,79.0959634 L37.9440455,76.404693 L38.0965,76.4924261 L38.0882273,79.1848821 Z M37.8424091,79.0414267 L37.1096818,78.618174 L37.1179545,75.9269036 L37.8495,76.3501563 L37.8424091,79.0414267 Z M37.0080455,78.5588949 L36.8780455,78.4842033 L36.8851364,75.7917473 L37.0163182,75.8676245 L37.0080455,78.5588949 Z M36.7858636,78.4308521 L36.4762273,78.2506437 L36.4833182,75.5593733 L36.7941364,75.7383961 L36.7858636,78.4308521 Z M36.3698636,78.1889934 L36.1996818,78.0917757 L36.2079545,75.3993197 L36.3769545,75.4965374 L36.3698636,78.1889934 Z M36.1039545,78.0360534 L35.8522273,77.8902269 L35.8605,75.1977709 L36.1110455,75.3435974 L36.1039545,78.0360534 Z M35.7588636,77.8356901 L35.1325,77.4729021 L35.1407727,74.7816317 L35.7671364,75.1432341 L35.7588636,77.8356901 Z M34.9032273,74.3797195 L34.8937727,77.5985738 L41.2732273,81.2940319 L41.2826818,78.073992 L34.9032273,74.3797195 Z" id="Fill-37" fill="#EFF0F0"></path>
                        <polygon id="Fill-39" fill="#414042" points="35.1323818 77.4731392 35.7587455 77.8359272 35.7670182 75.1434712 35.1406545 74.7806832"></polygon>
                        <polygon id="Fill-41" fill="#414042" points="36.8785182 78.4838476 37.0073364 78.5585393 37.0156091 75.8672688 36.8856091 75.7913916"></polygon>
                        <polygon id="Fill-43" fill="#414042" points="35.8525818 77.8898712 36.1043091 78.0356977 36.1114 75.3444273 35.8608545 75.1974152"></polygon>
                        <polygon id="Fill-45" fill="#414042" points="36.1999182 78.0913015 36.3701 78.1885192 36.3760091 75.4972488 36.2081909 75.3988455"></polygon>
                        <polygon id="Fill-47" fill="#414042" points="37.1093273 78.618174 37.8420545 79.0414267 37.8491455 76.3501563 37.1176 75.925718"></polygon>
                        <polygon id="Fill-49" fill="#414042" points="37.9368364 79.0963191 38.0881091 79.1840522 38.0963818 76.4927817 37.9439273 76.4038631"></polygon>
                        <polygon id="Fill-51" fill="#414042" points="38.1896273 79.2433312 38.4590818 79.3986424 38.4649909 76.7061864 38.1967182 76.5508752"></polygon>
                        <polygon id="Fill-53" fill="#414042" points="38.9363 79.6764242 39.0296636 79.7297754 39.0367545 77.0373194 38.9445727 76.9839682"></polygon>
                        <polygon id="Fill-55" fill="#414042" points="39.1268091 79.7863276 39.5262636 80.0163305 39.5333545 77.3262457 39.1350818 77.0938716"></polygon>
                        <polygon id="Fill-57" fill="#414042" points="40.0570182 80.3247003 40.1492 80.3780515 40.1562909 77.6855955 40.0641091 77.6322443"></polygon>
                        <polygon id="Fill-59" fill="#414042" points="40.2474091 80.4359079 40.6456818 80.6659107 40.6539545 77.9746403 40.2556818 77.7434519"></polygon>
                        <polygon id="Fill-61" fill="#414042" points="38.5555182 79.4551947 38.6477 79.5085459 38.6559727 76.8160899 38.5626091 76.7627387"></polygon>
                        <polygon id="Fill-63" fill="#414042" points="38.7459091 79.5652167 38.8380909 79.6197534 38.8463636 76.9272974 38.7541818 76.8727607"></polygon>
                        <polygon id="Fill-65" fill="#414042" points="39.6242364 80.0734755 39.7896909 80.1695076 39.7967818 77.4782372 39.6313273 77.3822051"></polygon>
                        <polygon id="Fill-67" fill="#414042" points="39.8723 80.2182351 39.9479364 80.2621016 39.9562091 77.5708312 39.8805727 77.5257791"></polygon>
                        <polygon id="Fill-69" fill="#414042" points="40.7518091 80.7276795 40.8439909 80.7810307 40.8522636 78.0885747 40.7589 78.0352235"></polygon>
                        <polygon id="Fill-71" fill="#414042" points="36.4757545 78.2511179 36.7865727 78.4301408 36.7948455 75.7388703 36.4840273 75.5586619"></polygon>
                        <polygon id="Fill-73" fill="#414042" points="40.9502364 78.1457197 40.9419636 80.8381757 41.0341455 80.8903413 41.0424182 78.1990709"></polygon>
                        <polygon id="Fill-75" fill="#634B23" points="33.8432545 78.261551 33.8988 55.2529673 29.6277091 52.7786583 29.6194364 52.7834007 29.5650727 75.7824997"></polygon>
                        <polygon id="Fill-77" fill="#725225" points="50.9114273 40.2464672 29.6268818 52.7780656 33.8979727 55.2523745 33.8979727 55.2476322 55.1789727 42.718405"></polygon>
                        <polygon id="Fill-79" fill="#6C75A9" points="62.3938545 71.8253838 62.3288545 94.8280396 42.3750364 83.2698038 42.4388545 60.2683335"></polygon>
                        <polygon id="Fill-81" fill="#858DBE" points="62.3938545 71.8253838 83.7859455 59.35425 83.7197636 82.3580914 62.3288545 94.8280396"></polygon>
                        <polygon id="Fill-83" fill="#9199C6" points="42.4390909 60.268215 63.8311818 47.7970812 83.785 59.3541315 62.3940909 71.8252652"></polygon>
                        <path d="M80.6254091,83.2064937 L80.6183182,80.5294502 L82.9394091,79.183815 L82.9476818,81.8608585 L80.6254091,83.2064937 Z M78.2345909,84.5912531 L78.2275,81.9142097 L80.5485909,80.56976 L80.5556818,83.2468035 L78.2345909,84.5912531 Z M75.8425909,85.9771981 L75.8343182,83.3001546 L78.1565909,81.9545194 L78.1636818,84.6315629 L75.8425909,85.9771981 Z M83.0091364,79.0652569 L80.5485909,80.4903261 L78.1565909,81.8750855 L75.7657727,83.2610304 L75.7740455,86.0969418 L78.1648636,84.7109968 L78.2334091,84.6706871 L80.5556818,83.3262374 L80.6254091,83.2859277 L83.0162273,81.8999827 L83.0091364,79.0652569 Z" id="Fill-85" fill="#414042"></path>
                        <path d="M80.1073,81.2590572 L80.1073055,81.1796232 L79.3899364,81.5945768 L79.0673,81.7807132 L78.9975727,81.9787053 L79.1831182,81.8518481 L78.8923909,82.4481956 L79.0424818,82.0202007 L78.8474818,82.163656 L78.9975727,81.8222085 L78.6713909,82.010716 L78.6713909,82.09015 C78.6725727,82.4375254 78.8616636,82.6390743 79.1464818,82.5940222 C79.2020273,82.5845375 79.2611182,82.5667538 79.3202091,82.5382999 L79.3237545,83.4428987 L78.9148455,83.680015 L78.9148455,83.8436253 L79.8744818,83.2875875 L79.8744818,83.1239772 L79.4655727,83.3610935 L79.4620273,82.4564947 C79.5211182,82.4161849 79.5802091,82.3675761 79.6369364,82.3106682 C79.9205727,82.0261286 80.1084818,81.6064326 80.1073,81.2590572" id="Fill-87" fill="#414042"></path>
                        <polygon id="Fill-89" fill="#414042" points="76.9968727 82.9807589 76.5135091 84.0098438 76.8184182 83.8343777 76.8219636 85.0567125 77.1824182 84.8468645 77.1788727 83.6245298 77.4826 83.4490637"></polygon>
                        <path d="M81.2290818,81.4419925 L81.2279,81.4419925 L81.2290818,81.4419925 Z" id="Fill-91" fill="#414042"></path>
                        <polygon id="Fill-95" fill="#414042" points="82.3370364 80.7994072 82.3370364 80.7994072 82.3358545 80.8005928"></polygon>
                        <path d="M82.0716,80.2332919 C81.9971455,80.2487045 81.9179636,80.2759729 81.8387818,80.3150971 L81.8387818,80.1704561 L81.7206,80.2392199 L81.7217818,80.3838608 C81.6426,80.4360264 81.5646,80.4988622 81.4889636,80.5711827 C81.2632364,80.7905153 80.9465091,81.1699015 80.6758727,81.7603212 C80.6853273,81.7449086 80.7928727,81.5860406 80.9512364,81.4935653 C81.1166909,81.3975332 81.2218727,81.4402141 81.2277818,81.4425853 C81.2336909,81.4331006 81.3388727,81.2694903 81.5055091,81.1734582 C81.5988727,81.1189215 81.6745091,81.1082512 81.7241455,81.1106224 L81.7253273,81.8670235 C81.7265091,81.9867673 81.6414182,82.134965 81.5374182,82.194244 C81.4322364,82.2547087 81.3483273,82.2060999 81.3471455,82.0851705 L81.3471455,81.8848072 L81.2289636,81.9523854 L81.2289636,82.1539343 C81.2301455,82.3495552 81.3684182,82.4289892 81.5374182,82.3305859 C81.7064182,82.2321827 81.8435091,81.9938807 81.8435091,81.7982598 L81.8411455,81.0442298 C81.8896,80.9849507 81.9652364,80.9055168 82.0586,80.85098 C82.2252364,80.7549479 82.3316,80.7976288 82.3375091,80.8 C82.3422364,80.7917009 82.4462364,80.6269051 82.6128727,80.5308729 C82.7712364,80.4395832 82.8799636,80.4751506 82.8882364,80.4787074 C82.6164182,80.2036524 82.2973273,80.1917966 82.0716,80.2332919" id="Fill-99" fill="#414042"></path>
                        <path d="M61.0423273,92.5475732 L60.9501455,92.494222 L60.9584182,89.8029516 L61.0506,89.8551172 L61.0423273,92.5475732 Z M60.8520545,92.4373141 L60.7598727,92.3827774 L60.7669636,89.6926925 L60.8603273,89.7460437 L60.8520545,92.4373141 Z M60.6535091,92.3234983 L60.2564182,92.0911243 L60.2635091,89.4010394 L60.6617818,89.6310423 L60.6535091,92.3234983 Z M60.1571455,92.0342163 L60.0649636,91.9808652 L60.0720545,89.2895947 L60.1654182,89.3429459 L60.1571455,92.0342163 Z M59.9562364,91.9192149 L59.8806,91.8753484 L59.8876909,89.1828924 L59.9645091,89.2267589 L59.9562364,91.9192149 Z M59.7966909,91.8267395 L59.6324182,91.7307074 L59.6395091,89.0382514 L59.8049636,89.1342835 L59.7966909,91.8267395 Z M59.5343273,91.6737995 L59.1348727,91.4426111 L59.1431455,88.7513407 L59.5414182,88.9813435 L59.5343273,91.6737995 Z M59.0379636,91.3868887 L58.9446,91.332352 L58.9516909,88.6410816 L59.0450545,88.6944327 L59.0379636,91.3868887 Z M58.8465091,91.2754441 L58.7531455,91.2220929 L58.7614182,88.5296369 L58.8536,88.5841736 L58.8465091,91.2754441 Z M58.6550545,91.165185 L58.5628727,91.1118338 L58.5699636,88.4205634 L58.6633273,88.472729 L58.6550545,91.165185 Z M58.4659636,91.0549259 L58.1976909,90.8996147 L58.2047818,88.2083443 L58.4730545,88.3636555 L58.4659636,91.0549259 Z M58.0960545,90.8415212 L57.9447818,90.7526025 L57.9518727,88.0613321 L58.1043273,88.1490652 L58.0960545,90.8415212 Z M57.8502364,90.6980658 L57.1175091,90.2736275 L57.1257818,87.5835427 L57.8573273,88.0067954 L57.8502364,90.6980658 Z M57.0158727,90.215534 L56.8858727,90.1408424 L56.8929636,87.4483864 L57.0241455,87.5242636 L57.0158727,90.215534 Z M56.7936909,90.0874912 L56.4840545,89.9060972 L56.4911455,87.2160124 L56.8019636,87.3950352 L56.7936909,90.0874912 Z M56.3776909,89.8456326 L56.2075091,89.7484149 L56.2157818,87.0559589 L56.3847818,87.1531766 L56.3776909,89.8456326 Z M56.1117818,89.6915069 L55.8600545,89.546866 L55.8683273,86.85441 L56.1200545,87.0002365 L56.1117818,89.6915069 Z M55.7666909,89.4923292 L55.1403273,89.1283556 L55.1486,86.4382708 L55.7749636,86.7998732 L55.7666909,89.4923292 Z M54.9110545,86.035173 L54.9016,89.2552129 L61.2810545,92.950671 L61.2905091,89.7306311 L54.9110545,86.035173 Z" id="Fill-101" fill="#EFF0F0"></path>
                        <polygon id="Fill-103" fill="#414042" points="55.1402091 89.1285928 55.7665727 89.4925663 55.7748455 86.8001103 55.1484818 86.4373223"></polygon>
                        <polygon id="Fill-105" fill="#414042" points="56.8863455 90.1404867 57.0151636 90.2151784 57.0234364 87.5239079 56.8934364 87.4480307"></polygon>
                        <polygon id="Fill-107" fill="#414042" points="55.8602909 89.5465103 56.1120182 89.6911513 56.1202909 87.0010664 55.8685636 86.8540543"></polygon>
                        <polygon id="Fill-109" fill="#414042" points="56.2077455 89.7480592 56.3779273 89.8452769 56.3838364 87.1540065 56.2160182 87.0556032"></polygon>
                        <polygon id="Fill-111" fill="#414042" points="57.1171545 90.2736275 57.8498818 90.6980658 57.8569727 88.0067954 57.1254273 87.5823571"></polygon>
                        <polygon id="Fill-113" fill="#414042" points="57.9446636 90.7529582 58.0959364 90.8406913 58.1042091 88.1494208 57.9517545 88.0605022"></polygon>
                        <polygon id="Fill-115" fill="#414042" points="58.1974545 90.8999703 58.4669091 91.0552815 58.4728182 88.3628255 58.2045455 88.2075143"></polygon>
                        <polygon id="Fill-117" fill="#414042" points="58.9441273 91.3318778 59.0374909 91.3864145 59.0445818 88.6939585 58.9524 88.6406073"></polygon>
                        <polygon id="Fill-119" fill="#414042" points="59.1346364 91.4430853 59.5340909 91.6730882 59.5423636 88.9818177 59.1429091 88.7506293"></polygon>
                        <polygon id="Fill-121" fill="#414042" points="60.0648455 91.981458 60.1570273 92.0348091 60.1653 89.3423531 60.0719364 89.289002"></polygon>
                        <polygon id="Fill-123" fill="#414042" points="60.2564182 92.0913614 60.6535091 92.3225498 60.6617818 89.6312794 60.2635091 89.400091"></polygon>
                        <polygon id="Fill-125" fill="#414042" points="58.5633455 91.1119524 58.6555273 91.1653035 58.6638 88.4728475 58.5704364 88.4194963"></polygon>
                        <polygon id="Fill-127" fill="#414042" points="58.7537364 91.2218558 58.8459182 91.2752069 58.8541909 88.5839365 58.7620091 88.5293998"></polygon>
                        <polygon id="Fill-129" fill="#414042" points="59.6320636 91.7301146 59.7975182 91.8261468 59.8046091 89.1348763 59.6391545 89.0376586"></polygon>
                        <polygon id="Fill-131" fill="#414042" points="59.8801273 91.8748742 59.9557636 91.9187407 59.9640364 89.2274703 59.8884 89.1824182"></polygon>
                        <polygon id="Fill-133" fill="#414042" points="60.7596364 92.383133 60.8518182 92.4376698 60.8600909 89.7452138 60.7667273 89.6918626"></polygon>
                        <polygon id="Fill-135" fill="#414042" points="56.4835818 89.90669 56.7944 90.0868984 56.8026727 87.395628 56.4918545 87.2154196"></polygon>
                        <polygon id="Fill-137" fill="#414042" points="60.9580636 89.8024774 60.9497909 92.4949334 61.0419727 92.547099 61.0502455 89.8558286"></polygon>
                        <polygon id="Fill-139" fill="#634B23" points="53.8510818 89.9181902 53.9066273 66.9096064 49.6355364 64.4352975 49.6272636 64.4400398 49.5729 87.4391389"></polygon>
                        <polygon id="Fill-141" fill="#725225" points="70.9192545 51.9032248 49.6347091 64.4348232 53.9058 66.9091322 53.9058 66.9043899 75.1868 54.3751626"></polygon>
                        <polygon id="Fill-143" fill="#6C75A9" points="20.9181818 72.7133844 20.8531818 95.7148547 0.899363636 84.1578044 0.963181818 61.1551486"></polygon>
                        <polygon id="Fill-145" fill="#858DBE" points="20.9181818 72.7133844 42.3090909 60.2422507 42.2440909 83.2449065 20.8531818 95.7148547"></polygon>
                        <polygon id="Fill-147" fill="#9199C6" points="0.963536364 61.1551486 22.3556273 48.6840149 42.3082636 60.2422507 20.9185364 72.7133844"></polygon>
                        <path d="M39.1498545,84.0933088 L39.1427636,81.4162653 L41.4638545,80.0718157 L41.4721273,82.7488592 L39.1498545,84.0933088 Z M36.7590364,85.4780682 L36.7519455,82.8022103 L39.0730364,81.4565751 L39.0801273,84.1336186 L36.7590364,85.4780682 Z M34.3658545,86.8640132 L34.3587636,84.1869697 L36.6798545,82.8425201 L36.6881273,85.5195636 L34.3658545,86.8640132 Z M41.5335818,79.952072 L39.0730364,81.3771412 L36.6810364,82.7619006 L34.2890364,84.1478455 L34.2973091,86.9837569 L36.6893091,85.5989975 L36.7578545,85.5586877 L39.0801273,84.2142381 L39.1498545,84.1727428 L41.5406727,82.7879834 L41.5335818,79.952072 Z" id="Fill-149" fill="#414042"></path>
                        <path d="M38.6316273,82.1459909 L38.6304455,82.0665569 L37.9130818,82.4815105 L37.5916273,82.6676468 L37.5219,82.8668245 L37.7074455,82.7387817 L37.4167182,83.3363149 L37.5668091,82.9083199 L37.3718091,83.0505897 L37.5219,82.7103278 L37.1957182,82.8988352 L37.1957182,82.9770836 C37.1969,83.3256446 37.3859909,83.5271935 37.6708091,83.4821414 C37.7263545,83.4726568 37.7854455,83.4536875 37.8445364,83.4264191 L37.8469,84.3310179 L37.4391727,84.5669487 L37.4391727,84.7317445 L38.3988091,84.1757067 L38.3976273,84.0120964 L37.9887182,84.2480272 L37.9863545,83.344614 C38.0454455,83.3031186 38.1045364,83.2545097 38.1612636,83.1987874 C38.4449,82.9142478 38.6316273,82.4945519 38.6316273,82.1459909" id="Fill-151" fill="#414042"></path>
                        <polygon id="Fill-153" fill="#414042" points="35.5201364 83.867574 35.0379545 84.8978445 35.3428636 84.7211928 35.3464091 85.9435276 35.7068636 85.7336796 35.7033182 84.5125305 36.0070455 84.3370644"></polygon>
                        <polygon id="Fill-155" fill="#414042" points="39.7534091 82.3289261 39.7522273 82.3289261 39.7522273 82.3301117"></polygon>
                        <path d="M39.1983091,82.650693 L39.1994909,82.6495074 L39.1983091,82.650693 Z" id="Fill-157" fill="#414042"></path>
                        <polygon id="Fill-159" fill="#414042" points="40.8613636 81.6874079 40.8601818 81.6874079 40.8601818 81.6885935"></polygon>
                        <path d="M41.4142182,81.3678936 L41.4142182,81.366708 L41.4142182,81.3678936 Z" id="Fill-161" fill="#414042"></path>
                        <path d="M40.5959273,81.1212926 C40.5214727,81.1355196 40.4422909,81.1639736 40.3631091,81.2030978 L40.3631091,81.0572712 L40.2449273,81.126035 L40.2461091,81.2706759 C40.1669273,81.3228415 40.0877455,81.3856773 40.0132909,81.4591834 C39.7875636,81.678516 39.4708364,82.0579022 39.1990182,82.6483218 C39.2096545,82.6317237 39.3172,82.4728557 39.4755636,82.3803804 C39.6410182,82.2843483 39.7462,82.3270292 39.7521091,82.3294004 C39.7580182,82.3211013 39.8632,82.1563054 40.0298364,82.0602733 C40.1232,82.0057366 40.1988364,81.9962519 40.2472909,81.9986231 L40.2496545,82.7538386 C40.2508364,82.8747679 40.1657455,83.0217801 40.0617455,83.0822447 C39.9565636,83.1427094 39.8714727,83.0941005 39.8714727,82.9731712 L39.8714727,82.7716223 L39.7532909,82.8392005 L39.7532909,83.041935 C39.7544727,83.2363703 39.8915636,83.3158043 40.0617455,83.2185866 C40.2307455,83.1201833 40.3678364,82.8806958 40.3678364,82.6862604 L40.3654727,81.9310449 C40.4139273,81.8729514 40.4895636,81.7935174 40.5829273,81.7389807 C40.7495636,81.6429486 40.8559273,81.6856295 40.8606545,81.6880007 C40.8665636,81.678516 40.9705636,81.5149057 41.1372,81.4188736 C41.2955636,81.3275838 41.4031091,81.3619657 41.4125636,81.3655225 C41.1407455,81.0916531 40.8204727,81.0797973 40.5959273,81.1212926" id="Fill-163" fill="#414042"></path>
                        <path d="M19.5667727,93.4355739 L19.4745909,93.3810371 L19.4816818,90.6897667 L19.5750455,90.7431179 L19.5667727,93.4355739 Z M19.3765,93.3241292 L19.2843182,93.270778 L19.2914091,90.5795076 L19.3847727,90.6340444 L19.3765,93.3241292 Z M19.1779545,93.2103134 L18.7796818,92.9791249 L18.7879545,90.2878545 L19.1862273,90.5178574 L19.1779545,93.2103134 Z M18.6815909,92.922217 L18.5882273,92.8676803 L18.5965,90.1764098 L18.6886818,90.2309466 L18.6815909,92.922217 Z M18.4806818,92.80603 L18.4050455,92.7621635 L18.4121364,90.0697075 L18.4889545,90.1147596 L18.4806818,92.80603 Z M18.3211364,92.7147402 L18.1568636,92.6187081 L18.1639545,89.9262521 L18.3294091,90.0222842 L18.3211364,92.7147402 Z M18.0587727,92.5618002 L17.6593182,92.3294262 L17.6675909,89.6393413 L18.0646818,89.8693442 L18.0587727,92.5618002 Z M17.5612273,92.2737038 L17.4690455,92.2203527 L17.4761364,89.5278967 L17.5695,89.5824334 L17.5612273,92.2737038 Z M17.3709545,92.1634447 L17.2775909,92.1100936 L17.2846818,89.4176376 L17.3780455,89.4709887 L17.3709545,92.1634447 Z M17.1795,92.0531856 L17.0873182,91.9986489 L17.0944091,89.3073785 L17.1877727,89.3607296 L17.1795,92.0531856 Z M16.9892273,91.9429266 L16.7221364,91.7864298 L16.7292273,89.0951594 L16.9975,89.2516561 L16.9892273,91.9429266 Z M16.6205,91.7295219 L16.4680455,91.6406032 L16.4763182,88.9493328 L16.6275909,89.0370658 L16.6205,91.7295219 Z M16.3746818,91.5848809 L15.6419545,91.1616282 L15.6502273,88.4703578 L16.3817727,88.894796 L16.3746818,91.5848809 Z M15.5403182,91.1023491 L15.4091364,91.0276575 L15.4174091,88.3352015 L15.5485909,88.4110787 L15.5403182,91.1023491 Z M15.3181364,90.9743063 L15.0085,90.7940979 L15.0155909,88.1028275 L15.3252273,88.2818503 L15.3181364,90.9743063 Z M14.9021364,90.7336332 L14.7319545,90.63523 L14.7402273,87.942774 L14.9092273,88.0411772 L14.9021364,90.7336332 Z M14.6362273,90.5795076 L14.3845,90.4336811 L14.3927727,87.7412251 L14.6433182,87.8870516 L14.6362273,90.5795076 Z M14.2911364,90.3791443 L13.6647727,90.0163563 L13.6730455,87.3250859 L14.2982273,87.6878739 L14.2911364,90.3791443 Z M13.4355,86.9231737 L13.4260455,90.1432136 L19.8055,93.8374861 L19.8149545,90.6186318 L13.4355,86.9231737 Z" id="Fill-165" fill="#EFF0F0"></path>
                        <polygon id="Fill-167" fill="#414042" points="13.6645364 90.0165934 14.2909 90.3793814 14.2979909 87.688111 13.6728091 87.3241374"></polygon>
                        <polygon id="Fill-169" fill="#414042" points="15.4096091 91.0274204 15.5396091 91.102112 15.5478818 88.4108416 15.4178818 88.3349644"></polygon>
                        <polygon id="Fill-171" fill="#414042" points="14.3847364 90.433444 14.6364636 90.5792705 14.6435545 87.8880001 14.3930091 87.740988"></polygon>
                        <polygon id="Fill-173" fill="#414042" points="14.7321909 90.6348743 14.9023727 90.7332776 14.9082818 88.0408216 14.7404636 87.9424183"></polygon>
                        <polygon id="Fill-175" fill="#414042" points="15.6416 91.1617468 16.3743273 91.5849994 16.3814182 88.8949146 15.6498727 88.4692908"></polygon>
                        <polygon id="Fill-177" fill="#414042" points="16.4679273 91.6409589 16.6203818 91.7286919 16.6274727 89.0374215 16.4762 88.9485029"></polygon>
                        <polygon id="Fill-179" fill="#414042" points="16.7219 91.786904 16.9901727 91.9434008 16.9972636 89.2509448 16.7289909 89.094448"></polygon>
                        <polygon id="Fill-181" fill="#414042" points="17.4685727 92.2198784 17.5607545 92.2732296 17.5690273 89.5819592 17.4768455 89.5274224"></polygon>
                        <polygon id="Fill-183" fill="#414042" points="17.6589636 92.3299004 18.0584182 92.5610888 18.0655091 89.8698184 17.6672364 89.63863"></polygon>
                        <polygon id="Fill-185" fill="#414042" points="18.5881091 92.8682731 18.6814727 92.9228098 18.6885636 90.2303538 18.5963818 90.1758171"></polygon>
                        <polygon id="Fill-187" fill="#414042" points="18.7796818 92.9794806 19.1779545 93.2094835 19.1862273 90.518213 18.7879545 90.2870246"></polygon>
                        <polygon id="Fill-189" fill="#414042" points="17.0876727 91.9987675 17.1798545 92.0533042 17.1881273 89.3608482 17.0947636 89.3063114"></polygon>
                        <polygon id="Fill-191" fill="#414042" points="17.2781818 92.109975 17.3703636 92.1633262 17.3786364 89.4708702 17.2852727 89.417519"></polygon>
                        <polygon id="Fill-193" fill="#414042" points="18.1563909 92.6182339 18.3218455 92.714266 18.3289364 90.0229956 18.1634818 89.9257779"></polygon>
                        <polygon id="Fill-195" fill="#414042" points="18.4045727 92.7618078 18.4802091 92.8056743 18.4884818 90.1155895 18.4128455 90.0693518"></polygon>
                        <polygon id="Fill-197" fill="#414042" points="19.2839636 93.2711337 19.3761455 93.3244849 19.3844182 90.6332145 19.2910545 90.5786777"></polygon>
                        <polygon id="Fill-199" fill="#414042" points="15.0080273 90.7946907 15.3188455 90.9737135 15.3259364 88.2824431 15.0163 88.1022347"></polygon>
                        <polygon id="Fill-201" fill="#414042" points="19.4813273 90.6892925 19.4742364 93.3817485 19.5664182 93.4350997 19.5746909 90.7438292"></polygon>
                        <polygon id="Fill-203" fill="#565382" points="12.3754091 90.8051238 12.4297727 67.7977257 8.15868182 65.3234167 8.15159091 65.3269734 8.09722727 88.3272581"></polygon>
                        <polygon id="Fill-205" fill="#6B6990" points="29.4437 52.7912255 8.15797273 65.3228239 12.4302455 67.7971329 12.4302455 67.791205 33.7112455 55.2631633"></polygon>
                        <polygon id="Fill-207" fill="#6C75A9" points="40.9260091 84.3700236 40.8610091 107.371494 20.9071909 95.8144435 20.9710091 72.8117877"></polygon>
                        <polygon id="Fill-209" fill="#858DBE" points="40.9260091 84.3700236 62.3169182 71.8988898 62.2519182 94.9015456 40.8610091 107.371494"></polygon>
                        <polygon id="Fill-211" fill="#9199C6" points="20.9713636 72.8117877 42.3634545 60.340654 62.3160909 71.8988898 40.9263636 84.3700236"></polygon>
                        <path d="M59.1576818,95.7500665 L59.1505909,93.073023 L61.4716818,91.7285734 L61.4799545,94.4056168 L59.1576818,95.7500665 Z M56.7668636,97.1348259 L56.7597727,94.4577824 L59.0808636,93.1133328 L59.0879545,95.7903762 L56.7668636,97.1348259 Z M54.3736818,98.5207708 L54.3665909,95.8437274 L56.6876818,94.4992778 L56.6959545,97.1763212 L54.3736818,98.5207708 Z M61.5414091,91.6088296 L59.0808636,93.0338988 L56.6888636,94.4186582 L54.2980455,95.8046032 L54.3051364,98.6405146 L56.6971364,97.2557552 L56.7656818,97.2154454 L59.0879545,95.8709958 L59.1576818,95.8295004 L61.5485,94.444741 L61.5414091,91.6088296 Z" id="Fill-213" fill="#414042"></path>
                        <path d="M58.6394545,93.80263 L58.6382727,93.723196 L57.9220909,94.1381496 L57.5994545,94.3242859 L57.5297273,94.5222781 L57.7152727,94.3954208 L57.4245455,94.992954 L57.5746364,94.564959 L57.3796364,94.7072288 L57.5297273,94.3657813 L57.2035455,94.5542888 L57.2035455,94.6337227 C57.2047273,94.9822838 57.3938182,95.1838326 57.6786364,95.137595 C57.7341818,95.1292959 57.7932727,95.1103266 57.8523636,95.0830582 L57.8559091,95.987657 L57.447,96.2235878 L57.447,96.3883836 L58.4066364,95.8323458 L58.4054545,95.6687356 L57.9965455,95.9046663 L57.9941818,95.0012531 C58.0532727,94.9597577 58.1123636,94.9111489 58.1690909,94.8542409 C58.4527273,94.5708869 58.6394545,94.151191 58.6394545,93.80263" id="Fill-215" fill="#414042"></path>
                        <polygon id="Fill-217" fill="#414042" points="55.5279636 95.5242131 55.0457818 96.553298 55.3506909 96.377832 55.3542364 97.6001667 55.7146909 97.3903187 55.7111455 96.167984 56.0148727 95.9937035"></polygon>
                        <polygon id="Fill-219" fill="#414042" points="59.7612364 93.9855652 59.7600545 93.9855652 59.7600545 93.9867508"></polygon>
                        <path d="M59.2073182,94.3074507 L59.2073182,94.3062651 L59.2073182,94.3074507 Z" id="Fill-221" fill="#414042"></path>
                        <polygon id="Fill-223" fill="#414042" points="60.8691909 93.3441655 60.8691909 93.3441655 60.8680091 93.3453511"></polygon>
                        <path d="M61.4220455,93.0245327 L61.4220455,93.0233471 L61.4220455,93.0245327 Z" id="Fill-225" fill="#414042"></path>
                        <path d="M60.6037545,92.7779317 C60.5293,92.7921587 60.4501182,92.8194271 60.3709364,92.8597369 L60.3709364,92.7139103 L60.2527545,92.7826741 L60.2539364,92.927315 C60.1747545,92.9794806 60.0967545,93.0423164 60.0211182,93.1158225 C59.7953909,93.3351551 59.4786636,93.7145413 59.2068455,94.3037754 C59.2174818,94.2883628 59.3250273,94.1294949 59.4833909,94.0370195 C59.6488455,93.9409874 59.7540273,93.9836683 59.7599364,93.9860395 C59.7658455,93.9777404 59.8710273,93.8129445 60.0376636,93.7169124 C60.1310273,93.6623757 60.2066636,93.652891 60.2551182,93.6552622 L60.2574818,94.4104777 C60.2586636,94.531407 60.1735727,94.6784192 60.0695727,94.7388838 C59.9643909,94.7993485 59.8793,94.7507397 59.8793,94.6298103 L59.8793,94.4282614 L59.7611182,94.4958396 L59.7611182,94.6985741 C59.7623,94.8930095 59.8993909,94.9724434 60.0695727,94.8740401 C60.2385727,94.7768225 60.3756636,94.537335 60.3756636,94.3428996 L60.3733,93.587684 C60.4217545,93.5295905 60.4973909,93.4501565 60.5907545,93.3956198 C60.7573909,93.2984021 60.8637545,93.3422686 60.8696636,93.3446398 C60.8743909,93.3351551 60.9783909,93.1715449 61.1450273,93.0755127 C61.3033909,92.9842229 61.4109364,93.0186048 61.4203909,93.0221616 C61.1485727,92.7471066 60.8294818,92.7364364 60.6037545,92.7779317" id="Fill-227" fill="#414042"></path>
                        <path d="M39.5746,105.092332 L39.4824182,105.037795 L39.4906909,102.346524 L39.5828727,102.399876 L39.5746,105.092332 Z M39.3843273,104.980887 L39.2921455,104.927536 L39.2992364,102.236265 L39.3926,102.289616 L39.3843273,104.980887 Z M39.1857818,104.867071 L38.7875091,104.635883 L38.7957818,101.944612 L39.1940545,102.174615 L39.1857818,104.867071 Z M38.6894182,104.577789 L38.5960545,104.524438 L38.6043273,101.833168 L38.6965091,101.887704 L38.6894182,104.577789 Z M38.4885091,104.462788 L38.4128727,104.418921 L38.4199636,101.726465 L38.4967818,101.771517 L38.4885091,104.462788 Z M38.3289636,104.371498 L38.1646909,104.275466 L38.1717818,101.58301 L38.3372364,101.679042 L38.3289636,104.371498 Z M38.0666,104.218558 L37.6671455,103.986184 L37.6754182,101.294913 L38.0725091,101.526102 L38.0666,104.218558 Z M37.5702364,103.930462 L37.4768727,103.87711 L37.4839636,101.184654 L37.5773273,101.238006 L37.5702364,103.930462 Z M37.3787818,103.820202 L37.2854182,103.765666 L37.2925091,101.074395 L37.3858727,101.127746 L37.3787818,103.820202 Z M37.1873273,103.708758 L37.0951455,103.655407 L37.1022364,100.964136 L37.1956,101.017487 L37.1873273,103.708758 Z M36.9982364,103.599684 L36.7299636,103.443187 L36.7370545,100.751917 L37.0053273,100.908414 L36.9982364,103.599684 Z M36.6283273,103.385094 L36.4770545,103.296175 L36.4841455,100.60609 L36.6366,100.692638 L36.6283273,103.385094 Z M36.3825091,103.241639 L35.6497818,102.818386 L35.6580545,100.127115 L36.3896,100.550368 L36.3825091,103.241639 Z M35.5481455,102.759107 L35.4181455,102.684415 L35.4252364,99.9919592 L35.5564182,100.067836 L35.5481455,102.759107 Z M35.3259636,102.631064 L35.0163273,102.450856 L35.0234182,99.7595851 L35.3342364,99.938608 L35.3259636,102.631064 Z M34.9099636,102.390391 L34.7397818,102.291988 L34.7480545,99.5995316 L34.9170545,99.6979349 L34.9099636,102.390391 Z M34.6440545,102.236265 L34.3923273,102.090439 L34.4006,99.3979827 L34.6511455,99.5438093 L34.6440545,102.236265 Z M34.2989636,102.035902 L33.6726,101.673114 L33.6808727,98.9818436 L34.3072364,99.343446 L34.2989636,102.035902 Z M33.4433273,98.5799314 L33.4338727,101.798786 L39.8133273,105.494244 L39.8227818,102.275389 L33.4433273,98.5799314 Z" id="Fill-229" fill="#EFF0F0"></path>
                        <polygon id="Fill-231" fill="#414042" points="33.6723636 101.673351 34.2987273 102.036139 34.307 99.3436831 33.6806364 98.9808951"></polygon>
                        <polygon id="Fill-233" fill="#414042" points="35.4186182 102.684059 35.5474364 102.758751 35.5557091 100.067481 35.4257091 99.9916035"></polygon>
                        <polygon id="Fill-235" fill="#414042" points="34.3925636 102.090083 34.6442909 102.23591 34.6513818 99.5446392 34.4008364 99.3976271"></polygon>
                        <polygon id="Fill-237" fill="#414042" points="34.7400182 102.291632 34.9102 102.390035 34.9161091 99.6975792 34.7482909 99.5991759"></polygon>
                        <polygon id="Fill-239" fill="#414042" points="35.6494273 102.818386 36.3821545 103.241639 36.3892455 100.550368 35.6577 100.12593"></polygon>
                        <polygon id="Fill-241" fill="#414042" points="36.4769364 103.296531 36.6282091 103.384264 36.6364818 100.692994 36.4840273 100.605261"></polygon>
                        <polygon id="Fill-243" fill="#414042" points="36.7296091 103.443543 36.9990636 103.60004 37.0049727 100.907584 36.7367 100.751087"></polygon>
                        <polygon id="Fill-245" fill="#414042" points="37.4764 103.876636 37.5697636 103.929987 37.5768545 101.237531 37.4846727 101.18418"></polygon>
                        <polygon id="Fill-247" fill="#414042" points="37.6667909 103.986658 38.0662455 104.217847 38.0733364 101.526576 37.6750636 101.294202"></polygon>
                        <polygon id="Fill-249" fill="#414042" points="38.5959364 104.525031 38.6893 104.578382 38.6963909 101.887111 38.6042091 101.832575"></polygon>
                        <polygon id="Fill-251" fill="#414042" points="38.7875091 104.63612 39.1857818 104.866123 39.1940545 102.174852 38.7957818 101.943664"></polygon>
                        <polygon id="Fill-253" fill="#414042" points="37.0955 103.655525 37.1876818 103.708876 37.1959545 101.017606 37.1025909 100.963069"></polygon>
                        <polygon id="Fill-255" fill="#414042" points="37.2860091 103.765429 37.3781909 103.819965 37.3864636 101.127509 37.2931 101.074158"></polygon>
                        <polygon id="Fill-257" fill="#414042" points="38.1642182 104.274873 38.3296727 104.370905 38.3367636 101.679635 38.1713091 101.582417"></polygon>
                        <polygon id="Fill-259" fill="#414042" points="38.4124 104.418447 38.4880364 104.462313 38.4963091 101.772229 38.4206727 101.725991"></polygon>
                        <polygon id="Fill-261" fill="#414042" points="39.2917909 104.927891 39.3839727 104.981243 39.3922455 102.288787 39.2988818 102.235435"></polygon>
                        <polygon id="Fill-263" fill="#414042" points="35.0158545 102.45133 35.3266727 102.630353 35.3349455 99.9390822 35.0241273 99.7588738"></polygon>
                        <polygon id="Fill-265" fill="#414042" points="39.4903364 102.34605 39.4820636 105.038506 39.5742455 105.091857 39.5825182 102.400587"></polygon>
                        <polygon id="Fill-267" fill="#565382" points="32.3832364 102.461763 32.4387818 79.4543648 28.1665091 76.9800558 28.1594182 76.9836125 28.1050545 99.9838972"></polygon>
                        <polygon id="Fill-269" fill="#6B6990" points="49.4515273 64.4478646 28.1658 76.979463 32.4380727 79.453772 32.4380727 79.4478441 53.7190727 66.9186169"></polygon>
                        <polygon id="Fill-271" fill="#8C6F37" points="42.3860273 37.0244118 42.3210273 60.0258821 22.3672091 48.4688318 22.4310273 25.4673616"></polygon>
                        <polygon id="Fill-273" fill="#A68340" points="42.3860273 37.0244118 63.7781182 24.5532781 63.7119364 47.5559339 42.3210273 60.0258821"></polygon>
                        <polygon id="Fill-275" fill="#B99348" points="22.4312636 25.467243 43.8233545 12.9961093 63.7771727 24.5531595 42.3862636 37.0242933"></polygon>
                        <path d="M60.6175818,48.4043362 L60.6104909,45.7284783 L62.9315818,44.3828431 L62.9398545,47.0598865 L60.6175818,48.4043362 Z M58.2267636,49.7902812 L58.2196727,47.1132377 L60.5407636,45.7676025 L60.5478545,48.4446459 L58.2267636,49.7902812 Z M55.8335818,51.1750406 L55.8264909,48.4991827 L58.1487636,47.1535475 L58.1558545,49.8305909 L55.8335818,51.1750406 Z M63.0013091,44.2642849 L60.5407636,45.6893541 L58.1487636,47.0741135 L55.7579455,48.4588729 L55.7650364,51.2947843 L58.1570364,49.9100249 L58.2255818,49.8697151 L60.5478545,48.5252655 L60.6175818,48.4837701 L63.0084,47.0990107 L63.0013091,44.2642849 Z" id="Fill-277" fill="#414042"></path>
                        <path d="M60.0994727,46.4568997 L60.0994783,46.3786513 L59.3821091,46.7936049 L59.0594727,46.9785556 L58.9897455,47.1777334 L59.1752909,47.0508761 L58.8845636,47.6472237 L59.0346545,47.2192287 L58.8396545,47.3626841 L58.9897455,47.0212366 L58.6635636,47.2097441 L58.6635636,47.2879925 C58.6647455,47.6365535 58.8538364,47.8381024 59.1386545,47.7930503 C59.1942,47.7835656 59.2532909,47.7657819 59.3123818,47.7373279 L59.3159273,48.6419267 L58.9070182,48.8790431 L58.9070182,49.0426533 L59.8666545,48.4866155 L59.8654727,48.3230053 L59.4565636,48.558936 L59.4542,47.6555228 C59.5132909,47.6140274 59.5723818,47.5654186 59.6291091,47.5096962 C59.9127455,47.2251566 60.1006545,46.8054607 60.0994727,46.4568997" id="Fill-279" fill="#414042"></path>
                        <polygon id="Fill-281" fill="#414042" points="56.9879818 48.1796684 56.5058 49.2087533 56.8107091 49.0332873 56.8142545 50.2544364 57.1747091 50.0445884 57.1711636 48.8234393 57.4748909 48.6479732"></polygon>
                        <polygon id="Fill-283" fill="#414042" points="61.2212545 46.639835 61.2200727 46.639835 61.2200727 46.6410205"></polygon>
                        <path d="M60.6672182,46.9617204 L60.6672182,46.9605348 L60.6672182,46.9617204 Z" id="Fill-285" fill="#414042"></path>
                        <polygon id="Fill-287" fill="#414042" points="62.3292091 45.9984353 62.3292091 45.9984353 62.3280273 45.9996208"></polygon>
                        <path d="M62.8820636,45.678921 L62.8820636,45.6777354 L62.8820636,45.678921 Z" id="Fill-289" fill="#414042"></path>
                        <path d="M62.0637727,45.43232 C61.9893182,45.4477326 61.9101364,45.4750009 61.8309545,45.5141251 L61.8309545,45.3694842 L61.7127727,45.4370623 L61.7139545,45.5828889 C61.6347727,45.6338689 61.5567727,45.6978903 61.4811364,45.7702108 C61.2554091,45.9895434 60.9386818,46.3689295 60.6668636,46.9593492 C60.6775,46.9439367 60.7850455,46.7838831 60.9434091,46.6914078 C61.1088636,46.5953756 61.2140455,46.6392422 61.2199545,46.6404277 C61.2258636,46.6321287 61.3310455,46.4673328 61.4976818,46.3713007 C61.5910455,46.3167639 61.6666818,46.3072793 61.7151364,46.3096505 L61.7175,47.0660516 C61.7186818,47.1857953 61.6335909,47.333993 61.5295909,47.3932721 C61.4244091,47.4537368 61.3393182,47.4051279 61.3393182,47.2841986 L61.3393182,47.0826497 L61.2211364,47.1502279 L61.2211364,47.3529623 C61.2223182,47.5473977 61.3605909,47.6268317 61.5295909,47.529614 C61.6985909,47.4312107 61.8356818,47.1917232 61.8356818,46.9972878 L61.8333182,46.2420723 C61.8817727,46.1839788 61.9574091,46.1045448 62.0507727,46.0500081 C62.2174091,45.9539759 62.3237727,45.9966569 62.3296818,45.9990281 C62.3344091,45.9895434 62.4384091,45.8259331 62.6050455,45.729901 C62.7634091,45.6386112 62.8721364,45.6729931 62.8804091,45.6765498 C62.6085909,45.4026805 62.2895,45.3908246 62.0637727,45.43232" id="Fill-291" fill="#414042"></path>
                        <path d="M41.0345,57.7466013 L40.9423182,57.6932501 L40.9505909,55.0019797 L41.0427727,55.0541453 L41.0345,57.7466013 Z M40.8442273,57.6351566 L40.7520455,57.5818054 L40.7591364,54.890535 L40.8525,54.9450718 L40.8442273,57.6351566 Z M40.6456818,57.5213408 L40.2474091,57.2901523 L40.2556818,54.5988819 L40.6539545,54.8288848 L40.6456818,57.5213408 Z M40.1493182,57.2332444 L40.0571364,57.1787076 L40.0642273,54.4886228 L40.1564091,54.541974 L40.1493182,57.2332444 Z M39.9484091,57.118243 L39.8727727,57.0731909 L39.8798636,54.3819205 L39.9566818,54.425787 L39.9484091,57.118243 Z M39.7888636,57.0257676 L39.6245909,56.9297355 L39.6316818,54.2372795 L39.7971364,54.3333116 L39.7888636,57.0257676 Z M39.5265,56.8728276 L39.1270455,56.6416391 L39.1353182,53.9503687 L39.5324091,54.1803716 L39.5265,56.8728276 Z M39.0301364,56.5847312 L38.9367727,56.53138 L38.9438636,53.838924 L39.0372273,53.8934608 L39.0301364,56.5847312 Z M38.8386818,56.4744721 L38.7453182,56.421121 L38.7535909,53.728665 L38.8457727,53.7820161 L38.8386818,56.4744721 Z M38.6472273,56.364213 L38.5550455,56.3096763 L38.5621364,53.6195914 L38.6555,53.671757 L38.6472273,56.364213 Z M38.4581364,56.2539539 L38.1898636,56.0974572 L38.1969545,53.4073723 L38.4652273,53.5626835 L38.4581364,56.2539539 Z M38.0882273,56.0405492 L37.9369545,55.9516306 L37.9440455,53.2603602 L38.0965,53.3480932 L38.0882273,56.0405492 Z M37.8424091,55.8959083 L37.1096818,55.4726556 L37.1179545,52.7813852 L37.8495,53.2058234 L37.8424091,55.8959083 Z M37.0080455,55.4133765 L36.8780455,55.3386849 L36.8851364,52.6462289 L37.0163182,52.7232917 L37.0080455,55.4133765 Z M36.7858636,55.2853337 L36.4762273,55.1051253 L36.4833182,52.4138549 L36.7941364,52.5940633 L36.7858636,55.2853337 Z M36.3698636,55.0446606 L36.1996818,54.9462573 L36.2079545,52.2538013 L36.3769545,52.3522046 L36.3698636,55.0446606 Z M36.1039545,54.890535 L35.8522273,54.7447085 L35.8605,52.053438 L36.1110455,52.198079 L36.1039545,54.890535 Z M35.7588636,54.6913573 L35.1325,54.3273837 L35.1407727,51.6361133 L35.7671364,51.9989013 L35.7588636,54.6913573 Z M34.9032273,51.2342011 L34.8937727,54.4542409 L41.2732273,58.1485135 L41.2826818,54.9296592 L34.9032273,51.2342011 Z" id="Fill-293" fill="#EFF0F0"></path>
                        <polygon id="Fill-295" fill="#414042" points="35.1323818 54.3276208 35.7587455 54.6915944 35.7670182 51.9991384 35.1406545 51.6351648"></polygon>
                        <polygon id="Fill-297" fill="#414042" points="36.8785182 55.3383292 37.0073364 55.4130208 37.0156091 52.722936 36.8856091 52.6458732"></polygon>
                        <polygon id="Fill-299" fill="#414042" points="35.8525818 54.7444713 36.1043091 54.8902979 36.1114 52.1990275 35.8608545 52.0532009"></polygon>
                        <polygon id="Fill-301" fill="#414042" points="36.1999182 54.9459017 36.3701 55.0443049 36.3760091 52.3518489 36.2081909 52.2534457"></polygon>
                        <polygon id="Fill-303" fill="#414042" points="37.1093273 55.4726556 37.8420545 55.8959083 37.8491455 53.2058234 37.1176 52.7801996"></polygon>
                        <polygon id="Fill-305" fill="#414042" points="37.9368364 55.9519863 38.0881091 56.0397193 38.0963818 53.3484489 37.9439273 53.2595303"></polygon>
                        <polygon id="Fill-307" fill="#414042" points="38.1896273 56.0979314 38.4590818 56.2544282 38.4649909 53.5619722 38.1967182 53.406661"></polygon>
                        <polygon id="Fill-309" fill="#414042" points="38.9363 56.5309058 39.0296636 56.584257 39.0367545 53.8929866 38.9445727 53.8384498"></polygon>
                        <polygon id="Fill-311" fill="#414042" points="39.1268091 56.6419948 39.5262636 56.8719977 39.5333545 54.1807272 39.1350818 53.9495388"></polygon>
                        <polygon id="Fill-313" fill="#414042" points="40.0570182 57.1793004 40.1492 57.2338372 40.1562909 54.5413812 40.0641091 54.48803"></polygon>
                        <polygon id="Fill-315" fill="#414042" points="40.2474091 57.2903894 40.6456818 57.5203923 40.6539545 54.8291219 40.2556818 54.5979334"></polygon>
                        <polygon id="Fill-317" fill="#414042" points="38.5555182 56.3097948 38.6477 56.3643316 38.6559727 53.6718756 38.5626091 53.6185244"></polygon>
                        <polygon id="Fill-319" fill="#414042" points="38.7459091 56.4208838 38.8380909 56.474235 38.8463636 53.781779 38.7541818 53.7284278"></polygon>
                        <polygon id="Fill-321" fill="#414042" points="39.6242364 56.9291427 39.7896909 57.0251748 39.7967818 54.3339044 39.6313273 54.2366867"></polygon>
                        <polygon id="Fill-323" fill="#414042" points="39.8723 57.0727166 39.9479364 57.1177687 39.9562091 54.4264983 39.8805727 54.3814462"></polygon>
                        <polygon id="Fill-325" fill="#414042" points="40.7518091 57.5821611 40.8439909 57.6355123 40.8522636 54.9442419 40.7589 54.8897051"></polygon>
                        <polygon id="Fill-327" fill="#414042" points="36.4757545 55.1055995 36.7865727 55.2846224 36.7948455 52.5945375 36.4840273 52.4131435"></polygon>
                        <polygon id="Fill-329" fill="#414042" points="40.9502364 55.0015054 40.9419636 57.6939614 41.0341455 57.746127 41.0424182 55.0548566"></polygon>
                        <polygon id="Fill-331" fill="#634B23" points="33.8432545 55.1160326 33.8988 32.1086345 29.6277091 29.6343255 29.6194364 29.6390678 29.5650727 52.6381669"></polygon>
                        <polygon id="Fill-333" fill="#725225" points="50.9114273 17.1022529 29.6268818 29.6338513 33.8979727 32.1081603 33.8979727 32.1022324 55.1789727 19.5730051"></polygon>
                        <polygon id="Fill-335" fill="#6C75A9" points="62.3938545 48.6810509 62.3288545 71.6825212 42.3750364 60.1254709 42.4388545 37.1228151"></polygon>
                        <polygon id="Fill-337" fill="#858DBE" points="62.3938545 48.6810509 83.7859455 36.2099172 83.7197636 59.212573 62.3288545 71.6825212"></polygon>
                        <polygon id="Fill-339" fill="#9199C6" points="42.4390909 37.1228151 63.8311818 24.6516814 83.785 36.2099172 62.3940909 48.6810509"></polygon>
                        <path d="M80.6254091,60.0609753 L80.6183182,57.3839318 L82.9394091,56.0394822 L82.9476818,58.7165256 L80.6254091,60.0609753 Z M78.2345909,61.4457347 L78.2275,58.7698768 L80.5485909,57.4242416 L80.5556818,60.1012851 L78.2345909,61.4457347 Z M75.8425909,62.8316797 L75.8343182,60.1546362 L78.1565909,58.8101866 L78.1636818,61.48723 L75.8425909,62.8316797 Z M83.0091364,55.9197385 L80.5485909,57.3448076 L78.1565909,58.729567 L75.7657727,60.115512 L75.7740455,62.9514234 L78.1648636,61.566664 L78.2334091,61.5263542 L80.5556818,60.1819046 L80.6254091,60.1404093 L83.0162273,58.7556498 L83.0091364,55.9197385 Z" id="Fill-341" fill="#414042"></path>
                        <path d="M80.1073,58.1136574 L80.1073055,58.0342234 L79.3899364,58.449177 L79.0673,58.6353133 L78.9975727,58.834491 L79.1831182,58.7064482 L78.8923909,59.3039814 L79.0424818,58.8759864 L78.8474818,59.0182562 L78.9975727,58.6779942 L78.6713909,58.8665017 L78.6713909,58.9447501 C78.6725727,59.2933111 78.8616636,59.49486 79.1464818,59.4498079 C79.2020273,59.4403233 79.2611182,59.421354 79.3202091,59.3940856 L79.3237545,60.2986844 L78.9148455,60.5346152 L78.9148455,60.699411 L79.8744818,60.1433732 L79.8744818,59.9797629 L79.4655727,60.2156937 L79.4620273,59.3122804 C79.5211182,59.2707851 79.5802091,59.2221762 79.6369364,59.1664539 C79.9205727,58.8819143 80.1084818,58.4622184 80.1073,58.1136574" id="Fill-343" fill="#414042"></path>
                        <polygon id="Fill-345" fill="#414042" points="76.9968727 59.8352405 76.5135091 60.865511 76.8184182 60.6888593 76.8219636 61.9111941 77.1824182 61.7013461 77.1788727 60.480197 77.4826 60.3047309"></polygon>
                        <polygon id="Fill-347" fill="#414042" points="81.2290818 58.2964741 81.2279 58.2964741 81.2279 58.2976596"></polygon>
                        <path d="M80.6750455,58.6183595 L80.6750455,58.6171739 L80.6750455,58.6183595 Z" id="Fill-349" fill="#414042"></path>
                        <polygon id="Fill-351" fill="#414042" points="82.3370364 57.6550744 82.3370364 57.6550744 82.3358545 57.65626"></polygon>
                        <path d="M82.8897727,57.3355601 L82.8897727,57.3343745 L82.8897727,57.3355601 Z" id="Fill-353" fill="#414042"></path>
                        <path d="M82.0716,57.0889591 C81.9971455,57.1031861 81.9179636,57.1316401 81.8387818,57.1707643 L81.8387818,57.0249377 L81.7206,57.0937014 L81.7217818,57.2383424 C81.6426,57.290508 81.5646,57.3533438 81.4889636,57.4268499 C81.2632364,57.6461825 80.9465091,58.0255686 80.6758727,58.6159883 C80.6853273,58.5993902 80.7928727,58.4405222 80.9512364,58.3480469 C81.1166909,58.2520147 81.2218727,58.2946957 81.2277818,58.2970669 C81.2336909,58.2887678 81.3388727,58.1239719 81.5055091,58.0279398 C81.5988727,57.9734031 81.6745091,57.9639184 81.7241455,57.9662896 L81.7253273,58.7215051 C81.7265091,58.8424344 81.6414182,58.9894466 81.5374182,59.0499112 C81.4322364,59.1103759 81.3483273,59.061767 81.3471455,58.9408377 L81.3471455,58.7392888 L81.2289636,58.806867 L81.2289636,59.0096014 C81.2301455,59.2040368 81.3684182,59.2834708 81.5374182,59.1862531 C81.7064182,59.0878498 81.8435091,58.8483623 81.8435091,58.6539269 L81.8411455,57.8987114 C81.8896,57.8406179 81.9652364,57.7611839 82.0586,57.7066472 C82.2252364,57.6106151 82.3316,57.653296 82.3375091,57.6556672 C82.3422364,57.6461825 82.4462364,57.4825722 82.6128727,57.3865401 C82.7712364,57.2952503 82.8799636,57.3296322 82.8882364,57.3331889 C82.6164182,57.0593196 82.2973273,57.0474638 82.0716,57.0889591" id="Fill-355" fill="#414042"></path>
                        <path d="M61.0423273,69.4032404 L60.9501455,69.3487036 L60.9584182,66.6574332 L61.0506,66.7107844 L61.0423273,69.4032404 Z M60.8520545,69.2917957 L60.7598727,69.2384445 L60.7669636,66.5471741 L60.8603273,66.6017109 L60.8520545,69.2917957 Z M60.6535091,69.1779799 L60.2564182,68.9467914 L60.2635091,66.255521 L60.6617818,66.4855239 L60.6535091,69.1779799 Z M60.1571455,68.8898835 L60.0649636,68.8353468 L60.0720545,66.1440763 L60.1654182,66.1986131 L60.1571455,68.8898835 Z M59.9562364,68.7736965 L59.8806,68.72983 L59.8876909,66.037374 L59.9645091,66.0824261 L59.9562364,68.7736965 Z M59.7966909,68.6824067 L59.6324182,68.5863746 L59.6395091,65.8939186 L59.8049636,65.9899507 L59.7966909,68.6824067 Z M59.5343273,68.5294667 L59.1348727,68.2970927 L59.1431455,65.6070078 L59.5414182,65.8370107 L59.5343273,68.5294667 Z M59.0379636,68.2413703 L58.9446,68.1880192 L58.9516909,65.4955632 L59.0450545,65.5500999 L59.0379636,68.2413703 Z M58.8465091,68.1311112 L58.7531455,68.0777601 L58.7614182,65.3853041 L58.8536,65.4386552 L58.8465091,68.1311112 Z M58.6550545,68.0208521 L58.5628727,67.9663154 L58.5699636,65.275045 L58.6633273,65.3283961 L58.6550545,68.0208521 Z M58.4659636,67.910593 L58.1976909,67.7540963 L58.2047818,65.0628258 L58.4730545,65.2193226 L58.4659636,67.910593 Z M58.0960545,67.6971883 L57.9447818,67.6082697 L57.9518727,64.9169993 L58.1043273,65.0047323 L58.0960545,67.6971883 Z M57.8502364,67.5525474 L57.1175091,67.1292947 L57.1257818,64.4380243 L57.8573273,64.8624625 L57.8502364,67.5525474 Z M57.0158727,67.0700156 L56.8858727,66.995324 L56.8929636,64.302868 L57.0241455,64.3787452 L57.0158727,67.0700156 Z M56.7936909,66.9419728 L56.4840545,66.7617644 L56.4911455,64.070494 L56.8019636,64.2495168 L56.7936909,66.9419728 Z M56.3776909,66.7012997 L56.2075091,66.6028964 L56.2157818,63.9104404 L56.3847818,64.0088437 L56.3776909,66.7012997 Z M56.1117818,66.5471741 L55.8600545,66.4013476 L55.8683273,63.7088916 L56.1200545,63.8547181 L56.1117818,66.5471741 Z M55.7666909,66.3468108 L55.1403273,65.9840228 L55.1486,63.2927524 L55.7749636,63.6555404 L55.7666909,66.3468108 Z M54.9110545,62.8908402 L54.9016,66.11088 L61.2810545,69.8051526 L61.2905091,66.5862983 L54.9110545,62.8908402 Z" id="Fill-357" fill="#EFF0F0"></path>
                        <polygon id="Fill-359" fill="#414042" points="55.1402091 65.9842599 55.7665727 66.3470479 55.7748455 63.6557775 55.1484818 63.2918039"></polygon>
                        <polygon id="Fill-361" fill="#414042" points="56.8863455 66.9950869 57.0151636 67.0697785 57.0234364 64.3785081 56.8934364 64.3026309"></polygon>
                        <polygon id="Fill-363" fill="#414042" points="55.8602909 66.4011104 56.1120182 66.546937 56.1202909 63.8556666 55.8685636 63.7086544"></polygon>
                        <polygon id="Fill-365" fill="#414042" points="56.2077455 66.6025408 56.3779273 66.7009441 56.3838364 64.0084881 56.2160182 63.9100848"></polygon>
                        <polygon id="Fill-367" fill="#414042" points="57.1171545 67.1292947 57.8498818 67.5525474 57.8569727 64.8624625 57.1254273 64.4368387"></polygon>
                        <polygon id="Fill-369" fill="#414042" points="57.9446636 67.6086254 58.0959364 67.6963584 58.1042091 65.005088 57.9517545 64.9161694"></polygon>
                        <polygon id="Fill-371" fill="#414042" points="58.1974545 67.7545705 58.4669091 67.9110673 58.4728182 65.2186113 58.2045455 65.0621145"></polygon>
                        <polygon id="Fill-373" fill="#414042" points="58.9441273 68.1875449 59.0374909 68.2408961 59.0445818 65.5496257 58.9524 65.4950889"></polygon>
                        <polygon id="Fill-375" fill="#414042" points="59.1346364 68.2975669 59.5340909 68.5287553 59.5423636 65.8374849 59.1429091 65.6062965"></polygon>
                        <polygon id="Fill-377" fill="#414042" points="60.0648455 68.8359395 60.1570273 68.8904763 60.1653 66.1980203 60.0719364 66.1434835"></polygon>
                        <polygon id="Fill-379" fill="#414042" points="60.2564182 68.9470286 60.6535091 69.1770314 60.6617818 66.485761 60.2635091 66.2545725"></polygon>
                        <polygon id="Fill-381" fill="#414042" points="58.5633455 67.9664339 58.6555273 68.0209707 58.6638 65.3285147 58.5704364 65.2739779"></polygon>
                        <polygon id="Fill-383" fill="#414042" points="58.7537364 68.0775229 58.8459182 68.1308741 58.8541909 65.4384181 58.7620091 65.3850669"></polygon>
                        <polygon id="Fill-385" fill="#414042" points="59.6320636 68.5859004 59.7975182 68.6819325 59.8046091 65.9906621 59.6391545 65.8934444"></polygon>
                        <polygon id="Fill-387" fill="#414042" points="59.8801273 68.7294743 59.9557636 68.7733408 59.9640364 66.083256 59.8884 66.0370183"></polygon>
                        <polygon id="Fill-389" fill="#414042" points="60.7596364 69.2388002 60.8518182 69.2921514 60.8600909 66.600881 60.7667273 66.5463442"></polygon>
                        <polygon id="Fill-391" fill="#414042" points="56.4835818 66.7623572 56.7944 66.94138 56.8026727 64.2501096 56.4918545 64.0699012"></polygon>
                        <polygon id="Fill-393" fill="#414042" points="60.9580636 66.656959 60.9497909 69.349415 61.0419727 69.4027662 61.0502455 66.7114957"></polygon>
                        <polygon id="Fill-395" fill="#634B23" points="53.8510818 66.7727903 53.9066273 43.7653922 49.6355364 41.2910832 49.6272636 41.2946399 49.5729 64.2949246"></polygon>
                        <polygon id="Fill-397" fill="#6B6990" points="70.9192545 28.758892 49.6347091 41.2904904 53.9058 43.7647994 53.9058 43.7588715 75.1868 31.2308298"></polygon>
                        <polygon id="Fill-399" fill="#6C75A9" points="20.9181818 49.567866 20.8531818 72.5705219 0.899363636 61.012286 0.963181818 38.0108158"></polygon>
                        <polygon id="Fill-401" fill="#858DBE" points="20.9181818 49.567866 42.3090909 37.0967323 42.2440909 60.1005737 20.8531818 72.5705219"></polygon>
                        <polygon id="Fill-403" fill="#9199C6" points="0.963536364 38.0108158 22.3556273 25.5396821 42.3082636 37.0967323 20.9185364 49.567866"></polygon>
                        <path d="M39.1498545,60.9490945 L39.1427636,58.2720511 L41.4638545,56.9276014 L41.4721273,59.6034593 L39.1498545,60.9490945 Z M36.7590364,62.3338539 L36.7519455,59.6568105 L39.0730364,58.3123609 L39.0801273,60.9894043 L36.7590364,62.3338539 Z M34.3658545,63.7197989 L34.3587636,61.0427555 L36.6798545,59.6983058 L36.6881273,62.3741637 L34.3658545,63.7197989 Z M41.5335818,56.8078577 L39.0730364,58.2329269 L36.6810364,59.6176863 L34.2890364,61.0036313 L34.2973091,63.8395427 L36.6893091,62.4535977 L36.7578545,62.4132879 L39.0801273,61.0688383 L39.1498545,61.0285285 L41.5406727,59.6437691 L41.5335818,56.8078577 Z" id="Fill-405" fill="#414042"></path>
                        <path d="M38.6316273,59.001658 L38.6304455,58.9222241 L37.9130818,59.3371777 L37.5916273,59.523314 L37.5219,59.7213061 L37.7074455,59.5944489 L37.4167182,60.1907965 L37.5668091,59.7628015 L37.3718091,59.9062569 L37.5219,59.5648093 L37.1957182,59.7533168 L37.1957182,59.8327508 C37.1969,60.1801262 37.3859909,60.3816751 37.6708091,60.336623 C37.7263545,60.3271384 37.7854455,60.3093546 37.8445364,60.2809007 L37.8469,61.1866851 L37.4391727,61.4226158 L37.4391727,61.5862261 L38.3988091,61.0313739 L38.3976273,60.866578 L37.9887182,61.1036944 L37.9863545,60.1990955 C38.0454455,60.1587858 38.1045364,60.1101769 38.1612636,60.053269 C38.4449,59.7687294 38.6316273,59.3490335 38.6316273,59.001658" id="Fill-407" fill="#414042"></path>
                        <polygon id="Fill-409" fill="#414042" points="35.5201364 60.7232412 35.0379545 61.7523261 35.3428636 61.57686 35.3464091 62.7991947 35.7068636 62.5893468 35.7033182 61.3670121 36.0070455 61.191546"></polygon>
                        <polygon id="Fill-411" fill="#414042" points="39.7534091 59.1845933 39.7522273 59.1845933 39.7522273 59.1857789"></polygon>
                        <path d="M39.1983091,59.5052931 L39.1994909,59.5052931 L39.1983091,59.5052931 Z" id="Fill-413" fill="#414042"></path>
                        <polygon id="Fill-415" fill="#414042" points="40.8613636 58.542008 40.8601818 58.542008 40.8601818 58.5431936"></polygon>
                        <path d="M40.5959273,57.9769598 C40.5214727,57.9911868 40.4422909,58.0184552 40.3631091,58.0575794 L40.3631091,57.9129384 L40.2449273,57.9817021 L40.2461091,58.1263431 C40.1669273,58.1785087 40.0877455,58.2413445 40.0132909,58.313665 C39.7875636,58.5329976 39.4708364,58.9123837 39.1990182,59.5028034 C39.2096545,59.4873909 39.3172,59.3285229 39.4755636,59.2360475 C39.6410182,59.1400154 39.7462,59.1826964 39.7521091,59.1850675 C39.7580182,59.1755829 39.8632,59.0119726 40.0298364,58.9159405 C40.1232,58.8614037 40.1988364,58.8507335 40.2472909,58.8531047 L40.2496545,59.6095058 C40.2508364,59.7304351 40.1657455,59.8774472 40.0617455,59.9367263 C39.9565636,59.997191 39.8714727,59.9485821 39.8714727,59.8288384 L39.8714727,59.6272895 L39.7532909,59.6948677 L39.7532909,59.8964165 C39.7544727,60.0920375 39.8915636,60.1714715 40.0617455,60.0730682 C40.2307455,59.9758505 40.3678364,59.736363 40.3678364,59.540742 L40.3654727,58.7867121 C40.4139273,58.727433 40.4895636,58.647999 40.5829273,58.5946479 C40.7495636,58.4974302 40.8559273,58.5401111 40.8606545,58.5424823 C40.8665636,58.5341832 40.9705636,58.3693873 41.1372,58.2733552 C41.2955636,58.1820654 41.4031091,58.2176329 41.4125636,58.2211896 C41.1407455,57.9461347 40.8204727,57.9342789 40.5959273,57.9769598" id="Fill-419" fill="#414042"></path>
                        <path d="M19.5667727,70.290174 L19.4745909,70.2368229 L19.4816818,67.5455524 L19.5750455,67.597718 L19.5667727,70.290174 Z M19.3765,70.1799149 L19.2843182,70.1265638 L19.2914091,67.4352933 L19.3847727,67.4886445 L19.3765,70.1799149 Z M19.1779545,70.0660991 L18.7796818,69.8349107 L18.7879545,67.1436403 L19.1862273,67.3736431 L19.1779545,70.0660991 Z M18.6815909,69.7768172 L18.5882273,69.723466 L18.5965,67.0321956 L18.6886818,67.0855468 L18.6815909,69.7768172 Z M18.4806818,69.6618157 L18.4050455,69.6179492 L18.4121364,66.9254932 L18.4889545,66.9693597 L18.4806818,69.6618157 Z M18.3211364,69.5693404 L18.1568636,69.4733083 L18.1639545,66.7820378 L18.3294091,66.8768844 L18.3211364,69.5693404 Z M18.0587727,69.4164003 L17.6593182,69.1852119 L17.6675909,66.4939415 L18.0646818,66.7251299 L18.0587727,69.4164003 Z M17.5612273,69.1294896 L17.4690455,69.0761384 L17.4761364,66.3836824 L17.5695,66.4370336 L17.5612273,69.1294896 Z M17.3709545,69.0192305 L17.2775909,68.9646937 L17.2846818,66.2722377 L17.3780455,66.3267745 L17.3709545,69.0192305 Z M17.1795,68.9077858 L17.0873182,68.8544346 L17.0944091,66.1631642 L17.1877727,66.2153298 L17.1795,68.9077858 Z M16.9892273,68.7975267 L16.7221364,68.6422155 L16.7292273,65.9509451 L16.9975,66.1062563 L16.9892273,68.7975267 Z M16.6205,68.584122 L16.4680455,68.4952034 L16.4763182,65.803933 L16.6275909,65.891666 L16.6205,68.584122 Z M16.3746818,68.4406666 L15.6419545,68.017414 L15.6502273,65.3261435 L16.3817727,65.7493962 L16.3746818,68.4406666 Z M15.5403182,67.9581349 L15.4091364,67.8834432 L15.4174091,65.1909872 L15.5485909,65.2668644 L15.5403182,67.9581349 Z M15.3181364,67.830092 L15.0085,67.6498836 L15.0155909,64.9586132 L15.3252273,65.137636 L15.3181364,67.830092 Z M14.9021364,67.5882334 L14.7319545,67.4910157 L14.7402273,64.7985597 L14.9092273,64.8957774 L14.9021364,67.5882334 Z M14.6362273,67.4352933 L14.3845,67.2894668 L14.3927727,64.5970108 L14.6433182,64.7428373 L14.6362273,67.4352933 Z M14.2911364,67.23493 L13.6647727,66.872142 L13.6730455,64.1808716 L14.2982273,64.542474 L14.2911364,67.23493 Z M13.4355,63.7789594 L13.4260455,66.9978137 L19.8055,70.6932718 L19.8149545,67.473232 L13.4355,63.7789594 Z" id="Fill-421" fill="#EFF0F0"></path>
                        <polygon id="Fill-423" fill="#414042" points="13.6645364 66.8722606 14.2909 67.2350486 14.2979909 64.5425926 13.6728091 64.1798046"></polygon>
                        <polygon id="Fill-425" fill="#414042" points="15.4096091 67.8830875 15.5396091 67.9577792 15.5478818 65.2665088 15.4178818 65.1906315"></polygon>
                        <polygon id="Fill-427" fill="#414042" points="14.3847364 67.2891111 14.6364636 67.4349377 14.6435545 64.7436673 14.3930091 64.5966551"></polygon>
                        <polygon id="Fill-429" fill="#414042" points="14.7321909 67.4905415 14.9023727 67.5877592 14.9082818 64.8964887 14.7404636 64.7980855"></polygon>
                        <polygon id="Fill-431" fill="#414042" points="15.6416 68.017414 16.3743273 68.4406666 16.3814182 65.7493962 15.6498727 65.324958"></polygon>
                        <polygon id="Fill-433" fill="#414042" points="16.4679273 68.495559 16.6203818 68.5832921 16.6274727 65.8920217 16.4762 65.803103"></polygon>
                        <polygon id="Fill-435" fill="#414042" points="16.7219 68.6425712 16.9901727 68.7978824 16.9972636 66.1054264 16.7289909 65.9501152"></polygon>
                        <polygon id="Fill-437" fill="#414042" points="17.4685727 69.0755456 17.5607545 69.1288968 17.5690273 66.4364408 17.4768455 66.3830896"></polygon>
                        <polygon id="Fill-439" fill="#414042" points="17.6589636 69.1855676 18.0584182 69.4155704 18.0655091 66.7254856 17.6672364 66.4931116"></polygon>
                        <polygon id="Fill-441" fill="#414042" points="18.5881091 69.7239402 18.6814727 69.7772914 18.6885636 67.0848354 18.5963818 67.0314842"></polygon>
                        <polygon id="Fill-443" fill="#414042" points="18.7796818 69.8351478 19.1779545 70.0651506 19.1862273 67.3738802 18.7879545 67.1426918"></polygon>
                        <polygon id="Fill-445" fill="#414042" points="17.0876727 68.8544346 17.1798545 68.9077858 17.1881273 66.2153298 17.0947636 66.1619786"></polygon>
                        <polygon id="Fill-447" fill="#414042" points="17.2781818 68.9644566 17.3703636 69.0189934 17.3786364 66.3265374 17.2852727 66.2720006"></polygon>
                        <polygon id="Fill-449" fill="#414042" points="18.1563909 69.4727155 18.3218455 69.5687476 18.3289364 66.8774772 18.1634818 66.781445"></polygon>
                        <polygon id="Fill-451" fill="#414042" points="18.4045727 69.617475 18.4802091 69.6613415 18.4884818 66.9700711 18.4128455 66.925019"></polygon>
                        <polygon id="Fill-453" fill="#414042" points="19.2839636 70.1269194 19.3761455 70.1802706 19.3844182 67.4878146 19.2910545 67.4344634"></polygon>
                        <polygon id="Fill-455" fill="#414042" points="15.0080273 67.6503579 15.3188455 67.8293807 15.3259364 65.1381103 15.0163 64.9579019"></polygon>
                        <polygon id="Fill-457" fill="#414042" points="19.4813273 67.5449597 19.4742364 70.2374157 19.5664182 70.2895812 19.5746909 67.5983108"></polygon>
                        <polygon id="Fill-459" fill="#565382" points="12.3754091 67.660791 12.4297727 44.6522073 8.15868182 42.1778983 8.15159091 42.1826406 8.09722727 65.1817397"></polygon>
                        <polygon id="Fill-461" fill="#6B6990" points="29.4437 29.6457071 8.15797273 42.1773055 12.4302455 44.6516145 12.4302455 44.6468721 33.7112455 32.1176449"></polygon>
                        <polygon id="Fill-463" fill="#6C75A9" points="40.9260091 61.2246237 40.8610091 84.2272795 20.9071909 72.6690437 20.9710091 49.6675735"></polygon>
                        <polygon id="Fill-465" fill="#858DBE" points="40.9260091 61.2246237 62.3169182 48.75349 62.2519182 71.7573314 40.8610091 84.2272795"></polygon>
                        <polygon id="Fill-467" fill="#9199C6" points="20.9713636 49.6674549 42.3634545 37.1963212 62.3160909 48.7533714 40.9263636 61.2245051"></polygon>
                        <path d="M59.1576818,72.6057336 L59.1505909,69.9286902 L61.4716818,68.583055 L61.4799545,71.2600984 L59.1576818,72.6057336 Z M56.7668636,73.990493 L56.7597727,71.3134496 L59.0808636,69.969 L59.0879545,72.6448578 L56.7668636,73.990493 Z M54.3736818,75.376438 L54.3665909,72.6993946 L56.6876818,71.3537594 L56.6959545,74.0308028 L54.3736818,75.376438 Z M61.5414091,68.4644968 L59.0808636,69.889566 L56.6888636,71.2743254 L54.2980455,72.6602704 L54.3051364,75.4961818 L56.6971364,74.1102368 L56.7656818,74.069927 L59.0879545,72.7254774 L59.1576818,72.6851676 L61.5485,71.2992226 L61.5414091,68.4644968 Z" id="Fill-469" fill="#414042"></path>
                        <path d="M58.6394545,70.6571116 L58.6382727,70.5788632 L57.9220909,70.9938168 L57.5994545,71.1799531 L57.5297273,71.3779452 L57.7152727,71.251088 L57.4245455,71.8474356 L57.5746364,71.4194406 L57.3796364,71.562896 L57.5297273,71.2214485 L57.2035455,71.4099559 L57.2035455,71.4893899 C57.2047273,71.8367653 57.3938182,72.0383142 57.6786364,71.9932621 C57.7341818,71.9837775 57.7932727,71.9659938 57.8523636,71.9375398 L57.8559091,72.8421386 L57.447,73.079255 L57.447,73.2428652 L58.4066364,72.6868274 L58.4054545,72.5232171 L57.9965455,72.7603335 L57.9941818,71.8557347 C58.0532727,71.8154249 58.1123636,71.766816 58.1690909,71.7099081 C58.4527273,71.4253685 58.6394545,71.0056726 58.6394545,70.6571116" id="Fill-471" fill="#414042"></path>
                        <polygon id="Fill-473" fill="#414042" points="55.5279636 72.3799989 55.0457818 73.4090838 55.3506909 73.2336177 55.3542364 74.4559524 55.7146909 74.2461044 55.7111455 73.0237697 56.0148727 72.8483036"></polygon>
                        <path d="M59.7612364,70.8412324 L59.7600545,70.8412324 L59.7612364,70.8412324 Z" id="Fill-475" fill="#414042"></path>
                        <polygon id="Fill-479" fill="#414042" points="60.8691909 70.1986471 60.8691909 70.1986471 60.8680091 70.1998327"></polygon>
                        <path d="M60.6037545,69.6325319 C60.5293,69.6479444 60.4501182,69.6752128 60.3709364,69.714337 L60.3709364,69.5696961 L60.2527545,69.6384598 L60.2539364,69.7831008 C60.1747545,69.8352663 60.0967545,69.8981022 60.0211182,69.9704227 C59.7953909,70.1897553 59.4786636,70.5691414 59.2068455,71.1595611 C59.2174818,71.1441485 59.3250273,70.9852806 59.4833909,70.8928052 C59.6488455,70.7955875 59.7540273,70.839454 59.7599364,70.8418252 C59.7658455,70.8323405 59.8710273,70.6687303 60.0376636,70.5726982 C60.1310273,70.5181614 60.2066636,70.5074912 60.2551182,70.5098623 L60.2574818,71.2662634 C60.2586636,71.3860072 60.1735727,71.5342049 60.0695727,71.593484 C59.9643909,71.6539487 59.8793,71.6053398 59.8793,71.4844105 L59.8793,71.2840472 L59.7611182,71.3504397 L59.7611182,71.5531742 C59.7623,71.7476096 59.8993909,71.8282292 60.0695727,71.7298259 C60.2385727,71.6314226 60.3756636,71.3931207 60.3756636,71.1974997 L60.3733,70.4434698 C60.4217545,70.3841907 60.4973909,70.3047567 60.5907545,70.2502199 C60.7573909,70.1541878 60.8637545,70.1968688 60.8696636,70.1992399 C60.8743909,70.1909409 60.9783909,70.026145 61.1450273,69.9301129 C61.3033909,69.8388231 61.4109364,69.8743905 61.4203909,69.8779473 C61.1485727,69.6028923 60.8294818,69.5910365 60.6037545,69.6325319" id="Fill-483" fill="#414042"></path>
                        <path d="M39.5746,81.9468131 L39.4824182,81.893462 L39.4906909,79.2021916 L39.5828727,79.2543571 L39.5746,81.9468131 Z M39.3843273,81.8365541 L39.2921455,81.7820173 L39.2992364,79.0907469 L39.3926,79.1452836 L39.3843273,81.8365541 Z M39.1857818,81.7215526 L38.7875091,81.4903642 L38.7957818,78.8002794 L39.1940545,79.0302822 L39.1857818,81.7215526 Z M38.6894182,81.4334563 L38.5960545,81.3801051 L38.6043273,78.6888347 L38.6965091,78.7421859 L38.6894182,81.4334563 Z M38.4885091,81.3184549 L38.4128727,81.2745883 L38.4199636,78.5821323 L38.4967818,78.6259989 L38.4885091,81.3184549 Z M38.3289636,81.2259795 L38.1646909,81.1299474 L38.1717818,78.4374914 L38.3372364,78.5335235 L38.3289636,81.2259795 Z M38.0666,81.0730394 L37.6671455,80.841851 L37.6754182,78.1505806 L38.0725091,78.3805834 L38.0666,81.0730394 Z M37.5702364,80.7861287 L37.4768727,80.7315919 L37.4839636,78.0403215 L37.5773273,78.0936727 L37.5702364,80.7861287 Z M37.3787818,80.674684 L37.2854182,80.6213328 L37.2925091,77.9288768 L37.3858727,77.9834136 L37.3787818,80.674684 Z M37.1873273,80.5644249 L37.0951455,80.5110737 L37.1022364,77.8198033 L37.1956,77.8719689 L37.1873273,80.5644249 Z M36.9982364,80.4541658 L36.7299636,80.2988546 L36.7370545,77.6075842 L37.0053273,77.7628954 L36.9982364,80.4541658 Z M36.6283273,80.2407611 L36.4770545,80.1518425 L36.4841455,77.4605721 L36.6366,77.5483051 L36.6283273,80.2407611 Z M36.3825091,80.0973057 L35.6497818,79.6728675 L35.6580545,76.9815971 L36.3896,77.4060353 L36.3825091,80.0973057 Z M35.5481455,79.614774 L35.4181455,79.5400823 L35.4252364,76.8476263 L35.5564182,76.9235036 L35.5481455,79.614774 Z M35.3259636,79.4867312 L35.0163273,79.3053372 L35.0234182,76.6152523 L35.3342364,76.7942752 L35.3259636,79.4867312 Z M34.9099636,79.2448725 L34.7397818,79.1476548 L34.7480545,76.4551988 L34.9170545,76.5524165 L34.9099636,79.2448725 Z M34.6440545,79.0907469 L34.3923273,78.9461059 L34.4006,76.2536499 L34.6511455,76.3994765 L34.6440545,79.0907469 Z M34.2989636,78.8915692 L33.6726,78.5275956 L33.6808727,75.8375107 L34.3072364,76.1991131 L34.2989636,78.8915692 Z M33.4433273,75.434413 L33.4338727,78.6544528 L39.8133273,82.3499109 L39.8227818,79.1298711 L33.4433273,75.434413 Z" id="Fill-485" fill="#EFF0F0"></path>
                        <polygon id="Fill-487" fill="#414042" points="33.6723636 78.5278327 34.2987273 78.8918063 34.307 76.1993503 33.6806364 75.8365623"></polygon>
                        <polygon id="Fill-489" fill="#414042" points="35.4186182 79.5397267 35.5474364 79.6144183 35.5557091 76.9231479 35.4257091 76.8472707"></polygon>
                        <polygon id="Fill-491" fill="#414042" points="34.3925636 78.9457502 34.6442909 79.0903912 34.6513818 76.4003064 34.4008364 76.2532942"></polygon>
                        <polygon id="Fill-493" fill="#414042" points="34.7400182 79.1472991 34.9102 79.2445168 34.9161091 76.5532464 34.7482909 76.4548431"></polygon>
                        <polygon id="Fill-495" fill="#414042" points="35.6494273 79.6728675 36.3821545 80.0973057 36.3892455 77.4060353 35.6577 76.9804115"></polygon>
                        <polygon id="Fill-497" fill="#414042" points="36.4769364 80.1521982 36.6282091 80.2399312 36.6364818 77.5486608 36.4840273 77.4597422"></polygon>
                        <polygon id="Fill-499" fill="#414042" points="36.7296091 80.2992103 36.9990636 80.4545215 37.0049727 77.7620655 36.7367 77.6067543"></polygon>
                        <polygon id="Fill-501" fill="#414042" points="37.4764 80.7311177 37.5697636 80.7856544 37.5768545 78.0931984 37.4846727 78.0398473"></polygon>
                        <polygon id="Fill-503" fill="#414042" points="37.6667909 80.8423253 38.0662455 81.0723281 38.0733364 78.3810577 37.6750636 78.1498693"></polygon>
                        <polygon id="Fill-505" fill="#414042" points="38.5959364 81.3806979 38.6893 81.4340491 38.6963909 78.7415931 38.6042091 78.6882419"></polygon>
                        <polygon id="Fill-507" fill="#414042" points="38.7875091 81.4906013 39.1857818 81.7206042 39.1940545 79.0305193 38.7957818 78.7993309"></polygon>
                        <polygon id="Fill-509" fill="#414042" points="37.0955 80.5111923 37.1876818 80.5645435 37.1959545 77.8720875 37.1025909 77.8187363"></polygon>
                        <polygon id="Fill-511" fill="#414042" points="37.2860091 80.6210957 37.3781909 80.6744469 37.3864636 77.9831765 37.2931 77.9286397"></polygon>
                        <polygon id="Fill-513" fill="#414042" points="38.1642182 81.1293546 38.3296727 81.2253867 38.3367636 78.5341163 38.1713091 78.4368986"></polygon>
                        <polygon id="Fill-515" fill="#414042" points="38.4124 81.2741141 38.4880364 81.3179806 38.4963091 78.6267102 38.4206727 78.5816581"></polygon>
                        <polygon id="Fill-517" fill="#414042" points="39.2917909 81.782373 39.3839727 81.8369097 39.3922455 79.1444537 39.2988818 79.089917"></polygon>
                        <polygon id="Fill-519" fill="#414042" points="35.0158545 79.30593 35.3266727 79.4861384 35.3349455 76.7948679 35.0241273 76.6146595"></polygon>
                        <polygon id="Fill-521" fill="#414042" points="39.4903364 79.2017173 39.4820636 81.8941733 39.5742455 81.9463389 39.5825182 79.2550685"></polygon>
                        <polygon id="Fill-523" fill="#565382" points="32.3832364 79.3174301 32.4387818 56.3088464 28.1665091 53.8345374 28.1594182 53.8392797 28.1050545 76.8383788"></polygon>
                        <polygon id="Fill-525" fill="#6B6990" points="49.4515273 41.3024648 28.1658 53.8340632 32.4380727 56.3083721 32.4380727 56.3036298 53.7190727 43.7744026"></polygon>
                        <polygon id="Fill-527" fill="#6C75A9" points="42.3675909 26.0184199 42.2966818 50.7496539 20.8419545 38.3235722 20.9128636 13.5923383"></polygon>
                        <polygon id="Fill-529" fill="#858DBE" points="42.3675909 26.0184199 65.3657727 12.6094911 65.2960455 37.3419106 42.2966818 50.7496539"></polygon>
                        <polygon id="Fill-531" fill="#9199C6" points="20.9125091 13.5917455 43.9118727 0.184002277 65.3654182 12.6100839 42.3672364 26.0178272"></polygon>
                        <path d="M61.9691091,38.2539786 L61.9608364,35.3765718 L64.4568364,33.9313478 L64.4651091,36.8087545 L61.9691091,38.2539786 Z M59.3986545,39.7430692 L59.3903818,36.8656624 L61.8863818,35.4192528 L61.8946545,38.2978451 L59.3986545,39.7430692 Z M56.8258364,41.2333454 L56.8187455,38.3559386 L59.3147455,36.909529 L59.3230182,39.7869357 L56.8258364,41.2333454 Z M64.5312909,33.8021194 L61.8863818,35.3338909 L59.3159273,36.8229815 L56.7431091,38.3132577 L56.7513818,41.3625738 L59.3242,39.8722976 L59.3974727,39.8296166 L61.8958364,38.383207 L61.9702909,38.3393405 L64.5407455,36.8502499 L64.5312909,33.8021194 Z" id="Fill-533" fill="#414042"></path>
                        <path d="M61.4116455,36.1607156 L61.4116506,36.0753537 L60.6399182,36.522318 L60.2948273,36.7226813 L60.2180091,36.9349004 L60.4189182,36.7985585 L60.1069182,37.4399582 L60.2664636,36.9787669 L60.0572818,37.1328925 L60.2180091,36.7665478 L59.8670091,36.9692823 L59.8681909,37.0546442 C59.8693727,37.4281024 60.0726455,37.6450638 60.3787364,37.596455 C60.4401909,37.5869703 60.5016455,37.5668154 60.5654636,37.5359903 L60.5690091,38.5093529 L60.1293727,38.7630674 L60.1305545,38.939719 L61.1611,38.3421859 L61.1611,38.1667198 L60.7214636,38.4204343 L60.7191,37.4482573 C60.7817364,37.4043908 60.8455545,37.3522252 60.9058273,37.2905749 C61.2107364,36.9858804 61.4128273,36.5341738 61.4116455,36.1607156" id="Fill-535" fill="#414042"></path>
                        <polygon id="Fill-537" fill="#414042" points="58.0669818 38.0120014 57.5493455 39.1193347 57.8755273 38.928456 57.8790727 40.2432661 58.2678909 40.0180056 58.2643455 38.7043811 58.5905273 38.5158736"></polygon>
                        <polygon id="Fill-539" fill="#414042" points="62.6176909 36.3575221 62.6165091 36.3575221 62.6165091 36.3587077"></polygon>
                        <polygon id="Fill-543" fill="#414042" points="63.8099091 35.667395 63.8087273 35.667395 63.8075455 35.667395"></polygon>
                        <path d="M64.4031818,35.3235763 L64.4043636,35.3223908 L64.4031818,35.3235763 Z" id="Fill-545" fill="#414042"></path>
                        <path d="M63.5248545,35.0584803 C63.4433091,35.0750784 63.3582182,35.1035324 63.2731273,35.1462133 L63.2731273,34.9897165 L63.1478545,35.0632226 L63.1478545,35.2197194 C63.0627636,35.2754417 62.9788545,35.3430199 62.8973091,35.4224539 C62.6562182,35.657199 62.3146727,36.0662247 62.0227636,36.7005109 C62.0334,36.6839128 62.1492182,36.5120034 62.3182182,36.4136001 C62.4978545,36.3104545 62.6113091,36.3555066 62.6160364,36.3578778 C62.6231273,36.3483931 62.7354,36.1717415 62.9138545,36.0685959 C63.0154909,36.0105024 63.0982182,35.9998321 63.1502182,36.0022033 L63.1525818,36.8143268 C63.1525818,36.9435552 63.0604,37.1024231 62.9493091,37.1664445 C62.8370364,37.2316515 62.7460364,37.1794859 62.7448545,37.0502575 L62.7448545,36.8332961 L62.6172182,36.9068021 L62.6184,37.122578 C62.6184,37.3324259 62.7673091,37.4177878 62.9504909,37.3122711 C63.1313091,37.2067543 63.2790364,36.9518542 63.2778545,36.7420063 L63.2754909,35.9286972 C63.3286727,35.8658614 63.4090364,35.7804995 63.5106727,35.7235916 C63.6903091,35.620446 63.8025818,35.6643125 63.8084909,35.6678693 C63.8144,35.6583846 63.9278545,35.4805474 64.1063091,35.3785873 C64.2764909,35.2801841 64.3911273,35.3181227 64.4029455,35.3216794 C64.1086727,35.0264696 63.7671273,35.0134282 63.5248545,35.0584803" id="Fill-547" fill="#414042"></path>
                        <path d="M40.9145455,48.2978709 L40.8152727,48.240963 L40.8235455,45.3469581 L40.9228182,45.4050516 L40.9145455,48.2978709 Z M40.7089091,48.1793128 L40.6096364,48.1224048 L40.6179091,45.2272144 L40.7171818,45.2853079 L40.7089091,48.1793128 Z M40.4961818,48.0560123 L40.0683636,47.8082257 L40.0766364,44.9142208 L40.5032727,45.1608218 L40.4961818,48.0560123 Z M39.962,47.7465755 L39.8615455,47.6884819 L39.8698182,44.7944771 L39.9702727,44.8525706 L39.962,47.7465755 Z M39.7469091,47.6220894 L39.6641818,47.5746661 L39.6724545,44.6806612 L39.7551818,44.7280845 L39.7469091,47.6220894 Z M39.5755455,47.5236861 L39.3970909,47.4193549 L39.4053636,44.52535 L39.5838182,44.6284956 L39.5755455,47.5236861 Z M39.2919091,47.3588902 L38.8640909,47.1099181 L38.8711818,44.2170988 L39.3001818,44.4648854 L39.2919091,47.3588902 Z M38.7577273,47.0494534 L38.6584545,46.9913599 L38.6667273,44.097355 L38.7671818,44.1554485 L38.7577273,47.0494534 Z M38.5532727,46.9308953 L38.4528182,46.8728018 L38.4610909,43.9787969 L38.5615455,44.0357048 L38.5532727,46.9308953 Z M38.3476364,46.8123371 L38.2483636,46.7542436 L38.2566364,43.8602387 L38.3559091,43.9183322 L38.3476364,46.8123371 Z M38.1431818,46.6925933 L37.8548182,46.5266119 L37.8630909,43.6314214 L38.1514545,43.799774 L38.1431818,46.6925933 Z M37.7449091,46.4625905 L37.583,46.3689295 L37.5900909,43.4749246 L37.7543636,43.5697712 L37.7449091,46.4625905 Z M37.4813636,46.3096505 L36.6942727,45.8532015 L36.7025455,42.9591966 L37.4896364,43.4156456 L37.4813636,46.3096505 Z M36.5843636,45.7903657 L36.4449091,45.7097461 L36.4531818,42.8157412 L36.5926364,42.8963608 L36.5843636,45.7903657 Z M36.3468182,45.6528382 L36.0135455,45.4584028 L36.0206364,42.5655835 L36.3550909,42.7576477 L36.3468182,45.6528382 Z M35.8977273,45.3931958 L35.7169091,45.287679 L35.724,42.3936742 L35.906,42.4980053 L35.8977273,45.3931958 Z M35.6129091,45.2272144 L35.3422727,45.0707176 L35.3505455,42.1767127 L35.6211818,42.3343951 L35.6129091,45.2272144 Z M35.2418182,45.0126241 L34.5681818,44.6225677 L34.5764545,41.7285628 L35.2500909,42.1186192 L35.2418182,45.0126241 Z M34.3211818,41.2970111 L34.3105455,44.757724 L41.171,48.7306082 L41.1816364,45.2698953 L34.3211818,41.2970111 Z" id="Fill-549" fill="#EFF0F0"></path>
                        <polygon id="Fill-551" fill="#414042" points="34.5679455 44.6229234 35.2415818 45.0129798 35.2498545 42.1189749 34.5762182 41.7289185"></polygon>
                        <polygon id="Fill-553" fill="#414042" points="36.4445545 45.7101018 36.5840091 45.7895358 36.5922818 42.8967165 36.4528273 42.8160969"></polygon>
                        <polygon id="Fill-555" fill="#414042" points="35.3423909 45.0710733 35.6130273 45.22757 35.6201182 42.3335652 35.3506636 42.1770684"></polygon>
                        <polygon id="Fill-557" fill="#414042" points="35.7163182 45.2875605 35.8971364 45.3930773 35.9054091 42.4978868 35.7245909 42.3935556"></polygon>
                        <polygon id="Fill-559" fill="#414042" points="36.6939182 45.8536757 37.4810091 46.3101247 37.4892818 43.4149342 36.7021909 42.9596708"></polygon>
                        <polygon id="Fill-561" fill="#414042" points="37.5825273 46.3689295 37.7456182 46.4625905 37.7550727 43.5697712 37.5908 43.4749246"></polygon>
                        <polygon id="Fill-563" fill="#414042" points="37.8549364 46.5263748 38.1433 46.6935418 38.1515727 43.7995369 37.8632091 43.6323699"></polygon>
                        <polygon id="Fill-565" fill="#414042" points="38.6582182 46.9918342 38.7574909 47.0499277 38.7669455 44.1547372 38.6664909 44.0978293"></polygon>
                        <polygon id="Fill-567" fill="#414042" points="38.8636182 47.1099181 39.2914364 47.3588902 39.2997091 44.4648854 38.8718909 44.2170988"></polygon>
                        <polygon id="Fill-569" fill="#414042" points="39.8619 47.6888376 39.9623545 47.7469311 39.9706273 44.8517407 39.8701727 44.7948327"></polygon>
                        <polygon id="Fill-571" fill="#414042" points="40.0684818 47.8081071 40.4951182 48.0558937 40.5033909 45.1618888 40.0767545 44.9152878"></polygon>
                        <polygon id="Fill-573" fill="#414042" points="38.2484818 46.7544807 38.3477545 46.8125742 38.3560273 43.9173837 38.2567545 43.8604758"></polygon>
                        <polygon id="Fill-575" fill="#414042" points="38.4528182 46.8725646 38.5532727 46.9306581 38.5615455 44.0354677 38.4610909 43.9797453"></polygon>
                        <polygon id="Fill-577" fill="#414042" points="39.3968545 47.4189992 39.5753091 47.5233304 39.5835818 44.62814 39.4051273 44.5261799"></polygon>
                        <polygon id="Fill-579" fill="#414042" points="39.6645364 47.5741919 39.7460818 47.6216151 39.7543545 44.7287958 39.6728091 44.6813726"></polygon>
                        <polygon id="Fill-581" fill="#414042" points="40.6098727 48.1218121 40.7091455 48.1799056 40.7174182 45.2847151 40.6181455 45.2278072"></polygon>
                        <polygon id="Fill-583" fill="#414042" points="36.0129545 45.458877 36.3462273 45.6521269 36.3545 42.758122 36.0212273 42.5660577"></polygon>
                        <polygon id="Fill-585" fill="#414042" points="40.8233091 45.3466025 40.8150364 48.2406073 40.9143091 48.2975153 40.9225818 45.404696"></polygon>
                        <polygon id="Fill-587" fill="#9199C6" points="33.1830909 45.4704957 33.241 20.7321483 28.6484545 18.0728886 28.6401818 18.0776309 28.5810909 42.8064937"></polygon>
                        <polygon id="Fill-589" fill="#6B6990" points="51.5335364 4.59804144 28.6488091 18.0721773 33.2401727 20.7326226 33.2401727 20.7266947 56.1213545 7.25611558"></polygon>
                    </g>
                </g>
                <g id="Group-9">
                    <path d="M157.653981,39.7369645 C168.177587,33.6594853 174.411483,30.4565467 176.355669,30.1281488 C179.271947,29.6355519 188.025028,32.3009297 186.454225,41.1411934 C185.843345,43.1308668 184.478132,45.7559956 182.358586,49.0165798 L161.729494,51.2717487 L157.653981,39.7369645 Z" id="Path-12" fill="#6178C0"></path>
                    <polyline id="Path-4" fill="#728AD4" points="190.229116 46.6442488 106.794958 28.4645857 53.4580341 17.0584443 39.6894735 22.5607189 117.183837 53.7418137 144.210226 72.9208412"></polyline>
                    <path d="M58.6459135,137.299156 C54.7196025,138.280153 52.2368476,138.822403 51.1976489,138.925904 C48.5842791,139.186189 46.9663714,138.91664 46.3439257,138.117258 C45.597423,136.552229 45.9086459,135.233305 47.2775942,134.160484 C47.7898639,133.759027 49.1444944,132.914762 51.0404595,131.804513 L49.3910988,131.277798 L0.912507406,115.935681 L6.96385946,111.644913 C8.96170533,110.228322 11.4149278,109.605235 13.8466187,109.896779 L51.5155787,114.413055 L43.0887179,91.1330322 C52.1119879,86.3708361 56.6236229,83.989738 56.6236229,83.989738 C56.6236229,83.989738 70.5639282,91.2269989 80.9357995,96.8686505 C87.8503805,100.629751 93.0628873,101.468458 96.5733201,99.3847687 C183.148003,48.677415 232.696123,19.8369347 245.217679,12.863328 C264.000012,2.40291781 271.939354,1.9960013 283.356284,0.713341709 C294.773214,-0.569317885 298.295258,5.59585379 298.528277,6.758229 C298.761297,7.92060421 298.355265,9.68900457 298.120855,10.2585226 C294.343136,21.2833096 285.4165,31.3007117 271.340947,40.310729 L221.793739,68.8008867 C196.48947,82.1021932 178.985893,91.9233865 169.283008,98.2644666 C154.728681,107.776087 146.566688,113.011599 125.844135,120.582015 C112.0291,125.628959 98.4963204,128.819874 85.2457972,130.154759 L93.2217638,156.31712 C93.7390786,158.013989 93.0608793,159.847528 91.5638613,160.799326 L83.2953206,166.056427 L58.6459135,137.299156 Z" id="Combined-Shape" fill="url(#linearGradient-1)"></path>
                    <path d="M231.421399,91.9605425 C240.70921,85.0821129 247.467471,80.942044 252.644913,79.7001888 C257.822356,78.4583337 264.82775,86.745548 261.68584,92.2521092 C258.54393,97.7586704 249.761533,106.14148 240.591466,108.241581 C231.421399,110.341682 230.063114,98.6130522 230.063114,97.2265651 C230.063114,95.840078 222.133588,98.838972 231.421399,91.9605425 Z" id="Path-13" fill="#6178C0"></path>
                    <path d="M225.563322,65.2440909 L263.523013,142.53561 L251.846057,150.970517 L209.672921,109.423868 L182.090085,95.9743148 L169.347718,98.0137168 L220.505689,64.9867147 C221.376251,64.4246894 222.390471,64.1257477 223.426691,64.1257477 L223.768139,64.1257477 C224.53082,64.1257477 225.22711,64.559515 225.563322,65.2440909 Z" id="Path-5" fill="#728AD4"></path>
                    <path d="M293.348789,3.36765934 L291.973741,7.43338331 L291.973741,10.9581741 L293.746278,10.192421 C294.913659,8.23352953 295.49735,7.1097675 295.49735,6.8211349 C295.49735,6.5325023 295.49735,5.85020316 295.49735,4.77423748 L293.348789,3.36765934 Z" id="Path-6" fill="#5C75C2"></path>
                    <path d="M278.972613,16.253565 L279.919062,15.5075991 C280.60686,14.9654956 281.603891,15.0836039 282.145995,15.7714015 C282.283522,15.9458903 282.382848,16.1473317 282.437533,16.3626679 C283.867978,21.9956237 284.583224,25.2857638 284.583224,26.2331 C284.583224,26.900568 284.07174,27.5364512 283.048772,28.1407497 L283.048771,28.1407479 C282.110258,28.6951563 280.900006,28.383778 280.345598,27.445265 C280.237442,27.2621767 280.159585,27.062813 280.115038,26.8548838 L278.264462,18.2171201 C278.106779,17.4811153 278.381453,16.7195016 278.972613,16.253565 Z" id="Path-7" stroke="#728AD4"></path>
                    <path d="M246.086555,37.441899 L247.521706,36.6665502 C248.480717,36.1484252 249.678173,36.5058342 250.196298,37.4648455 C250.26138,37.5853081 250.313751,37.7122161 250.352563,37.8435194 C251.789329,42.7041179 252.335649,45.6468513 251.991521,46.6717195 C251.731615,47.4457607 251.001284,48.1321944 249.800528,48.7310205 L249.800533,48.7310307 C248.825066,49.2175035 247.63993,48.8210955 247.153457,47.8456285 C247.087653,47.7136789 247.036842,47.5747708 247.001975,47.4315045 L245.107002,39.6450685 C244.894866,38.7734044 245.297275,37.8683231 246.086555,37.441899 Z" id="Path-8" stroke="#728AD4"></path>
                    <path d="M165.013614,85.5001407 L165.727216,85.1601273 C166.711264,84.6912619 167.889082,85.1088995 168.357948,86.0929472 C168.396244,86.173323 168.429058,86.256198 168.456164,86.3410043 C169.661553,90.1122252 169.96189,92.5998581 169.357174,93.8039031 C168.953702,94.6072524 168.314115,95.1830656 167.438413,95.5313427 L167.438419,95.5313574 C166.425541,95.9341912 165.27788,95.4396526 164.875046,94.4267746 C164.81483,94.2753685 164.773595,94.1170883 164.752281,93.9555471 L163.905841,87.5400769 C163.793931,86.6918702 164.241248,85.8681471 165.013614,85.5001407 Z" id="Path-9" stroke="#6B83CF"></path>
                    <path d="M116.801148,110.358818 L118.22597,109.681116 C119.21033,109.212915 120.387864,109.631344 120.856065,110.615705 C120.94345,110.799426 121.001905,110.995554 121.029356,111.197138 L121.670145,115.902562 C121.791456,116.793374 121.295425,117.653605 120.463674,117.994857 L118.892542,118.639462 C117.884084,119.053213 116.731156,118.571107 116.317405,117.562649 C116.24639,117.389561 116.200346,117.207255 116.180656,117.021204 L115.686178,112.348878 C115.598051,111.516169 116.044967,110.718488 116.801148,110.358818 Z" id="Path-10" stroke="#647DC9"></path>
                </g>
            </g>
        </g>
    </g>
</svg>