<?xml version="1.0" encoding="UTF-8"?>
<svg width="411px" height="234px" viewBox="0 0 411 234" version="1.1" xmlns="http://www.w3.org/2000/svg" xmlns:xlink="http://www.w3.org/1999/xlink">
    <!-- Generator: Sketch 49.1 (51147) - http://www.bohemiancoding.com/sketch -->
    <title>Group 18</title>
    <desc>Created with Sketch.</desc>
    <defs></defs>
    <g id="Page-1" stroke="none" stroke-width="1" fill="none" fill-rule="evenodd">
        <g id="Services-Copy-3" transform="translate(-778.000000, -151.000000)">
            <g id="Group" transform="translate(778.000000, 151.000000)">
                <g id="Group-18">
                    <g id="Group-17" transform="translate(215.624079, 74.750000)">
                        <g id="Group-15">
                            <polygon id="Rectangle-2_Top_Isometric-Copy-9" fill="#6C76AF" points="1.04060068 61.2806234 117.582373 3.25 193.91038 37.3124759 193.91038 40.5527099 77.368607 98.5833333"></polygon>
                            <polygon id="Rectangle-2_Top_Isometric-Copy-10" fill="#99A1D2" points="1.04060068 58.0306234 117.582373 0 193.91038 37.3027099 77.368607 95.3333333"></polygon>
                        </g>
                        <g id="Group-14" transform="translate(33.589681, 34.666667)" fill="#444170">
                            <polygon id="Rectangle-2_Top_Isometric-Copy-11" transform="translate(149.733027, 2.234727) scale(-1, 1) translate(-149.733027, -2.234727) " points="145.151166 4.02803242 153.353608 0 154.314888 0.389441205 146.060888 4.46945337"></polygon>
                            <polygon id="Rectangle-2_Top_Isometric-Copy-12" transform="translate(147.565951, 3.318060) scale(-1, 1) translate(-147.565951, -3.318060) " points="142.98409 5.11136576 151.186531 1.08333333 152.147812 1.47277454 143.893812 5.5527867"></polygon>
                            <polygon id="Rectangle-2_Top_Isometric-Copy-13" transform="translate(145.398874, 4.401393) scale(-1, 1) translate(-145.398874, -4.401393) " points="140.817013 6.19469909 149.019455 2.16666667 149.980735 2.55610787 141.726736 6.63612004"></polygon>
                            <polygon id="Rectangle-2_Top_Isometric-Copy-14" transform="translate(143.231798, 5.484727) scale(-1, 1) translate(-143.231798, -5.484727) " points="138.649937 7.27803242 146.852379 3.25 147.813659 3.6394412 139.55966 7.71945337"></polygon>
                            <polygon id="Rectangle-2_Top_Isometric-Copy-15" transform="translate(141.064722, 6.568060) scale(-1, 1) translate(-141.064722, -6.568060) " points="136.482861 8.36136576 144.685303 4.33333333 145.646583 4.72277454 137.392584 8.8027867"></polygon>
                            <polygon id="Rectangle-2_Top_Isometric-Copy-20" transform="translate(138.897646, 7.651393) scale(-1, 1) translate(-138.897646, -7.651393) " points="134.315785 9.44469909 142.518227 5.41666667 143.479507 5.80610787 135.225507 9.88612004"></polygon>
                            <polygon id="Rectangle-2_Top_Isometric-Copy-19" transform="translate(136.730570, 8.734727) scale(-1, 1) translate(-136.730570, -8.734727) " points="132.148709 10.5280324 140.351151 6.5 141.312431 6.8894412 133.058431 10.9694534"></polygon>
                            <polygon id="Rectangle-2_Top_Isometric-Copy-18" transform="translate(134.563494, 9.818060) scale(-1, 1) translate(-134.563494, -9.818060) " points="129.981633 11.6113658 138.184074 7.58333333 139.145355 7.97277454 130.891355 12.0527867"></polygon>
                            <polygon id="Rectangle-2_Top_Isometric-Copy-17" transform="translate(132.396417, 10.901393) scale(-1, 1) translate(-132.396417, -10.901393) " points="127.814556 12.6946991 136.016998 8.66666667 136.978278 9.05610787 128.724279 13.13612"></polygon>
                            <polygon id="Rectangle-2_Top_Isometric-Copy-16" transform="translate(130.229341, 11.984727) scale(-1, 1) translate(-130.229341, -11.984727) " points="125.64748 13.7780324 133.849922 9.75 134.811202 10.1394412 126.557203 14.2194534"></polygon>
                            <polygon id="Rectangle-2_Top_Isometric-Copy-30" transform="translate(128.062265, 13.068060) scale(-1, 1) translate(-128.062265, -13.068060) " points="123.480404 14.8613658 131.682846 10.8333333 132.644126 11.2227745 124.390127 15.3027867"></polygon>
                            <polygon id="Rectangle-2_Top_Isometric-Copy-29" transform="translate(125.895189, 14.151393) scale(-1, 1) translate(-125.895189, -14.151393) " points="121.313328 15.9446991 129.51577 11.9166667 130.47705 12.3061079 122.22305 16.38612"></polygon>
                            <polygon id="Rectangle-2_Top_Isometric-Copy-28" transform="translate(123.728113, 15.234727) scale(-1, 1) translate(-123.728113, -15.234727) " points="119.146252 17.0280324 127.348694 13 128.309974 13.3894412 120.055974 17.4694534"></polygon>
                            <polygon id="Rectangle-2_Top_Isometric-Copy-27" transform="translate(121.561037, 16.318060) scale(-1, 1) translate(-121.561037, -16.318060) " points="116.979176 18.1113658 125.181617 14.0833333 126.142898 14.4727745 117.888898 18.5527867"></polygon>
                            <polygon id="Rectangle-2_Top_Isometric-Copy-26" transform="translate(119.393960, 17.401393) scale(-1, 1) translate(-119.393960, -17.401393) " points="114.812099 19.1946991 123.014541 15.1666667 123.975821 15.5561079 115.721822 19.63612"></polygon>
                            <polygon id="Rectangle-2_Top_Isometric-Copy-25" transform="translate(117.226884, 18.484727) scale(-1, 1) translate(-117.226884, -18.484727) " points="112.645023 20.2780324 120.847465 16.25 121.808745 16.6394412 113.554746 20.7194534"></polygon>
                            <polygon id="Rectangle-2_Top_Isometric-Copy-24" transform="translate(115.059808, 19.568060) scale(-1, 1) translate(-115.059808, -19.568060) " points="110.477947 21.3613658 118.680389 17.3333333 119.641669 17.7227745 111.38767 21.8027867"></polygon>
                            <polygon id="Rectangle-2_Top_Isometric-Copy-23" transform="translate(112.892732, 20.651393) scale(-1, 1) translate(-112.892732, -20.651393) " points="108.310871 22.4446991 116.513313 18.4166667 117.474593 18.8061079 109.220593 22.88612"></polygon>
                            <polygon id="Rectangle-2_Top_Isometric-Copy-22" transform="translate(110.725656, 21.734727) scale(-1, 1) translate(-110.725656, -21.734727) " points="106.143795 23.5280324 114.346237 19.5 115.307517 19.8894412 107.053517 23.9694534"></polygon>
                            <polygon id="Rectangle-2_Top_Isometric-Copy-21" transform="translate(108.558580, 22.818060) scale(-1, 1) translate(-108.558580, -22.818060) " points="103.976719 24.6113658 112.17916 20.5833333 113.140441 20.9727745 104.886441 25.0527867"></polygon>
                            <polygon id="Rectangle-2_Top_Isometric-Copy-50" transform="translate(106.391503, 23.901393) scale(-1, 1) translate(-106.391503, -23.901393) " points="101.809642 25.6946991 110.012084 21.6666667 110.973364 22.0561079 102.719365 26.13612"></polygon>
                            <polygon id="Rectangle-2_Top_Isometric-Copy-49" transform="translate(104.224427, 24.984727) scale(-1, 1) translate(-104.224427, -24.984727) " points="99.6425663 26.7780324 107.845008 22.75 108.806288 23.1394412 100.552289 27.2194534"></polygon>
                            <polygon id="Rectangle-2_Top_Isometric-Copy-48" transform="translate(102.057351, 26.068060) scale(-1, 1) translate(-102.057351, -26.068060) " points="97.4754901 27.8613658 105.677932 23.8333333 106.639212 24.2227745 98.3852126 28.3027867"></polygon>
                            <polygon id="Rectangle-2_Top_Isometric-Copy-47" transform="translate(99.890275, 27.151393) scale(-1, 1) translate(-99.890275, -27.151393) " points="95.3084139 28.9446991 103.510856 24.9166667 104.472136 25.3061079 96.2181364 29.38612"></polygon>
                            <polygon id="Rectangle-2_Top_Isometric-Copy-46" transform="translate(97.723199, 28.234727) scale(-1, 1) translate(-97.723199, -28.234727) " points="93.1413378 30.0280324 101.34378 26 102.30506 26.3894412 94.0510602 30.4694534"></polygon>
                            <polygon id="Rectangle-2_Top_Isometric-Copy-45" transform="translate(95.556123, 29.318060) scale(-1, 1) translate(-95.556123, -29.318060) " points="90.9742616 31.1113658 99.1767033 27.0833333 100.137984 27.4727745 91.8839841 31.5527867"></polygon>
                            <polygon id="Rectangle-2_Top_Isometric-Copy-44" transform="translate(93.389046, 30.401393) scale(-1, 1) translate(-93.389046, -30.401393) " points="88.8071854 32.1946991 97.0096272 28.1666667 97.9709074 28.5561079 89.7169079 32.63612"></polygon>
                            <polygon id="Rectangle-2_Top_Isometric-Copy-43" transform="translate(91.221970, 31.484727) scale(-1, 1) translate(-91.221970, -31.484727) " points="86.6401093 33.2780324 94.842551 29.25 95.8038312 29.6394412 87.5498317 33.7194534"></polygon>
                            <polygon id="Rectangle-2_Top_Isometric-Copy-42" transform="translate(89.054894, 32.568060) scale(-1, 1) translate(-89.054894, -32.568060) " points="84.4730331 34.3613658 92.6754748 30.3333333 93.6367551 30.7227745 85.3827556 34.8027867"></polygon>
                            <polygon id="Rectangle-2_Top_Isometric-Copy-41" transform="translate(86.887818, 33.651393) scale(-1, 1) translate(-86.887818, -33.651393) " points="82.3059569 35.4446991 90.5083987 31.4166667 91.4696789 31.8061079 83.2156794 35.88612"></polygon>
                            <polygon id="Rectangle-2_Top_Isometric-Copy-40" transform="translate(84.720742, 34.734727) scale(-1, 1) translate(-84.720742, -34.734727) " points="80.1388808 36.5280324 88.3413225 32.5 89.3026027 32.8894412 81.0486032 36.9694534"></polygon>
                            <polygon id="Rectangle-2_Top_Isometric-Copy-39" transform="translate(82.553666, 35.818060) scale(-1, 1) translate(-82.553666, -35.818060) " points="77.9718046 37.6113658 86.1742463 33.5833333 87.1355266 33.9727745 78.8815271 38.0527867"></polygon>
                            <polygon id="Rectangle-2_Top_Isometric-Copy-38" transform="translate(80.386589, 36.901393) scale(-1, 1) translate(-80.386589, -36.901393) " points="75.8047284 38.6946991 84.0071702 34.6666667 84.9684504 35.0561079 76.7144509 39.13612"></polygon>
                            <polygon id="Rectangle-2_Top_Isometric-Copy-37" transform="translate(78.219513, 37.984727) scale(-1, 1) translate(-78.219513, -37.984727) " points="73.6376523 39.7780324 81.840094 35.75 82.8013742 36.1394412 74.5473747 40.2194534"></polygon>
                            <polygon id="Rectangle-2_Top_Isometric-Copy-36" transform="translate(76.052437, 39.068060) scale(-1, 1) translate(-76.052437, -39.068060) " points="71.4705761 40.8613658 79.6730178 36.8333333 80.6342981 37.2227745 72.3802986 41.3027867"></polygon>
                            <polygon id="Rectangle-2_Top_Isometric-Copy-35" transform="translate(73.885361, 40.151393) scale(-1, 1) translate(-73.885361, -40.151393) " points="69.3034999 41.9446991 77.5059417 37.9166667 78.4672219 38.3061079 70.2132224 42.38612"></polygon>
                            <polygon id="Rectangle-2_Top_Isometric-Copy-34" transform="translate(71.718285, 41.234727) scale(-1, 1) translate(-71.718285, -41.234727) " points="67.1364238 43.0280324 75.3388655 39 76.3001457 39.3894412 68.0461462 43.4694534"></polygon>
                            <polygon id="Rectangle-2_Top_Isometric-Copy-33" transform="translate(69.551209, 42.318060) scale(-1, 1) translate(-69.551209, -42.318060) " points="64.9693476 44.1113658 73.1717893 40.0833333 74.1330696 40.4727745 65.8790701 44.5527867"></polygon>
                            <polygon id="Rectangle-2_Top_Isometric-Copy-32" transform="translate(67.384132, 43.401393) scale(-1, 1) translate(-67.384132, -43.401393) " points="62.8022714 45.1946991 71.0047132 41.1666667 71.9659934 41.5561079 63.7119939 45.63612"></polygon>
                            <polygon id="Rectangle-2_Top_Isometric-Copy-31" transform="translate(65.217056, 44.484727) scale(-1, 1) translate(-65.217056, -44.484727) " points="60.6351953 46.2780324 68.837637 42.25 69.7989172 42.6394412 61.5449177 46.7194534"></polygon>
                            <polygon id="Rectangle-2_Top_Isometric-Copy-57" transform="translate(63.049980, 45.568060) scale(-1, 1) translate(-63.049980, -45.568060) " points="58.4681191 47.3613658 66.6705608 43.3333333 67.6318411 43.7227745 59.3778416 47.8027867"></polygon>
                            <polygon id="Rectangle-2_Top_Isometric-Copy-56" transform="translate(60.882904, 46.651393) scale(-1, 1) translate(-60.882904, -46.651393) " points="56.3010429 48.4446991 64.5034847 44.4166667 65.4647649 44.8061079 57.2107654 48.88612"></polygon>
                            <polygon id="Rectangle-2_Top_Isometric-Copy-55" transform="translate(58.715828, 47.734727) scale(-1, 1) translate(-58.715828, -47.734727) " points="54.1339668 49.5280324 62.3364085 45.5 63.2976887 45.8894412 55.0436892 49.9694534"></polygon>
                            <polygon id="Rectangle-2_Top_Isometric-Copy-54" transform="translate(56.548752, 48.818060) scale(-1, 1) translate(-56.548752, -48.818060) " points="51.9668906 50.6113658 60.1693323 46.5833333 61.1306126 46.9727745 52.8766131 51.0527867"></polygon>
                            <polygon id="Rectangle-2_Top_Isometric-Copy-53" transform="translate(54.381675, 49.901393) scale(-1, 1) translate(-54.381675, -49.901393) " points="49.7998144 51.6946991 58.0022562 47.6666667 58.9635364 48.0561079 50.7095369 52.13612"></polygon>
                            <polygon id="Rectangle-2_Top_Isometric-Copy-52" transform="translate(52.214599, 50.984727) scale(-1, 1) translate(-52.214599, -50.984727) " points="47.6327383 52.7780324 55.83518 48.75 56.7964602 49.1394412 48.5424607 53.2194534"></polygon>
                            <polygon id="Rectangle-2_Top_Isometric-Copy-51" transform="translate(50.047523, 52.068060) scale(-1, 1) translate(-50.047523, -52.068060) " points="45.4656621 53.8613658 53.6681038 49.8333333 54.6293841 50.2227745 46.3753846 54.3027867"></polygon>
                            <polygon id="Rectangle-2_Top_Isometric-Copy-59" transform="translate(47.880447, 53.151393) scale(-1, 1) translate(-47.880447, -53.151393) " points="43.2985859 54.9446991 51.5010277 50.9166667 52.4623079 51.3061079 44.2083084 55.38612"></polygon>
                            <polygon id="Rectangle-2_Top_Isometric-Copy-58" transform="translate(45.713371, 54.234727) scale(-1, 1) translate(-45.713371, -54.234727) " points="41.1315098 56.0280324 49.3339515 52 50.2952317 52.3894412 42.0412322 56.4694534"></polygon>
                            <polygon id="Rectangle-2_Top_Isometric-Copy-60" transform="translate(43.546295, 55.318060) scale(-1, 1) translate(-43.546295, -55.318060) " points="38.9644336 57.1113658 47.1668753 53.0833333 48.1281555 53.4727745 39.8741561 57.5527867"></polygon>
                            <polygon id="Rectangle-2_Top_Isometric-Copy-71" transform="translate(7.789538, 73.734727) scale(-1, 1) translate(-7.789538, -73.734727) " points="3.20767684 75.5280324 11.4101186 71.5 12.3713988 71.8894412 4.11739931 75.9694534"></polygon>
                            <polygon id="Rectangle-2_Top_Isometric-Copy-70" transform="translate(5.622462, 74.818060) scale(-1, 1) translate(-5.622462, -74.818060) " points="1.04060068 76.6113658 9.24304241 72.5833333 10.2043226 72.9727745 1.95032314 77.0527867"></polygon>
                        </g>
                    </g>
                    <g id="Group-13" transform="translate(177.700246, 139.750000)">
                        <g id="Group-12">
                            <polygon id="Rectangle-2_Top_Isometric-Copy-62" fill="#6C76AF" points="0.174282177 16.4020897 27.6487123 3.25 103.976719 37.3124759 103.976719 40.5527099 76.9916826 54.0032681"></polygon>
                            <polygon id="Rectangle-2_Top_Isometric-Copy-61" fill="#99A1D2" points="0.174282177 13.1520897 27.6487123 0 103.976719 37.3027099 76.9916826 50.7532681"></polygon>
                        </g>
                        <g id="Group-11" transform="translate(69.346437, 33.583333)" fill="#444170">
                            <polygon id="Rectangle-2_Top_Isometric-Copy-69" transform="translate(25.126147, 2.234727) scale(-1, 1) translate(-25.126147, -2.234727) " points="20.5442862 4.02803242 28.7467279 0 29.7080081 0.389441205 21.4540086 4.46945337"></polygon>
                            <polygon id="Rectangle-2_Top_Isometric-Copy-68" transform="translate(22.959071, 3.318060) scale(-1, 1) translate(-22.959071, -3.318060) " points="18.37721 5.11136576 26.5796517 1.08333333 27.540932 1.47277454 19.2869325 5.5527867"></polygon>
                            <polygon id="Rectangle-2_Top_Isometric-Copy-67" transform="translate(20.791995, 4.401393) scale(-1, 1) translate(-20.791995, -4.401393) " points="16.2101338 6.19469909 24.4125756 2.16666667 25.3738558 2.55610787 17.1198563 6.63612004"></polygon>
                            <polygon id="Rectangle-2_Top_Isometric-Copy-66" transform="translate(18.624919, 5.484727) scale(-1, 1) translate(-18.624919, -5.484727) " points="14.0430577 7.27803242 22.2454994 3.25 23.2067796 3.6394412 14.9527801 7.71945337"></polygon>
                            <polygon id="Rectangle-2_Top_Isometric-Copy-65" transform="translate(16.457842, 6.568060) scale(-1, 1) translate(-16.457842, -6.568060) " points="11.8759815 8.36136576 20.0784232 4.33333333 21.0397035 4.72277454 12.785704 8.8027867"></polygon>
                            <polygon id="Rectangle-2_Top_Isometric-Copy-64" transform="translate(14.290766, 7.651393) scale(-1, 1) translate(-14.290766, -7.651393) " points="9.70890535 9.44469909 17.9113471 5.41666667 18.8726273 5.80610787 10.6186278 9.88612004"></polygon>
                            <polygon id="Rectangle-2_Top_Isometric-Copy-63" transform="translate(12.123690, 8.734727) scale(-1, 1) translate(-12.123690, -8.734727) " points="7.54182918 10.5280324 15.7442709 6.5 16.7055511 6.8894412 8.45155164 10.9694534"></polygon>
                            <polygon id="Rectangle-2_Top_Isometric-Copy-73" transform="translate(9.956614, 9.818060) scale(-1, 1) translate(-9.956614, -9.818060) " points="5.37475301 11.6113658 13.5771947 7.58333333 14.538475 7.97277454 6.28447548 12.0527867"></polygon>
                            <polygon id="Rectangle-2_Top_Isometric-Copy-72" transform="translate(7.789538, 10.901393) scale(-1, 1) translate(-7.789538, -10.901393) " points="3.20767684 12.6946991 11.4101186 8.66666667 12.3713988 9.05610787 4.11739931 13.13612"></polygon>
                            <polygon id="Rectangle-2_Top_Isometric-Copy-74" transform="translate(5.622462, 11.984727) scale(-1, 1) translate(-5.622462, -11.984727) " points="1.04060068 13.7780324 9.24304241 9.75 10.2043226 10.1394412 1.95032314 14.2194534"></polygon>
                        </g>
                    </g>
                    <polygon id="Rectangle-2_Left_Isometric" fill="#727BAF" points="206.943145 218.243873 48.7162764 139.084865 48.7162764 98.6351103 206.943145 177.794118"></polygon>
                    <polygon id="Rectangle-2_Right_Isometric" fill="#858DBE" points="202.610776 203.077373 410.217365 99.2834065 410.217365 66.8773333 202.610776 170.210952"></polygon>
                    <polygon id="Rectangle-2_Top_Isometric" fill="#CBD1EF" points="66.0528857 104.051777 274.036632 0 410.253752 66.8856032 202.270006 170.93738"></polygon>
                    <path d="M71.4652768,103.549526 L266.191516,5.47417121 C267.616897,4.75626733 269.297611,4.75374843 270.725137,5.46737665 L388.111047,64.1492406 C388.943328,64.5653025 389.28074,65.5772845 388.864678,66.4095655 C388.70241,66.7341635 388.439671,66.9976916 388.115561,67.1609322 L193.389321,165.236287 C191.963941,165.954191 190.283226,165.95671 188.8557,165.243082 L71.4697904,106.561218 C70.6375093,106.145156 70.300097,105.133174 70.7161589,104.300893 C70.8784272,103.976295 71.1411666,103.712767 71.4652768,103.549526 Z" id="Rectangle-2_Top_Isometric-Copy" fill="#9199C6"></path>
                    <path d="M70.387038,106.218444 L278.370784,2.16666667 L346.574227,36.2880323 C348.538465,58.420234 324.754734,73.0262063 275.223033,80.1059491 C225.691332,87.1856919 187.245351,110.814791 159.885088,150.993246 L70.387038,106.218444 Z" id="Rectangle-2_Top_Isometric-Copy-7" fill="#939ED9"></path>
                    <path d="M66.0528857,104.051777 L274.036632,0 L342.240075,34.1213656 C344.204313,56.2535673 320.420581,70.8595396 270.888881,77.9392824 C221.35718,85.0190252 182.911198,108.648124 155.550936,148.82658 L66.0528857,104.051777 Z" id="Rectangle-2_Top_Isometric-Copy-8" fill="#A6B0E3"></path>
                    <g id="Group-10" transform="translate(223.165908, 24.916667)">
                        <path d="M96.0308845,14.8765554 C118.179961,27.6135242 118.216034,48.1831001 96.2833984,60.8841396 C74.2786156,73.6211084 38.6380822,73.5672144 16.5791893,60.8841396 C6.67703708,55.1713665 1.2119148,47.895665 0.183822492,40.4582812 C-1.09678372,31.3142514 4.31422844,21.9366806 16.3988223,14.9304494 C28.4653794,7.94218304 44.7164525,4.79836139 60.5707182,5.5169492 C73.4850005,6.07385475 86.1467689,9.2176764 96.0308845,14.8765554" id="Fill-28" fill="#565382"></path>
                        <path d="M94.5044651,9.14455907 C115.801654,21.4569623 115.83634,41.3408857 94.7472669,53.6185572 C73.5888219,65.9309604 39.3190783,65.8788628 18.1086044,53.6185572 C8.58730413,48.0962099 3.33237886,41.0630317 2.34382856,33.8735607 C1.11247644,25.0343319 6.31537274,15.9693468 17.9351745,9.19665669 C29.5376332,2.4413325 45.1636651,-0.597695098 60.4081513,0.0969397804 C72.8257305,0.635281811 85.0005078,3.6743094 94.5044651,9.14455907" id="Fill-28-Copy-2" fill="#444170"></path>
                        <path d="M94.5044651,9.14455907 C115.801654,21.4569623 115.83634,41.3408857 94.7472669,53.6185572 C73.5888219,65.9309604 39.3190783,65.8788628 18.1086044,53.6185572 C8.58730413,48.0962099 3.33237886,41.0630317 2.34382856,33.8735607 C1.11247644,25.0343319 6.31537274,15.9693468 17.9351745,9.19665669 C29.5376332,2.4413325 45.1636651,-0.597695098 60.4081513,0.0969397804 C72.8257305,0.635281811 85.0005078,3.6743094 94.5044651,9.14455907" id="Fill-28-Copy-4" fill="#CBD1EF"></path>
                        <path d="M91.4516263,10.5229017 C111.04504,21.7738908 111.076951,39.9436829 91.675004,51.1629344 C72.2092346,62.4139236 40.6810705,62.3663171 21.1674344,51.1629344 C12.4078382,46.1166516 7.57330698,39.6897819 6.66384071,33.1200929 C5.53099675,25.0428665 10.3176613,16.7593456 21.007879,10.5705081 C31.682141,4.39753946 46.0580904,1.62049701 60.0830176,2.25524957 C71.5071905,2.7471828 82.7079856,5.52422526 91.4516263,10.5229017" id="Fill-28-Copy-5" fill="#444170"></path>
                        <path d="M66.2657064,25.1149722 C71.8029755,28.2992144 71.8119938,33.4416084 66.3288349,36.6168682 C60.8276392,39.8011104 51.9175058,39.7876369 46.4027826,36.6168682 C43.9272445,35.188675 42.560964,33.3697496 42.3039409,31.5104036 C41.9837893,29.2243962 43.3365424,26.8800035 46.3576908,25.1284457 C49.3743301,23.3813791 53.4370984,22.5954237 57.4006648,22.7750706 C60.6292354,22.914297 63.7946775,23.7002524 66.2657064,25.1149722" id="Fill-28-Copy-3" fill="#CBD1EF"></path>
                        <rect id="Rectangle" fill="#CBD1EF" x="5.41769042" y="28.1666667" width="101.85258" height="3.25"></rect>
                        <rect id="Rectangle-Copy-2" fill="#CBD1EF" transform="translate(56.343980, 30.875000) rotate(-78.000000) translate(-56.343980, -30.875000) " x="26.004914" y="29.25" width="60.6781327" height="3.25"></rect>
                    </g>
                    <g id="Group-7" transform="translate(128.898095, 74.750000)">
                        <path d="M96.0308845,14.8765554 C118.179961,27.6135242 118.216034,48.1831001 96.2833984,60.8841396 C74.2786156,73.6211084 38.6380822,73.5672144 16.5791893,60.8841396 C6.67703708,55.1713665 1.2119148,47.895665 0.183822492,40.4582812 C-1.09678372,31.3142514 4.31422844,21.9366806 16.3988223,14.9304494 C28.4653794,7.94218304 44.7164525,4.79836139 60.5707182,5.5169492 C73.4850005,6.07385475 86.1467689,9.2176764 96.0308845,14.8765554" id="Fill-28-Copy" fill="#565382"></path>
                        <path d="M94.5044651,9.14455907 C115.801654,21.4569623 115.83634,41.3408857 94.7472669,53.6185572 C73.5888219,65.9309604 39.3190783,65.8788628 18.1086044,53.6185572 C8.58730413,48.0962099 3.33237886,41.0630317 2.34382856,33.8735607 C1.11247644,25.0343319 6.31537274,15.9693468 17.9351745,9.19665669 C29.5376332,2.4413325 45.1636651,-0.597695098 60.4081513,0.0969397804 C72.8257305,0.635281811 85.0005078,3.6743094 94.5044651,9.14455907" id="Fill-28-Copy-9" fill="#444170"></path>
                        <path d="M94.5044651,9.14455907 C115.801654,21.4569623 115.83634,41.3408857 94.7472669,53.6185572 C73.5888219,65.9309604 39.3190783,65.8788628 18.1086044,53.6185572 C8.58730413,48.0962099 3.33237886,41.0630317 2.34382856,33.8735607 C1.11247644,25.0343319 6.31537274,15.9693468 17.9351745,9.19665669 C29.5376332,2.4413325 45.1636651,-0.597695098 60.4081513,0.0969397804 C72.8257305,0.635281811 85.0005078,3.6743094 94.5044651,9.14455907" id="Fill-28-Copy-8" fill="#CBD1EF"></path>
                        <path d="M91.4516263,10.5229017 C111.04504,21.7738908 111.076951,39.9436829 91.675004,51.1629344 C72.2092346,62.4139236 40.6810705,62.3663171 21.1674344,51.1629344 C12.4078382,46.1166516 7.57330698,39.6897819 6.66384071,33.1200929 C5.53099675,25.0428665 10.3176613,16.7593456 21.007879,10.5705081 C31.682141,4.39753946 46.0580904,1.62049701 60.0830176,2.25524957 C71.5071905,2.7471828 82.7079856,5.52422526 91.4516263,10.5229017" id="Fill-28-Copy-7" fill="#444170"></path>
                        <path d="M66.2657064,25.1149722 C71.8029755,28.2992144 71.8119938,33.4416084 66.3288349,36.6168682 C60.8276392,39.8011104 51.9175058,39.7876369 46.4027826,36.6168682 C43.9272445,35.188675 42.560964,33.3697496 42.3039409,31.5104036 C41.9837893,29.2243962 43.3365424,26.8800035 46.3576908,25.1284457 C49.3743301,23.3813791 53.4370984,22.5954237 57.4006648,22.7750706 C60.6292354,22.914297 63.7946775,23.7002524 66.2657064,25.1149722" id="Fill-28-Copy-6" fill="#CBD1EF"></path>
                        <rect id="Rectangle-Copy-4" fill="#CBD1EF" x="5.41769042" y="28.1666667" width="101.85258" height="3.25"></rect>
                        <rect id="Rectangle-Copy-3" fill="#CBD1EF" transform="translate(56.343980, 30.875000) rotate(-78.000000) translate(-56.343980, -30.875000) " x="26.004914" y="29.25" width="60.6781327" height="3.25"></rect>
                    </g>
                    <path d="M0.229360272,129.987411 C0.950345777,130.056541 1.78758092,129.842416 2.67958212,129.308854 C4.63289983,128.14053 6.31514487,125.763758 7.08736026,123.323259 C7.38121214,122.39686 7.54408352,121.463381 7.5418056,120.583008 C7.53269392,117.375427 5.34133342,116.08201 2.64769122,117.692881 C1.76714994,118.219851 0.942362195,118.992872 0.229360272,119.907034 L0.229360272,95.5898097 L29.5584327,82.5405078 L31.3986176,83.4340141 L29.0849568,133.258488 L2.41000855,147.237512 L0.229360272,146.148299 L0.229360272,129.987411 Z M14.5666101,101.442881 C13.641774,101.996359 12.7784418,102.821267 12.0415341,103.796051 C10.6383345,105.657108 9.70210874,108.062204 9.70894251,110.166367 C9.71805419,113.372767 11.9094147,114.667365 14.598501,113.058854 C16.5518187,111.89053 18.2340638,109.513758 19.0062792,107.073259 C19.3001311,106.14686 19.4630024,105.213381 19.4607245,104.333008 C19.4516128,101.125427 17.2602523,99.8320097 14.5666101,101.442881 Z M14.5666101,123.109547 C13.641774,123.663026 12.7784418,124.487934 12.0415341,125.462717 C10.6383345,127.323775 9.70210874,129.72887 9.70894251,131.833034 C9.71805419,135.039434 11.9094147,136.334032 14.598501,134.725521 C16.5518187,133.557197 18.2340638,131.180424 19.0062792,128.739925 C19.3001311,127.813527 19.4630024,126.880048 19.4607245,125.999674 C19.4516128,122.792094 17.2602523,121.498676 14.5666101,123.109547 Z" id="Combined-Shape" fill="#ADB3DA"></path>
                    <path d="M229.667136,232.916667 C228.234755,233.656026 227.512077,234.014806 227.499101,233.993008 C227.364345,233.925767 161.9912,200.586483 31.379667,133.975156 C29.938146,111.718406 29.2173855,95.2304121 29.2173855,84.5111745 C29.2429632,84.4728625 29.9637236,84.1080266 31.379667,83.4166667 L229.667136,182.358177 L229.667136,232.916667 Z" id="Rectangle-2_Left_Isometric-Copy-3" fill="#ADB3DA"></path>
                    <polygon id="Rectangle-2_Left_Isometric-Copy-4" fill="#828ED4" points="227.50006 234 29.2125908 135.05849 29.2125908 84.5 227.50006 183.44151"></polygon>
                    <path d="M123.903242,176.48727 L123.903242,176.48727 C122.976155,175.993755 122.396866,175.02913 122.396866,173.978869 L122.396866,139.289848 C122.396866,138.723857 122.855692,138.26503 123.421684,138.26503 C123.589626,138.26503 123.754996,138.306304 123.903242,138.38522 L123.903242,138.38522 C124.83033,138.878734 125.409619,139.84336 125.409619,140.89362 L125.409619,175.582642 C125.409619,176.148633 124.950792,176.607459 124.384801,176.607459 C124.216858,176.607459 124.051489,176.566186 123.903242,176.48727 Z" id="Rectangle-2_Left_Isometric-Copy-7" fill="#444170"></path>
                    <path d="M129.320933,179.73727 L129.320933,179.73727 C128.393845,179.243755 127.814556,178.27913 127.814556,177.228869 L127.814556,142.539848 C127.814556,141.973857 128.273383,141.51503 128.839374,141.51503 C129.007317,141.51503 129.172686,141.556304 129.320933,141.63522 L129.320933,141.63522 C130.24802,142.128734 130.827309,143.09336 130.827309,144.14362 L130.827309,178.832642 C130.827309,179.398633 130.368483,179.857459 129.802492,179.857459 C129.634549,179.857459 129.46918,179.816186 129.320933,179.73727 Z" id="Rectangle-2_Left_Isometric-Copy-8" fill="#444170"></path>
                    <path d="M134.738623,182.98727 L134.738623,182.98727 C133.811536,182.493755 133.232247,181.52913 133.232247,180.478869 L133.232247,145.789848 C133.232247,145.223857 133.691073,144.76503 134.257064,144.76503 C134.425007,144.76503 134.590377,144.806304 134.738623,144.88522 L134.738623,144.88522 C135.665711,145.378734 136.245,146.34336 136.245,147.39362 L136.245,182.082642 C136.245,182.648633 135.786173,183.107459 135.220182,183.107459 C135.052239,183.107459 134.88687,183.066186 134.738623,182.98727 Z" id="Rectangle-2_Left_Isometric-Copy-9" fill="#444170"></path>
                    <path d="M2.39643777,129.468548 C2.4901481,129.418913 2.58455433,129.365696 2.67958212,129.308854 C4.63289983,128.14053 6.31514487,125.763758 7.08736026,123.323259 C7.38121214,122.39686 7.54408352,121.463381 7.5418056,120.583008 C7.53269392,117.375427 5.34133342,116.08201 2.64769122,117.692881 C2.56341295,117.743318 2.47964542,117.796009 2.39643777,117.850863 L2.39643777,96.673143 L29.2520075,84.5224455 L29.3414693,135.112359 L2.39643777,147.231633 L2.39643777,129.468548 Z M14.5666101,101.442881 C13.641774,101.996359 12.7784418,102.821267 12.0415341,103.796051 C10.6383345,105.657108 9.70210874,108.062204 9.70894251,110.166367 C9.71805419,113.372767 11.9094147,114.667365 14.598501,113.058854 C16.5518187,111.89053 18.2340638,109.513758 19.0062792,107.073259 C19.3001311,106.14686 19.4630024,105.213381 19.4607245,104.333008 C19.4516128,101.125427 17.2602523,99.8320097 14.5666101,101.442881 Z M14.5666101,123.109547 C13.641774,123.663026 12.7784418,124.487934 12.0415341,125.462717 C10.6383345,127.323775 9.70210874,129.72887 9.70894251,131.833034 C9.71805419,135.039434 11.9094147,136.334032 14.598501,134.725521 C16.5518187,133.557197 18.2340638,131.180424 19.0062792,128.739925 C19.3001311,127.813527 19.4630024,126.880048 19.4607245,125.999674 C19.4516128,122.792094 17.2602523,121.498676 14.5666101,123.109547 Z" id="Combined-Shape" fill="#7D88CB"></path>
                    <g id="Group-6" transform="translate(149.485318, 153.833333)">
                        <path d="M32.3419701,30.7588049 C31.717504,30.8853262 31.2801861,30.8853262 31.0300163,30.7588049 C30.7798465,30.6322835 20.4365077,25.1800539 0,14.402116 L0,0 L32.3419701,16.3566889 L32.3419701,30.7588049 Z" id="Rectangle-2_Left_Isometric-Copy" fill="#565382"></path>
                        <path d="M31.0769345,30.384065 C10.3589782,19.5703455 0,14.1200421 0,14.0331546 C0,13.9462671 0,9.72386294 0,1.36594203 L31.0769345,17.1576319 L31.0769345,30.384065 Z" id="Rectangle-2_Left_Isometric-Copy-2" fill="#9199C6"></path>
                        <path d="M5.96553165,6.73096024 C5.06765092,6.19400322 4.33719742,6.62514234 4.33416019,7.69433587 C4.33340089,7.9877937 4.38769135,8.29895341 4.48564197,8.60775286 C4.74304711,9.42125258 5.30379545,10.21351 5.95490135,10.6029514 C6.85126347,11.1391217 7.58171697,10.7075892 7.5847542,9.63878901 C7.58703212,8.9374012 7.27495687,8.13570274 6.80722365,7.5153502 C6.56158778,7.19042236 6.27381036,6.91545317 5.96553165,6.73096024" id="Fill-33" fill="#565382"></path>
                        <path d="M12.4667602,9.98096024 C11.5688794,9.44400322 10.8384259,9.87514234 10.8353887,10.9443359 C10.8346294,11.2377937 10.8889198,11.5489534 10.9868705,11.8577529 C11.2442756,12.6712526 11.805024,13.46351 12.4561299,13.8529514 C13.352492,14.3891217 14.0829455,13.9575892 14.0859827,12.888789 C14.0882606,12.1874012 13.7761854,11.3857027 13.3084522,10.7653502 C13.0628163,10.4404224 12.7750389,10.1654532 12.4667602,9.98096024" id="Fill-33-Copy-4" fill="#565382"></path>
                        <path d="M18.9679887,13.2309602 C18.0701079,12.6940032 17.3396544,13.1251423 17.3366172,14.1943359 C17.3358579,14.4877937 17.3901484,14.7989534 17.488099,15.1077529 C17.7455041,15.9212526 18.3062525,16.71351 18.9573584,17.1029514 C19.8537205,17.6391217 20.584174,17.2075892 20.5872112,16.138789 C20.5894891,15.4374012 20.2774139,14.6357027 19.8096807,14.0153502 C19.5640448,13.6904224 19.2762674,13.4154532 18.9679887,13.2309602" id="Fill-33-Copy-5" fill="#565382"></path>
                        <path d="M25.4692172,16.4809602 C24.5713364,15.9440032 23.8408829,16.3751423 23.8378457,17.4443359 C23.8370864,17.7377937 23.8913769,18.0489534 23.9893275,18.3577529 C24.2467326,19.1712526 24.807481,19.96351 25.4585869,20.3529514 C26.354949,20.8891217 27.0854025,20.4575892 27.0884397,19.388789 C27.0907176,18.6874012 26.7786424,17.8857027 26.3109092,17.2653502 C26.0652733,16.9404224 25.7774959,16.6654532 25.4692172,16.4809602" id="Fill-33-Copy-10" fill="#565382"></path>
                        <path d="M9.2161459,13.2309602 C8.31826517,12.6940032 7.58781167,13.1251423 7.58477444,14.1943359 C7.58401514,14.4877937 7.6383056,14.7989534 7.73625622,15.1077529 C7.99366136,15.9212526 8.5544097,16.71351 9.2055156,17.1029514 C10.1018777,17.6391217 10.8323312,17.2075892 10.8353684,16.138789 C10.8376464,15.4374012 10.5255711,14.6357027 10.0578379,14.0153502 C9.81220203,13.6904224 9.52442461,13.4154532 9.2161459,13.2309602" id="Fill-33-Copy-11" fill="#565382"></path>
                        <path d="M15.7173744,16.4809602 C14.8194937,15.9440032 14.0890402,16.3751423 14.0860029,17.4443359 C14.0852436,17.7377937 14.1395341,18.0489534 14.2374847,18.3577529 C14.4948899,19.1712526 15.0556382,19.96351 15.7067441,20.3529514 C16.6031062,20.8891217 17.3335597,20.4575892 17.3365969,19.388789 C17.3388749,18.6874012 17.0267996,17.8857027 16.5590664,17.2653502 C16.3134305,16.9404224 16.0256531,16.6654532 15.7173744,16.4809602" id="Fill-33-Copy-12" fill="#565382"></path>
                        <path d="M22.2186029,19.7309602 C21.3207222,19.1940032 20.5902687,19.6251423 20.5872314,20.6943359 C20.5864721,20.9877937 20.6407626,21.2989534 20.7387132,21.6077529 C20.9961184,22.4212526 21.5568667,23.21351 22.2079726,23.6029514 C23.1043347,24.1391217 23.8347882,23.7075892 23.8378255,22.638789 C23.8401034,21.9374012 23.5280281,21.1357027 23.0602949,20.5153502 C22.814659,20.1904224 22.5268816,19.9154532 22.2186029,19.7309602" id="Fill-33-Copy-13" fill="#565382"></path>
                    </g>
                    <g id="Group-6-Copy" transform="translate(149.485318, 173.333333)">
                        <path d="M32.3419701,30.7588049 C31.717504,30.8853262 31.2801861,30.8853262 31.0300163,30.7588049 C30.7798465,30.6322835 20.4365077,25.1800539 0,14.402116 L0,0 L32.3419701,16.3566889 L32.3419701,30.7588049 Z" id="Rectangle-2_Left_Isometric-Copy" fill="#565382"></path>
                        <path d="M31.0769345,30.384065 C10.3589782,19.5703455 0,14.1200421 0,14.0331546 C0,13.9462671 0,9.72386294 0,1.36594203 L31.0769345,17.1576319 L31.0769345,30.384065 Z" id="Rectangle-2_Left_Isometric-Copy-2" fill="#9199C6"></path>
                        <path d="M5.96553165,6.73096024 C5.06765092,6.19400322 4.33719742,6.62514234 4.33416019,7.69433587 C4.33340089,7.9877937 4.38769135,8.29895341 4.48564197,8.60775286 C4.74304711,9.42125258 5.30379545,10.21351 5.95490135,10.6029514 C6.85126347,11.1391217 7.58171697,10.7075892 7.5847542,9.63878901 C7.58703212,8.9374012 7.27495687,8.13570274 6.80722365,7.5153502 C6.56158778,7.19042236 6.27381036,6.91545317 5.96553165,6.73096024" id="Fill-33" fill="#565382"></path>
                        <path d="M12.4667602,9.98096024 C11.5688794,9.44400322 10.8384259,9.87514234 10.8353887,10.9443359 C10.8346294,11.2377937 10.8889198,11.5489534 10.9868705,11.8577529 C11.2442756,12.6712526 11.805024,13.46351 12.4561299,13.8529514 C13.352492,14.3891217 14.0829455,13.9575892 14.0859827,12.888789 C14.0882606,12.1874012 13.7761854,11.3857027 13.3084522,10.7653502 C13.0628163,10.4404224 12.7750389,10.1654532 12.4667602,9.98096024" id="Fill-33-Copy-4" fill="#565382"></path>
                        <path d="M18.9679887,13.2309602 C18.0701079,12.6940032 17.3396544,13.1251423 17.3366172,14.1943359 C17.3358579,14.4877937 17.3901484,14.7989534 17.488099,15.1077529 C17.7455041,15.9212526 18.3062525,16.71351 18.9573584,17.1029514 C19.8537205,17.6391217 20.584174,17.2075892 20.5872112,16.138789 C20.5894891,15.4374012 20.2774139,14.6357027 19.8096807,14.0153502 C19.5640448,13.6904224 19.2762674,13.4154532 18.9679887,13.2309602" id="Fill-33-Copy-5" fill="#565382"></path>
                        <path d="M25.4692172,16.4809602 C24.5713364,15.9440032 23.8408829,16.3751423 23.8378457,17.4443359 C23.8370864,17.7377937 23.8913769,18.0489534 23.9893275,18.3577529 C24.2467326,19.1712526 24.807481,19.96351 25.4585869,20.3529514 C26.354949,20.8891217 27.0854025,20.4575892 27.0884397,19.388789 C27.0907176,18.6874012 26.7786424,17.8857027 26.3109092,17.2653502 C26.0652733,16.9404224 25.7774959,16.6654532 25.4692172,16.4809602" id="Fill-33-Copy-10" fill="#565382"></path>
                        <path d="M9.2161459,13.2309602 C8.31826517,12.6940032 7.58781167,13.1251423 7.58477444,14.1943359 C7.58401514,14.4877937 7.6383056,14.7989534 7.73625622,15.1077529 C7.99366136,15.9212526 8.5544097,16.71351 9.2055156,17.1029514 C10.1018777,17.6391217 10.8323312,17.2075892 10.8353684,16.138789 C10.8376464,15.4374012 10.5255711,14.6357027 10.0578379,14.0153502 C9.81220203,13.6904224 9.52442461,13.4154532 9.2161459,13.2309602" id="Fill-33-Copy-11" fill="#565382"></path>
                        <path d="M15.7173744,16.4809602 C14.8194937,15.9440032 14.0890402,16.3751423 14.0860029,17.4443359 C14.0852436,17.7377937 14.1395341,18.0489534 14.2374847,18.3577529 C14.4948899,19.1712526 15.0556382,19.96351 15.7067441,20.3529514 C16.6031062,20.8891217 17.3335597,20.4575892 17.3365969,19.388789 C17.3388749,18.6874012 17.0267996,17.8857027 16.5590664,17.2653502 C16.3134305,16.9404224 16.0256531,16.6654532 15.7173744,16.4809602" id="Fill-33-Copy-12" fill="#565382"></path>
                        <path d="M22.2186029,19.7309602 C21.3207222,19.1940032 20.5902687,19.6251423 20.5872314,20.6943359 C20.5864721,20.9877937 20.6407626,21.2989534 20.7387132,21.6077529 C20.9961184,22.4212526 21.5568667,23.21351 22.2079726,23.6029514 C23.1043347,24.1391217 23.8347882,23.7075892 23.8378255,22.638789 C23.8401034,21.9374012 23.5280281,21.1357027 23.0602949,20.5153502 C22.814659,20.1904224 22.5268816,19.9154532 22.2186029,19.7309602" id="Fill-33-Copy-13" fill="#565382"></path>
                    </g>
                    <g id="Group-6-Copy-2" transform="translate(45.465662, 112.666667)">
                        <path d="M63.9287469,43.1619022 C62.7990023,43.3904771 62.0078343,43.3904771 61.5552428,43.1619022 C61.1026513,42.9333273 40.5957336,32.1168274 0.0344897136,10.7124026 L0.0344897136,0.350676117 L63.9287469,32.8001757 L63.9287469,43.1619022 Z" id="Rectangle-2_Left_Isometric-Copy" fill="#565382"></path>
                        <path d="M62.1538691,43.4347967 C20.7179564,21.8073577 0,10.9067508 0,10.7329758 C0,10.5592009 0,7.89217033 0,2.73188406 L62.1538691,34.3152639 L62.1538691,43.4347967 Z" id="Rectangle-2_Left_Isometric-Copy-2" fill="#444170"></path>
                    </g>
                </g>
            </g>
        </g>
    </g>
</svg>