<?xml version="1.0" encoding="UTF-8"?>
<svg viewBox="0 0 24 24" xmlns="http://www.w3.org/2000/svg"><g fill="#FFF"><circle cx="12" cy="12" r="12" opacity=".29"/><path d="M16.47 13.654c-.517-.306-1.1-.395-1.678-.416-.484-.017-1.207-.335-1.207-1.237a1.24 1.24 0 0 1 1.207-1.24c.578-.02 1.161-.109 1.679-.415 1.285-.76 1.852-2.356 1.345-3.784-.508-1.429-1.944-2.278-3.405-2.014-1.462.264-2.528 1.564-2.528 3.085 0 .607.212 1.166.48 1.683.226.436.34 1.245-.435 1.704-.578.341-1.298.125-1.658-.464-.303-.498-.67-.965-1.183-1.269a3.008 3.008 0 0 0-3.872.7 3.191 3.191 0 0 0 0 4.027 3.007 3.007 0 0 0 3.872.699c.514-.303.88-.77 1.184-1.268.25-.409.872-.93 1.657-.465.576.341.754 1.088.435 1.704-.27.517-.48 1.076-.48 1.683 0 1.52 1.066 2.821 2.528 3.085 1.461.264 2.897-.585 3.405-2.014.507-1.428-.06-3.024-1.345-3.784h-.001z"/></g></svg>