<?xml version="1.0" encoding="UTF-8"?>
<svg viewBox="0 0 24 24" xmlns="http://www.w3.org/2000/svg"><path fill="#FFF" d="M18.935 2.227c-.09-.151-.214-.227-.368-.227h-2.604c-.191 0-.323.09-.396.27l-2.604 5.966c-.064.161-.189.45-.375.867-.186.416-.325.738-.416.965a36.277 36.277 0 0 0-.763-1.775L8.477 2.256C8.386 2.086 8.254 2 8.081 2H5.436a.424.424 0 0 0-.382.227.501.501 0 0 0 0 .455l4.377 8.21H6.513a.411.411 0 0 0-.306.135.446.446 0 0 0-.13.32v1.477a.44.44 0 0 0 .436.454h3.927v1.208H6.513a.411.411 0 0 0-.306.135.446.446 0 0 0-.13.32v1.462a.44.44 0 0 0 .436.455h3.927v4.688a.439.439 0 0 0 .437.454h2.345c.118 0 .22-.045.307-.135a.447.447 0 0 0 .13-.32v-4.687h3.953a.439.439 0 0 0 .436-.455V14.94a.445.445 0 0 0-.129-.32.41.41 0 0 0-.307-.134h-3.954v-1.208h3.954a.439.439 0 0 0 .436-.454v-1.477a.445.445 0 0 0-.129-.32.411.411 0 0 0-.307-.135h-2.931l4.268-8.224c.072-.161.068-.308-.014-.44z" opacity=".8"/></svg>